<?xml version="1.0" encoding="utf-8"?>
<!-- Generator: Adobe Illustrator 21.1.0, SVG Export Plug-In . SVG Version: 6.00 Build 0)  -->
<svg version="1.1" id="Layer_1" xmlns="http://www.w3.org/2000/svg" xmlns:xlink="http://www.w3.org/1999/xlink" x="0px" y="0px"
	 viewBox="0 0 500 500" style="enable-background:new 0 0 500 500;" xml:space="preserve">
<style type="text/css">
	.st0{fill:#0000FF;}
	.st1{fill:#EDFF24;}
</style>
<title>Artboard 1</title>
<path class="st0" d="M458.5,376.6l1.8,0.1l0.2,0.5l-2.7,1.4L346,400.4l-1.2-0.4L223.5,295.4l-2.7-0.5l-0.1-2.7l0.8-0.6L332.9,272
	l2.5,0.2l-0.2,1.3L458.5,376.6L458.5,376.6z M454.7,377.4l0.1-0.5l-20-17.9l-0.5-0.2L407,335.5l-0.8-1.2l-73.1-60.1l-0.9-0.3
	l-107.8,20.3l69,57l1.2,1.4l14,11.7l1.6,0.8l35.9,30.9l2.4,0.7L454.7,377.4L454.7,377.4z"/>
<path class="st0" d="M115.6,299.3L54.5,222l0.5-1.6l1.8-0.8L211,199.1l2.3,0.8l78.4,67.5l-1.3,1.4l-149,25.9l-2.3-0.2L115.6,299.3
	L115.6,299.3z M287.9,266.9l-0.4-0.6L229,217.5l-1.2-0.7l-5.9-6.2l-2.3-1.6l-6.7-6.8l-2-1L58.2,222.1l58.2,73.8l1.4,0.6L287.9,266.9
	L287.9,266.9z"/>
<path class="st0" d="M254.4,330.5l-97.3,102.3l-1,0.1l-106.3-52L49,380l1.7-3.9l112.2-82.5l1.3,0.2l1,0.8l87.1,34.3l0.9,0.1
	L254.4,330.5L254.4,330.5z M155.1,430.2l94.1-98l0.1-0.9l-87-34.8l-0.9,0.3L51.9,379L155.1,430.2z"/>
<path class="st0" d="M435.5,243.8l-130.9,21.9l-1.4-0.6l-74.6-63.5l-2.8-3.6l1.1-0.9l138.3-18.4l1.4,0.4l85,60.2l0.5,1.4l-1.2,1
	l-15.2,2.3L435.5,243.8L435.5,243.8z M393.3,201.2l-2-0.8l-27-19.6l-135.2,18.1l0.4,0.8l75.1,63.2l1.5,0.4l142-23.7L393.3,201.2
	L393.3,201.2z"/>
<path class="st0" d="M206.9,180.9l-72,9.5l-3.7-1.4L41.9,115l-2.4-3.5l0.9-1.2l112.6-13.4l2.7,1.6l0.7,1.2l10.2,8l1.1,1.5l78.8,65.8
	l0.8,1.2l-0.7,1.3l-1.7-0.5L206.9,180.9L206.9,180.9L206.9,180.9z M242.8,174.7l-89.2-74.4l-1.1-0.3l-108,11.8l0.5,0.7l7.2,5.7
	l1.2,0.6l17.6,16.8H71l62.2,52.4l1,0.3L242.8,174.7L242.8,174.7z"/>
<path class="st0" d="M440.9,162.8l-12.5,2.8l-0.6-0.2l-1.3,0.5l-13.3,1.8l-1-0.2l-0.6,0.4l-8.5,1.2l-2.7-0.2l-0.2-0.1l-0.1,0.2
	l-7.5,0.5l-0.5,0.3l-105.4,14.8l-1-0.4l-67.1-56.6l1.9-1.4l142.6-18.8l3.4,0.8l73.1,52.1L440.9,162.8L440.9,162.8z M222.2,128
	l-0.1,0.4l64.7,54.2l0.8,0.2L437,161.4l-71.3-51.5l-1.4-0.4l-19.9,3.1l-1.3-0.1l-3.5,0.9l-1.3-0.2L222.2,128z"/>
<polygon class="st1" points="454.7,377.4 348.4,396.7 346.1,396 310.2,365.2 308.6,364.4 294.6,352.8 293.5,351.3 224.4,294.3 
	332.2,274 333.1,274.3 406.2,334.4 406.9,335.5 434.4,358.7 434.9,358.9 454.9,376.9 454.7,377.4 "/>
<polygon class="st1" points="287.9,266.9 117.7,296.4 116.3,295.9 58.2,222.1 210.8,201.3 212.9,202.4 219.6,209.1 221.9,210.7 
	227.8,216.8 229,217.5 287.5,266.3 287.9,266.9 "/>
<polygon class="st1" points="155.1,430.2 51.9,379 161.4,296.8 162.3,296.5 249.3,331.3 249.2,332.1 155.1,430.2 "/>
<polygon class="st1" points="393.3,201.2 448.1,239.5 306.1,263.2 304.6,262.8 229.5,199.6 229.1,198.9 364.4,180.8 391.4,200.4 
	393.3,201.2 "/>
<polygon class="st1" points="242.8,174.6 134.2,188.4 133.2,188.1 71,135.7 70.9,135.6 53.4,118.9 52.2,118.2 45,112.5 44.5,111.8 
	152.4,100 153.6,100.3 242.8,174.6 "/>
<polygon class="st1" points="222.2,128 338.4,113.1 339.7,113.3 343.1,112.4 344.4,112.5 364.3,109.5 365.7,109.9 437,161.4 
	287.6,182.9 286.8,182.7 222.1,128.4 222.2,128 "/>
</svg>
