<?xml version="1.0" encoding="utf-8"?>
<!-- Generator: Adobe Illustrator 21.1.0, SVG Export Plug-In . SVG Version: 6.00 Build 0)  -->
<svg version="1.1" id="Layer_1" xmlns="http://www.w3.org/2000/svg" xmlns:xlink="http://www.w3.org/1999/xlink" x="0px" y="0px"
	 viewBox="0 0 319 324" style="enable-background:new 0 0 319 324;" xml:space="preserve">
<style type="text/css">
	.st0{fill:#EDFF24;}
	.st1{fill:#0000FF;}
</style>
<title>Artboard 1</title>
<polygon class="st0" points="156.1,156.7 167.1,172.2 81.6,223.8 81.4,223.6 108.6,171 113.3,161.9 115,138.6 111.2,106.7 106,97.1 
	90.4,68.1 95.4,65.5 96.5,66 150,148.5 140.1,148.6 138.3,149.9 137.9,150.8 139.5,154.6 155.2,155.4 "/>
<polygon class="st0" points="112.3,131.6 111.1,160.8 110.4,162.6 108,156.1 108,152.5 110.2,143.9 110.5,136.4 106.9,134.5 
	104,137.8 102.4,146.3 98.2,141.8 98,140.5 109.7,113.3 110.2,113.3 "/>
<polygon class="st0" points="96,142.7 100.5,148 96.7,152.5 95.4,152.7 90.8,148.3 89,138.6 89.4,136.5 94.5,128.9 98.7,129.4 
	100.3,131.8 95.5,140.5 "/>
<polygon class="st0" points="105.5,156.4 108.4,163.1 107.6,170.5 78.4,225.3 12.5,107.1 13.3,101.7 34.5,60.2 38.9,51.1 41,47.3 
	45.5,37.2 51.4,25.8 53.8,21.4 56,18.1 57.3,15.2 59.5,18.8 65.9,30.3 68.8,35.5 73,42.5 77.4,50 81.5,57.9 104.8,97.8 107.2,107.8 
	106.1,118.7 105.3,121.1 99,121.2 90.1,118.2 87.3,120.2 77.4,136.4 73.3,138.8 64.4,151.3 63,155.6 62.7,183.3 66.9,191.6 
	68.6,192.6 76.3,192.9 82.8,189.3 "/>
<path class="st0" d="M291.5,105.8c-0.2,4.1-0.6,8.2-0.9,12.3c-0.2,2.1-0.2,4.1-0.4,6.2c-0.1,1.7-0.4,3.3-0.6,5
	c-0.2,1.9-0.3,3.7-0.6,5.6c0-2.3,0.1-4.6,0-6.9c-0.1-3.1-0.3-6.2-0.5-9.3v-1.4c0-3.3,0.1-6.5,0.1-9.8c0-1.5-0.4-3-0.5-4.5
	c-0.2-3.5-0.3-7.1-0.6-10.7c-0.4-4.1-1-8.2-1.3-12.3c-0.2-3.1-0.3-6.2-0.3-9.3c-0.1-4.5-0.1-8.9-0.1-13.3c0-0.6,0.3-1.3,0.8-1.7
	c1.4-1.4,3.1-2.5,5-3.1c1.2-0.6,2.4-1.2,3.6-1.9l0.2,0.2c-0.4,1.5-0.7,3-0.8,4.5c-0.8,4.4-1.5,8.9-2,13.1s-0.8,8.4-1,12.7
	c-0.1,3.2,0.1,6.5,0.1,9.7c0,2.9-0.3,5.9-0.4,8.9C291.3,101.8,291.6,103.8,291.5,105.8z"/>
<polygon class="st0" points="286.6,128.8 287,140.7 286.7,141.6 282.2,144.2 278.6,146.2 270.1,150.9 265,153.6 263.2,154.3 
	262.1,146.2 262.8,142.6 265.2,139.6 272.2,131.9 275.6,128.1 277,123.5 277.3,121.8 277.8,115.2 278.2,109 278.3,103.7 278.6,96.8 
	278.7,92.2 279.1,80.4 279.4,73.5 279.6,65.4 279.6,53.4 279.5,52.8 284.5,49.8 284.2,52.5 283.7,70.9 284,79.9 285,89.7 
	285.3,93.3 285.7,100.1 286.2,104.9 286.2,105.3 286.1,115.8 286.2,117.7 "/>
<path class="st0" d="M275.5,124.7c-0.1,0.9-0.3,1.8-1.5,2c-0.2-0.5-0.3-1-0.5-1.5c-0.3-2.8-0.6-5.7-0.8-8.6c-0.3-4-0.6-7.9-0.7-11.9
	s0-7.9,0-11.8c0-2.7,0.1-5.5-0.1-8.3c-0.2-3.6-0.7-7.1-1-10.6c-0.4-4-0.5-8.1-0.8-12.2c-0.2-2.6-0.6-5.1-0.8-7.7
	c-0.1-1.8-0.2-3.7-0.2-5.5c0.1-0.5,0.3-1,0.7-1.3c1.7-1.9,3.3-3.8,4.9-5.7c0.8-0.9,1.5-2,2.3-3c0.1-0.2,0.3-0.4,0.5-0.5v9.4
	c0,5.1,0.1,10.2,0,15.3c0,4.6-0.3,9.2-0.4,13.8c-0.1,3.5,0,7-0.1,10.5c0,1.3-0.4,2.5-0.4,3.8c-0.1,4-0.1,8-0.2,12
	c0,3.8,0,7.6-0.2,11.4C276.1,117.8,275.8,121.2,275.5,124.7z"/>
<polygon class="st0" points="272.5,124.9 273.6,129.3 253,152.1 251.1,121.5 248.6,118.9 244.1,118.4 242.9,120 243.1,123.5 
	242.1,124.9 237.7,126.7 237.2,127.6 238.4,136.9 236.4,162.6 236.1,162.8 231.4,79.9 231.6,79.2 267.3,37.2 267.6,37.4 268.6,62.2 
	269.3,74 270.5,100.9 271.1,106.7 271.6,113.1 "/>
<polygon class="st0" points="208.4,205 211.3,257.3 209.2,254.9 204.9,207.8 205.2,207.2 "/>
<polygon class="st0" points="198.2,202 198.8,205.3 135.2,233 135.2,230.9 "/>
<polygon class="st0" points="209.6,258.2 209.6,258.4 171.8,274.5 174.4,259.8 177.1,254.8 178.1,251.3 178.4,246.9 174.3,241.5 
	172.7,240.5 169.6,241.7 168.8,250.3 166.4,254.2 164.5,259.5 164.1,263.1 158.8,276.7 158.2,277.4 149.2,280.6 135,234.6 
	202.7,205.1 207.3,254.4 "/>
<path class="st1" d="M286.2,80c0.3,4.1,0.9,8.2,1.3,12.3c0.3,3.6,0.4,7.2,0.6,10.7c0.1,1.5,0.5,3,0.5,4.5c0,3.3-0.1,6.5-0.1,9.8v1.4
	c0.2,3.1,0.4,6.2,0.5,9.3c0.1,2.3,0,4.6,0,6.9c0.3-1.9,0.4-3.7,0.6-5.6c0.2-1.7,0.5-3.3,0.6-5c0.2-2.1,0.2-4.1,0.4-6.2
	c0.3-4.1,0.7-8.2,0.9-12.3c0.1-2-0.2-4-0.2-6c0.1-3,0.4-6,0.4-8.9c0-3.2-0.2-6.5-0.1-9.7c0.2-4.3,0.5-8.5,1-12.7
	c0.5-4.2,1.2-8.7,2-13.1c0.1-1.5,0.4-3,0.8-4.5l-0.2-0.2c-1.2,0.7-2.4,1.3-3.6,1.9c-1.9,0.6-3.6,1.7-5,3.1c-0.5,0.4-0.8,1.1-0.8,1.7
	c0,4.4,0,8.8,0.1,13.3C285.9,73.8,286,76.9,286.2,80z M269.6,44.2l1.5-1.5l6.5-7l1.2-0.6l0.2,1.3l0.1,9.9l0.5,4.7l2.1-1.5l2.8-1.6
	l0.5-0.2l0.9-0.6l0.2,1.2l-0.2,4.9l11.9-4.6l-0.9,4.9L295.2,64l-0.5,3.3l-0.9,12.2l-0.3,13.9l-0.2,7.8v6.4l-0.7,7.4l-0.5,6.7
	l-0.7,6.9l-0.5,6.4l-0.5,3.8l-0.1,1.1l-1.9,3.3l-7.9,4.8l-7.8,3.8l-1,1.7l-2.6,7.7l0.1,5l0.5,3.4l-0.6,4.1l-8.8,19.3l-6.2,7.5
	l-9.5,7.3l-9.5-2.4l-2.5-12.2l0.6-17l-3.1-10.4l1.9-6.1l1.1-1.5l-2.9-78.4l0.7-1.7l36.5-43.6l2.1-0.9L269.6,44.2z M270.1,150.9
	l8.5-4.7l3.6-2l4.5-2.6l0.3-0.9l-0.4-11.9l-0.4-11.1l-0.1-1.9l0.1-10.5v-0.4l-0.5-4.8l-0.4-6.8l-0.3-3.6l-1-9.8l-0.3-9l0.5-18.4
	l0.3-2.7l-5,3l0.1,0.6v12l-0.2,8.1l-0.3,6.9l-0.4,11.8l-0.1,4.6l-0.3,6.9l-0.1,5.3l-0.4,6.2l-0.5,6.6l-0.3,1.7l-1.4,4.6l-3.4,3.8
	l-7,7.7l-2.4,3l-0.7,3.6l1.1,8.1l1.8-0.7L270.1,150.9z M271.1,106.7l-0.6-5.8L269.3,74l-0.7-11.8l-1-24.8l-0.3-0.2l-35.7,42
	l-0.2,0.7l4.7,82.9l0.3-0.2l2-25.7l-1.2-9.3l0.5-0.9l4.4-1.8l1-1.4l-0.2-3.5l1.2-1.6l4.5,0.5l2.5,2.6l1.9,30.6l20.6-22.8l-1.1-4.4
	l-0.9-11.8L271.1,106.7z M270.9,74c0.3,3.5,0.8,7,1,10.6c0.2,2.8,0.1,5.6,0.1,8.3c0,3.9-0.1,7.8,0,11.8s0.4,7.9,0.7,11.9
	c0.2,2.9,0.5,5.8,0.8,8.6c0.2,0.5,0.3,1,0.5,1.5c1.2-0.2,1.4-1.1,1.5-2c0.3-3.5,0.6-6.9,0.7-10.4c0.2-3.8,0.2-7.6,0.2-11.4
	c0.1-4,0.1-8,0.2-12c0-1.3,0.4-2.5,0.4-3.8c0.1-3.5,0-7,0.1-10.5c0.1-4.6,0.4-9.2,0.4-13.8c0.1-5.1,0-10.2,0-15.3v-9.4
	c-0.2,0.1-0.4,0.3-0.5,0.5c-0.8,1-1.5,2.1-2.3,3c-1.6,1.9-3.2,3.8-4.9,5.7c-0.4,0.3-0.6,0.8-0.7,1.3c0,1.8,0.1,3.7,0.2,5.5
	c0.2,2.6,0.6,5.1,0.8,7.7C270.4,65.9,270.5,70,270.9,74z"/>
<path class="st1" d="M209.2,254.9l2.1,2.4l-2.9-52.3l-3.2,2.2l-0.3,0.6L209.2,254.9z M198.2,202l-63,28.9v2.1l63.6-27.7L198.2,202z
	 M157.7,280.1l-4.9,1.8l-1.3,0.9l-3.6-0.6l-14.5-48.9l1.3-3.1l63.7-30.8l1.1,0.1l1.3,1l0.2,0.8l-0.2,3l1.9-0.6l2.3,1l3.5-2l2.3,1.1
	l2.3,53.7l-1.9,2.3l-6.2,3.7l-1.4,1.8l-2.6,7.4l0.8,14l-2.7,9.5l-0.4,4.3l-2.6,5.3l-10.6,3.7l-6.9-2l-3.5-1.4l-6.3-4.4l-9.8-20.8
	L157.7,280.1z M149.2,280.6l9-3.2l0.6-0.7l5.3-13.6l0.4-3.6l1.9-5.3l2.4-3.9l0.8-8.6l3.1-1.2l1.6,1l4.1,5.4l-0.3,4.4l-1,3.5l-2.7,5
	l-2.6,14.7l37.8-16.1v-0.2l-2.3-3.8l-4.6-49.3L135,234.6L149.2,280.6z"/>
<path class="st1" d="M100.3,131.8l-1.6-2.4l-4.2-0.5l-5.1,7.6l-0.4,2.1l1.8,9.7l4.6,4.4l1.3-0.2l3.8-4.5l-4.5-5.3l-0.5-2.2
	L100.3,131.8z M102.4,146.3l1.6-8.5l2.9-3.3l3.6,1.9l-0.3,7.5l-2.2,8.6v3.6l2.4,6.5l0.7-1.8l1.2-29.2l-2.1-18.3h-0.5L98,140.5
	l0.2,1.3L102.4,146.3z M108.4,163.1l-2.9-6.7l-22.7,32.9l-6.5,3.6l-7.7-0.3l-1.7-1l-4.2-8.3l0.3-27.7l1.4-4.3l8.9-12.5l4.1-2.4
	l9.9-16.2l2.8-2l8.9,3l6.3-0.1l0.8-2.4l1.1-10.9l-2.4-10l1.2-0.7l5.2,9.6l3.8,31.9l-1.7,23.3l-4.7,9.1l-1-0.5L108.4,163.1z"/>
<path class="st1" d="M152.1,147.1l1.9,0.9l8.3-1.3l-1.9-4.2l-0.8-0.6l-8.2-2.4l-1.4-1.7l-0.6-4.8l-5.7,0.8L152.1,147.1z M66.4,27.9
	l4.5,8l3.1,5l2.6,4.5l2.8,4.3l4.1,7.4l5.5,9.6l6.9-3.6l1.7,0.5l41.1,63.1l8.7-2l3.1-2l7.6-3.1l2.7,0.8l5.4,0.2l26.3,18.4l5.4,7.3
	l-0.2,5.6l-8,7.4l-8.1-1.1l-2.3-1l-22-1.4l-1.2,0.9l-0.9-1.3l-15.7-0.8l-1.6-3.8l0.4-0.9l1.8-1.3l9.9-0.1L96.5,66l-1.1-0.5l-5,2.6
	l15.6,29l-1.2,0.7L81.5,57.9L77.4,50L73,42.5l-4.2-7l-2.9-5.2l-6.4-11.5l0.8-0.5l4.1,6.7L66.4,27.9z"/>
<polygon class="st1" points="60,17.8 60.3,18.3 59.5,18.8 57.3,15.2 56,18.1 53.8,21.4 51.4,25.8 45.5,37.2 41,47.3 38.9,51.1 
	34.5,60.2 13.3,101.7 12.5,107.1 78.4,225.3 107.6,170.5 108.6,171 81.4,223.6 81.6,223.8 167.1,172.2 156.1,156.7 157.3,155.8 
	169.6,172.1 169.2,173.7 80.7,228.4 76.9,227.5 10,107.6 10.1,103 36,53.7 39.4,46.1 42.9,38.8 45.4,32.7 48,27.5 55.7,14.3 
	56.9,12.5 58.3,13.3 "/>
</svg>
