<?xml version="1.0" encoding="utf-8"?>
<!-- Generator: Adobe Illustrator 21.1.0, SVG Export Plug-In . SVG Version: 6.00 Build 0)  -->
<svg version="1.1" id="Layer_1" xmlns="http://www.w3.org/2000/svg" xmlns:xlink="http://www.w3.org/1999/xlink" x="0px" y="0px"
	 viewBox="0 0 453.8 288.3" style="enable-background:new 0 0 453.8 288.3;" xml:space="preserve">
<style type="text/css">
	.st0{fill:#EDFF24;}
</style>
<title>Artboard 2</title>
<g>
	<path class="st0" d="M65.4,33.1L41.2,45.2l-9.9,4.7l-0.5,14.2l22.9,5.2l42.7-3.8l42.4-12.9l18-11l-14.4,40.5l-38.6,13.5l-35.9,5
		l-23.3-6.3l-13.4-8.5l-8.5-40.6l1-11.7l8.7-16L57.8,2.7L72.5,0l129.8,1.4l26.2,22.5l35.2-13.3l21.1,0.6l2.9,0.9L226,120l0.8,3.1
		l5.3,13.7l49.3-74.3l7.5-6.3L381.8,7L412,9.6L299,65.3l-6.3,5.9l-50.4,79l0.3,5.4l37.6,85.4l-5.5,11.6l-4.6,4.1l-8.5,2.3l-39.2-0.5
		l-21.7-81.9l9.2-9.2l10.2-13.2l1.1-7.9l-10.1-27.2l0.3-2.6l52.3-90l0.2-1.5l-35,24.8l-30.5,54.7l-14.6,27.3l-33.6,118.7l-12.8,20.6
		l-8,8l-11.8,7.9l-36.8,1.3l-20.6-5.7l-10.6-10.3l-7.7-16.5l0.7-25.5l57.5-99.5l-7.8-10.2l-3.7,1l-32,32.7L6.3,230.2L0,200.3
		l17.2-37.2l19.5-23.3l23.1-19.2l29.6-6l18.7,8.8l15.2,40.1L61.9,266.6l1,5.6l12.2,9.5l8.9,1.9l13.6-3.9l15-22.2l39.2-143.7
		l42.1-60.4l27.7-22.9L65.4,33.1z M229.9,170.6l-5.2,0.4l-9.9,13l16.2,66l20.3,1.4l5.4-2L229.9,170.6z"/>
	<polygon class="st0" points="435.1,10.8 396.3,35.8 345.3,84.4 325.2,165.3 332,226.4 359.4,273.5 374.3,276.5 379.2,266.5 
		381.1,237.4 340.6,148.8 353.7,121.3 369.8,113.3 385.8,114.3 405.8,124.3 432.3,158.6 453.8,230.8 421.1,208.3 383.2,123.3 
		371.9,119.9 366.4,124.4 378.4,150.4 420.6,242.3 400.7,261.9 389.3,276.4 369.9,284.8 348.9,286.5 319.7,271.2 300,236.2 
		290.4,186.2 290.5,140.4 315.2,74.5 356.9,42.4 415.3,10.6 	"/>
</g>
</svg>
