<svg xmlns="http://www.w3.org/2000/svg" viewBox="0 0 500 391"><defs><style>.a{fill:blue;}.b{fill:#edff24;}.c{fill:#fcc;}.d{fill:#007f7f;opacity:0.6;}</style></defs><title>Artboard 4</title><polygon class="a" points="486.99 341.46 10.59 342.61 14.03 15.44 489.28 12 486.99 341.46"/><rect class="b" x="17.48" y="17.74" width="467.21" height="320.28"/><path class="c" d="M128,121.25l-.74,23.14-7.15,1.1L117,117l13-3,9.26-13.56L123,90l-15,10,2.83,4.49-5,6.83L98.9,97.84l27.42-18.76,28.87,22.23-21.67,19.15Z"/><polygon class="c" points="129.67 157.5 122.79 163.9 116.39 157.02 123.27 150.62 129.67 157.5 129.67 157.5"/><polygon class="c" points="122 221.49 85 249 89 254 118 234 118 272 120 272 124 272 126 272 126 234 155 254 159 249 122 221.49"/><rect class="c" x="247.5" y="95.5" width="166" height="28"/><rect class="c" x="248" y="131" width="166" height="28"/><rect class="c" x="248" y="167" width="166" height="28"/><rect class="c" x="248" y="203" width="166" height="28"/><rect class="c" x="248" y="239" width="166" height="28"/><rect class="d" x="259" y="106" width="144" height="8"/><rect class="d" x="259" y="141" width="144" height="8"/><rect class="d" x="259" y="177" width="144" height="8"/><rect class="d" x="259" y="213" width="144" height="8"/><rect class="d" x="260" y="249" width="144" height="8"/><path class="a" d="M279.68,219.74c1.51-7.31,8.35-14.64,16.14-12.19,2.25.71,4.74.67,7.12.92,6.62.67,12,3.74,16.75,8.29,3.85,3.67,8.09,6.93,12.15,10.39.86.73,1.67,1.51,3.1,2.8,2.27-5.81,4.13-11.33,6.56-16.58,3.43-7.42,7.43-14.78,17.24-13.81,2.08.21,2.54-1.09,2.05-2.77-1.52-5.24-2.8-10.59-4.79-15.66a142.77,142.77,0,0,0-8.25-17.66c-1.84-3.27-4.75-6-7.41-8.73-4.91-5-8.69-10.6-9.82-17.74a49.55,49.55,0,0,0-1.8-6.38c-1.77-5.9.11-18,6.75-20.67,1.8-.73,3.71-1.19,5.7-1.81a84.8,84.8,0,0,0,16,28.25c3.16,3.82,6.33,7.65,9.79,11.2,5.13,5.25,6.41,12.33,9.29,18.64,1.83,4,2.95,8.33,4.82,12.31,1.24,2.63,3.23,4.91,4.91,7.33.21.31.64.48.82.8,2.41,4.2,6.19,5.74,10.85,6.3,3.64.44,6.28,3,7.71,6.32,2.53,5.94,5.86,11.64,5.51,18.52a6.58,6.58,0,0,0,2,4.34c3.82,3.82,3.42,8.29,1.22,12.19-5.93,10.54-5.22,22-5.39,33.34-.12,8.24-.34,16.49-.17,24.73.1,5,2.48,9.26,5.8,13,2.52,2.85,4.92,5.81,7.34,8.75,5.78,7,11.49,14.1,17.34,21.07,3.32,4,4.86,8.68,6.62,13.42,2.67,7.15.89,14.09-.68,20.9-1.77,7.68-7.47,12.06-15.08,13.29-8,1.29-16.15.56-23.28-3.32a32.85,32.85,0,0,1-11.45-10.14c-5.49-8.3-9.76-17.39-14.73-26-4-6.89-7.87-13.86-12.43-20.35-3.79-5.4-8.42-10.22-12.82-15.16a28.1,28.1,0,0,0-4.9-3.91,51.33,51.33,0,0,1-14.92-16.53c-4.07-7-6.62-14.6-8.85-22.41-1.76-6.15-5-11.87-7.25-17.88a13.82,13.82,0,0,0-7.08-8.16c-2.88-1.41-5.2-3.92-7.91-5.74-4.21-2.83-8.54-5.49-12.81-8.23a21.23,21.23,0,0,1-2.37-1.64C286.44,221.09,283.93,218.59,279.68,219.74Z"/></svg>