<svg xmlns="http://www.w3.org/2000/svg" xmlns:xlink="http://www.w3.org/1999/xlink" viewBox="0 0 500 699"><defs><style>.a{fill:blue;}.b{fill:#edff24;}.c,.j,.k{fill:#ba0000;}.d{fill:url(#a);}.e,.h{fill:#007f7f;}.e,.k{opacity:0.6;}.f,.i{fill:#ffc;}.f,.l{stroke:blue;stroke-miterlimit:10;stroke-width:0.5px;}.g,.j{opacity:0.5;}.l{fill:none;}</style><linearGradient id="a" x1="-962.8" y1="-2012.82" x2="-945.23" y2="-2012.82" gradientTransform="translate(1892.44 2665.3) scale(1.81 1.2)" gradientUnits="userSpaceOnUse"><stop offset="0" stop-color="#edff24"/><stop offset="1" stop-color="#fcc"/></linearGradient></defs><title>Artboard 9</title><polygon class="a" points="320.96 443.26 12.59 444 14.82 232.23 322.44 230 320.96 443.26"/><rect class="b" x="17.05" y="233.72" width="302.42" height="207.31"/><polygon class="a" points="485.96 222.26 177.59 223 179.82 11.23 487.44 9 485.96 222.26"/><rect class="b" x="182.05" y="12.72" width="302.42" height="207.31"/><polygon class="a" points="486.96 684.26 178.59 685 180.82 473.23 488.44 471 486.96 684.26"/><rect class="b" x="183.05" y="474.72" width="302.42" height="207.31"/><path class="c" d="M88.09,347,82,346.07A17.63,17.63,0,0,1,68.28,335l-2.22-5.74a17.63,17.63,0,0,1,2.72-17.42l3.86-4.79a17.63,17.63,0,0,1,16.44-6.36l6.08.95A17.63,17.63,0,0,1,108.9,312.7l2.22,5.74a17.63,17.63,0,0,1-2.72,17.42l-3.86,4.79A17.63,17.63,0,0,1,88.09,347Z"/><path class="c" d="M109.82,403.57l-2.68,4.64a18.32,18.32,0,0,1-15.87,9.16H85.91A18.32,18.32,0,0,1,70,408.21l-2.68-4.64a18.32,18.32,0,0,1,0-18.32L70,380.61a18.32,18.32,0,0,1,15.87-9.16h5.36a18.32,18.32,0,0,1,15.87,9.16l2.68,4.64A18.32,18.32,0,0,1,109.82,403.57Z"/><path class="c" d="M186.47,334.88l-3.36,4.17A18.32,18.32,0,0,1,166,345.67l-5.29-.83a18.32,18.32,0,0,1-14.27-11.5l-1.93-5a18.32,18.32,0,0,1,2.82-18.1l3.36-4.17a18.32,18.32,0,0,1,17.09-6.61l5.29.83a18.32,18.32,0,0,1,14.27,11.5l1.93,5A18.32,18.32,0,0,1,186.47,334.88Z"/><path class="c" d="M159.74,415.68,156,414.06a19.41,19.41,0,0,1-11.62-15.55l-.48-4.07a19.41,19.41,0,0,1,7.65-17.84l3.28-2.46a19.41,19.41,0,0,1,19.28-2.29l3.77,1.62A19.41,19.41,0,0,1,189.47,389l.48,4.07a19.41,19.41,0,0,1-7.65,17.84L179,413.38A19.41,19.41,0,0,1,159.74,415.68Z"/><path class="c" d="M233.42,343.46l-4.36-3.11a18.32,18.32,0,0,1-7.59-16.68l.52-5.33a18.32,18.32,0,0,1,10.65-14.91l4.88-2.22A18.32,18.32,0,0,1,255.75,303l4.36,3.11a18.32,18.32,0,0,1,7.59,16.68l-.52,5.33A18.32,18.32,0,0,1,256.54,343l-4.88,2.22A18.32,18.32,0,0,1,233.42,343.46Z"/><path class="c" d="M239,416.84l-5-1.9a18.32,18.32,0,0,1-11.59-14.19l-.86-5.29A18.32,18.32,0,0,1,228,378.32l4.15-3.39A18.32,18.32,0,0,1,250.22,372l5,1.9a18.32,18.32,0,0,1,11.59,14.19l.86,5.29a18.32,18.32,0,0,1-6.49,17.13L257,413.89A18.32,18.32,0,0,1,239,416.84Z"/><rect class="d" x="154.29" y="137.11" width="31.72" height="244.68" transform="translate(-89.3 429.6) rotate(-90)"/><rect class="e" x="116.42" y="252.01" width="108.1" height="7.12"/><rect class="e" x="42.28" y="314.08" width="74.12" height="7.3"/><rect class="e" x="133.66" y="303.73" width="74.12" height="7.3"/><rect class="e" x="213.84" y="327.01" width="59.46" height="7.3"/><rect class="e" x="232.81" y="386.5" width="59.46" height="7.3"/><rect class="e" x="137.11" y="386.5" width="59.46" height="7.3"/><rect class="e" x="47.43" y="400.29" width="70.69" height="7.3"/><rect class="e" x="232.81" y="396.84" width="59.46" height="7.3"/><rect class="e" x="232.81" y="407.19" width="59.46" height="7.3"/><rect class="e" x="42.28" y="323.56" width="74.12" height="7.3"/><rect class="f" x="203.49" y="494.27" width="118.51" height="159.92"/><g class="g"><rect class="h" x="217.78" y="512.24" width="88.63" height="1.36"/><rect class="h" x="217.78" y="516.18" width="88.63" height="1.36"/><rect class="h" x="217.78" y="520.11" width="88.63" height="1.36"/><rect class="h" x="217.78" y="524.05" width="88.63" height="1.36"/><rect class="h" x="217.78" y="527.98" width="88.63" height="1.36"/><rect class="h" x="217.78" y="531.92" width="88.63" height="1.36"/><rect class="h" x="217.78" y="535.86" width="88.63" height="1.36"/><rect class="h" x="217.78" y="539.79" width="88.63" height="1.36"/><rect class="h" x="217.78" y="543.73" width="88.63" height="1.36"/><rect class="h" x="217.78" y="547.66" width="88.63" height="1.36"/><rect class="h" x="217.78" y="551.6" width="88.63" height="1.36"/><rect class="h" x="217.78" y="555.54" width="88.63" height="1.36"/><rect class="h" x="217.78" y="559.47" width="88.63" height="1.36"/><rect class="h" x="217.78" y="563.41" width="88.63" height="1.36"/><rect class="h" x="217.78" y="567.34" width="88.63" height="1.36"/><rect class="h" x="217.78" y="571.28" width="88.63" height="1.36"/><rect class="h" x="217.78" y="575.22" width="88.63" height="1.36"/><rect class="h" x="217.78" y="579.15" width="88.63" height="1.36"/><rect class="h" x="217.78" y="583.09" width="88.63" height="1.36"/><rect class="h" x="217.78" y="587.02" width="88.63" height="1.36"/><rect class="h" x="217.78" y="590.96" width="88.63" height="1.36"/><rect class="h" x="217.78" y="594.9" width="88.63" height="1.36"/><rect class="h" x="217.78" y="598.83" width="88.63" height="1.36"/><rect class="h" x="217.78" y="602.77" width="88.63" height="1.36"/><rect class="h" x="217.78" y="606.7" width="88.63" height="1.36"/><rect class="h" x="217.78" y="610.64" width="88.63" height="1.36"/><rect class="h" x="217.78" y="614.58" width="88.63" height="1.36"/><rect class="h" x="217.78" y="618.51" width="88.63" height="1.36"/><rect class="h" x="217.78" y="622.45" width="88.63" height="1.36"/><rect class="h" x="217.78" y="626.38" width="88.63" height="1.36"/><rect class="h" x="217.78" y="630.32" width="88.63" height="1.36"/><rect class="h" x="217.78" y="634.26" width="88.63" height="1.36"/></g><rect class="i" x="263" y="508" width="50" height="71"/><rect class="j" x="267.99" y="511.53" width="39.25" height="62.68"/><rect class="f" x="332.49" y="494.27" width="118.51" height="159.92"/><g class="g"><rect class="h" x="346.78" y="512.24" width="88.63" height="1.36"/><rect class="h" x="346.78" y="516.18" width="88.63" height="1.36"/><rect class="h" x="346.78" y="520.11" width="88.63" height="1.36"/><rect class="h" x="346.78" y="524.05" width="88.63" height="1.36"/><rect class="h" x="346.78" y="527.98" width="88.63" height="1.36"/><rect class="h" x="346.78" y="531.92" width="88.63" height="1.36"/><rect class="h" x="346.78" y="535.86" width="88.63" height="1.36"/><rect class="h" x="346.78" y="539.79" width="88.63" height="1.36"/><rect class="h" x="346.78" y="543.73" width="88.63" height="1.36"/><rect class="h" x="346.78" y="547.66" width="88.63" height="1.36"/><rect class="h" x="346.78" y="551.6" width="88.63" height="1.36"/><rect class="h" x="346.78" y="555.54" width="88.63" height="1.36"/><rect class="h" x="346.78" y="559.47" width="88.63" height="1.36"/><rect class="h" x="346.78" y="563.41" width="88.63" height="1.36"/><rect class="h" x="346.78" y="567.34" width="88.63" height="1.36"/><rect class="h" x="346.78" y="571.28" width="88.63" height="1.36"/><rect class="h" x="346.78" y="575.22" width="88.63" height="1.36"/><rect class="h" x="346.78" y="579.15" width="88.63" height="1.36"/><rect class="h" x="346.78" y="583.09" width="88.63" height="1.36"/><rect class="h" x="346.78" y="587.02" width="88.63" height="1.36"/><rect class="h" x="346.78" y="590.96" width="88.63" height="1.36"/><rect class="h" x="346.78" y="594.9" width="88.63" height="1.36"/><rect class="h" x="346.78" y="598.83" width="88.63" height="1.36"/><rect class="h" x="346.78" y="602.77" width="88.63" height="1.36"/><rect class="h" x="346.78" y="606.7" width="88.63" height="1.36"/><rect class="h" x="346.78" y="610.64" width="88.63" height="1.36"/><rect class="h" x="346.78" y="614.58" width="88.63" height="1.36"/><rect class="h" x="346.78" y="618.51" width="88.63" height="1.36"/><rect class="h" x="346.78" y="622.45" width="88.63" height="1.36"/><rect class="h" x="346.78" y="626.38" width="88.63" height="1.36"/><rect class="h" x="346.78" y="630.32" width="88.63" height="1.36"/><rect class="h" x="346.78" y="634.26" width="88.63" height="1.36"/></g><rect class="f" x="462.49" y="494.27" width="23.01" height="159.92"/><g class="g"><rect class="h" x="476.78" y="512.24" width="9.22" height="1.36"/><rect class="h" x="476.78" y="516.18" width="9.22" height="1.36"/><rect class="h" x="476.78" y="520.11" width="9.22" height="1.36"/><rect class="h" x="476.78" y="524.05" width="9.22" height="1.36"/><rect class="h" x="476.78" y="527.98" width="9.22" height="1.36"/><rect class="h" x="476.78" y="531.92" width="9.22" height="1.36"/><rect class="h" x="476.78" y="535.86" width="9.22" height="1.36"/><rect class="h" x="476.78" y="539.79" width="9.22" height="1.36"/><rect class="h" x="476.78" y="543.73" width="9.22" height="1.36"/><rect class="h" x="476.78" y="547.66" width="9.22" height="1.36"/><rect class="h" x="476.78" y="551.6" width="9.22" height="1.36"/><rect class="h" x="476.78" y="555.54" width="9.22" height="1.36"/><rect class="h" x="476.78" y="559.47" width="9.22" height="1.36"/><rect class="h" x="476.78" y="563.41" width="9.22" height="1.36"/><rect class="h" x="476.78" y="567.34" width="9.22" height="1.36"/><rect class="h" x="476.78" y="571.28" width="9.22" height="1.36"/><rect class="h" x="476.78" y="575.22" width="9.22" height="1.36"/><rect class="h" x="476.78" y="579.15" width="9.22" height="1.36"/><rect class="h" x="476.78" y="583.09" width="9.22" height="1.36"/><rect class="h" x="476.78" y="587.02" width="9.22" height="1.36"/><rect class="h" x="476.78" y="590.96" width="9.22" height="1.36"/><rect class="h" x="476.78" y="594.9" width="9.22" height="1.36"/><rect class="h" x="476.78" y="598.83" width="9.22" height="1.36"/><rect class="h" x="476.78" y="602.77" width="9.22" height="1.36"/><rect class="h" x="476.78" y="606.7" width="9.22" height="1.36"/><rect class="h" x="476.78" y="610.64" width="9.22" height="1.36"/><rect class="h" x="476.78" y="614.58" width="9.22" height="1.36"/><rect class="h" x="476.78" y="618.51" width="9.22" height="1.36"/><rect class="h" x="476.78" y="622.45" width="9.22" height="1.36"/><rect class="h" x="476.78" y="626.38" width="9.22" height="1.36"/><rect class="h" x="476.78" y="630.32" width="9.22" height="1.36"/><rect class="h" x="476.78" y="634.26" width="9.22" height="1.36"/></g><rect class="e" x="295.42" y="178.01" width="108.1" height="3.99"/><rect class="e" x="295.42" y="185.01" width="108.1" height="3.99"/><rect class="e" x="295.42" y="192.01" width="108.1" height="3.99"/><rect class="k" x="218.99" y="30.53" width="90.47" height="144.47"/><rect class="k" x="313.99" y="30.53" width="90.01" height="60.47"/><rect class="k" x="313.99" y="96.53" width="90.01" height="78.47"/><line class="l" x1="244.5" y1="394.5" x2="253.5" y2="494.5"/><path class="a" d="M294.82,419c-.37-1.09-.61-1.87-.89-2.65-.92-2.59-1.83-5.18-2.79-7.75a21.87,21.87,0,0,1-1.43-3.39,135,135,0,0,1-2.12-13.49c-.28-3.51,3-10.68,7.27-11.19.66-.08,1.32-.18,2-.28.33,7.14,3.49,13.39,5.23,20,.55,2.1,2.21,3.9,3.38,5.83,1.9,3.14,4.16,6.11,5.63,9.44,2,4.47,3.15,9.29,5,13.82a79.41,79.41,0,0,0,5,9.61c3.32,5.69,6.76,11.31,10.21,16.92,2.32,3.78,4.85,7.44,7.1,11.26,1.84,3.12,3.36,6.42,5.1,9.6,1.92,3.51,4,6.94,5.91,10.45,1.72,3.13,3.37,6.3,5,9.48,1.36,2.68,3.09,5.27,3.86,8.12,1.94,7.2,5.21,14.15,4.55,21.91A13,13,0,0,1,360,534c-3.38,4.18-6.84,8.24-12.38,9.64a14.39,14.39,0,0,1-8.47-.69c-2.11-.74-4.41-1.33-6.16-2.61a15.43,15.43,0,0,1-4.5-5.22,83.43,83.43,0,0,1-8-22.88,2.73,2.73,0,0,0-2.39-2.53,27.65,27.65,0,0,1-11.51-5.64c-1.77-1.49-2.87-3.79-4.2-5.77-1.55-2.29-2.3-2.28-4.93-1.59-4.5,1.19-8.9,2.37-13.86,1.21-3.71-.87-4.77-2.68-5.41-5.84a6.33,6.33,0,0,0-2.22-2.93c-2.48-2.18-4.52-4.63-4.91-8-.22-1.89,0-3.83-.06-5.74a3.44,3.44,0,0,0-.79-2.12c-3.43-3.38-4.72-7.71-5.62-12.23-.64-3.23-1.34-6.44-1.91-9.68a2.16,2.16,0,0,1,.56-1.61,12.41,12.41,0,0,1,7-4c.95-.16,1.75-1.06,2.69-1.45q5.33-2.23,10.72-4.33c1.7-.67,3.22-1.37,3.93-3.31a2.46,2.46,0,0,0-.77-3.09c-3.74-3.18-7.4-6.47-11.28-9.46-1.83-1.41-4.2-2.08-6.15-3.35-4.43-2.91-8.75-6-13.11-9a20.22,20.22,0,0,1-4-3c-2.45-2.84-5.08-5.66-6.82-8.92a11.76,11.76,0,0,1,.62-12,5.5,5.5,0,0,1,2.58-2.34,3.44,3.44,0,0,1,2.91.82q6.15,6.25,12,12.77a41.92,41.92,0,0,0,10.87,8.68c4.71,2.63,9.36,5.37,14,8.07,1.65,1,3.28,1.93,4.93,2.87A7.12,7.12,0,0,0,294.82,419Zm-7.52,36.11c-1.68-2.2-2.36-2.22-4-.29a13.27,13.27,0,0,1-1.47,1.38c-1,.87-2.08,1.72-3.1,2.59s-.79,2,.13,2.78c.32.26,1.43,0,1.88-.43C282.94,459.24,285.06,457.2,287.3,455.13Z"/><path class="a" d="M185,390.09c.15-1.18.39-2.35.42-3.54.15-5.08,2.25-9.55,4.28-14.06a17.4,17.4,0,0,0,1.31-3,8.92,8.92,0,0,1,4.08-5.24,17.84,17.84,0,0,1,13.74-2.23l1.59.33c2.1.41,2.16,1,1,2.78-1.84,2.8-3.29,5.87-5.15,8.65a67.14,67.14,0,0,0-6.58,13.76,28.46,28.46,0,0,0-1.08,6.17c-.9,6.57-2.06,13.07-4.77,19.18-1.3,2.93-2.87,5.76-3.87,8.78-1.39,4.21-2.29,8.59-3.54,12.85-1.17,4-2.56,8-3.77,12-.54,1.77-.69,3.67-1.31,5.41-1.14,3.23-2.42,6.41-3.78,9.55-1.94,4.49-3.36,9.2-6.23,13.31-2.16,3.1-3.74,6.61-5.67,9.88-.81,1.39-1.87,2.64-2.76,4-1.37,2.07-2.57,4.27-4.07,6.25a43.44,43.44,0,0,1-6,7,15.51,15.51,0,0,1-9.19,3.68c-4,.27-6.88-1.92-9.68-4.21a61.43,61.43,0,0,1-5.9-5.59c-2.58-2.75-3.27-6.25-3.37-9.88-.08-3.19-.13-6.39-.08-9.59a11,11,0,0,1,3.1-7.84c1.88-2,3.16-4.52,4.75-6.78q3.42-4.87,6.92-9.69c1.81-2.49,3.73-4.91,5.51-7.43a2.86,2.86,0,0,0,.44-2.06c-1.05-4.35-2.17-8.69-3.37-13-.89-3.16-2.1-6.23-2.88-9.41a53.1,53.1,0,0,1-1.6-9.35,8.32,8.32,0,0,0-2.31-5.65c-2.31-2.41-2.71-5.15-2-8.47.65-2.92.41-6,.52-9.07.06-1.68-.13-3.38.08-5a3.31,3.31,0,0,1,2.57-3c.55-.14,1-.56,1.57-.74,2-.63,2.14-1.92,1.51-3.66a20,20,0,0,1-1.08-10.12c.14-.86.18-1.74.29-2.8,1.6-.18,3.26-.42,4.92-.55s2.14-1.12,2-2.57c-.25-2.26-.85-4.53-.74-6.77a23.35,23.35,0,0,1,1.49-6.44c.64-1.82.67-4.09,2.68-5.13a4.53,4.53,0,0,1,2.59-.38c.79.11,1.49.81,2.29,1a35.47,35.47,0,0,0,3.51.64c-.32-4.64-.57-8.78-.9-12.92-.14-1.72-.71-3.44-.63-5.14.13-2.85,2-4.89,4.15-6.45,1.6-1.13,3.75-.52,5.29,1.25a10.15,10.15,0,0,1,2.86,6.25c.19,3,1,6,1.49,9.08.69,4.58,1.12,9.21,2,13.75,1.18,6.16,2.74,12.24,6.44,17.49a32.21,32.21,0,0,1,2.42,3.11,11.6,11.6,0,0,1,1.55,4.32c.37,4.77.37,9.57.71,14.34.08,1.09,1,2.11,1.49,3.17Z"/><line class="l" x1="168" y1="325" x2="219" y2="175"/></svg>