<svg xmlns="http://www.w3.org/2000/svg" xmlns:xlink="http://www.w3.org/1999/xlink" viewBox="0 0 500 363"><defs><style>.a{fill:blue;}.b{fill:#edff24;}.c{fill:url(#a);}.d{fill:#007f7f;}</style><linearGradient id="a" x1="-125.1" y1="-433.17" x2="1.75" y2="-433.17" gradientTransform="translate(362.34 678.26) scale(1.81 1.2)" gradientUnits="userSpaceOnUse"><stop offset="0" stop-color="#edff24"/><stop offset="1" stop-color="#fcc"/></linearGradient></defs><title>Artboard 6</title><polygon class="a" points="484.99 344.46 8.59 345.61 12.03 18.44 487.28 15 484.99 344.46"/><rect class="b" x="15.48" y="20.74" width="467.21" height="320.28"/><rect class="c" x="136.5" y="-28.5" width="229" height="378" transform="translate(90.5 411.5) rotate(-90)"/><path class="d" d="M219.38,63l-2.26,7.62-5.73,28.51-.75,7.62,6.18,1.21v1.58h-18V108l6.64-1.21,2.34-7.62L215,63,193.14,99.17l-5.88,10.41h-2.79L183.1,99.17l-7-36.13-7.24,36.13-.68,7.62,6.11,1.21v1.58H157.46V108l6.64-1.21,2.34-7.62,5.73-28.51.68-7.62-6.18-1.21V60.25h13.43l1.28,10.41,6.11,33.49,20.44-33.72,5.43-10.18H226.1v1.58Z"/><path class="d" d="M252.13,109.58V108l6.26-1.21-.53-7.62-1.43-10H239.76l-5.28,10-3.62,7.62,6,1.21v1.58H220.45V108l6.26-1.21,4.83-7.62,22.48-41h1.13l6.34,41,1.73,7.62,5.73,1.21v1.58Zm.68-44.2L241.12,86.72h14.93Z"/><path class="d" d="M297.32,85.14l5.2,14,3.24,7.62L311.2,108v1.58h-9.43l-3.09-10.41L294,85.89h-6.71l-2.64,13.28-.68,7.62,5.36,1.21v1.58H272V108l6.64-1.21L281,99.17l5.73-28.51.68-7.62-6.18-1.21V60.25h18c9.2,0,12.14,3.77,12.14,10.11C311.35,77.75,305.92,83.78,297.32,85.14Zm-1.21-22.48H292L287.89,83.1a17.26,17.26,0,0,0,4.6.53c8.67,0,14.86-5.05,14.86-13C307.35,65,304,62.66,296.11,62.66Z"/><path class="d" d="M351.1,71.49h-2.64V63.57a30,30,0,0,0-11.31-2.26c-6.71,0-11.69,3.85-11.69,10.48,0,6.34,4.68,8.15,11.31,11.16,5.05,2.26,10.79,5.73,10.79,12.6,0,8.52-8.67,15.92-19,15.92a41.21,41.21,0,0,1-13.43-3.24l1.81-9.88h2.64v7.09c3.77,1.89,6.11,2.72,10.33,2.72,7.17,0,13.65-5.58,13.65-12,0-5.88-5.2-8.07-10.11-10.33-7.69-3.55-12-7.09-12-13.5,0-8,7.24-14.1,16.9-14.1a37.67,37.67,0,0,1,14.93,3Z"/><path class="d" d="M125.52,171.1H91.73v-1.58l6.64-1.21,2.34-7.62,5.73-28.51.68-7.62-6.18-1.21v-1.58H119v1.58l-6.71,1.21-2.26,7.62-5.73,28.51-.53,6.79,6.18,1.21h5.58l7.09-1.21,2.71-7.62h2.26Z"/><path class="d" d="M160.15,171.1v-1.58l6.26-1.21-.53-7.62-1.43-10H147.78l-5.28,10-3.62,7.62,6,1.21v1.58H128.47v-1.58l6.26-1.21,4.83-7.62,22.48-41h1.13l6.34,41,1.73,7.62,5.73,1.21v1.58Zm.68-44.2-11.69,21.35h14.93Z"/><path class="d" d="M231,124.56l-2.34,7.62-8.07,40.35h-1.89l-4.9-11.84L198.1,127.35l-6.64,33.34-.68,7.62,6.11,1.21v1.58H180.07v-1.58l6.64-1.21,2.34-7.62,5.73-28.51.68-7.62-6.18-1.21v-1.58h10.79l4.15,10.41,15.54,32.51,6.49-32.51.75-7.62-6.19-1.21v-1.58h16.82v1.58Z"/><path class="d" d="M252.64,171.1H233.11v-1.58l6.64-1.21,2.34-7.62,5.73-28.51.68-7.62-6.18-1.21v-1.58h22.4c13.58,0,18.86,5.81,18.86,17.12C283.57,157.52,271,171.1,252.64,171.1Zm9.81-46.92H253l-7.32,36.51-.6,6.41a30,30,0,0,0,9.5,1.66c13.65,0,25-13,25-29.64C279.57,129,274.36,124.18,262.45,124.18Z"/><path class="d" d="M304.17,124.56l-2.26,7.62-5.73,28.51-.68,7.62,6.11,1.21v1.58h-18v-1.58l6.64-1.21,2.34-7.62,5.73-28.51.68-7.62-6.18-1.21v-1.58h18.1v1.58Z"/><path class="d" d="M357.27,124.56l-2.34,7.62-8.07,40.35H345l-4.9-11.84-15.69-33.34-6.64,33.34-.68,7.62,6.11,1.21v1.58H306.36v-1.58l6.64-1.21,2.34-7.62,5.73-28.51.68-7.62-6.18-1.21v-1.58h10.79l4.15,10.41L346,164.69l6.49-32.51.75-7.62-6.19-1.21v-1.58h16.82v1.58Z"/><path class="d" d="M404.57,153.07l-2.34,7.62L400,171.17a53.56,53.56,0,0,1-14.63,2.26c-6.71,0-11.92-1.73-15.54-5.13-3.77-3.54-5.88-9-5.88-16.14a31.2,31.2,0,0,1,8.67-22.55,29.65,29.65,0,0,1,21.87-9c4.9,0,8.9.75,14.71,2.49L407.13,133h-2.26v-7.09a32.76,32.76,0,0,0-12.22-2.56c-6.64,0-11.54,1.89-16.22,6.56-4.83,4.83-8.37,13.65-8.37,22.48,0,6.41,1.51,11.09,4.68,14.11,2.94,2.79,7.39,4.15,13.35,4.15a33.62,33.62,0,0,0,10.79-1.73l1.73-8.15.68-7.69-6.11-1.21v-1.58H410v1.58Z"/></svg>