<svg xmlns="http://www.w3.org/2000/svg" xmlns:xlink="http://www.w3.org/1999/xlink" viewBox="0 0 500 354"><defs><style>.a{fill:blue;}.b{fill:#edff24;}.c{fill:#ba0000;}.d{fill:url(#a);}.e{fill:#007f7f;opacity:0.6;}</style><linearGradient id="a" x1="-620.06" y1="-1583.25" x2="-599.68" y2="-1583.25" gradientTransform="translate(1293.35 1941.56) scale(1.81 1.2)" gradientUnits="userSpaceOnUse"><stop offset="0" stop-color="#edff24"/><stop offset="1" stop-color="#fcc"/></linearGradient></defs><title>Artboard 8</title><polygon class="a" points="367.28 262.36 9.59 263.23 12.18 17.59 369 15 367.28 262.36"/><rect class="b" x="14.76" y="19.31" width="350.79" height="240.47"/><path class="c" d="M98.78,151l-10.27-1.6a17.63,17.63,0,0,1-13.73-11.06L71,128.63a17.63,17.63,0,0,1,2.72-17.42l6.52-8.1a17.63,17.63,0,0,1,16.44-6.36L107,98.35a17.63,17.63,0,0,1,13.73,11.06l3.75,9.7a17.63,17.63,0,0,1-2.72,17.42l-6.52,8.1A17.63,17.63,0,0,1,98.78,151Z"/><path class="c" d="M123.21,214.87l-4.8,8.31a18.32,18.32,0,0,1-15.87,9.16h-9.6a18.32,18.32,0,0,1-15.87-9.16l-4.8-8.31a18.32,18.32,0,0,1,0-18.32l4.8-8.31a18.32,18.32,0,0,1,15.87-9.16h9.6a18.32,18.32,0,0,1,15.87,9.16l4.8,8.31A18.32,18.32,0,0,1,123.21,214.87Z"/><path class="c" d="M212.35,135.34l-6,7.48a18.32,18.32,0,0,1-17.09,6.61l-9.49-1.48a18.32,18.32,0,0,1-14.27-11.5l-3.46-9a18.32,18.32,0,0,1,2.82-18.1l6-7.48A18.32,18.32,0,0,1,188,95.31l9.49,1.48a18.32,18.32,0,0,1,14.27,11.5l3.46,9A18.32,18.32,0,0,1,212.35,135.34Z"/><path class="c" d="M181.92,231.08l-7.67-3.29a19.41,19.41,0,0,1-11.62-15.55l-1-8.28a19.41,19.41,0,0,1,7.65-17.84l6.68-5a19.41,19.41,0,0,1,19.28-2.29l7.67,3.29a19.41,19.41,0,0,1,11.62,15.55l1,8.28a19.41,19.41,0,0,1-7.65,17.84l-6.68,5A19.41,19.41,0,0,1,181.92,231.08Z"/><path class="c" d="M267.12,147.59,259.31,142a18.32,18.32,0,0,1-7.59-16.68l.92-9.56a18.32,18.32,0,0,1,10.65-14.91l8.74-4a18.32,18.32,0,0,1,18.24,1.76l7.81,5.58a18.32,18.32,0,0,1,7.59,16.68l-.92,9.56a18.32,18.32,0,0,1-10.65,14.91l-8.74,4A18.32,18.32,0,0,1,267.12,147.59Z"/><path class="c" d="M273.74,232.32l-9-3.4a18.32,18.32,0,0,1-11.59-14.19l-1.54-9.48a18.32,18.32,0,0,1,6.49-17.13l7.43-6.07a18.32,18.32,0,0,1,18.09-2.94l9,3.4a18.32,18.32,0,0,1,11.59,14.19l1.54,9.48a18.32,18.32,0,0,1-6.49,17.13l-7.43,6.07A18.32,18.32,0,0,1,273.74,232.32Z"/><polygon class="a" points="378.67 142.75 499 64.56 499 61.23 375.56 142.71 499 337.14 499 327.94 378.67 142.75"/><polygon class="b" points="499 327.94 499 64.56 378.67 142.75 499 327.94"/><rect class="d" x="173.95" y="-92.74" width="36.79" height="283.81" transform="translate(143.18 241.51) rotate(-90)"/><rect class="e" x="130.03" y="40.53" width="125.39" height="8.26"/><rect class="e" x="44.03" y="112.53" width="85.97" height="8.47"/><rect class="e" x="150.03" y="100.53" width="85.97" height="8.47"/><rect class="e" x="243.03" y="127.53" width="68.97" height="8.47"/><rect class="e" x="265.03" y="196.53" width="68.97" height="8.47"/><rect class="e" x="154.03" y="196.53" width="68.97" height="8.47"/><rect class="e" x="50" y="212.53" width="82" height="8.47"/><rect class="e" x="265.03" y="208.53" width="68.97" height="8.47"/><rect class="e" x="265.03" y="220.53" width="68.97" height="8.47"/><rect class="e" x="44.03" y="123.53" width="85.97" height="8.47"/><path class="a" d="M321.25,294.59c-.13,0,23.6-33.93,24.38-35.1,1.49-2.23,6.82-9.48,7.83-11,.72-1.06,1.08-2.48,2-3.24,1.61-1.3,4.68-9.29,5.51-10.15,1.33-1.38,5.45-7.47,6.59-8.91,1-1.29,2.12-2.52,3-3.88a13.46,13.46,0,0,1,6.09-5c3.87-1.61,7.7-3.33,11.62-4.8a18.46,18.46,0,0,1,4.69-.77c2-.19,4-.32,6-.35a18.31,18.31,0,0,1,4.27.29,8.91,8.91,0,0,0,6-1.13c6.23-3,13-4.23,19.51-6.48,4-1.39,7.94-3.18,12-4.19,2.49-.61,5.27-.23,7.89,0,1.27.12,2,2.28,1.81,4l-.21,1.59c2.18-.46,4.17-.93,6.18-1.3a8.57,8.57,0,0,1,6.37,1.4c2.13,1.37,1.36,3.18,1,4.94-.48,2.27-3.08,4.43-5.45,4.86A23.66,23.66,0,0,0,455,216.8c-5.06,1.8-10.12,3.61-15.21,5.34-2.8,1-3.32,2.39-2.3,4.67s.29,3.93-1.75,5.38c-.86.61-1.66,1.31-2.45,1.94.33.9.67,1.66.88,2.46a5.74,5.74,0,0,1-2.42,6.57c-3,2.24-15.11,12.2-19.21,13.18-1.13.27-2.26.51-3.41.7-4.4.73-8.2,3-12,5.08-2.53,1.41-4.71,3.42-7.2,4.92-3.69,2.22-7.49,4.25-11.27,6.33-1.55.85-2.89,1.61-3.62,3.57-.66,1.76-7.32,11.1-8.2,12.58-1.42,2.38-2.66,4.87-4.05,7.26-.5.85-9.14,14.63-10.41,16.19-.22.28-.56.5-.68.81-.85,2.26-11,10.89-14.74,12.11s-17-8.64-17.65-12.93c-.19-1.2-.64-2.36-.87-3.56C317.88,306.3,320.91,295.8,321.25,294.59Z"/></svg>