<svg xmlns="http://www.w3.org/2000/svg" xmlns:xlink="http://www.w3.org/1999/xlink" viewBox="0 0 500 365"><defs><style>.a{fill:blue;}.b{fill:#edff24;}.c{fill:#ba0000;}.d{fill:url(#a);}.e{fill:#007f7f;opacity:0.6;}</style><linearGradient id="a" x1="-327.83" y1="-983.66" x2="-300.69" y2="-983.66" gradientTransform="translate(821.34 1239.24) scale(1.81 1.2)" gradientUnits="userSpaceOnUse"><stop offset="0" stop-color="#edff24"/><stop offset="1" stop-color="#fcc"/></linearGradient></defs><title>Artboard 7</title><polygon class="a" points="486.99 347.46 10.59 348.61 14.03 21.44 489.28 18 486.99 347.46"/><rect class="b" x="17.48" y="23.74" width="467.21" height="320.28"/><path class="c" d="M128.58,199l-12.08-1.88A24.89,24.89,0,0,1,97.12,181.5l-4.41-11.4a24.89,24.89,0,0,1,3.83-24.59l7.67-9.52a24.89,24.89,0,0,1,23.21-9l12.08,1.88a24.89,24.89,0,0,1,19.38,15.62l4.41,11.4a24.89,24.89,0,0,1-3.83,24.59L151.79,190A24.89,24.89,0,0,1,128.58,199Z"/><path class="c" d="M163.68,281.16l-9.9,17.15a18.32,18.32,0,0,1-15.87,9.16H118.1a18.32,18.32,0,0,1-15.87-9.16l-9.9-17.15a18.32,18.32,0,0,1,0-18.32l9.9-17.15a18.32,18.32,0,0,1,15.87-9.16H137.9a18.32,18.32,0,0,1,15.87,9.16l9.9,17.15A18.32,18.32,0,0,1,163.68,281.16Z"/><path class="c" d="M282.84,175.55,270.41,191a18.32,18.32,0,0,1-17.09,6.61l-19.57-3.05A18.32,18.32,0,0,1,219.48,183l-7.14-18.47a18.32,18.32,0,0,1,2.82-18.1L227.59,131a18.32,18.32,0,0,1,17.09-6.61l19.57,3.05A18.32,18.32,0,0,1,278.52,139l7.14,18.47A18.32,18.32,0,0,1,282.84,175.55Z"/><path class="c" d="M243.54,307.26l-17-7.31a19.41,19.41,0,0,1-11.62-15.55L212.68,266a19.41,19.41,0,0,1,7.65-17.84L235.19,237a19.41,19.41,0,0,1,19.28-2.29l17,7.31a19.41,19.41,0,0,1,11.62,15.55L285.32,276a19.41,19.41,0,0,1-7.65,17.84L262.81,305A19.41,19.41,0,0,1,243.54,307.26Z"/><path class="c" d="M356.45,196.63l-16.12-11.51a18.32,18.32,0,0,1-7.59-16.68l1.91-19.72a18.32,18.32,0,0,1,10.65-14.91l18-8.21a18.32,18.32,0,0,1,18.24,1.76l16.12,11.51a18.32,18.32,0,0,1,7.59,16.68l-1.91,19.72a18.32,18.32,0,0,1-10.65,14.91l-18,8.21A18.32,18.32,0,0,1,356.45,196.63Z"/><path class="c" d="M365.69,308.68l-18.52-7a18.32,18.32,0,0,1-11.59-14.19l-3.18-19.55a18.32,18.32,0,0,1,6.49-17.13l15.34-12.53a18.32,18.32,0,0,1,18.09-2.94l18.52,7a18.32,18.32,0,0,1,11.59,14.19l3.18,19.55a18.32,18.32,0,0,1-6.49,17.13l-15.34,12.53A18.32,18.32,0,0,1,365.69,308.68Z"/><rect class="d" x="229.5" y="-125.5" width="49" height="378" transform="translate(190.5 317.5) rotate(-90)"/><rect class="e" x="171" y="52" width="167" height="11"/></svg>