<svg xmlns="http://www.w3.org/2000/svg" viewBox="0 0 500 308"><defs><style>.a{fill:blue;}.b{fill:#edff24;}</style></defs><title>Artboard 1</title><polygon class="a" points="57.91 184.79 347.54 184.79 464.46 295 15 295 57.91 184.79"/><polyline class="a" points="482.72 44.28 483.25 142.65 382.42 166.34"/><path class="a" d="M482.72,44.28,322.88,17.5,210.25,34c1.07,3.09,0,85.49,0,85.49l172.17,46.87"/><polygon class="b" points="58.44 186.34 18.75 293.45 455.35 292.43 344.86 186.34 58.44 186.34"/><polygon class="b" points="212.93 37.59 212.93 117.92 382.42 163.25 380.27 68.48 212.93 37.59"/><polygon class="b" points="382.42 68.48 384.56 163.25 480.04 139.56 481.11 46.85 382.42 68.48"/><polygon class="b" points="216.15 34.49 327.71 20.07 478.96 44.8 381.35 66.42 216.15 34.49"/></svg>