<svg xmlns="http://www.w3.org/2000/svg" viewBox="0 0 500 431"><defs><style>.a{fill:blue;}.b{fill:#edff24;}</style></defs><title>Artboard 2</title><polygon class="a" points="484.99 340.46 8.59 341.61 12.03 14.44 487.28 11 484.99 340.46"/><rect class="b" x="15.48" y="16.74" width="467.21" height="320.28"/><path class="a" d="M394.33,217.52q8.14-9,16.27-17.9c3.82-4.21,7.56-8.5,11.45-12.65,3.29-3.51,7.29-6.5,10-10.41s6.28-5.25,10.6-5.7c3-.31,4.35,1,4.42,4s-1,5.63-2.33,8.35c-2.87,5.89-5.53,11.84-9.77,17-8.62,10.41-17.06,21-25.75,31.33-3.13,3.73-6.82,7-10.07,10.62a9.5,9.5,0,0,0-1.68,4c-1.7,6.82-3,13.78-5,20.49-2.86,9.38-6.69,18.48-9.28,27.92-1.12,4.09.24,8.8-.29,13.13-.81,6.55,1.68,11.14,6.28,15.62,4.76,4.63,8.71,10.12,12.8,15.4q9.09,11.73,17.82,23.75a12.81,12.81,0,0,1,2.2,6c.62,6.52.85,13.07,1.28,19.61.12,1.84.44,3.66.56,5.5a8.26,8.26,0,0,1-.22,2.91c-3.87,12.42-17.41,23-30.6,24a16.69,16.69,0,0,0-3.48.63c-8.47,2.51-15.5,0-21.53-6.08-7.22-7.24-11.89-16-15.66-25.43-5.14-12.87-10.54-25.66-16.41-38.21-4.07-8.71-9-17-13.83-25.36-1.37-2.36-3.8-4.1-5.73-6.14-5.28-5.57-10.49-11.21-15.84-16.71-10.6-10.89-18.36-23.73-26.06-36.71-3.52-5.93-8.9-10.73-13.09-16.3a107.63,107.63,0,0,1-9.84-14.94c-1.94-3.75-2-8.44-3.84-12.29-2.11-4.49-5.22-8.5-7.87-12.73a81.36,81.36,0,0,1-4.86-8c-1.33-2.79-.58-3.73,2.42-4.43,10.68-2.5,19.66.45,26.21,9.14a37.16,37.16,0,0,1,6.14,12.64c1.84,7.06,6.6,11.59,11.59,16.15.51.47,1.21.8,1.54,1.37,3.1,5.22,8.11,5.12,13.25,5,2.43-.07,3.21-1.12,3.84-3.42a190.24,190.24,0,0,1,6.18-19.24c1.27-3.22,4.06-5.8,5.65-8.93a54.28,54.28,0,0,0,2.94-8.6q2.77-8.91,5.45-17.85c1.87-6.21,3.49-12.51,5.61-18.64,5-14.47,6.74-29.9,13.21-43.92a30.25,30.25,0,0,1,9.51-11.48c2.45-1.86,5.87-.62,8.65,2.72,1.9,2.29,3.15,4.74,2.53,7.82-.65,3.26-1.3,6.52-2,9.77-.74,3.66-1.28,7.37-2.29,11-1.41,5-3.26,9.92-4.76,14.91-1.34,4.45-2.51,9-3.69,13.46-2.21,8.43-4.28,16.9-6.59,25.3-1.09,4-.41,3.3,4.12,5.45,2.3,1.09,3.64,0,4.65-2.41,7.59-18.46,15.43-36.82,23-55.28,3.37-8.19,6.34-16.55,9.44-24.85.95-2.53,1.77-5.12,2.55-7.71,1.43-4.78,5.53-7,9.19-9.58,2.56-1.8,5.31-1.3,6.9,1.3,3.66,6,.09,19.65-2.37,26.5-2.05,5.72-3.47,11.67-5.37,17.44-4,12.12-8.12,24.2-12.17,36.31-.64,1.9-7.12,21.92-7.18,24.09,2.56-3.68,20.12-33.46,22.63-37.16,3.75-5.53,22.6-39.84,27.17-41.19a40.34,40.34,0,0,1,7-1.13c2.82-.31,4,.85,4.21,3.59a44.2,44.2,0,0,1-4.17,22.21c-2.33,4.83-5.76,9.12-8.39,13.82-5.67,10.12-11,20.41-16.73,30.51-3.31,5.87-7.06,11.48-10.49,17.27-.56.94-.5,2.24-.72,3.37Z"/></svg>