<svg xmlns="http://www.w3.org/2000/svg" xmlns:xlink="http://www.w3.org/1999/xlink" viewBox="0 0 500 1095"><defs><style>.a{fill:blue;}.b{fill:#edff24;}.c,.d,.k{fill:#ba0000;}.d,.f{opacity:0.6;}.e{fill:url(#a);}.f,.i{fill:#007f7f;}.g,.j{fill:#ffc;}.g,.l{stroke:blue;stroke-miterlimit:10;stroke-width:0.5px;}.h,.k{opacity:0.5;}.l{fill:none;}</style><linearGradient id="a" x1="-1597.24" y1="-2950.01" x2="-1580.92" y2="-2950.01" gradientTransform="translate(3038.7 3995) scale(1.81 1.2)" gradientUnits="userSpaceOnUse"><stop offset="0" stop-color="#edff24"/><stop offset="1" stop-color="#fcc"/></linearGradient></defs><title>Artboard 10</title><polygon class="a" points="309.97 639.64 23.59 640.33 25.66 443.66 311.35 441.59 309.97 639.64"/><rect class="b" x="27.73" y="445.04" width="280.86" height="192.53"/><polygon class="a" points="346.97 214.64 60.59 215.33 62.66 18.66 348.35 16.59 346.97 214.64"/><rect class="b" x="64.73" y="20.04" width="280.86" height="192.53"/><polygon class="a" points="367.97 1074.64 81.59 1075.33 83.66 878.66 369.35 876.59 367.97 1074.64"/><rect class="b" x="85.73" y="880.04" width="280.86" height="192.53"/><polygon class="a" points="474.46 412.64 188.64 430.57 178.87 234.13 463.91 214.87 474.46 412.64"/><rect class="b" x="186.56" y="226.76" width="280.86" height="192.53" transform="translate(-18.85 20.27) rotate(-3.45)"/><polygon class="a" points="440.51 870 157.87 823.86 192.07 630.17 474.25 674.84 440.51 870"/><rect class="b" x="176.26" y="653.54" width="280.86" height="192.53" transform="translate(126.86 -41.69) rotate(9.41)"/><path class="c" d="M93,550.16l-4.22-.66A17.63,17.63,0,0,1,75,538.44l-1.54-4A17.63,17.63,0,0,1,76.22,517l2.68-3.32a17.63,17.63,0,0,1,16.44-6.36l4.22.66a17.63,17.63,0,0,1,13.73,11.06l1.54,4a17.63,17.63,0,0,1-2.72,17.42l-2.68,3.32A17.63,17.63,0,0,1,93,550.16Z"/><path class="c" d="M113.51,603.44l-1.73,3a18.32,18.32,0,0,1-15.87,9.16H92.43a18.32,18.32,0,0,1-15.87-9.16l-1.73-3a18.32,18.32,0,0,1,0-18.32l1.73-3A18.32,18.32,0,0,1,92.44,573H95.9a18.32,18.32,0,0,1,15.87,9.16l1.73,3A18.32,18.32,0,0,1,113.51,603.44Z"/><path class="c" d="M184.6,539.59l-2.18,2.7a18.32,18.32,0,0,1-17.09,6.61l-3.43-.53a18.32,18.32,0,0,1-14.27-11.5l-1.25-3.23a18.32,18.32,0,0,1,2.82-18.1l2.18-2.7a18.32,18.32,0,0,1,17.09-6.61l3.43.53a18.32,18.32,0,0,1,14.27,11.5l1.25,3.23A18.32,18.32,0,0,1,184.6,539.59Z"/><path class="c" d="M159.51,613.72l-2-.87a19.41,19.41,0,0,1-11.62-15.55l-.26-2.19a19.41,19.41,0,0,1,7.65-17.84l1.77-1.32a19.41,19.41,0,0,1,19.28-2.29l2,.87A19.41,19.41,0,0,1,188,590.07l.26,2.19a19.41,19.41,0,0,1-7.65,17.84l-1.77,1.32A19.41,19.41,0,0,1,159.51,613.72Z"/><path class="c" d="M228.06,546.52l-2.82-2a18.32,18.32,0,0,1-7.59-16.68l.33-3.45a18.32,18.32,0,0,1,10.65-14.91l3.16-1.44A18.32,18.32,0,0,1,250,509.79l2.82,2a18.32,18.32,0,0,1,7.59,16.68l-.33,3.45a18.32,18.32,0,0,1-10.65,14.91l-3.16,1.44A18.32,18.32,0,0,1,228.06,546.52Z"/><path class="c" d="M233.11,614.84l-3.24-1.23a18.32,18.32,0,0,1-11.59-14.19l-.56-3.42a18.32,18.32,0,0,1,6.49-17.13l2.69-2.19A18.32,18.32,0,0,1,245,573.72l3.24,1.23a18.32,18.32,0,0,1,11.59,14.19l.56,3.42a18.32,18.32,0,0,1-6.49,17.13l-2.69,2.19A18.32,18.32,0,0,1,233.11,614.84Z"/><rect class="d" x="81" y="54" width="83" height="118"/><rect class="d" x="101" y="891" width="83" height="83"/><rect class="d" x="101" y="978" width="83" height="83"/><rect class="e" x="155.18" y="355.33" width="29.46" height="227.23" transform="translate(-299.03 638.86) rotate(-90)"/><rect class="f" x="120.02" y="462.03" width="100.39" height="6.61"/><rect class="f" x="51.16" y="519.68" width="68.83" height="6.78"/><rect class="f" x="136.03" y="510.07" width="68.83" height="6.78"/><rect class="f" x="210.49" y="531.69" width="55.22" height="6.78"/><rect class="f" x="228.1" y="586.93" width="55.22" height="6.78"/><rect class="f" x="139.23" y="586.93" width="55.22" height="6.78"/><rect class="f" x="55.94" y="599.74" width="65.65" height="6.78"/><rect class="f" x="228.1" y="596.54" width="55.22" height="6.78"/><rect class="f" x="228.1" y="606.15" width="55.22" height="6.78"/><rect class="f" x="51.16" y="528.48" width="68.83" height="6.78"/><rect class="g" x="196.76" y="660.89" width="110.06" height="148.51" transform="matrix(0.99, 0.16, -0.16, 0.99, 123.59, -31.28)"/><g class="h"><rect class="i" x="259.87" y="637.72" width="1.27" height="82.31" transform="translate(-451.83 824.87) rotate(-80.59)"/><rect class="i" x="259.27" y="641.33" width="1.27" height="82.31" transform="translate(-455.89 827.3) rotate(-80.59)"/><rect class="i" x="258.68" y="644.94" width="1.27" height="82.31" transform="translate(-459.95 829.73) rotate(-80.59)"/><rect class="i" x="258.08" y="648.54" width="1.27" height="82.31" transform="translate(-464 832.15) rotate(-80.59)"/><rect class="i" x="257.48" y="652.15" width="1.27" height="82.31" transform="translate(-468.06 834.58) rotate(-80.59)"/><rect class="i" x="256.88" y="655.75" width="1.27" height="82.31" transform="translate(-472.12 837.01) rotate(-80.59)"/><rect class="i" x="256.29" y="659.36" width="1.27" height="82.31" transform="translate(-476.18 839.43) rotate(-80.59)"/><rect class="i" x="255.69" y="662.97" width="1.27" height="82.31" transform="translate(-480.23 841.86) rotate(-80.59)"/><rect class="i" x="255.09" y="666.57" width="1.27" height="82.31" transform="translate(-484.29 844.29) rotate(-80.59)"/><rect class="i" x="254.49" y="670.18" width="1.27" height="82.31" transform="translate(-488.35 846.72) rotate(-80.59)"/><rect class="i" x="253.89" y="673.79" width="1.27" height="82.31" transform="translate(-492.41 849.14) rotate(-80.59)"/><rect class="i" x="253.3" y="677.39" width="1.27" height="82.31" transform="translate(-496.46 851.57) rotate(-80.59)"/><rect class="i" x="252.7" y="681" width="1.27" height="82.31" transform="translate(-500.52 854) rotate(-80.59)"/><rect class="i" x="252.1" y="684.6" width="1.27" height="82.31" transform="translate(-504.58 856.42) rotate(-80.59)"/><rect class="i" x="251.5" y="688.21" width="1.27" height="82.31" transform="translate(-508.64 858.85) rotate(-80.59)"/><rect class="i" x="250.91" y="691.82" width="1.27" height="82.31" transform="translate(-512.7 861.28) rotate(-80.59)"/><rect class="i" x="250.31" y="695.42" width="1.27" height="82.31" transform="translate(-516.75 863.7) rotate(-80.59)"/><rect class="i" x="249.71" y="699.03" width="1.27" height="82.31" transform="translate(-520.81 866.13) rotate(-80.59)"/><rect class="i" x="249.11" y="702.64" width="1.27" height="82.31" transform="translate(-524.87 868.56) rotate(-80.59)"/><rect class="i" x="248.52" y="706.24" width="1.27" height="82.31" transform="translate(-528.93 870.98) rotate(-80.59)"/><rect class="i" x="247.92" y="709.85" width="1.27" height="82.31" transform="translate(-532.98 873.41) rotate(-80.59)"/><rect class="i" x="247.32" y="713.45" width="1.27" height="82.31" transform="translate(-537.04 875.84) rotate(-80.59)"/><rect class="i" x="246.72" y="717.06" width="1.27" height="82.31" transform="translate(-541.1 878.27) rotate(-80.59)"/><rect class="i" x="246.12" y="720.67" width="1.27" height="82.31" transform="translate(-545.16 880.69) rotate(-80.59)"/><rect class="i" x="245.53" y="724.27" width="1.27" height="82.31" transform="translate(-549.21 883.12) rotate(-80.59)"/><rect class="i" x="244.93" y="727.88" width="1.27" height="82.31" transform="translate(-553.27 885.55) rotate(-80.59)"/><rect class="i" x="244.33" y="731.48" width="1.27" height="82.31" transform="translate(-557.33 887.97) rotate(-80.59)"/><rect class="i" x="243.73" y="735.09" width="1.27" height="82.31" transform="translate(-561.39 890.4) rotate(-80.59)"/><rect class="i" x="243.14" y="738.7" width="1.27" height="82.31" transform="translate(-565.44 892.83) rotate(-80.59)"/><rect class="i" x="242.54" y="742.3" width="1.27" height="82.31" transform="translate(-569.5 895.25) rotate(-80.59)"/><rect class="i" x="241.94" y="745.91" width="1.27" height="82.31" transform="translate(-573.56 897.68) rotate(-80.59)"/><rect class="i" x="241.34" y="749.52" width="1.27" height="82.31" transform="translate(-577.62 900.11) rotate(-80.59)"/></g><rect class="j" x="256.38" y="677.86" width="46.43" height="65.94" transform="translate(119.99 -36.15) rotate(9.41)"/><rect class="k" x="261.11" y="681.09" width="36.46" height="58.21" transform="translate(119.88 -36.12) rotate(9.41)"/><rect class="g" x="314.95" y="680.47" width="110.06" height="148.51" transform="translate(128.38 -50.34) rotate(9.41)"/><g class="h"><rect class="i" x="378.06" y="657.31" width="1.27" height="82.31" transform="translate(-372.29 957.86) rotate(-80.59)"/><rect class="i" x="377.46" y="660.92" width="1.27" height="82.31" transform="translate(-376.35 960.28) rotate(-80.59)"/><rect class="i" x="376.87" y="664.52" width="1.27" height="82.31" transform="translate(-380.41 962.71) rotate(-80.59)"/><rect class="i" x="376.27" y="668.13" width="1.27" height="82.31" transform="translate(-384.46 965.14) rotate(-80.59)"/><rect class="i" x="375.67" y="671.74" width="1.27" height="82.31" transform="translate(-388.52 967.57) rotate(-80.59)"/><rect class="i" x="375.07" y="675.34" width="1.27" height="82.31" transform="translate(-392.58 969.99) rotate(-80.59)"/><rect class="i" x="374.47" y="678.95" width="1.27" height="82.31" transform="translate(-396.64 972.42) rotate(-80.59)"/><rect class="i" x="373.88" y="682.56" width="1.27" height="82.31" transform="translate(-400.69 974.85) rotate(-80.59)"/><rect class="i" x="373.28" y="686.16" width="1.27" height="82.31" transform="translate(-404.75 977.27) rotate(-80.59)"/><rect class="i" x="372.68" y="689.77" width="1.27" height="82.31" transform="translate(-408.81 979.7) rotate(-80.59)"/><rect class="i" x="372.08" y="693.37" width="1.27" height="82.31" transform="translate(-412.87 982.13) rotate(-80.59)"/><rect class="i" x="371.49" y="696.98" width="1.27" height="82.31" transform="translate(-416.93 984.55) rotate(-80.59)"/><rect class="i" x="370.89" y="700.59" width="1.27" height="82.31" transform="translate(-420.98 986.98) rotate(-80.59)"/><rect class="i" x="370.29" y="704.19" width="1.27" height="82.31" transform="translate(-425.04 989.41) rotate(-80.59)"/><rect class="i" x="369.69" y="707.8" width="1.27" height="82.31" transform="translate(-429.1 991.83) rotate(-80.59)"/><rect class="i" x="369.1" y="711.41" width="1.27" height="82.31" transform="translate(-433.16 994.26) rotate(-80.59)"/><rect class="i" x="368.5" y="715.01" width="1.27" height="82.31" transform="translate(-437.21 996.69) rotate(-80.59)"/><rect class="i" x="367.9" y="718.62" width="1.27" height="82.31" transform="translate(-441.27 999.12) rotate(-80.59)"/><rect class="i" x="367.3" y="722.22" width="1.27" height="82.31" transform="translate(-445.33 1001.54) rotate(-80.59)"/><rect class="i" x="366.7" y="725.83" width="1.27" height="82.31" transform="translate(-449.39 1003.97) rotate(-80.59)"/><rect class="i" x="366.11" y="729.44" width="1.27" height="82.31" transform="translate(-453.44 1006.4) rotate(-80.59)"/><rect class="i" x="365.51" y="733.04" width="1.27" height="82.31" transform="translate(-457.5 1008.82) rotate(-80.59)"/><rect class="i" x="364.91" y="736.65" width="1.27" height="82.31" transform="translate(-461.56 1011.25) rotate(-80.59)"/><rect class="i" x="364.31" y="740.25" width="1.27" height="82.31" transform="translate(-465.62 1013.68) rotate(-80.59)"/><rect class="i" x="363.72" y="743.86" width="1.27" height="82.31" transform="translate(-469.67 1016.1) rotate(-80.59)"/><rect class="i" x="363.12" y="747.47" width="1.27" height="82.31" transform="translate(-473.73 1018.53) rotate(-80.59)"/><rect class="i" x="362.52" y="751.07" width="1.27" height="82.31" transform="translate(-477.79 1020.96) rotate(-80.59)"/><rect class="i" x="361.92" y="754.68" width="1.27" height="82.31" transform="translate(-481.85 1023.38) rotate(-80.59)"/><rect class="i" x="361.33" y="758.29" width="1.27" height="82.31" transform="translate(-485.9 1025.81) rotate(-80.59)"/><rect class="i" x="360.73" y="761.89" width="1.27" height="82.31" transform="translate(-489.96 1028.24) rotate(-80.59)"/><rect class="i" x="360.13" y="765.5" width="1.27" height="82.31" transform="translate(-494.02 1030.67) rotate(-80.59)"/><rect class="i" x="359.53" y="769.1" width="1.27" height="82.31" transform="translate(-498.08 1033.09) rotate(-80.59)"/></g><rect class="g" x="434.65" y="692.96" width="21.37" height="148.51" transform="translate(131.44 -62.49) rotate(9.41)"/><g class="h"><rect class="i" x="460.79" y="707.9" width="1.27" height="8.56" transform="translate(-316.61 1050.94) rotate(-80.59)"/><rect class="i" x="460.19" y="711.5" width="1.27" height="8.56" transform="translate(-320.67 1053.37) rotate(-80.59)"/><rect class="i" x="459.6" y="715.11" width="1.27" height="8.56" transform="translate(-324.73 1055.8) rotate(-80.59)"/><rect class="i" x="459" y="718.71" width="1.27" height="8.56" transform="translate(-328.79 1058.23) rotate(-80.59)"/><rect class="i" x="458.4" y="722.32" width="1.27" height="8.56" transform="translate(-332.85 1060.65) rotate(-80.59)"/><rect class="i" x="457.8" y="725.93" width="1.27" height="8.56" transform="translate(-336.9 1063.08) rotate(-80.59)"/><rect class="i" x="457.21" y="729.53" width="1.27" height="8.56" transform="translate(-340.96 1065.51) rotate(-80.59)"/><rect class="i" x="456.61" y="733.14" width="1.27" height="8.56" transform="translate(-345.02 1067.93) rotate(-80.59)"/><rect class="i" x="456.01" y="736.74" width="1.27" height="8.56" transform="translate(-349.08 1070.36) rotate(-80.59)"/><rect class="i" x="455.41" y="740.35" width="1.27" height="8.56" transform="translate(-353.13 1072.79) rotate(-80.59)"/><rect class="i" x="454.81" y="743.96" width="1.27" height="8.56" transform="translate(-357.19 1075.21) rotate(-80.59)"/><rect class="i" x="454.22" y="747.56" width="1.27" height="8.56" transform="translate(-361.25 1077.64) rotate(-80.59)"/><rect class="i" x="453.62" y="751.17" width="1.27" height="8.56" transform="translate(-365.31 1080.07) rotate(-80.59)"/><rect class="i" x="453.02" y="754.78" width="1.27" height="8.56" transform="translate(-369.36 1082.49) rotate(-80.59)"/><rect class="i" x="452.42" y="758.38" width="1.27" height="8.56" transform="translate(-373.42 1084.92) rotate(-80.59)"/><rect class="i" x="451.83" y="761.99" width="1.27" height="8.56" transform="translate(-377.48 1087.35) rotate(-80.59)"/><rect class="i" x="451.23" y="765.59" width="1.27" height="8.56" transform="translate(-381.54 1089.78) rotate(-80.59)"/><rect class="i" x="450.63" y="769.2" width="1.27" height="8.56" transform="translate(-385.59 1092.2) rotate(-80.59)"/><rect class="i" x="450.03" y="772.81" width="1.27" height="8.56" transform="translate(-389.65 1094.63) rotate(-80.59)"/><rect class="i" x="449.44" y="776.41" width="1.27" height="8.56" transform="translate(-393.71 1097.06) rotate(-80.59)"/><rect class="i" x="448.84" y="780.02" width="1.27" height="8.56" transform="translate(-397.77 1099.48) rotate(-80.59)"/><rect class="i" x="448.24" y="783.63" width="1.27" height="8.56" transform="translate(-401.83 1101.91) rotate(-80.59)"/><rect class="i" x="447.64" y="787.23" width="1.27" height="8.56" transform="translate(-405.88 1104.34) rotate(-80.59)"/><rect class="i" x="447.04" y="790.84" width="1.27" height="8.56" transform="translate(-409.94 1106.76) rotate(-80.59)"/><rect class="i" x="446.45" y="794.44" width="1.27" height="8.56" transform="translate(-414 1109.19) rotate(-80.59)"/><rect class="i" x="445.85" y="798.05" width="1.27" height="8.56" transform="translate(-418.06 1111.62) rotate(-80.59)"/><rect class="i" x="445.25" y="801.66" width="1.27" height="8.56" transform="translate(-422.11 1114.04) rotate(-80.59)"/><rect class="i" x="444.65" y="805.26" width="1.27" height="8.56" transform="translate(-426.17 1116.47) rotate(-80.59)"/><rect class="i" x="444.06" y="808.87" width="1.27" height="8.56" transform="translate(-430.23 1118.9) rotate(-80.59)"/><rect class="i" x="443.46" y="812.48" width="1.27" height="8.56" transform="translate(-434.29 1121.33) rotate(-80.59)"/><rect class="i" x="442.86" y="816.08" width="1.27" height="8.56" transform="translate(-438.34 1123.75) rotate(-80.59)"/><rect class="i" x="442.26" y="819.69" width="1.27" height="8.56" transform="translate(-442.4 1126.18) rotate(-80.59)"/></g><rect class="f" x="295.38" y="379.25" width="100.39" height="3.71" transform="translate(-22.31 21.49) rotate(-3.45)"/><rect class="f" x="295.77" y="385.74" width="100.39" height="3.71" transform="translate(-22.7 21.53) rotate(-3.45)"/><rect class="f" x="296.16" y="392.23" width="100.39" height="3.71" transform="translate(-23.09 21.56) rotate(-3.45)"/><rect class="d" x="220.22" y="247.19" width="84.02" height="134.16" transform="translate(-18.44 16.36) rotate(-3.45)"/><rect class="d" x="305.94" y="241.96" width="83.59" height="56.15" transform="translate(-15.62 21.42) rotate(-3.45)"/><rect class="d" x="310.13" y="303.13" width="83.59" height="72.87" transform="translate(-19.8 21.8) rotate(-3.45)"/><rect class="g" x="211.49" y="36.27" width="118.51" height="159.92"/><g class="h"><rect class="i" x="225.78" y="54.24" width="88.63" height="1.36"/><rect class="i" x="225.78" y="58.18" width="88.63" height="1.36"/><rect class="i" x="225.78" y="62.11" width="88.63" height="1.36"/><rect class="i" x="225.78" y="66.05" width="88.63" height="1.36"/><rect class="i" x="225.78" y="69.98" width="88.63" height="1.36"/><rect class="i" x="225.78" y="73.92" width="88.63" height="1.36"/><rect class="i" x="225.78" y="77.86" width="88.63" height="1.36"/><rect class="i" x="225.78" y="81.79" width="88.63" height="1.36"/><rect class="i" x="225.78" y="85.73" width="88.63" height="1.36"/><rect class="i" x="225.78" y="89.66" width="88.63" height="1.36"/><rect class="i" x="225.78" y="93.6" width="88.63" height="1.36"/><rect class="i" x="225.78" y="97.54" width="88.63" height="1.36"/><rect class="i" x="225.78" y="101.47" width="88.63" height="1.36"/><rect class="i" x="225.78" y="105.41" width="88.63" height="1.36"/><rect class="i" x="225.78" y="109.34" width="88.63" height="1.36"/><rect class="i" x="225.78" y="113.28" width="88.63" height="1.36"/><rect class="i" x="225.78" y="117.22" width="88.63" height="1.36"/><rect class="i" x="225.78" y="121.15" width="88.63" height="1.36"/><rect class="i" x="225.78" y="125.09" width="88.63" height="1.36"/><rect class="i" x="225.78" y="129.02" width="88.63" height="1.36"/><rect class="i" x="225.78" y="132.96" width="88.63" height="1.36"/><rect class="i" x="225.78" y="136.9" width="88.63" height="1.36"/><rect class="i" x="225.78" y="140.83" width="88.63" height="1.36"/><rect class="i" x="225.78" y="144.77" width="88.63" height="1.36"/><rect class="i" x="225.78" y="148.7" width="88.63" height="1.36"/><rect class="i" x="225.78" y="152.64" width="88.63" height="1.36"/><rect class="i" x="225.78" y="156.58" width="88.63" height="1.36"/><rect class="i" x="225.78" y="160.51" width="88.63" height="1.36"/><rect class="i" x="225.78" y="164.45" width="88.63" height="1.36"/><rect class="i" x="225.78" y="168.38" width="88.63" height="1.36"/><rect class="i" x="225.78" y="172.32" width="88.63" height="1.36"/><rect class="i" x="225.78" y="176.26" width="88.63" height="1.36"/></g><rect class="g" x="235.49" y="896.27" width="118.51" height="159.92"/><g class="h"><rect class="i" x="250.78" y="963" width="88.63" height="0.89"/><rect class="i" x="250.78" y="965.57" width="88.63" height="0.89"/><rect class="i" x="250.78" y="968.14" width="88.63" height="0.89"/><rect class="i" x="250.78" y="970.72" width="88.63" height="0.89"/><rect class="i" x="250.78" y="973.29" width="88.63" height="0.89"/><rect class="i" x="250.78" y="975.86" width="88.63" height="0.89"/><rect class="i" x="250.78" y="978.43" width="88.63" height="0.89"/><rect class="i" x="250.78" y="981" width="88.63" height="0.89"/><rect class="i" x="250.78" y="983.58" width="88.63" height="0.89"/><rect class="i" x="250.78" y="986.15" width="88.63" height="0.89"/><rect class="i" x="250.78" y="988.72" width="88.63" height="0.89"/><rect class="i" x="250.78" y="991.29" width="88.63" height="0.89"/><rect class="i" x="250.78" y="993.86" width="88.63" height="0.89"/><rect class="i" x="250.78" y="996.43" width="88.63" height="0.89"/><rect class="i" x="250.78" y="999.01" width="88.63" height="0.89"/><rect class="i" x="250.78" y="1001.58" width="88.63" height="0.89"/><rect class="i" x="250.78" y="1004.15" width="88.63" height="0.89"/><rect class="i" x="250.78" y="1006.72" width="88.63" height="0.89"/><rect class="i" x="250.78" y="1009.29" width="88.63" height="0.89"/><rect class="i" x="250.78" y="1011.87" width="88.63" height="0.89"/><rect class="i" x="250.78" y="1014.44" width="88.63" height="0.89"/><rect class="i" x="250.78" y="1017.01" width="88.63" height="0.89"/><rect class="i" x="250.78" y="1019.58" width="88.63" height="0.89"/><rect class="i" x="250.78" y="1022.15" width="88.63" height="0.89"/><rect class="i" x="250.78" y="1024.73" width="88.63" height="0.89"/><rect class="i" x="250.78" y="1027.3" width="88.63" height="0.89"/><rect class="i" x="250.78" y="1029.87" width="88.63" height="0.89"/><rect class="i" x="250.78" y="1032.44" width="88.63" height="0.89"/><rect class="i" x="250.78" y="1035.01" width="88.63" height="0.89"/><rect class="i" x="250.78" y="1037.59" width="88.63" height="0.89"/><rect class="i" x="250.78" y="1040.16" width="88.63" height="0.89"/><rect class="i" x="250.78" y="1042.73" width="88.63" height="0.89"/></g><rect class="k" x="275.34" y="887.93" width="38.96" height="88.35" transform="translate(-637.28 1226.93) rotate(-90)"/><line class="l" x1="238.5" y1="596.5" x2="238.5" y2="657.5"/><line class="l" x1="168.5" y1="528.5" x2="224.5" y2="383.5"/><line class="l" x1="239.5" y1="526.5" x2="260.5" y2="196.5"/><line class="l" x1="94.5" y1="528.5" x2="136.5" y2="171.5"/><line class="l" x1="166.5" y1="590.5" x2="274.5" y2="896.5"/><line class="l" x1="94.5" y1="593.5" x2="129.5" y2="891.5"/></svg>