<svg xmlns="http://www.w3.org/2000/svg" viewBox="0 0 500 354"><defs><style>.a{fill:blue;}.b{fill:#edff24;}.c{fill:#fcc;}.d{fill:#007f7f;opacity:0.6;}</style></defs><title>Artboard 3</title><polygon class="a" points="486.99 340.46 10.59 341.61 14.03 14.44 489.28 11 486.99 340.46"/><rect class="b" x="17.48" y="16.74" width="467.21" height="320.28"/><path class="c" d="M128,120.25l-.74,23.14-7.15,1.1L117,116l13-3,9.26-13.56L123,89,108,99l2.83,4.49-5,6.83L98.9,96.84l27.42-18.76,28.87,22.23-21.67,19.15Z"/><polygon class="c" points="129.67 156.5 122.79 162.9 116.39 156.02 123.27 149.62 129.67 156.5 129.67 156.5"/><polygon class="c" points="122 220.49 85 248 89 253 118 233 118 271 120 271 124 271 126 271 126 233 155 253 159 248 122 220.49"/><rect class="c" x="247.5" y="94.5" width="166" height="28"/><rect class="c" x="248" y="130" width="166" height="28"/><rect class="c" x="248" y="166" width="166" height="28"/><rect class="c" x="248" y="202" width="166" height="28"/><rect class="c" x="248" y="238" width="166" height="28"/><rect class="d" x="259" y="105" width="144" height="8"/><rect class="d" x="259" y="140" width="144" height="8"/><rect class="d" x="259" y="176" width="144" height="8"/><rect class="d" x="259" y="212" width="144" height="8"/><rect class="d" x="260" y="248" width="144" height="8"/></svg>