<?xml version="1.0" encoding="utf-8"?>
<!-- Generator: Adobe Illustrator 21.1.0, SVG Export Plug-In . SVG Version: 6.00 Build 0)  -->
<svg version="1.1" id="Layer_1" xmlns="http://www.w3.org/2000/svg" xmlns:xlink="http://www.w3.org/1999/xlink" x="0px" y="0px"
	 viewBox="0 0 500 500" style="enable-background:new 0 0 500 500;" xml:space="preserve">
<style type="text/css">
	.st0{fill:#0000FF;}
	.st1{fill:#EDFF24;}
</style>
<title>Artboard 1</title>
<path class="st0" d="M248.3,334.2l-35.5,9.5l-3.3,3.5l-6,40.8l-1,0.6l-1-0.2l-1.6-2l5.7-40.7l-88,24l-1.6-1.8l1.1-1.1l87.6-23.7
	l1.9-1.9l0.7-5.1l-2.5,0.5h-1.6l-39.8,9.7l-2.7-1.3l-46.5-88.1v-0.2l-2.9-5.9l-5-2.4l-16.8-3.1l12.7,26.8l-0.2,1.1l-50.5,16.5
	l-1.9-1l-0.1-0.5l2-1.2l48.3-15.1v-0.4l-15-27.2l-0.9-0.5l-30.5-6.4l1.2-2.7l1.8-0.5l26.3,5.5l-0.1-0.6l-31.5-63.1l1.8-2.8l1.9,1.2
	l32.6,66.1l0.8,0.6l19.1,4.6l1.4,0.1L93,220.3l-1.2-1.1l-0.7-3l1.6-1.4l236-51.7l2.3,1.7l38,61.3l1.8,0.6l6.2-0.3L320.9,130l0.7-1.3
	l112.9-23.1l3.5,0.1l0.4,1.1l-1.8,1l-30.1,6h-0.1l-83.4,16.5l56.8,95.4l0.7,0.3l57.3-0.9l0.9,1.1l-0.4,2.6l-1.4,0.9l-54.8-0.2
	l53.2,76.6l0.4,2.4l-1.8,1.7l-0.8-0.3L380,230.9l-3.1-1.5l-5.5,0.3l34.9,54.4l1.2,3.4l-0.3,0.1l1.1,0.3l1,2.3l-197,44.8l-1.4,2.6
	l-0.4,4l38.6-9.6l55.6,91.2l-0.5,2.4l-2.8-1.5L248.3,334.2L248.3,334.2z M366.9,226.8l-36.5-59.6l-1.5-0.5L95,218.3l18,28l1.3,1
	l20.9,4.8l-9.3-9.1l1.9-1.2h1.7l13,12.2l-3.7,3l-13.8,5l1.9-3.7l5.3-3.2v-0.4l-17.1-3.8l49.7,92.2l1,0.2l39.9-10.5l2.8-2.8l3.1-22.1
	l-7.9,10.1l-1.4-1.3l-0.3-1.6l12.3-15.4l2.1,2.6l5.6,17.1l-3.8-1.4l-2.9-10.8l-3.7,23.7L405.2,288l-35.9-57.6l-0.9-0.6h-23v0.4
	l10.3,4.3l0.7,0.7l-3.4,2.6l-16.2-8.3l16.1-16.2l2.6,1.5l0.1,0.4l-12.1,11.6l0.2,0.5L366.9,226.8L366.9,226.8z"/>
<polygon class="st1" points="366.9,226.8 343.7,227.3 343.5,226.8 355.6,215.2 355.5,214.8 353.2,213.5 336.8,229.5 353,237.8 
	356.4,235.2 355.7,234.5 345.4,230.2 345.4,229.8 368.4,229.8 369.3,230.4 405.2,288 211.6,331.1 215.3,307.3 218.2,318.1 
	222.1,319.5 216.5,302.4 214.4,299.8 202.1,315.2 202.4,316.8 203.8,318.1 211.7,307.9 208.6,330 205.8,332.8 165.9,343.3 
	164.9,343.1 115.2,250.9 132.3,254.7 132.3,255.1 127,258.3 125.1,262 138.9,256.9 142.6,253.9 129.6,241.7 127.8,241.7 125.9,243 
	135.2,252.1 114.3,247.2 113,246.3 95,218.3 95.9,217.9 329,166.6 330.5,167.1 366.9,226.8 "/>
</svg>
