<?xml version="1.0" encoding="utf-8"?>
<!-- Generator: Adobe Illustrator 19.1.0, SVG Export Plug-In . SVG Version: 6.00 Build 0)  -->
<svg version="1.1" id="Layer_1" xmlns="http://www.w3.org/2000/svg" xmlns:xlink="http://www.w3.org/1999/xlink" x="0px" y="0px"
	 viewBox="0 0 3524.7 2885.4" style="enable-background:new 0 0 3524.7 2885.4;" xml:space="preserve">
<style type="text/css">
	.st0{fill:#FFFFFF;}
	.st1{fill:#F7EA34;}
	.st2{fill:#5398CE;}
	.st3{fill:#CF5299;}
	.st4{fill:#F6E934;}
</style>
<g>
	<path class="st0" d="M693,2221.2c84.7-45.8,189.6-6.5,285.2,57.4c-0.6-8.1-1.5-16.1-2.4-24c-15.4-123.9-61.4-242.6-133.3-344.7
		c-58.6-83.1-146.5-160.1-256.4-158.6c-79.6,1.1-157.3,45.8-205.8,107.5c-48.5,61.7-70.1,138.3-71.9,212.5
		c-1.2,51.2,5.8,104.2,32.3,147.6c4.8,7.9,10.3,15.5,16.5,22.7c72,83.7,158,156,233.7,236.7c21.8,23.2,44.4,47,75,59.3
		c31.5,12.6,68.4,11.4,102.6,1.3C677.7,2457.3,541.2,2303.2,693,2221.2z"/>
	<g>
		<path class="st1" d="M699.3,2232c31.1-16.6,65.6-20.8,100.8-16.6c37.3,4.6,74.9,19.2,108.8,36.6c21.7,11.2,42.7,23.8,63,37.4
			c7.6,5.1,19.5-1.5,18.8-10.8c-5.1-65.5-20.2-130.8-42.6-192.4c-22.1-61.1-51.8-119.6-88.4-173.3c-32.7-47.9-71.8-91.9-119.9-124.8
			c-47.7-32.7-104.9-52.2-163.1-48.9c-61,3.5-118.8,29.9-165,69.2c-47.8,40.6-81.2,96.1-99.1,155.9c-18.2,60.6-22.7,128.4-9.7,190.5
			c6.7,32.2,19.7,62.9,40,88.9c21,26.9,45.6,51.5,69.6,75.7c48.6,49.1,99.7,95.8,148,145.2c22.4,23,43.3,47.9,69.3,67
			c26.7,19.6,58.9,28.8,91.9,27.7c17-0.5,34-3.5,50.4-8.2c8.6-2.5,12.7-14.4,5.5-20.9c-38.8-34.9-76.2-73.2-104.2-115.6
			c-7.1-10.8-13.7-21.9-19.4-33.5c-1.3-2.7-2.6-5.4-3.8-8.2c-0.2-0.5-1.6-3.9-0.8-1.9c-0.7-1.6-1.3-3.3-2-4.9
			c-2.1-5.5-4-11.1-5.5-16.8c-1.5-5.5-2.6-11-3.5-16.7c-0.3-1.9,0.2,2.1,0,0.1c-0.1-0.5-0.1-1.1-0.2-1.6c-0.2-1.4-0.3-2.8-0.4-4.2
			c-0.2-2.8-0.3-5.6-0.3-8.4c0-2.6,0.1-5.2,0.3-7.8c0.1-1.2,0.2-2.4,0.4-3.6c0.2-2.4,0-0.2,0,0.2c0.1-0.9,0.3-1.7,0.4-2.6
			c0.9-5.3,2.3-10.5,4.2-15.6c0.2-0.7,0.5-1.3,0.7-2c0.8-2.2-0.4,0.9,0.2-0.4c0.7-1.5,1.3-2.9,2.1-4.4c1.4-2.8,2.9-5.5,4.6-8.1
			c0.9-1.4,1.8-2.8,2.8-4.2c0.4-0.5,2.8-3.8,1.5-2.1c2.2-2.8,4.6-5.5,7.1-8.1C672.8,2247.9,684.6,2240,699.3,2232
			c14.1-7.7,1.5-29.3-12.6-21.6c-25.3,13.8-49.5,33-62.7,59.3c-11.4,22.8-13.7,47.8-9.3,72.7c4.4,25.5,15.7,49.8,28.9,71.8
			c14.8,24.8,32.8,47.7,51.8,69.2c20.1,22.7,41.8,44.1,64.4,64.4c1.8-7,3.7-13.9,5.5-20.9c-29.6,8.5-61.6,10.8-91.2,0.5
			c-27.1-9.5-48.3-30.4-67.7-50.8c-45.6-48-93.5-93.6-140.9-139.8c-23.8-23.2-47.4-46.7-70-71.1c-21.6-23.3-43.1-46.2-55.8-75.8
			c-11.9-27.5-17-57.7-18.4-87.4c-1.5-29.6,0.1-59.5,5.2-88.6c10.3-58.5,34.3-115.4,74.2-159.9c37.2-41.6,86.7-72.5,141.3-84.8
			c52.9-11.9,107.9-2.7,155.6,22.6c47.8,25.3,87.5,63.5,120.6,106.2c36.5,47.1,67.2,101.6,90.9,156.9
			c24.4,56.9,41.4,117.1,51.1,178.2c2.4,15.2,4.3,30.4,5.5,45.7c6.3-3.6,12.5-7.2,18.8-10.8c-37.1-24.8-76.5-46.7-118.7-61.7
			c-36.6-13.1-76.5-20.7-115.3-15.8c-22.4,2.8-43.8,9.4-63.8,20.1c-6,3.2-7.8,11.4-4.5,17.1C685.7,2233.5,693.3,2235.2,699.3,2232z"
			/>
	</g>
</g>
<g>
	<path class="st0" d="M1429.8,1946.3c70.3-38.1,154.7-17,236.2,28.3c-18.4-116.7-63.4-228.3-131.3-325.1
		c-59-84.1-147.3-162-257.2-160.8c-79.7,0.9-157.3,45.7-205.7,107.7c-48.4,62-69.7,139.2-71.3,214.1c-1.1,51.6,6.2,105.2,32.8,149
		c4.9,8,10.4,15.7,16.6,22.9c72.4,84.7,158.7,157.9,234.8,239.6c21.9,23.5,44.7,47.6,75.3,60c37.4,15.2,82.4,10.8,121.5-4.7
		c8.2-3.3,16.3-7,24.1-11.1C1414.3,2183.3,1278.6,2028.2,1429.8,1946.3z"/>
	<g>
		<path class="st1" d="M1436.1,1957.1c54.2-29,117-18.7,172,3.3c17.7,7.1,34.9,15.7,51.6,25c10.3,5.7,20-3.7,18.4-14.1
			c-10.3-65.1-29-128.5-55-189.1c-25.3-58.9-57.7-115.2-97.3-165.6c-35.3-44.9-78.5-85.6-129.8-111.6
			c-53.6-27.2-114.4-36.1-173.1-21.9c-58.5,14.1-112.4,48.7-151.5,94.2c-41.7,48.6-67.5,109.4-77.7,172.3
			c-10.2,63.2-9.2,132.4,16.5,191.9c13.7,31.7,36.5,56.8,59.7,82c23.3,25.3,47.6,49.7,72.1,73.8c24.8,24.4,49.9,48.4,74.7,72.9
			c24,23.7,47.1,48.2,70.5,72.5c22.3,23.2,47.2,44.6,78.3,54.5c31.8,10.1,66.9,8.1,98.6-0.8c16.6-4.6,32.6-11.4,47.9-19.4
			c6.9-3.6,8.3-14.4,2.5-19.6c-38.9-35.4-76.1-73.9-104.2-116.9c-7.1-10.9-13.7-22.1-19.3-33.8c-1.3-2.7-2.6-5.5-3.8-8.2
			c-0.1-0.3-1.1-2.6-0.5-1.2c0.5,1.2-0.3-0.6-0.3-0.7c-0.7-1.6-1.3-3.3-1.9-4.9c-2.1-5.5-4-11.2-5.5-16.9
			c-1.5-5.5-2.6-11.1-3.5-16.8c-0.3-1.9,0.2,2,0,0.1c-0.1-0.5-0.1-1.1-0.2-1.6c-0.2-1.4-0.3-2.8-0.4-4.3c-0.2-2.8-0.3-5.6-0.3-8.5
			c0-2.6,0.1-5.2,0.3-7.9c0.1-1.2,0.2-2.4,0.4-3.6c0.2-2.4,0-0.2,0,0.2c0.1-0.9,0.3-1.7,0.4-2.6c0.9-5.3,2.3-10.6,4.2-15.6
			c0.2-0.7,0.5-1.3,0.7-2c0.8-2.2-0.4,0.9,0.2-0.5c0.7-1.5,1.3-2.9,2-4.4c1.4-2.8,2.9-5.5,4.6-8.1c0.9-1.4,1.8-2.8,2.8-4.2
			c0.4-0.5,2.8-3.8,1.5-2.1c2.2-2.8,4.6-5.5,7-8.1C1409.7,1973,1421.5,1965,1436.1,1957.1c14.1-7.7,1.5-29.3-12.6-21.6
			c-25.3,13.8-49.4,33.1-62.5,59.3c-11.4,22.9-13.6,48-9.3,73c4.4,25.6,15.7,50.1,28.8,72.3c14.8,24.9,32.7,48,51.8,69.8
			c20.1,23,41.9,44.6,64.5,65.1c0.8-6.5,1.7-13.1,2.5-19.6c-27.9,14.5-58.7,23.9-90.4,23.5c-29.7-0.4-56.5-11-79.1-30
			c-23.8-19.9-43.8-44.2-65.5-66.3c-23.5-23.9-47.5-47.3-71.6-70.7c-24.1-23.4-48.1-46.7-71.6-70.7c-11.6-11.8-23-23.8-34.2-36
			c-11.1-12.1-22.6-24.1-32.6-37.1c-37.5-48.8-44.1-114.5-40.5-174c3.5-59.2,20.4-118.1,52.6-168.3c30.4-47.4,75.7-86.3,127.9-107.2
			c52.4-21,108.1-22.9,161.1-4c50.5,18,94.3,53.2,130.3,93.1c39.4,43.6,71.2,94.9,97.6,147.8c28,56.2,48.8,115.8,62.3,177.1
			c3.3,15.1,6.1,30.2,8.6,45.4c6.1-4.7,12.2-9.4,18.4-14.1c-59.3-32.8-128.3-58.8-197.1-46.6c-18.1,3.2-35.5,9.6-51.7,18.3
			c-5.9,3.2-7.8,11.4-4.5,17.1C1422.5,1958.6,1430.1,1960.3,1436.1,1957.1z"/>
	</g>
</g>
<g>
	<path class="st0" d="M2924.8,2449.4c-95.8-11.8-177.7,73.7-241.6,181c-2.5-8.7-4.8-17.4-6.9-26.1c-33.1-135.8-36.1-279.3-8.6-416.4
		c22.4-111.7,74.2-229.3,176.3-274.3c74-32.6,162.8-18.9,231.3,24.9c68.4,43.8,117.6,114.6,147.7,191.3
		c20.7,52.9,34.5,111.3,26.6,167.8c-1.4,10.3-3.6,20.5-6.6,30.7c-34.5,118-86.3,229.9-125.5,346.3c-11.2,33.4-23.1,67.9-46.7,93.7
		c-24.3,26.5-58.9,40.9-94.3,45C3029.1,2689.4,3096.4,2470.6,2924.8,2449.4z"/>
	<g>
		<path class="st1" d="M2924.8,2436.9c-87-10.3-157.8,55.2-206.7,119.1c-16.6,21.7-31.7,44.6-45.7,68.1c7.6,1,15.2,2,22.8,3
			c-20.3-70.1-30.5-143.5-33.1-216.3c-2.6-72.9,3-146.1,17.2-217.7c11.1-56,28.3-110.6,56.6-159.8c27-46.7,64.1-87.1,114.3-108.9
			c56.4-24.6,122.1-19.9,178.1,3.5c55.5,23.2,101.3,65.8,134.9,115.1c36.6,53.6,63.1,116.7,72.9,180.9c5.3,34.3,3.9,69.5-5.9,102.9
			c-10.3,35.2-22.3,70-34.9,104.4c-25.3,68.9-53.5,136.8-78.2,206c-11.1,31-19.7,63.6-35.2,92.8c-14.4,27.1-35.7,48.2-64.2,60
			c-13,5.4-27.9,9.2-41.5,10.8c3.6,6.3,7.2,12.5,10.8,18.8c24-56.5,45.1-115.2,54.9-176c8.9-54.9,10.5-119.6-28-164.4
			C2991.5,2453,2958.2,2441.2,2924.8,2436.9c-6.7-0.8-12.5,6.4-12.5,12.5c0,7.5,5.8,11.6,12.5,12.5c4,0.5-2.4-0.4,1.5,0.2
			c0.8,0.1,1.6,0.2,2.4,0.4c1.9,0.3,3.9,0.7,5.8,1c3.7,0.7,7.4,1.6,11,2.6c3.5,0.9,6.9,2,10.3,3.2c1.6,0.6,3.2,1.2,4.8,1.8
			c0.5,0.2,2.2,0.9-0.2-0.1c0.9,0.4,1.8,0.8,2.8,1.2c5.8,2.7,11.4,5.8,16.7,9.4c1.3,0.9,2.5,1.8,3.7,2.7c-2.7-2,1.2,1,1.7,1.5
			c2.3,1.9,4.5,4,6.6,6.1c2.1,2.1,4,4.3,5.9,6.6c0.4,0.5,0.7,0.9,1.1,1.4c1.9,2.3-1.5-2.2,0.2,0.3c0.8,1.2,1.7,2.4,2.5,3.6
			c3.3,4.9,6.2,10,8.6,15.4c0.3,0.6,2.2,5.2,0.9,1.9c0.6,1.4,1.1,2.8,1.6,4.2c1.1,2.9,2,5.7,2.9,8.7c1.8,6,3.2,12.1,4.2,18.3
			c0.3,1.6,0.5,3.2,0.7,4.8c0.4,2.3,0,0-0.1-0.4c0.1,1,0.2,1.9,0.4,2.9c0.4,3.3,0.7,6.6,0.9,9.9c0.4,6.8,0.6,13.6,0.5,20.4
			c-0.1,7.1-0.5,14.1-1.1,21.1c-0.3,3.6-0.7,7.2-1.1,10.8c-0.2,1.6-0.4,3.3-0.6,4.9c-0.1,0.7-0.4,3.1-0.1,0.5
			c-0.2,1.1-0.3,2.2-0.5,3.3c-4.4,29.9-11.8,59.4-20.8,88.3c-5,16-10.4,31.8-16.3,47.4c-2.7,7.3-5.5,14.5-8.4,21.7
			c-1.4,3.5-2.8,6.9-4.2,10.4c-0.8,1.8-1.5,3.7-2.3,5.5c-0.3,0.6-0.5,1.2-0.8,1.8c1.3-3-0.4,1-0.6,1.5c-1.8,4.3-2.5,8.4,0,12.6
			c2,3.5,6.6,6.7,10.8,6.2c33.6-4,65.6-15.6,91.7-37.6c26.5-22.4,41.5-54.4,53.1-86.4c12.5-34.4,23.9-69.2,36.8-103.4
			c13.4-35.5,27.4-70.9,41-106.3c13.5-35.1,26.7-70.4,38.7-106.1c12.1-36,24.5-72,26.2-110.3c1.7-37.4-4.9-75.1-15.7-110.8
			c-9.9-32.8-23.1-64.8-39.4-95c-30.3-56.2-72.7-107-126.7-141.7c-55.9-36-124.7-52.4-190.6-41.6c-59.8,9.8-111.9,45-148.8,92.3
			c-36.9,47.1-60.7,103.2-76.5,160.6c-18.9,68.9-27.6,141.2-29.5,212.6c-1.9,76.4,5.2,153.2,21,227.9c3.8,18.1,8.1,36.1,13.2,53.9
			c3,10.3,17.3,12.3,22.8,3c23.1-38.7,48.9-76.1,80.5-108.3c13.9-14.2,28.4-27,44.4-37.7c15.5-10.4,30.7-18.3,47.5-23.5
			c4.9-1.5,10-2.8,15-3.9c2.5-0.5,5.1-0.9,7.6-1.3c0.3,0,2.4-0.3,0.5-0.1c1.3-0.2,2.6-0.3,3.9-0.4c10.5-1,21-0.8,31.4,0.4
			c6.7,0.8,12.5-6.3,12.5-12.5C2937.3,2442,2931.5,2437.7,2924.8,2436.9z"/>
	</g>
</g>
<g>
	<path class="st0" d="M2138.8,2475.1c-79.5-9.9-149.4,47.9-207.5,129.8c-27.6-129.6-28.7-265.2-2.9-395.1
		c22.4-112.8,74.1-231.6,176.2-277c74-32.9,162.8-19.1,231.3,25.2s117.6,115.8,147.7,193.3c20.7,53.4,34.5,112.4,26.6,169.5
		c-1.4,10.4-3.6,20.7-6.6,31c-34.5,119.1-86.3,232.1-125.4,349.7c-11.2,33.8-23.1,68.6-46.7,94.6c-28.7,31.7-72,46.2-114.1,46.6
		c-8.9,0.1-17.7-0.4-26.5-1.4C2243.7,2715.9,2309.8,2496.5,2138.8,2475.1z"/>
	<g>
		<path d="M2138.8,2462.6c-69.7-8.4-131.2,34-176.1,83.1c-15.2,16.6-29.1,34.5-42.1,52.8c7.6,1,15.2,2,22.8,3
			c-15.3-72.3-22.3-146.1-20.9-219.9c1.3-69.7,9.3-140,26.9-207.5c14.4-55.4,35.4-108.7,69.7-155c14.7-19.9,35-40.5,55.2-54.7
			c23.6-16.6,50-28,78.3-33.6c60.5-11.8,125.3,4.5,177,37.9c50.7,32.8,89.9,81.2,118.2,134.2c15.2,28.4,27.4,58.2,36.7,89
			c10.3,34,16.7,69.3,15.3,104.9c-1.4,36.1-13.4,70.2-24.6,104.2c-11.7,35.3-24.5,70.1-37.7,104.9c-13.2,34.7-26.7,69.3-39.8,104.1
			c-12.7,33.9-24.5,68-36.2,102.2c-9.9,29-21.7,58.8-44.1,80.5c-21,20.4-49.5,31.9-78,35.8c-15.5,2.1-32.3,1.8-48.2,0.1
			c4,5.3,8,10.5,12.1,15.8c23.6-56.3,44-115,53.4-175.5c8.5-55,9.8-119.6-28.9-164.3C2205.1,2478.7,2172.1,2466.9,2138.8,2462.6
			c-6.7-0.9-12.5,6.4-12.5,12.5c0,7.5,5.8,11.6,12.5,12.5c-2.6-0.3,1.3,0.2,1.5,0.2c0.8,0.1,1.6,0.2,2.4,0.4
			c1.9,0.3,3.9,0.7,5.8,1.1c3.7,0.7,7.4,1.6,11,2.6c3.4,0.9,6.9,2,10.2,3.2c1.6,0.6,3.2,1.2,4.8,1.8c0.5,0.2,2.2,1-0.2-0.1
			c0.9,0.4,1.8,0.8,2.7,1.2c5.8,2.7,11.4,5.8,16.6,9.5c1.3,0.9,2.5,1.8,3.7,2.7c-2.7-2,1.1,0.9,1.7,1.5c2.4,2,4.7,4.2,6.9,6.4
			c2,2,3.8,4.1,5.6,6.3c0.1,0.1,1.9,2.4,0.7,0.8c-1.3-1.6,0.5,0.7,0.6,0.8c0.9,1.3,1.9,2.6,2.8,4c3.3,4.9,6.1,10.1,8.6,15.5
			c0.5,1,1.8,4.3,0.7,1.5c0.6,1.4,1.1,2.8,1.6,4.2c1.1,3,2.1,6.1,3,9.1c1.8,6,3.2,12.2,4.2,18.4c0.2,1.4,0.4,2.9,0.7,4.3
			c0.5,3.3-0.3-2.8,0.1,0.5c0.1,0.7,0.2,1.3,0.2,2c0.4,3.5,0.7,6.9,0.9,10.4c0.5,6.8,0.6,13.7,0.5,20.5c-0.1,7.3-0.5,14.5-1.1,21.8
			c-0.3,3.3-0.6,6.5-1,9.8c-0.2,1.8-0.4,3.6-0.6,5.5c0,0-0.5,3.5-0.2,1.6c0.2-1.5-0.3,2.4-0.4,2.7c-4.3,30.1-11.7,59.8-20.7,88.8
			c-9.5,30.9-20.9,61.3-33.4,91.1c-3.5,8.3,5,15.1,12.1,15.8c34.1,3.6,68.3-0.3,99.9-14c31-13.4,55.5-36.8,71.7-66.3
			c17-30.9,26.3-65.4,37.9-98.5c12.6-36,26.2-71.6,39.9-107.1c13.8-35.9,27.7-71.7,40.7-107.8c12.9-35.7,25.7-71.9,35.6-108.6
			c19.6-72.3,1.8-149.4-26.5-216.8c-25-59.6-60.9-115.8-110-158.6c-50.2-43.7-113.5-71.8-180.6-73.7c-63.7-1.9-124,22.4-169.7,66.6
			c-42.8,41.4-71,95.8-90.5,151.4c-22.7,64.8-33.8,133.9-39.2,202.2c-6.1,76.8-2.9,154.2,8.7,230.4c2.8,18.6,6.2,37.1,10.1,55.5
			c1,4.8,5.8,8.4,10.4,9c5.3,0.6,9.4-1.7,12.5-6c20.5-28.8,43.5-56.2,70.5-79.1c22.8-19.4,49.2-35.1,78.2-42
			c15.3-3.6,30.9-4.5,48-2.4c6.7,0.8,12.5-6.3,12.5-12.5C2151.3,2467.7,2145.5,2463.4,2138.8,2462.6z"/>
	</g>
</g>
<g>
	<path class="st0" d="M2471.5,1326.5c-73.1-10.7-138.9,39.2-194.3,110.7c-22.4-115.9-20.2-236.6,6.7-351.6
		c23.3-99.8,73.8-204.4,169-242.4c69-27.6,150.6-13.2,212.6,27.7c62,40.9,105.7,105.7,131.6,175.3c17.8,48,29.2,100.8,20.5,151.4
		c-1.6,9.2-3.8,18.4-6.8,27.4c-34.6,105.2-85,204.6-123.8,308.2c-11.2,29.8-22.9,60.5-45.3,83.1c-27.3,27.6-67.5,39.5-106.3,38.9
		c-8.2-0.1-16.3-0.8-24.4-1.8C2562.5,1543.1,2628.6,1349.4,2471.5,1326.5z"/>
	<g>
		<path d="M2474.8,1314.4c-31-4.4-61,0.5-89.6,13.2c-29.2,12.9-55,33.4-77.5,55.8c-14.1,14.1-27.1,29.2-39.4,45
			c7,1.8,13.9,3.7,20.9,5.5c-12.5-65-17-131.4-13.9-197.6c3-62,12.3-124.5,30.3-184c14.3-47.4,35.5-95,66.7-133
			c32.6-39.6,74.7-67.4,125.8-75.6c54.2-8.7,112,6.5,158.2,36.2c46.1,29.6,81.7,73.4,107.1,121.6c13.5,25.6,24.2,52.5,32.2,80.4
			c8.8,30.5,13.9,62.1,11.9,93.9c-2,32.5-14.3,63.1-25.6,93.3c-11.5,30.7-24,61-36.8,91.2c-13.3,31.3-26.9,62.5-40,93.8
			c-12.6,29.9-24.1,60.2-35.9,90.5c-10,25.6-22.1,51.2-43.3,69.3c-19.4,16.6-46,25.7-70.9,28c-14.7,1.4-29.5,0.8-44.1-1
			c3.6,6.3,7.2,12.5,10.8,18.8c23.3-50.1,44.1-102.5,54.4-156.9c9.4-49.5,11.7-107.2-22.4-148.3
			C2534.3,1330.9,2504.4,1318.8,2474.8,1314.4c-6.7-1-13.4,1.7-15.4,8.7c-1.6,5.9,2,14.4,8.7,15.4c7.1,1.1,14.2,2.5,21.1,4.5
			c3.2,0.9,6.3,1.9,9.4,3.1c1.3,0.5,2.6,1,4,1.5c2.2,0.9,0.3,0.1-0.1,0c0.9,0.4,1.9,0.8,2.8,1.3c5.3,2.5,10.4,5.4,15.3,8.8
			c1,0.7,2,1.5,3,2.2c-2.7-2,0.9,0.8,1.4,1.2c2.2,1.9,4.3,3.8,6.3,5.9c1.8,1.8,3.4,3.7,5.1,5.7c0.5,0.6,0.9,1.1,1.4,1.7
			c-0.2-0.3-1.6-2.2-0.4-0.4c0.8,1.2,1.7,2.4,2.5,3.6c3,4.4,5.4,9.1,7.7,14c0.3,0.5,0.5,1.1,0.7,1.6c-1.2-2.7-0.4-1.1-0.2-0.5
			c0.5,1.3,1,2.5,1.4,3.8c1,2.7,1.8,5.5,2.6,8.3c1.5,5.4,2.6,10.9,3.5,16.5c0.1,0.6,0.2,1.3,0.3,1.9c-0.1-0.4-0.3-2.8-0.1-0.5
			c0.1,1.3,0.3,2.6,0.4,3.9c0.3,3.1,0.5,6.2,0.7,9.3c0.3,6.1,0.3,12.2,0,18.3c-0.2,6.3-0.7,12.6-1.4,18.9c-0.2,1.6-0.4,3.2-0.6,4.8
			c-0.1,0.5-0.3,2.5,0-0.1c-0.1,0.7-0.2,1.4-0.3,2.2c-0.5,3.4-1,6.9-1.6,10.3c-4.6,26.6-12.1,52.7-20.9,78.3
			c-4.9,14.1-10.2,28-15.9,41.8c-0.7,1.7-1.4,3.3-2.1,5c-1.3,3.2,0.6-1.5-0.2,0.5c-0.4,1-0.8,2-1.3,2.9c-1.4,3.2-2.8,6.4-4.2,9.6
			c-2.8,6.3-5.6,12.6-8.5,18.8c-4.3,9.2,1,17.6,10.8,18.8c30.2,3.8,61.7,1.7,90.3-9.4c29-11.3,52.6-30.5,69.2-57
			c16.6-26.5,26-57.1,37.3-86c12.4-31.7,25.8-63.1,39.2-94.3c27.2-63.4,55.6-126.8,76.4-192.7c20.5-64.8,5.5-135.7-19.6-197
			c-22.1-54.2-54.4-105.1-98.7-143.9c-45.8-40.1-103.3-65.6-164.4-68.8c-57.7-3-113.1,16.6-156.6,54.4
			c-40.6,35.3-68.3,83.2-88,132.6c-22.6,56.8-34.6,117.8-41.4,178.3c-7.7,68.8-7,138.5,2.1,207.1c2.3,17.2,5,34.2,8.3,51.2
			c1.7,8.6,15.2,12.8,20.9,5.5c19.9-25.6,41.9-50,67.5-70c21.7-17,45.8-30.1,72.6-35.8c7.6-1.6,12-2.2,20-2.5c4-0.2,7.9-0.2,11.9,0
			c1.9,0.1,3.8,0.2,5.6,0.4c0.7,0.1,1.4,0.1,2.1,0.2c-0.1,0,3.8,0.5,2.4,0.3c6.7,0.9,13.4-1.6,15.4-8.7
			C2485.1,1323.9,2481.5,1315.4,2474.8,1314.4z"/>
	</g>
</g>
<g>
	<path class="st0" d="M3192.7,1391.8c-71.7,17.7-113.8,88.7-138.1,175.9c-64.5-98.9-108-211.5-126.6-328.1
		c-16.1-101.2-8.8-217.1,64.9-288.3c53.5-51.6,134.4-69.1,207.3-54.6c72.9,14.5,137.8,57.9,188.1,112.7
		c34.6,37.7,65,82.3,76.2,132.4c2,9.1,3.4,18.4,4.1,27.9c7.7,110.5-1.5,221.5,1.7,332.2c0.9,31.8,1.6,64.7-10.5,94.1
		c-14.8,35.8-47.6,62-83.7,76.1c-7.6,3-15.4,5.4-23.3,7.5C3358.8,1558.1,3346.9,1353.7,3192.7,1391.8z"/>
	<g>
		<path d="M3189.4,1379.8c-63.1,15.9-103,70.4-127.1,127.5c-7.8,18.6-14.3,37.7-19.7,57.1c7.6-1,15.2-2,22.8-3
			c-33.9-52-62.1-107.7-83.6-166c-20.9-56.6-36.9-117.7-44.2-176.5c-6.5-52.6-6.6-106.6,7-157.3c13.1-48.8,40-93.7,82.9-122
			c45.1-29.8,100.2-39.9,153.6-33.4c54.1,6.5,107.2,32.7,150.1,66.9c44.9,35.8,85.8,81.7,109.1,134.6c5.8,13.1,10.1,27,12.9,41
			c3.4,16.6,3.8,33.7,4.5,50.5c1.5,34.9,1.7,69.8,1.3,104.8c-0.7,69.6-2.5,139-1,208.6c0.7,29.8,0,61.6-14.3,87.8
			c-12.3,22.6-32,39.8-54.8,51.9c-12.7,6.8-25.4,11.3-39.6,15.1c5.3,4,10.5,8,15.8,12.1c2.7-55.3,1.7-111.6-9.3-166
			c-9.7-47.8-29.7-102.7-75.8-126.7C3251.9,1372.2,3219.7,1372.4,3189.4,1379.8c-15.6,3.8-9,27.9,6.6,24.1c3.5-0.9,7-1.6,10.6-2.3
			c1.7-0.3,3.4-0.6,5.1-0.8c2.2-0.3-3,0.3,0.6-0.1c1.1-0.1,2.2-0.3,3.3-0.4c6.2-0.6,12.5-0.8,18.7-0.5c1.5,0.1,2.9,0.2,4.4,0.3
			c0.8,0.1,5.3,0.7,1.9,0.2c2.9,0.4,5.8,1,8.7,1.6c2.5,0.6,5,1.3,7.4,2.1c1.4,0.5,2.8,0.9,4.2,1.5c0.5,0.2,1.1,0.4,1.6,0.6
			c2.8,1-2.4-1.2,0.2,0.1c4.7,2.3,9.2,4.6,13.6,7.6c1.2,0.8,2.3,1.7,3.5,2.5c0.5,0.4,1.8,1.5-0.5-0.4c0.4,0.4,0.9,0.7,1.3,1.1
			c2.2,1.9,4.4,3.7,6.5,5.8c3.8,3.7,7.3,7.7,10.6,11.8c-2.1-2.7,0.6,0.9,1,1.4c0.8,1.1,1.6,2.2,2.3,3.4c1.6,2.4,3.2,4.9,4.7,7.4
			c3,5,5.7,10.3,8.2,15.6c0.6,1.3,1.2,2.7,1.8,4c0.3,0.6,1.2,2.8,0.1,0.2c0.3,0.6,0.5,1.2,0.8,1.8c1.2,2.9,2.3,5.9,3.4,8.9
			c4.3,12,7.7,24.3,10.4,36.7c1.5,6.7,2.8,13.5,3.9,20.3c0.5,3.1,1,6.2,1.4,9.2c0.1,0.7,0.8,5.5,0.4,2.7c0.2,1.8,0.5,3.7,0.7,5.5
			c1.7,13.6,2.8,27.3,3.5,41c1.5,28.9,1.3,58-0.2,86.9c-0.4,8.2,8.3,14.1,15.8,12.1c29.6-7.9,57.5-21.5,80.3-42.1
			c22.6-20.5,37.9-47.6,43.2-77.7c6.1-34.1,2.8-69.1,2.5-103.5c-0.3-35.9,0.3-71.9,1-107.8c0.7-36.3,1.3-72.5,0.9-108.8
			c-0.2-18.1-0.6-36.2-1.5-54.3c-0.8-18.2-1.6-36.4-5.1-54.3c-12.1-61.4-51.9-115.2-95.6-158.3c-42.9-42.3-95-76.6-153.1-93.8
			c-55.8-16.5-117.7-15.9-172.1,5.8c-53.2,21.1-95.7,60.8-119.7,112.8c-23.4,50.9-30.3,107.9-28.1,163.4
			c2.4,61.3,15,122.7,32.8,181.3c18.9,62.3,44.9,122.6,77.3,179c7.9,13.8,16.3,27.4,25,40.8c5.8,8.9,19.9,7.7,22.8-3
			c8.8-31.4,19.5-61,35.8-89.1c7.4-12.7,14.9-23.7,23.9-33.9c4.6-5.2,9.4-10.1,14.5-14.7c5.8-5.2,8.6-7.4,14.9-11.6
			c13.5-9,24.8-13.9,40.3-17.8C3211.6,1399.9,3205,1375.8,3189.4,1379.8z"/>
	</g>
</g>
<g>
	<path d="M680.5,853.5c-215,31.4-123.4,297.2-53.1,447.3c8.3,0.7,16.6,1,24.9,0.9c52.8-0.8,104.2-17.1,153.3-36.9
		c47.2-19,94.5-42.4,128-80.7c28.7-32.8,45-74,56.5-116.5C906.2,938.2,800.5,836,680.5,853.5z"/>
	<g>
		<path class="st2" d="M677.2,841.5c-36.2,5.4-72.2,19-98.4,45.4c-22.8,23-36,53.6-41.3,85.3c-6,36.1-3.5,72.7,2.4,108.7
			c6.3,37.8,16.8,74.9,29.3,111.1c12.3,35.4,26.6,70,42.1,104.1c1.7,3.7,3.4,7.5,5.2,11.2c1.9,4.1,6.6,5.8,10.8,6.2
			c66.6,5.5,132.3-15.7,193-41.2c56-23.5,109.2-54.3,142.5-106.7c16.5-25.9,27.8-55.1,36.4-84.5c1.1-3.7,2.6-7.7,3-11.6
			c0.6-5.5-2.4-9.4-5.3-13.8c-4.3-6.5-8.6-13-13.1-19.4c-8.6-12.4-17.4-24.6-26.6-36.5c-34.5-44.8-73.7-87-121.1-118.3
			c-41.1-27.1-89.6-44.7-139.4-41.8C690.2,839.8,683.7,840.6,677.2,841.5c-6.7,1-10.4,9.5-8.7,15.4c2,7.2,8.7,9.7,15.4,8.7
			c1.2-0.2,3.4-0.4,6.2-0.7c2.9-0.3,5.8-0.5,8.7-0.6c5.8-0.3,11.6-0.3,17.3,0c11.7,0.5,19.2,1.6,30.7,4.3c23,5.3,42,13.4,62.3,25.2
			c44.1,25.6,80.9,62.4,113.5,101.9c20.5,24.9,39.1,51.2,56.6,78.2c-0.4-3.2-0.8-6.4-1.3-9.6c-7.5,27.4-16.8,54.4-31,79.1
			c-13.6,23.8-31.8,44.6-53.8,61c-22.7,16.9-48.1,29.9-74,41.2c-28.1,12.3-57.2,23.1-86.8,31.2c-34.2,9.4-69.5,14.4-105,11.5
			c3.6,2.1,7.2,4.1,10.8,6.2c-3.5-7.5-7-15.1-10.4-22.7c-1.7-3.8-3.4-7.6-5-11.4c-0.8-1.9-1.7-3.9-2.5-5.8c-0.4-1-0.8-2-1.3-2.9
			c-0.3-0.7-0.6-1.3-0.8-2c0.6,1.3,0.6,1.3,0,0c-7-16.7-13.6-33.5-19.8-50.5c-12.8-35.2-23.8-71.3-31.2-108.1
			c-1.7-8.7-3.3-17.4-4.5-26.1c-0.2-1.1-0.3-2.2-0.5-3.2c0.4,3-0.1-0.6-0.1-1c-0.3-2.1-0.5-4.3-0.8-6.4c-0.5-4.6-1-9.2-1.3-13.8
			c-1.3-16.6-1.4-33.2,0.1-49.8c0.2-1.9,0.4-3.9,0.6-5.8c0.1-0.6,0.5-3.9,0-0.5c0.1-0.9,0.3-1.9,0.4-2.8c0.6-4.1,1.3-8.1,2.2-12.1
			c1.6-7.5,3.7-14.9,6.3-22.1c0.6-1.7,1.3-3.4,1.9-5.1c0.2-0.6,1.5-3.4,0.1-0.3c0.4-0.8,0.7-1.6,1.1-2.5c1.5-3.2,3.1-6.4,4.8-9.5
			c1.7-3.1,3.5-6.1,5.5-9.1c1-1.5,2-2.9,3-4.4c0.5-0.7,1.1-1.4,1.6-2.1c-2.1,2.8,0.4-0.4,0.8-1c5.3-6.6,11.4-12.4,17.8-17.8
			c0.4-0.4,2.9-2.3,0.4-0.3c1-0.8,2-1.5,3-2.2c1.5-1.1,3.1-2.2,4.7-3.2c3.8-2.5,7.7-4.8,11.8-6.9c2.1-1.1,4.2-2.1,6.3-3.1
			c0.9-0.4,1.9-0.9,2.8-1.3c0.6-0.3,1.3-0.6,1.9-0.8c-1.4,0.6-1.4,0.6-0.1,0.1c4.7-1.8,9.5-3.6,14.3-5.1c10.6-3.3,21.5-5.5,32.5-7.2
			c6.7-1,10.4-9.4,8.7-15.4C690.6,843,683.9,840.5,677.2,841.5z"/>
	</g>
</g>
<g>
	<path class="st0" d="M680.5,853.5c120-17.5,225.7,84.7,309.5,214.1c2.9-10.7,5.5-21.5,7.9-32.2c37.2-167.4,36.3-343.2-2.7-510.3
		c-31.7-136.1-100.6-278.6-230.4-330.5c-94.1-37.6-205.2-18-289.8,37.7c-84.6,55.8-144.1,144.1-179.4,239
		c-24.3,65.4-39.7,137.4-28,206.3c2.1,12.6,5.2,25,9.2,37.3c47.2,143.4,115.9,278.9,168.8,420.2c15.2,40.6,31.2,82.5,61.7,113.3
		c31.3,31.7,75.3,48.2,120,52.1C557.1,1150.8,465.5,884.9,680.5,853.5z"/>
	<g>
		<path d="M683.8,865.6c20.5-2.9,43.3-1.6,63.6,3.1c22.4,5.2,42.3,13.8,62.1,25.4c44,25.7,80.8,62.6,113,101.6
			c20.5,24.9,39.1,51.2,56.7,78.2c5.7,8.8,20,7.8,22.8-3c24.2-90.2,35-184.9,35.5-278.2c0.5-93.1-10-186.6-31.8-277.1
			c-17-70.4-42.9-140.3-83-200.9c-39.8-60.2-94.4-110.4-163-135.2c-76.9-27.7-163-18.9-237.1,13.1c-73.7,31.8-133.9,88.8-178.1,155
			c-22,32.9-40.1,68.3-54.9,105c-16.8,41.7-29.5,85.2-35.3,129.9c-6.1,46.3-3.5,93.6,11.2,138C280,764.6,296.7,808,314.2,851
			c35.2,86.4,74.2,171.3,108.2,258.3c15.5,39.6,28.3,81.3,51.6,117.3c22.8,35.2,55.6,60.4,95,74.5c18.8,6.7,38.5,10.4,58.4,12.2
			c10.3,0.9,14.4-11.1,10.8-18.8c-3.6-7.7-7.1-15.4-10.6-23.1c-1.6-3.5-3.1-7-4.6-10.5c-0.9-2.1-1.9-4.3-2.8-6.4
			c-0.3-0.7-0.6-1.4-0.9-2.2c-0.2-0.4-2-4.7-1-2.5c-7-16.7-13.7-33.6-19.9-50.7c-12.8-35.2-23.8-71.3-31.2-108
			c-3.7-18.6-5.8-32.2-7.2-50.2c-1.3-16.8-1.5-33.7,0.2-50.5c0.2-1.8,0.4-3.6,0.6-5.3c0.1-0.5,0.5-4,0.1-0.9
			c0.1-0.7,0.2-1.4,0.3-2.1c0.6-4.1,1.4-8.3,2.2-12.4c1.6-7.3,3.6-14.5,6.1-21.5c0.6-1.7,1.3-3.4,1.9-5.1c0.3-0.8,0.6-1.5,0.9-2.3
			c-1.2,2.9,0.1-0.2,0.3-0.6c1.6-3.4,3.2-6.8,5-10.1c1.7-3,3.4-5.9,5.3-8.8c1-1.5,2-3,3.1-4.4c0.5-0.7,1-1.3,1.5-2
			c0.8-1.1,0.8-1-0.2,0.2c0.4-0.5,0.8-1,1.2-1.5c5.4-6.4,11.2-12.2,17.6-17.6c0.5-0.4,1.1-0.9,1.6-1.3c-2.4,1.9,1.2-0.8,1.6-1.2
			c1.7-1.2,3.4-2.4,5.2-3.6c3.9-2.6,8-4.9,12.1-7.1c2-1,4-2,6-3c0.9-0.4,1.7-0.8,2.6-1.2c2.7-1.2-0.4,0.1,1.8-0.8
			c4.8-1.9,9.7-3.7,14.7-5.2C662.2,869.4,673,867.2,683.8,865.6c6.7-1,10.4-9.4,8.7-15.4c-2-7.2-8.7-9.7-15.4-8.7
			c-36.2,5.4-72.2,19-98.4,45.4c-22.8,23-36,53.6-41.3,85.3c-6,36.1-3.5,72.7,2.5,108.7c6.3,37.9,16.8,75,29.4,111.3
			c13.6,39.2,29.7,77.5,47.2,115c3.6-6.3,7.2-12.5,10.8-18.8c-36.6-3.3-73.9-15.8-102.1-40c-29.7-25.5-46.5-61.6-60.4-97.4
			c-16.1-41.5-32-83-49.2-124c-17.6-41.9-35.8-83.7-53.6-125.5c-17.6-41.5-34.8-83.1-50.6-125.3c-15.6-41.7-32.2-83.7-34.9-128.6
			c-2.7-44,4.6-87.8,16.8-130c11.1-38.2,25.9-75.3,44.6-110.5c35.1-66.2,84.2-126.2,147.8-166.7c63.6-40.6,142.8-61.3,218-49.3
			c69.7,11.1,128.9,49.8,173.4,103.7c43.8,53.1,72.7,118.2,92.5,183.8c24.6,81.3,37.3,166.6,41.4,251.3
			c4.4,90.5-1.7,181.5-18.8,270.5c-4.1,21.5-8.8,42.9-14.5,64.1c7.6-1,15.2-2,22.8-3c-32.1-49.5-68.1-97.3-111.3-137.7
			c-36.9-34.5-80.3-64.5-129.8-77.6c-27.1-7.2-54.9-8.5-82.6-4.5c-6.7,0.9-10.4,9.5-8.7,15.4C670.4,864,677.1,866.5,683.8,865.6z"/>
	</g>
</g>
<g>
	<path class="st3" d="M1669.1,853.5c-214.3,31.3-124.1,295.3-53.9,445.6c41.2-5.4,81.3-18.8,120-34.4c47.2-19,94.5-42.4,128-80.7
		c35.9-41.1,52.5-95.4,64.4-148.6c2.3-10.3,4.4-20.6,6.4-31C1858.4,906.9,1768.7,839,1669.1,853.5z"/>
	<g>
		<path class="st1" d="M1665.7,841.5c-36.1,5.4-71.9,18.9-98.1,45.1c-22.8,22.8-36.1,53.2-41.4,84.7c-6.1,35.9-3.8,72.3,2.1,108
			c6.1,37.8,16.6,74.9,29.1,111.1c12.2,35.3,26.4,69.9,41.9,103.9c1.7,3.8,3.4,7.5,5.2,11.2c1.6,3.5,6.9,6.7,10.8,6.2
			c30.8-4.1,60.8-11.9,90.1-22.2c26.8-9.4,53.4-20.1,79-32.7c24.5-12.1,47.9-26.5,68.5-44.6c20.5-18,37.3-40.1,50-64.3
			c12.7-24.2,21.8-50.2,28.9-76.5c3.6-13.3,6.8-26.8,9.7-40.3c1.7-7.7,3.5-15.5,4.7-23.2c1.1-6.5-1.6-10.1-5.4-14.9
			c-2.5-3.2-5.1-6.4-7.6-9.6c-32.8-40.6-70.4-78.5-114.9-106.3C1772.2,848.3,1719.7,833.8,1665.7,841.5c-6.7,1-10.4,9.5-8.7,15.4
			c2,7.2,8.7,9.7,15.4,8.7c6.8-1,17.8-1.6,26.3-1.5c4.6,0.1,9.3,0.3,13.9,0.7c5.1,0.5,7,0.7,11.8,1.5c18.2,3.1,36.7,9.1,52.3,16.4
			c37.3,17.5,69.2,43.3,98,72.4c18,18.3,34.7,37.8,50.5,58.1c-1.1-4.1-2.1-8.1-3.2-12.2c-11.1,57.3-24.5,118.3-60.6,165.6
			c-34.8,45.6-89.5,70.6-141.6,90.8c-33.7,13-68.6,24.3-104.5,29.1c3.6,2.1,7.2,4.1,10.8,6.2c-3.5-7.6-7-15.2-10.4-22.8
			c-1.7-3.8-3.4-7.6-5-11.5c-0.8-1.9-1.7-3.9-2.5-5.8c-0.4-1-0.8-2-1.3-2.9c-0.6-1.3-0.6-1.3,0,0c-0.3-0.7-0.6-1.3-0.8-2
			c-7-16.7-13.6-33.6-19.8-50.7c-12.6-34.9-23.4-70.6-30.6-107.1c-1.8-9-3.3-18.1-4.6-27.2c-0.1-0.7-0.2-1.4-0.3-2.2
			c0.4,3-0.1-0.6-0.1-1c-0.3-2.1-0.5-4.3-0.8-6.4c-0.5-4.6-0.9-9.2-1.3-13.8c-1.2-16.5-1.3-33.2,0.3-49.7c0.2-1.9,0.4-3.9,0.6-5.8
			c0.3-3.3-0.4,2.8,0.1-0.5c0.1-0.9,0.3-1.9,0.4-2.8c0.6-4,1.4-8.1,2.3-12.1c1.6-7.2,3.6-14.3,6.1-21.2c0.6-1.7,1.3-3.4,1.9-5.1
			c0.2-0.6,1.5-3.4,0.1-0.3c0.4-0.8,0.7-1.6,1.1-2.5c1.6-3.5,3.3-7,5.2-10.3c1.7-3.1,3.6-6.1,5.5-9c1-1.5,2-2.9,3-4.3
			c0.4-0.5,2.2-2.9,0.2-0.3c0.5-0.7,1.1-1.4,1.7-2.1c5.3-6.6,11.4-12.4,17.8-17.8c0.4-0.4,2.9-2.3,0.4-0.3c1-0.8,2-1.5,3-2.2
			c1.8-1.3,3.6-2.5,5.5-3.7c3.6-2.3,7.2-4.4,11-6.4c2.1-1.1,4.2-2.1,6.3-3.1c0.9-0.4,1.9-0.9,2.8-1.3c0.6-0.3,1.3-0.6,1.9-0.8
			c-1.4,0.6-1.4,0.6-0.1,0.1c4.7-1.8,9.5-3.6,14.3-5.1c10.6-3.3,21.5-5.5,32.5-7.2c6.7-1,10.4-9.4,8.7-15.4
			C1679.1,843,1672.4,840.5,1665.7,841.5z"/>
	</g>
</g>
<g>
	<g>
		<path class="st1" d="M421.6,2523.7c-10.9-53.8-4-110,13.9-161.8c18.3-52.8,48.5-101,85.3-142.9c37-42,80.3-78.1,126.9-109.1
			c48.9-32.5,101.3-60.5,156.3-81.2c56.1-21.1,115.4-34.8,175.6-35c7.4,0,14.8,0.2,22.1,0.5c6.7,0.3,12.5-6,12.5-12.5
			c0-7-5.7-12.2-12.5-12.5c-62.4-3.1-124.9,8.1-183.9,28.1c-58.7,19.8-114.8,47.8-167.1,80.9c-49.3,31.2-95.9,67.6-135.9,110.2
			c-40.7,43.4-74.3,93.1-96.6,148.4c-21.6,53.7-31.9,113.1-24.4,170.8c1,7.6,2.2,15.1,3.7,22.6c1.3,6.6,9.2,10.4,15.4,8.7
			C419.8,2537.1,422.9,2530.3,421.6,2523.7L421.6,2523.7z"/>
	</g>
</g>
<g>
	<g>
		<path class="st1" d="M1165.4,2186.4c16.3-94,56.9-182.8,115-258.3c58.3-75.7,134.5-136.8,219.5-180c48-24.4,98.9-42.8,151.4-54.9
			c6.6-1.5,10.5-9.1,8.7-15.4c-1.9-6.7-8.8-10.3-15.4-8.7c-95.9,22.2-187.1,65.4-265.1,125.5c-78.8,60.7-143.9,138.9-187.3,228.6
			c-24,49.6-41.6,102.3-51,156.6c-1.2,6.6,1.8,13.5,8.7,15.4C1156,2196.8,1164.2,2193.1,1165.4,2186.4L1165.4,2186.4z"/>
	</g>
</g>
<g>
	<path class="st1" d="M693,2221.2c-151.8,82-15.3,236.1,75.6,317.8c6.3-1.9,12.6-4,18.7-6.4c39.1-15.5,73.1-41.1,104.5-68.3
		c30.2-26.2,59.3-55.4,74.4-90.8c12.9-30.3,14.4-62.9,12-94.8C882.6,2214.7,777.7,2175.4,693,2221.2z"/>
	<g>
		<path class="st4" d="M686.7,2210.4c-28.7,15.7-54.3,37.7-66.8,68.6c-10.3,25.3-8.9,53.7-1.4,79.6c8.5,29,23.9,55.8,41.3,80.3
			c18.6,26.1,39.8,50.3,62.3,73.1c10.3,10.4,20.9,20.6,31.8,30.5c3.3,3,7,7.4,11.4,8.6c5.8,1.6,13.2-1.9,18.6-3.9
			c10.4-3.7,20.5-8.2,30.4-13.1c37.8-19.1,71.5-46.5,102.3-75.3c30.8-28.6,58.3-62.3,68.9-103.8c5.6-21.9,6.8-44.8,5.7-67.3
			c-0.3-6,0.3-13.4-4.2-17.9c-4.5-4.5-11.2-7.7-16.5-11.1c-9.3-5.9-18.7-11.6-28.3-17.1c-67.3-38.2-151.6-69.8-228.6-43
			C704.3,2201.8,695.3,2205.8,686.7,2210.4c-6,3.2-7.8,11.4-4.5,17.1c3.5,6,11.1,7.7,17.1,4.5c31.1-16.6,65.6-20.8,100.8-16.6
			c37.3,4.6,74.9,19.2,108.8,36.6c21.7,11.2,42.7,23.8,63,37.4c-2.1-3.6-4.1-7.2-6.2-10.8c1.7,23,1.5,46.3-4.1,68.8
			c-5.3,21.1-15.4,40.4-28.8,57.5c-13.7,17.5-30,33-46.6,47.6c-16.8,14.8-34.3,28.9-52.9,41.3c-21.1,14-43.6,25.8-68,33
			c4.1,1.1,8.1,2.1,12.2,3.2c-38.8-34.9-76.2-73.2-104.2-115.6c-7.1-10.8-13.7-21.9-19.4-33.5c-1.3-2.7-2.6-5.4-3.8-8.2
			c-0.2-0.5-1.6-3.9-0.8-1.9c-0.7-1.6-1.3-3.3-2-4.9c-2.1-5.5-4-11.1-5.5-16.8c-1.5-5.5-2.6-11-3.5-16.7c-0.3-1.9,0.2,2.1,0,0.1
			c-0.1-0.5-0.1-1.1-0.2-1.6c-0.2-1.4-0.3-2.8-0.4-4.2c-0.2-2.8-0.3-5.6-0.3-8.4c0-2.6,0.1-5.2,0.3-7.8c0.1-1.2,0.2-2.4,0.4-3.6
			c0.2-2.4,0-0.2,0,0.2c0.1-0.9,0.3-1.7,0.4-2.6c0.9-5.3,2.3-10.5,4.2-15.6c0.2-0.7,0.5-1.3,0.7-2c0.8-2.2-0.4,0.9,0.2-0.4
			c0.7-1.5,1.3-2.9,2.1-4.4c1.4-2.8,2.9-5.5,4.6-8.1c0.9-1.4,1.8-2.8,2.8-4.2c0.4-0.5,2.8-3.8,1.5-2.1c2.2-2.8,4.6-5.5,7.1-8.1
			c11.3-11.8,23.1-19.8,37.8-27.8C713.4,2224.3,700.8,2202.7,686.7,2210.4z"/>
	</g>
</g>
<g>
	<path d="M1429.8,1946.3c-151.2,81.9-15.5,237,75.8,319.9c29.2-15.3,55.6-35.8,80.3-57.4c30.2-26.4,59.2-55.7,74.2-91.4
		c16-38.3,14.3-80.1,9.2-119.8c-1-7.7-2.1-15.3-3.3-23C1584.5,1929.2,1500.1,1908.2,1429.8,1946.3z"/>
	<g>
		<path class="st3" d="M1423.5,1935.5c-25.3,13.8-49.4,33.1-62.5,59.3c-11.4,22.9-13.6,48-9.3,73c4.4,25.6,15.7,50.1,28.8,72.3
			c14.8,24.9,32.7,48,51.8,69.8c20.1,23,41.9,44.6,64.5,65.1c4.3,3.9,10,4.7,15.1,2c37.5-19.8,71.1-47.4,101.7-76.5
			c29.2-27.9,55.1-60.5,65.4-100.3c5.4-20.9,6.9-42.9,6.1-64.4c-0.4-10.4-1.3-20.8-2.5-31.1c-0.7-6-1.5-12-2.3-18
			c-0.8-5.6-0.6-13.3-3.5-18.3c-3-5.1-10.5-7.8-15.5-10.5c-5.1-2.7-10.2-5.3-15.3-7.8c-10.2-5-20.6-9.5-31.2-13.8
			c-19.5-7.8-39.6-14.1-60.2-17.9C1509.8,1910.1,1464,1913.8,1423.5,1935.5c-5.9,3.2-7.8,11.4-4.5,17.1c3.5,6,11.1,7.7,17.1,4.5
			c54.2-29,117-18.7,172,3.3c17.7,7.1,34.9,15.7,51.6,25c-1.9-2.5-3.8-5-5.7-7.5c6.9,44.3,12.5,93-5.7,135.4
			c-17.2,40.2-52,70.9-84.9,98.2c-20,16.6-41.1,31.7-64.1,43.8c5,0.7,10.1,1.3,15.1,2c-38.9-35.4-76.1-73.9-104.2-116.9
			c-7.1-10.9-13.7-22.1-19.3-33.8c-1.3-2.7-2.6-5.5-3.8-8.2c-0.1-0.3-1.1-2.6-0.5-1.2c0.5,1.2-0.3-0.6-0.3-0.7
			c-0.7-1.6-1.3-3.3-1.9-4.9c-2.1-5.5-4-11.2-5.5-16.9c-1.5-5.5-2.6-11.1-3.5-16.8c-0.3-1.9,0.2,2,0,0.1c-0.1-0.5-0.1-1.1-0.2-1.6
			c-0.2-1.4-0.3-2.8-0.4-4.3c-0.2-2.8-0.3-5.6-0.3-8.5c0-2.6,0.1-5.2,0.3-7.9c0.1-1.2,0.2-2.4,0.4-3.6c0.2-2.4,0-0.2,0,0.2
			c0.1-0.9,0.3-1.7,0.4-2.6c0.9-5.3,2.3-10.6,4.2-15.6c0.2-0.7,0.5-1.3,0.7-2c0.8-2.2-0.4,0.9,0.2-0.5c0.7-1.5,1.3-2.9,2-4.4
			c1.4-2.8,2.9-5.5,4.6-8.1c0.9-1.4,1.8-2.8,2.8-4.2c0.4-0.5,2.8-3.8,1.5-2.1c2.2-2.8,4.6-5.5,7-8.1c11.2-11.8,23-19.8,37.6-27.8
			C1450.2,1949.3,1437.6,1927.7,1423.5,1935.5z"/>
	</g>
</g>
<g>
	<g>
		<path class="st1" d="M3315.7,2645c-9.9-57.3-34.2-111.9-68.1-159.1c-35-48.7-79.3-89.7-129.9-121.7c-53.8-34-114-57.8-175.7-73.1
			c-62-15.4-126.6-23.5-190.6-22.1c-64.8,1.5-129.5,13.6-188.7,40.4c-7.1,3.2-14.1,6.7-21,10.3c-6,3.1-7.8,11.5-4.5,17.1
			c3.5,6,11.1,7.6,17.1,4.5c54.1-28.5,114.6-42.7,175.4-46.4c61.2-3.7,123,2.2,183,15c59.9,12.8,118.4,33.1,171.7,63.4
			c50.2,28.5,94.7,65.5,130.8,110.7c34.2,42.9,59.6,93.1,72.2,146.6c1.6,6.9,3,13.9,4.2,20.9c1.2,6.7,9.3,10.4,15.4,8.7
			C3314,2658.5,3316.8,2651.7,3315.7,2645L3315.7,2645z"/>
	</g>
</g>
<g>
	<g>
		<path d="M2495.6,2598.7c-47.5-85-114-158.8-193.3-215.2c-85-60.4-184.6-98.1-288.2-110.4c-60.5-7.2-121.7-5-181.6,5.8
			c-6.6,1.2-10.4,9.3-8.7,15.4c1.9,7,8.7,9.9,15.4,8.7c102.2-18.4,208.7-8.7,306.3,26.3c89.3,32,169.8,86.2,235.1,154.8
			c36.4,38.3,67.7,81.1,93.5,127.2C2481.8,2625.4,2503.4,2612.8,2495.6,2598.7L2495.6,2598.7z"/>
	</g>
</g>
<g>
	<path class="st1" d="M2924.8,2449.4c171.7,21.2,104.4,240,51.6,363.8c-6.6,0.8-13.2,1.2-19.7,1.2c-42,0.4-83.3-11.8-122.7-26.9
		c-38-14.6-76-32.7-103.4-63.3c-23.5-26.2-37.4-59.5-47.4-93.9C2747.1,2523.1,2829,2437.6,2924.8,2449.4z"/>
	<g>
		<path class="st4" d="M2924.8,2461.9c4,0.5-2.4-0.4,1.5,0.2c0.8,0.1,1.6,0.2,2.4,0.4c1.9,0.3,3.9,0.7,5.8,1c3.7,0.7,7.4,1.6,11,2.6
			c3.5,0.9,6.9,2,10.3,3.2c1.6,0.6,3.2,1.2,4.8,1.8c0.5,0.2,2.2,0.9-0.2-0.1c0.9,0.4,1.8,0.8,2.8,1.2c5.8,2.7,11.4,5.8,16.7,9.4
			c1.3,0.9,2.5,1.8,3.7,2.7c-2.7-2,1.2,1,1.7,1.5c2.3,1.9,4.5,4,6.6,6.1c2.1,2.1,4,4.3,5.9,6.6c0.4,0.5,0.7,0.9,1.1,1.4
			c1.9,2.3-1.5-2.2,0.2,0.3c0.8,1.2,1.7,2.4,2.5,3.6c3.3,4.9,6.2,10,8.6,15.4c0.3,0.6,2.2,5.2,0.9,1.9c0.6,1.4,1.1,2.8,1.6,4.2
			c1.1,2.9,2,5.7,2.9,8.7c1.8,6,3.2,12.1,4.2,18.3c0.3,1.6,0.5,3.2,0.7,4.8c0.4,2.3,0,0-0.1-0.4c0.1,1,0.2,1.9,0.4,2.9
			c0.4,3.3,0.7,6.6,0.9,9.9c0.4,6.8,0.6,13.6,0.5,20.4c-0.1,7.1-0.5,14.1-1.1,21.1c-0.3,3.6-0.7,7.2-1.1,10.8
			c-0.2,1.6-0.4,3.3-0.6,4.9c-0.1,0.7-0.4,3.1-0.1,0.5c-0.2,1.1-0.3,2.2-0.5,3.3c-4.4,29.9-11.8,59.4-20.8,88.3
			c-5,16-10.4,31.8-16.3,47.4c-2.7,7.3-5.5,14.5-8.4,21.7c-1.4,3.5-2.8,6.9-4.2,10.4c-0.8,1.8-1.5,3.7-2.3,5.5
			c-0.3,0.6-0.5,1.2-0.8,1.8c1.3-3-0.4,1-0.6,1.5c3.6-2.1,7.2-4.1,10.8-6.2c-50.6,5.6-100.2-9.8-146.8-28.3
			c-40.6-16.1-80.1-38.1-104.4-75.7c-13.8-21.4-22.8-45.3-30-69.6c-0.4,3.2-0.8,6.4-1.3,9.6c23.1-38.7,48.9-76.1,80.5-108.3
			c13.9-14.2,28.4-27,44.4-37.7c15.5-10.4,30.7-18.3,47.5-23.5c4.9-1.5,10-2.8,15-3.9c2.5-0.5,5.1-0.9,7.6-1.3
			c0.3,0,2.4-0.3,0.5-0.1c1.3-0.2,2.6-0.3,3.9-0.4C2903.8,2460.5,2914.3,2460.7,2924.8,2461.9c6.7,0.8,12.5-6.3,12.5-12.5
			c0-7.4-5.8-11.7-12.5-12.5c-87.8-10.4-159.1,56.4-208.2,121c-14.7,19.3-28.1,39.5-40.7,60.2c-2,3.3-4.5,6.6-5.1,10.6
			c-0.5,4,1,7.8,2.2,11.5c1.8,6,3.8,11.9,5.9,17.8c4.2,11.6,9,23,14.6,34c11.4,22.2,26.7,42.4,46,58.3c18.7,15.5,39.8,27.5,62,37.4
			c54,24,114.8,44.7,174.8,38.1c4.1-0.4,9-2,10.8-6.2c24-56.5,45.1-115.2,54.9-176c8.9-54.9,10.5-119.6-28-164.4
			c-22.6-26.2-55.9-38-89.3-42.3c-6.7-0.8-12.5,6.4-12.5,12.5C2912.3,2456.9,2918,2461.1,2924.8,2461.9z"/>
	</g>
</g>
<g>
	<path class="st1" d="M2138.8,2475.1c171,21.4,104.9,240.8,52.3,366.1c-32.9-3.6-65.1-13.8-96.2-25.9c-38-14.7-76-33-103.5-63.9
		c-29.4-33.1-43.8-77.5-54.3-121.2c-2-8.4-4-16.9-5.8-25.4C1989.3,2523,2059.2,2465.2,2138.8,2475.1z"/>
	<g>
		<path class="st3" d="M2138.8,2487.6c-2.6-0.3,1.3,0.2,1.5,0.2c0.8,0.1,1.6,0.2,2.4,0.4c1.9,0.3,3.9,0.7,5.8,1.1
			c3.7,0.7,7.4,1.6,11,2.6c3.4,0.9,6.9,2,10.2,3.2c1.6,0.6,3.2,1.2,4.8,1.8c0.5,0.2,2.2,1-0.2-0.1c0.9,0.4,1.8,0.8,2.7,1.2
			c5.8,2.7,11.4,5.8,16.6,9.5c1.3,0.9,2.5,1.8,3.7,2.7c-2.7-2,1.1,0.9,1.7,1.5c2.4,2,4.7,4.2,6.9,6.4c2,2,3.8,4.1,5.6,6.3
			c0.1,0.1,1.9,2.4,0.7,0.8c-1.3-1.6,0.5,0.7,0.6,0.8c0.9,1.3,1.9,2.6,2.8,4c3.3,4.9,6.1,10.1,8.6,15.5c0.5,1,1.8,4.3,0.7,1.5
			c0.6,1.4,1.1,2.8,1.6,4.2c1.1,3,2.1,6.1,3,9.1c1.8,6,3.2,12.2,4.2,18.4c0.2,1.4,0.4,2.9,0.7,4.3c0.5,3.3-0.3-2.8,0.1,0.5
			c0.1,0.7,0.2,1.3,0.2,2c0.4,3.5,0.7,6.9,0.9,10.4c0.5,6.8,0.6,13.7,0.5,20.5c-0.1,7.3-0.5,14.5-1.1,21.8c-0.3,3.3-0.6,6.5-1,9.8
			c-0.2,1.8-0.4,3.6-0.6,5.5c0,0-0.5,3.5-0.2,1.6c0.2-1.5-0.3,2.4-0.4,2.7c-4.3,30.1-11.7,59.8-20.7,88.8
			c-9.5,30.9-20.9,61.3-33.4,91.1c4-3.1,8-6.1,12.1-9.2c-25.7-2.9-50.8-10.2-75.1-18.8c-22.1-7.9-44-16.6-64.6-27.9
			c-20-11-38.4-24.4-53.2-41.8c-14.6-17.1-25-37.8-32.9-58.8c-9.6-25.8-16.1-52.8-21.9-79.7c-0.4,3.2-0.8,6.4-1.3,9.6
			c20.5-28.8,43.5-56.2,70.5-79.1c22.8-19.4,49.2-35.1,78.2-42C2106.1,2486.4,2121.8,2485.6,2138.8,2487.6
			c6.7,0.8,12.5-6.3,12.5-12.5c0-7.4-5.8-11.7-12.5-12.5c-82.3-9.9-151.3,49.5-198.7,109.9c-3.8,4.9-7.6,9.8-11.3,14.8
			c-3.7,4.9-9.9,11.1-9.9,17.6c0,6.1,2.5,12.9,3.9,18.8c1.4,6.1,2.8,12.1,4.4,18.1c5.5,21.8,12.3,43.3,21.3,64
			c9.1,20.8,21,40.3,36.5,57c15,16.2,33.2,29.3,52.4,40c22.3,12.4,46.3,22,70.3,30.6c27.1,9.7,54.9,17.1,83.6,20.4
			c5.9,0.7,10.1-4.5,12.1-9.2c23.6-56.3,44-115,53.4-175.5c8.5-55,9.8-119.6-28.9-164.3c-22.5-26-55.5-37.8-88.8-42.1
			c-6.7-0.9-12.5,6.4-12.5,12.5C2126.3,2482.6,2132,2486.7,2138.8,2487.6z"/>
	</g>
</g>
<g>
	<g>
		<path d="M3540.6,1378c-71.6-58.4-156.4-99.8-246.7-119.8c-91.9-20.3-188.1-17.9-279.1,6.5c-51.7,13.8-101.6,34.8-147.6,62.1
			c-13.8,8.2-1.3,29.8,12.6,21.6c78.4-46.4,167.9-73.5,258.9-78.2c88.1-4.5,177,12,257.6,48c45.3,20.2,88.1,46.2,126.5,77.6
			c5.2,4.3,12.6,5.1,17.7,0C3545,1391.3,3545.9,1382.3,3540.6,1378L3540.6,1378z"/>
	</g>
</g>
<g>
	<g>
		<path class="st1" d="M2383.1,905c16.4,1.4,32.9,2.7,49.3,4.1c-3.6-6.3-7.2-12.5-10.8-18.8c-34.3,44.7-70.2,88.2-107.6,130.3
			c7,4.1,13.9,8.1,20.9,12.2c13.1-32.5,43.7-55.3,74.3-72.7c18.2-10.3,37.2-19.3,56.1-28.2c21.8-10.3,43.8-20.2,65.9-29.6
			c24.7-10.5,49.8-20.3,75-29.4c-4.1-7-8.1-13.9-12.2-20.9c-51.5,63.3-109.6,121.1-173.2,172.3c-17.6,14.2-35.6,27.7-54.1,40.8
			c5,6.5,10.1,13.1,15.1,19.6c52.2-55.5,115.9-100,186.2-129.6c19.8-8.3,40.2-15.4,60.9-21.3c-5.1-5.1-10.3-10.3-15.4-15.4
			c-3.8,17.6-13.8,32.5-25.7,45.9c-13.5,15.2-28.7,29-43.5,42.9c-32,30.1-64.9,59.3-98.6,87.6c-18.9,15.8-38.1,31.4-57.5,46.6
			c6.5,0.8,13.1,1.7,19.6,2.5c0.6,1.2-0.2-0.6-0.2-0.8c0.1,2,0-0.1,0-0.4c0-0.6,0.4-2.2,0-0.4c0.2-0.8,0.4-1.7,0.7-2.4
			c-0.7,1.6,1.3-1.9,1.6-2.3c0.4-0.6,1.9-2.3,3.2-3.5c5.6-5.4,12.7-9,19.9-12.6c18.5-9.2,37.1-18.3,55.8-27.1
			c37.3-17.8,75-34.9,112.9-51.3c20.9-9.1,42-17.9,63.1-26.6c-4.7-1.9-9.4-3.8-14.1-5.7c2.9,4.6,2.6,8.6,1.1,14.2
			c-1.6,6-4.3,11.5-7.2,17c-7.6,14.8-15.2,29.5-22.9,44.3c-15.2,29.5-30.5,59.1-45.7,88.6c-7.4,14.3,12.9,26.2,21.6,12.6
			c28.4-44.3,69.4-79.6,117.1-102.1c13.1-6.2,27-11.2,41.3-15.3c-5.1-2.9-10.3-5.8-15.4-8.7c4.6,11.9-3.2,24.7-8.1,35.4
			c-6.4,14.2-12.9,28.3-19.3,42.5c-12.9,28.3-25.7,56.7-38.6,85c-2.8,6.1-1.8,13.5,4.5,17.1c6.4,3.8,13,0.9,17.1-4.5
			c11.3-14.9,23.5-29.2,36.3-42.8c6.4-6.8,12.8-13.8,19.8-19.9c2.6-2.3,5.6-4.6,8.9-5.9c-0.4,0.2,3-0.8,2.6-0.7
			c0.6-0.1,1.5,0.1,1.9,0.3c0.3,0.2,1.9,1.4,0.4,0.3c0.3,0.2,1.9,1.4,0.2,0.2c0.3,0.2,0.7,1.7,0.4,0.6c-0.3-1.4,0.3,1,0.4,1.3
			c0.2,0.6,0.3,1.2,0.4,1.8c-0.4-2,0,0,0,0.4c0,2,0,3.9-0.2,5.9c-0.2,2.2,0.3-1.5-0.1,0.7c-0.1,0.7-0.2,1.3-0.4,2
			c-0.4,1.7-0.8,3.5-1.3,5.2c-1.3,4.6-2.9,9.1-4.4,13.7c-6.3,19.3-12.7,38.5-19.3,57.7c-7.4,21.7-15,43.3-22.8,64.8
			c-2.3,6.3,2.6,13.7,8.7,15.4c6.9,1.9,13.1-2.4,15.4-8.7c15.7-43.4,30.7-87,44.8-130.9c5.5-17,8.9-39.6-8.5-51.1
			c-20.6-13.7-41.9,6.2-55.6,20.1c-17.7,18-34,37.2-49.2,57.2c7.2,4.2,14.4,8.4,21.6,12.6c13.7-30.1,27.4-60.3,41.1-90.4
			c6.8-15.1,13.7-30.1,20.5-45.2c6.5-14.5,13-30.8,6.9-46.5c-2.4-6.3-8.3-10.7-15.4-8.7c-54.8,15.5-105.2,46.8-143.2,89.3
			c-11.1,12.3-21.2,25.6-30.1,39.6c7.2,4.2,14.4,8.4,21.6,12.6c16.5-31.9,32.9-63.8,49.4-95.7c7.9-15.4,16.6-30.6,23.7-46.3
			c6.7-15,11-32.3,1.6-47.3c-2.6-4.2-9-7.8-14.1-5.7c-42,17.2-83.6,35.1-124.9,53.9c-20.3,9.2-40.5,18.6-60.6,28.2
			c-20,9.6-40.5,18.7-60,29.4c-18.9,10.4-37.3,30.1-26.4,52.7c3.9,8,13.9,7.1,19.6,2.5c35.3-27.7,69.9-56.4,103.5-86.2
			c16.8-14.9,33.4-30,49.8-45.4c15.3-14.4,31-28.7,45.1-44.3c15.1-16.7,28.4-35.8,33.3-58.2c2-9.1-5.8-18.1-15.4-15.4
			c-76.7,22-148.2,60.2-209.4,111.3c-17.2,14.3-33.4,29.7-48.7,46c-4.2,4.5-4.9,11.5-1,16.4c3.6,4.5,11,6.9,16.1,3.2
			c67.7-48,130.4-102.9,186.5-164c15.8-17.2,31.1-34.9,45.8-53c3.6-4.4,5-10,2-15.1c-2.6-4.5-9-7.6-14.1-5.7
			c-47.9,17.2-94.8,37.1-140.8,58.6c-38,17.8-77.4,35.7-109,64c-17,15.2-30.4,33.5-38.9,54.7c-4.7,11.7,12.9,21.1,20.9,12.2
			c38.8-43.8,76-88.9,111.5-135.4c6.3-8.3-2.5-18.1-10.8-18.8c-16.4-1.4-32.9-2.7-49.3-4.1c-6.7-0.6-12.5,6.1-12.5,12.5
			C2370.6,899.7,2376.3,904.4,2383.1,905L2383.1,905z"/>
	</g>
</g>
<g>
	<g>
		<path class="st1" d="M2951.4,1035.9c42.1-22.4,84.1-44.8,126.2-67.2c-6.1-4.7-12.2-9.4-18.4-14.1c-7.7,36.1-25.3,68.5-43.7,100.1
			c-20.4,35.1-41,70.2-61.6,105.3c-11.7,20-23.4,40-35.1,60c7.8,2.1,15.5,4.2,23.3,6.3c2-22.5,15.6-42.7,29.3-60
			c15.5-19.5,32.2-38.3,49.4-56.4c34.5-36.5,71.7-70.4,111.2-101.4c22.1-17.4,45.1-33.7,68.6-49c-4.2,0-8.4,0-12.6,0
			c0.7,0.4,1.4,0.7,2.1,1.1c-0.4-0.3-1-1.1-0.4-0.2c0.8,1.3-0.1-1.4-0.1,0.1c0,1,0,0-0.2-0.5c0.2,0.7,0.4,1.4,0.6,2.2
			c-0.1-0.2-0.2-1.9-0.1-0.4c0.1,1.9,0.1,3.7-0.1,5.6c0.2-1.9-0.4,1.9-0.6,2.4c-0.3,1.5-0.8,3-1.2,4.4c-1,3.3-2.4,6.2-3.7,9.4
			c-7.8,18-15.5,36-23.3,54c-15.4,35.7-30.8,71.4-46.2,107.1c-8.8,20.4-17.6,40.9-26.4,61.3c-2.7,6.2-1.8,13.4,4.5,17.1
			c5.7,3.3,13.9,1.5,17.1-4.5c36.5-67.4,76.9-134.5,133.9-186.7c15.7-14.4,32.6-27.3,50.7-38.6c-6.1-2.5-12.2-5-18.4-7.5
			c2.8,6.9,0,13.8-2.2,20.7c-2.6,8.2-5.2,16.4-7.9,24.6c-5.5,17.4-11.1,34.7-16.6,52.1c-11,34.4-22,68.8-33,103.3
			c-3.6,11.4,12.9,22,20.9,12.2c35.8-44.3,72.4-90.1,119.2-123.3c13.4-9.5,27.5-17.9,42.3-24.9c-6.1-4.7-12.2-9.4-18.4-14.1
			c-18,57.8-35.9,115.5-53.9,173.3c-1.6,5.3,1.1,11.4,5.7,14.1c5.2,3,10.7,1.5,15.1-2c13.6-10.7,27.2-21.3,40.8-32
			c6.8-5.3,13.6-10.7,20.4-16c1.4-1.1,2.8-2.3,4.4-3.3c0.4-0.2,0.8-0.5,1.2-0.7c1.4-0.8,1.6-0.9,0.8-0.3c-0.1,0.4-8.4-4.5-7.5-5.6
			c-0.6,0.8-0.2,4.7-0.3,5.7c-2.2,34.6-4.4,69.1-6.6,103.7c-0.4,6.7,6.1,12.5,12.5,12.5c7.1,0,12.1-5.7,12.5-12.5
			c1.3-20.4,2.6-40.8,3.9-61.2c0.6-9.9,1.3-19.8,1.9-29.6c0.6-9.3,3.2-20.8-1.8-29.2c-6.1-10.2-18.6-10.1-28-5
			c-8.3,4.5-15.8,11.9-23.2,17.8c-16.2,12.7-32.4,25.4-48.6,38.1c7,4.1,13.9,8.1,20.9,12.2c18-57.8,35.9-115.5,53.9-173.3
			c3.5-11.2-9.1-18.5-18.4-14.1c-53.7,25.5-96.4,68.3-134.4,113c-10.9,12.9-21.5,26-32.1,39.1c7,4.1,13.9,8.1,20.9,12.2
			c11.4-35.7,22.8-71.4,34.2-107.1c5.6-17.7,11.3-35.4,16.9-53.1c2.8-8.7,5.7-17.3,8.2-26c2.6-9,3.9-19,0.3-27.9
			c-2.9-7.2-10.8-12.2-18.4-7.5c-68.6,42.7-119,107.6-160.3,175.9c-11.6,19.1-22.5,38.7-33.2,58.3c7.2,4.2,14.4,8.4,21.6,12.6
			c20.4-47.3,40.8-94.6,61.2-141.9c10.1-23.5,20.3-47,30.4-70.5c7.4-17.3,21.1-41.4,8.8-59.8c-2.9-4.4-7.5-8.5-12.6-9.9
			c-7.4-2-14.1,4.2-19.9,8c-9.2,6.2-18.3,12.5-27.3,19c-18.9,13.6-37.3,27.8-55.3,42.6c-34.7,28.6-67.5,59.5-98.1,92.5
			c-17.3,18.6-34.2,37.7-49.5,57.9c-15.7,20.7-28.1,43.5-30.5,69.7c-1.2,12.8,17.4,16.4,23.3,6.3c21.1-36,42.1-72,63.2-108
			c19.7-33.8,41-67.1,57.9-102.4c9.4-19.5,17.3-39.8,21.8-61c2.3-10.7-8.5-19.4-18.4-14.1c-42.1,22.4-84.1,44.8-126.2,67.2
			c-6,3.2-7.8,11.4-4.5,17.1C2937.8,1037.5,2945.4,1039.1,2951.4,1035.9L2951.4,1035.9z"/>
	</g>
</g>
<g>
	<g>
		<path d="M2798.1,1443.6c-42.7-78.3-103.5-146.1-176-198c-77.1-55.2-167.5-90.4-261.4-103.1c-55.8-7.5-112-7.1-167.6,1.2
			c-6.7,1-10.4,9.4-8.7,15.4c2,7.2,8.7,9.7,15.4,8.7c93.8-13.9,191-2.9,279.8,30c81.1,30.1,154.3,79.8,213.3,142.8
			c32.7,34.9,60.7,73.7,83.6,115.7C2784.3,1470.4,2805.9,1457.8,2798.1,1443.6L2798.1,1443.6z"/>
	</g>
</g>
<g>
	<path class="st3" d="M2471.5,1326.5c157.2,22.9,91,216.7,39.5,326.9c-30.2-3.9-59.7-13.8-88-25.2c-34.6-13.9-69.3-31.1-93.9-59.2
		c-26.3-30.2-38.5-70-47.2-109c-1.7-7.5-3.2-15.1-4.7-22.7C2332.6,1365.6,2398.4,1315.8,2471.5,1326.5z"/>
	<g>
		<path class="st2" d="M2468.1,1338.5c7.1,1.1,14.2,2.5,21.1,4.5c3.2,0.9,6.3,1.9,9.4,3.1c1.3,0.5,2.6,1,4,1.5
			c2.2,0.9,0.3,0.1-0.1,0c0.9,0.4,1.9,0.8,2.8,1.3c5.3,2.5,10.4,5.4,15.3,8.8c1,0.7,2,1.5,3,2.2c-2.7-2,0.9,0.8,1.4,1.2
			c2.2,1.9,4.3,3.8,6.3,5.9c1.8,1.8,3.4,3.7,5.1,5.7c0.5,0.6,0.9,1.1,1.4,1.7c-0.2-0.3-1.6-2.2-0.4-0.4c0.8,1.2,1.7,2.4,2.5,3.6
			c3,4.4,5.4,9.1,7.7,14c0.3,0.5,0.5,1.1,0.7,1.6c-1.2-2.7-0.4-1.1-0.2-0.5c0.5,1.3,1,2.5,1.4,3.8c1,2.7,1.8,5.5,2.6,8.3
			c1.5,5.4,2.6,10.9,3.5,16.5c0.1,0.6,0.2,1.3,0.3,1.9c-0.1-0.4-0.3-2.8-0.1-0.5c0.1,1.3,0.3,2.6,0.4,3.9c0.3,3.1,0.5,6.2,0.7,9.3
			c0.3,6.1,0.3,12.2,0,18.3c-0.2,6.3-0.7,12.6-1.4,18.9c-0.2,1.6-0.4,3.2-0.6,4.8c-0.1,0.5-0.3,2.5,0-0.1c-0.1,0.7-0.2,1.4-0.3,2.2
			c-0.5,3.4-1,6.9-1.6,10.3c-4.6,26.6-12.1,52.7-20.9,78.3c-4.9,14.1-10.2,28-15.9,41.8c-0.7,1.7-1.4,3.3-2.1,5
			c-1.3,3.2,0.6-1.5-0.2,0.5c-0.4,1-0.8,2-1.3,2.9c-1.4,3.2-2.8,6.4-4.2,9.6c-2.8,6.3-5.6,12.6-8.5,18.8c4.7-1.9,9.4-3.8,14.1-5.7
			c-23.9-3.2-47.1-9.9-69.6-18.1c-20.1-7.4-40-15.6-58.8-26c-18.4-10.1-35.3-22.4-49-38.4c-12.9-15.2-22.1-33.6-28.9-52.2
			c-8.5-23.6-14-48.2-18.7-72.8c-1.1,4.1-2.1,8.1-3.2,12.2c19.9-25.6,41.9-50,67.5-70c21.7-17,45.8-30.1,72.6-35.8
			c7.6-1.6,12-2.2,20-2.5c4-0.2,7.9-0.2,11.9,0c1.9,0.1,3.8,0.2,5.6,0.4c0.7,0.1,1.4,0.1,2.1,0.2
			C2465.7,1338.2,2469.6,1338.7,2468.1,1338.5c6.7,0.9,13.4-1.6,15.4-8.7c1.6-5.9-2-14.4-8.7-15.4c-35.9-5-70.7,2.4-102.6,19.5
			c-33.8,18.2-62.6,45.2-87.4,74.1c-3.2,3.7-6.3,7.5-9.4,11.3c-4,5-10.7,11.1-10.7,17.8c0,5.4,2,11.3,3.1,16.6
			c1.2,5.6,2.4,11.2,3.7,16.8c4.7,19.9,10.5,39.4,18.5,58.1c8,18.8,18.7,36.4,32.5,51.6c13.6,14.9,30.3,27,47.8,36.9
			c20.4,11.6,42.3,20.6,64.2,28.8c23.7,8.9,48.1,16.1,73.2,19.4c5.1,0.7,11.6-0.4,14.1-5.7c23.3-50.1,44.1-102.5,54.4-156.9
			c9.4-49.5,11.7-107.2-22.4-148.3c-19.6-23.6-49.4-35.7-79.1-40.1c-6.7-1-13.4,1.7-15.4,8.7
			C2457.8,1329,2461.4,1337.5,2468.1,1338.5z"/>
	</g>
</g>
<g>
	<path class="st2" d="M3192.7,1391.8c154.2-38.1,166.1,166.2,160,287.8c-29.5,7.8-60.5,9.8-91,9.9c-37.3,0.2-75.9-2.6-109.3-19.4
		c-35.8-18-62.1-50.2-84.9-83.1c-4.4-6.4-8.7-12.8-12.9-19.3C3078.9,1480.6,3121,1409.5,3192.7,1391.8z"/>
	<g>
		<path class="st3" d="M3196,1403.9c3.5-0.9,7-1.6,10.6-2.3c1.7-0.3,3.4-0.6,5.1-0.8c2.2-0.3-3,0.3,0.6-0.1c1.1-0.1,2.2-0.3,3.3-0.4
			c6.2-0.6,12.5-0.8,18.7-0.5c1.5,0.1,2.9,0.2,4.4,0.3c0.8,0.1,5.3,0.7,1.9,0.2c2.9,0.4,5.8,1,8.7,1.6c2.5,0.6,5,1.3,7.4,2.1
			c1.4,0.5,2.8,0.9,4.2,1.5c0.5,0.2,1.1,0.4,1.6,0.6c2.8,1-2.4-1.2,0.2,0.1c4.7,2.3,9.2,4.6,13.6,7.6c1.2,0.8,2.3,1.7,3.5,2.5
			c0.5,0.4,1.8,1.5-0.5-0.4c0.4,0.4,0.9,0.7,1.3,1.1c2.2,1.9,4.4,3.7,6.5,5.8c3.8,3.7,7.3,7.7,10.6,11.8c-2.1-2.7,0.6,0.9,1,1.4
			c0.8,1.1,1.6,2.2,2.3,3.4c1.6,2.4,3.2,4.9,4.7,7.4c3,5,5.7,10.3,8.2,15.6c0.6,1.3,1.2,2.7,1.8,4c0.3,0.6,1.2,2.8,0.1,0.2
			c0.3,0.6,0.5,1.2,0.8,1.8c1.2,2.9,2.3,5.9,3.4,8.9c4.3,12,7.7,24.3,10.4,36.7c1.5,6.7,2.8,13.5,3.9,20.3c0.5,3.1,1,6.2,1.4,9.2
			c0.1,0.7,0.8,5.5,0.4,2.7c0.2,1.8,0.5,3.7,0.7,5.5c1.7,13.6,2.8,27.3,3.5,41c1.5,28.9,1.3,58-0.2,86.9c3.1-4,6.1-8,9.2-12.1
			c-22.8,5.9-46.1,8.3-69.5,9.1c-22.4,0.8-45.1,0.7-67.4-2.1c-20.1-2.5-40.3-7.8-58.2-17.6c-17.9-9.8-33-23.3-46.6-38.4
			c-15.9-17.7-29.4-37.4-42.4-57.3c0.4,3.2,0.8,6.4,1.3,9.6c8.8-31.4,19.5-61,35.8-89.1c7.4-12.7,14.9-23.7,23.9-33.9
			c4.6-5.2,9.4-10.1,14.5-14.7c5.8-5.2,8.6-7.4,14.9-11.6C3169.3,1412.7,3180.5,1407.8,3196,1403.9c15.6-3.9,9-28-6.6-24.1
			c-70.1,17.7-110.9,82.1-134.4,145.9c-3.3,9-6.3,18.1-9.1,27.3c-1.4,4.6-3.8,9.9-3.8,14.8c0,6.8,6.6,13.8,10.3,19.2
			c11.9,17.6,24.5,34.9,38.8,50.7c13.9,15.3,29.8,29.1,47.7,39.4c18.9,10.9,40.1,17.5,61.6,20.9c24.7,3.9,49.7,4.5,74.6,3.9
			c27.2-0.7,54.6-3.3,81-10.2c5.5-1.4,8.9-6.6,9.2-12.1c2.7-55.3,1.7-111.6-9.3-166c-9.7-47.8-29.7-102.7-75.8-126.7
			c-28.2-14.7-60.4-14.5-90.8-7.2C3173.7,1383.6,3180.4,1407.7,3196,1403.9z"/>
	</g>
</g>
<g>
	<g>
		<path d="M353.1,1983.9c36.4-24.4,76.4-42.5,118.9-53.5c-4.7-6.1-9.4-12.2-14.1-18.4c-56.2,79.2-101.5,166-134.8,257.3
			c-9.3,25.6-17.7,51.6-25,77.9c-1.7,5.9,1.6,12.5,7.2,14.7c5.3,2.1,13,0.6,15.6-5.1c28.4-62.7,62.6-122.8,101.9-179.3
			c39-56.1,83.2-108.6,131.7-156.7c27.6-27.4,56.6-53.3,86.8-77.7c-7-4.1-13.9-8.1-20.9-12.2c-28,85.1-56,170.3-84,255.4
			c-7.9,24-15.8,47.9-23.6,71.9c8.2,1.1,16.4,2.2,24.6,3.3c1.5-50.7,16.8-100.9,43-144.8c26.1-43.8,62.8-81.3,107-106.9
			c2.5-1.5,6.8-2.8,8.8-4.8c1.2-1.1-0.2,0.2-1.5-0.1c-0.5-0.1-1.2-0.8-1.6-0.9c-0.1-0.1-0.2-0.2-0.2-0.3c-0.4-0.5-0.3-0.4,0.1,0.2
			c0.2-0.1,0.2,0.1,0.3,0.5c0.4,1.1,1.1,4.2,1.1,4.1c-0.2-1.2,0.1,0.9,0.1,0.9c0.1,1.3,0.2,2.6,0.3,3.8c0.3,4.5,0.5,9,0.6,13.5
			c0.4,18.8-1,37.7-4.5,56.2c-1.1,6.1,1.2,12.3,7.2,14.7c5.5,2.2,12.7,0.5,15.6-5.1c8.7-17,17.3-33.9,26-50.9
			c3.3-6.5,7.1-15.3,10.9-20.3c1.1-1.4,2.4-2.9,3.9-4c-1.4,1.1,2.1-1.1,2-1.1c-0.9,0.4-0.6,0.4,0.9-0.1c-1.3,0.1-1.2,0.1,0.2,0
			c1.5,0.1,1.5,0,0-0.1c0.5,0.1,1.1,0.2,1.6,0.4c0.8,0.3,0.7,0.2-0.4-0.2c0.7,0.3,1.3,0.7,1.9,1.1c-2-1.2,1.4,1.3,1.9,1.8
			c2.4,2.5-0.9-1.6,1,1.3c0.9,1.4,1.8,2.9,2.5,4.4c-0.7-1.5,0.9,2.6,1.1,3.1c0.4,1.3,0.6,2.5,0.9,3.8c0.3,1.5,0.3,1.7,0.1,0.5
			c0.1,0.9,0.2,1.7,0.2,2.6c0.1,1.6,0,3.1-0.1,4.7c-1.2,17.8-7.6,35.3-0.6,52.8c2.5,6.3,8.4,10.7,15.4,8.7c6-1.6,11.2-9.1,8.7-15.4
			c-5.6-14.2,0-29.8,1.4-44.4c1.2-12.9-2.4-26.5-10.4-36.8c-9.1-11.8-23.8-16.8-37.7-10.5c-13.5,6.1-19.8,20.8-26.1,33.2
			c-9,17.5-17.9,35.1-26.9,52.6c7.6,3.2,15.2,6.4,22.8,9.6c3.5-18.8,5.4-37.9,5.4-57.1c0-15.2,1.7-37.3-11.7-47.8
			c-14.6-11.5-32.7,2.4-45.4,10.6c-12.4,8-24.3,16.9-35.5,26.5c-44.5,38.1-78.2,88.4-97.6,143.5c-10.9,30.9-16.9,63.5-17.9,96.3
			c-0.4,14.5,20.3,16.4,24.6,3.3c28-85.1,56-170.3,84-255.4c7.9-24,15.8-47.9,23.6-71.9c1.7-5.2-1.1-11.4-5.7-14.1
			c-5.1-3-10.8-1.6-15.1,2c-54,43.6-104,92.1-149.2,144.8c-45.3,52.8-86,109.7-121.2,169.8c-19.8,33.8-37.8,68.6-53.9,104.2
			c7.6,3.2,15.2,6.4,22.8,9.6c25.7-91.5,63.5-179.3,112.5-260.7c14.1-23.4,29-46.2,44.8-68.4c6.6-9.3-4.3-20.9-14.1-18.4
			c-44.4,11.5-86.8,30.5-124.8,56c-5.6,3.8-8,11-4.5,17.1C339.3,1985,347.5,1987.7,353.1,1983.9L353.1,1983.9z"/>
	</g>
</g>
<g>
	<g>
		<path d="M222.9,1112.4c10.4-69.2,38.1-133.7,78-190.8c40.3-57.6,93-106.4,152-144.5c64-41.2,134.9-70.4,208.3-90.1
			c74.8-20.1,152.4-31.6,229.9-32c77.6-0.4,155.5,11.2,227.6,40.6c8.5,3.5,16.8,7.3,25.1,11.2c6.1,2.9,13.5,1.7,17.1-4.5
			c3.2-5.5,1.6-14.2-4.5-17.1c-73.1-35.3-153.5-51.9-234.4-54.8c-80.2-2.9-161.1,6.9-239.1,25.3c-76.5,18-151.4,45.7-219.3,85.5
			c-64.2,37.5-121.9,86.1-167.5,145c-44.1,56.9-77.5,122.7-92.7,193.4c-1.9,8.7-3.4,17.4-4.8,26.2c-1,6.7,1.7,13.4,8.7,15.4
			C213.4,1122.8,221.9,1119.1,222.9,1112.4L222.9,1112.4z"/>
	</g>
</g>
<g>
	<path class="st0" d="M1669.1,853.5c99.6-14.5,189.3,53.4,264.9,150.9c30.5-158,27.5-322.5-9.1-479.3
		c-31.7-136.1-100.6-278.6-230.4-330.5c-94.1-37.6-205.2-18-289.8,37.7c-84.6,55.8-144.1,144.1-179.4,239
		c-24.3,65.4-39.7,137.4-28,206.3c2.1,12.6,5.2,25,9.2,37.3c47.2,143.4,115.9,278.9,168.8,420.2c15.2,40.6,31.2,82.5,61.7,113.3
		c37.1,37.6,92,53.8,144.9,53c11.2-0.2,22.2-1,33.2-2.5C1545,1148.9,1454.8,884.8,1669.1,853.5z"/>
	<g>
		<path d="M1672.4,865.6c77.5-11,148.5,35.4,201.6,89c18.3,18.5,35.2,38.2,51.1,58.7c5.7,7.3,19.2,3.1,20.9-5.5
			c17.8-92.6,24.6-187.2,19.7-281.4c-4.5-87.8-17.8-176.7-44.1-260.8c-21.7-69.4-53.2-137.1-100.6-192.8
			c-47.9-56.3-113.2-96.6-187.1-106.9c-80.7-11.2-164.5,9.8-232.6,53.7c-66.9,43.2-119.2,106.2-156.1,176.3
			c-19.4,36.8-35,75.9-46.5,115.9c-12.6,43.8-20.2,90-17.4,135.7c1.4,23.7,5.5,47.3,12.8,69.9c7.2,22.3,15.1,44.3,23.3,66.2
			c16.4,43.9,34.4,87.2,52.7,130.3c18,42.5,36.5,84.7,54.3,127.3c17.5,41.9,33.1,84.5,50.1,126.6c15.5,38.3,34.9,76.2,67.9,102.3
			c31.8,25.2,70.6,38.5,110.7,42.7c20.7,2.1,41.5,1.4,62.1-1.2c9.8-1.2,15.1-9.6,10.8-18.8c-15.2-32.6-27.4-61.3-39.7-95.5
			c-12.6-34.8-23.3-70.3-30.6-106.6c-1.8-9-3.4-18-4.7-27.1c-0.1-1-0.3-2-0.4-3c0.4,2.7-0.1-1.2-0.2-1.4c-0.2-2-0.5-3.9-0.7-5.9
			c-0.5-4.7-0.9-9.4-1.3-14.1c-1.2-16.5-1.3-33,0.3-49.5c0.2-1.8,0.4-3.6,0.6-5.4c0.1-0.5,0.6-4,0.1-0.9c0.1-0.9,0.3-1.8,0.4-2.6
			c0.6-4,1.3-7.9,2.2-11.9c1.6-7.3,3.6-14.5,6.1-21.6c0.6-1.6,1.2-3.1,1.8-4.7c0.2-0.5,1.5-3.6,0.3-0.7c0.4-0.9,0.8-1.8,1.2-2.7
			c1.5-3.3,3.1-6.5,4.9-9.7c1.7-3.1,3.6-6.2,5.6-9.2c0.9-1.4,1.8-2.7,2.8-4c0.6-0.8,1.2-1.6,1.8-2.4c-1.8,2.3,0.1-0.1,0.5-0.6
			c5.4-6.4,11.2-12.3,17.6-17.7c0.3-0.3,3-2.4,0.7-0.6c0.8-0.6,1.7-1.2,2.5-1.9c1.8-1.3,3.7-2.6,5.6-3.9c3.8-2.5,7.7-4.7,11.7-6.8
			c8.9-4.6,14.6-6.9,25.2-10.1C1650.7,869.5,1661.5,867.2,1672.4,865.6c6.7-1,10.4-9.4,8.7-15.4c-2-7.2-8.7-9.7-15.4-8.7
			c-36.3,5.4-72.4,19-98.6,45.6c-22.6,22.8-35.7,53.2-41,84.6c-6,35.8-3.7,72.1,2.1,107.7c6.1,37.6,16.5,74.5,28.9,110.4
			c13.6,39.4,29.7,77.9,47.3,115.7c3.6-6.3,7.2-12.5,10.8-18.8c-39.1,5-78.6,2.6-115.6-11.9c-35.2-13.8-62.3-39.2-81-71.7
			c-20.5-35.8-32.6-75.9-47.8-114.1c-16.8-42.3-34.7-84.1-52.6-125.9c-35.5-82.8-71.7-165.6-99.6-251.3
			c-27.5-84.2-6.8-175.4,25.8-255.1c28.3-69.4,70.7-134.2,127.4-183.7c57.1-49.9,130.2-81.9,206.4-85c38.3-1.6,76.5,4.2,112.2,18.3
			c30.2,11.9,58.2,30.3,82.2,52c50.6,46,85.7,107.2,110.1,170.6c28.8,74.8,44.7,154.8,53.2,234.3c9.7,90.8,8.7,182.9-3.3,273.5
			c-2.9,21.5-6.4,43-10.5,64.3c7-1.8,13.9-3.7,20.9-5.5c-28.6-36.8-60.5-71.2-97.5-99.7c-32.4-24.9-69.8-45.1-110.2-52.9
			c-23.1-4.5-46.1-4.8-69.3-1.5c-6.7,0.9-10.4,9.5-8.7,15.4C1659,864,1665.7,866.5,1672.4,865.6z"/>
	</g>
</g>
<g>
	<g>
		<path d="M1249.2,1028.2c27.8-51.1,61.3-98.9,99.8-142.3c38.5-43.4,81.8-82.8,129-116.7c48.8-35,101.7-64.6,157.4-87.2
			c60.5-24.5,124.2-41.5,189-50.3c63.9-8.7,129-9.3,193.1-1.9c7.7,0.9,15.4,1.9,23.1,3c6.7,1,13.4-1.7,15.4-8.7
			c1.6-5.9-2-14.4-8.7-15.4c-66.4-9.9-133.8-11.6-200.6-4.7c-66.7,7-132.6,21.9-195.5,45.2c-59,21.8-115.3,50.4-167.4,85.6
			c-49.9,33.7-96.1,72.9-137.3,116.8c-41.2,43.9-77.6,92.4-107.8,144.5c-3.7,6.4-7.4,12.9-10.9,19.4
			C1219.9,1029.7,1241.5,1042.3,1249.2,1028.2L1249.2,1028.2z"/>
	</g>
</g>
</svg>
