<?xml version="1.0" encoding="utf-8"?>
<!-- Generator: Adobe Illustrator 19.1.0, SVG Export Plug-In . SVG Version: 6.00 Build 0)  -->
<svg version="1.1" id="Layer_1" xmlns="http://www.w3.org/2000/svg" xmlns:xlink="http://www.w3.org/1999/xlink" x="0px" y="0px"
	 viewBox="-68 196.3 474 401.7" style="enable-background:new -68 196.3 474 401.7;" xml:space="preserve">
<style type="text/css">
	.st0{fill:#FF00AA;}
	.st1{fill:#CE5298;stroke:#F6EA33;stroke-width:5;stroke-miterlimit:10;}
	.st2{fill:#272525;}
	.st3{fill:#5397CD;stroke:#CF5298;stroke-width:5;stroke-miterlimit:10;}
	.st4{fill:#5397CD;stroke:#272525;stroke-width:5;stroke-miterlimit:10;}
	.st5{fill:#F6EA33;stroke:#CE5298;stroke-width:5;stroke-miterlimit:10;}
</style>
<g id="Layer_1_1_">
</g>
<g>
	<path class="st0" d="M75.3,372.9c-19.8-7.9-38.5-18.7-55.2-32c-3.2-2.5-7.5-3.1-10.6,0c-2.6,2.6-3.2,8.1,0,10.6
		c18.8,15,39.4,27,61.8,35.8c3.8,1.5,8.2-1.6,9.2-5.2C81.8,377.8,79.1,374.4,75.3,372.9L75.3,372.9z"/>
</g>
<g>
	<path class="st1" d="M157.8,339.5c-2.9-24.2-6.3-48.3-10.1-72.3c-0.6-4-5.6-6.2-9.2-5.2c-4.3,1.2-5.9,5.2-5.2,9.2
		c3.6,22.7,6.9,45.5,9.6,68.3c0.5,4,3.1,7.5,7.5,7.5C154,347,158.3,343.6,157.8,339.5L157.8,339.5z"/>
</g>
<g>
	<path class="st2" d="M237.6,335.6c7.1-18.2,15.9-35.7,26.2-52.3c5.1-8.2-7.9-15.8-13-7.6c-10.9,17.8-20.1,36.5-27.7,55.9
		c-1.5,3.8,1.6,8.2,5.2,9.2C232.6,342.1,236.1,339.4,237.6,335.6L237.6,335.6z"/>
</g>
<g>
	<path class="st3" d="M284,394.3c29.1-2.9,56.2-15.1,77.5-35.2c7-6.6-3.6-17.2-10.6-10.6c-18.2,17.2-41.9,28.3-66.9,30.8
		c-4,0.4-7.5,3.2-7.5,7.5C276.5,390.5,280,394.7,284,394.3L284,394.3z"/>
</g>
<g>
	<path class="st4" d="M288.9,454.2c23.5,10.7,48.1,17.5,73.7,20.6c4,0.5,7.5-3.8,7.5-7.5c0-4.5-3.5-7-7.5-7.5
		c-22.8-2.7-45.2-9-66.1-18.5c-3.7-1.7-8-1-10.3,2.7C284.3,447.1,285.2,452.5,288.9,454.2L288.9,454.2z"/>
</g>
<g>
	<path class="st5" d="M74.6,455.5c-27.2,4.9-55.3,4.1-82.2-2.1c-9.4-2.2-13.4,12.3-4,14.5c29.7,6.8,60.2,7.4,90.2,2.1
		C88,468.2,84,453.8,74.6,455.5L74.6,455.5z"/>
</g>
</svg>
