<?xml version="1.0" encoding="utf-8"?>
<!-- Generator: Adobe Illustrator 19.1.0, SVG Export Plug-In . SVG Version: 6.00 Build 0)  -->
<svg version="1.1" id="Layer_1" xmlns="http://www.w3.org/2000/svg" xmlns:xlink="http://www.w3.org/1999/xlink" x="0px" y="0px"
	 viewBox="0 0 2207.6 2129.6" style="enable-background:new 0 0 2207.6 2129.6;" xml:space="preserve">
<style type="text/css">
	.st0{fill:#F7EA34;}
	.st1{fill:#CF5299;}
	.st2{fill:#5398CE;}
</style>
<g>
	<path class="st0" d="M1742.7,1218.8c46.6,1.1,98.8-1.7,130.9-35.6c21.2-22.4,29-54.5,30.1-85.3c2.3-68.3-26.3-137.1-76.4-183.6
		c-2.9-2.7-6.1-5.7-6.5-9.6c-0.4-3.4,1.5-6.7,3.3-9.6c22.4-37.1,44.8-74.2,67.1-111.3c10.5-17.4,21.4-36.3,19.5-56.5
		c-2.3-25.2-25.6-45.3-50.7-48.8c-25.1-3.5-50.6,7.1-69.8,23.6c-12.5,10.7-22.6,21.6-38.4,26.4c-14.8,4.5-45.6,15.1-56.8-0.9
		c-13.8-19.6,17-55.9,26.4-72.4c13.4-23.3,24-49.9-1.9-69c-2.5-1.8-5.8-2-8.9-1.8c-26.4,1.4-49.6,18.5-66.2,39
		c-16.6,20.5-28.1,44.6-42.2,66.9c-6.6,10.4-13.9,20.7-23.9,27.9c-12.8,9.3-28.7,12.8-44.2,15.9c-18.4,3.7-37.7,7-55.6,1.3
		c19.6-64.4,25.9-132.8,18.5-199.7c-0.4-3.7-0.9-7.5-3-10.6c-6.9-10-22.8-3.6-31.3,5c-28.9,29.1-37.6,71.8-50.4,110.8
		c-4.6,14-10,28-19.1,39.5c-9.1,11.5-22.6,20.3-37.3,20.8c-21.9,0.6-40.5-17.4-49-37.6s-9.5-42.5-13.1-64.1
		c-3.8-22.8-10.6-45-17.4-67.1c-4.1-13.5-12.4-29.9-26.4-28.4c-10.7,1.1-17,12.5-20.5,22.7c-18.5,54.1-11.6,114-27.8,168.8
		c-1.7,5.7-4,11.9-9.1,15.1c-3.5,2.2-8,2.7-12.1,2.5c-20.3-0.8-37.7-14.4-51.8-29c-21.2-21.8-38.9-47-61.8-67s-53.4-34.6-83.3-28.9
		c-2.5,0.5-5.1,1.1-7,2.8c-5.2,4.5-2.7,13,0.4,19.2c18.4,37.2,41.5,71.7,61.4,108.1c10.5,19.2,18.8,39.6,24.1,60.9
		c3.5,14.2,20.2,49.6,4.6,61.7c-4.3,3.3-10.3,3.5-15.6,2.3c-7.4-1.6-14.6-4.6-22-6.4c-11.3-2.7-22.4-6.3-33.8-8.5
		c-28.3-5.5-56.6-10.7-84.9-16.1c-18.7-3.6-39.6-6.7-55.5,3.8c-17.6,11.6-21.9,35.1-24.5,56.1c-7,55.7-10.6,119.2,27.2,160.8
		c25.1,27.7,64.2,39.2,101.6,38.9c37.4-0.3,73.8-11.1,109.5-21.8c7.1,65.3,5,131.7-6.1,196.4c-0.9,5.2-1.8,10.5-0.7,15.6
		c1.6,7.3,7,13,12.5,18c27,23.9,67.8,37.2,99.5,20.1c25.4-13.8,42.4-45,71.2-46.9c2.4-0.2,4.9-0.1,6.9,1.3c1.9,1.3,3,3.6,3.9,5.7
		c21,48.8,31,102.3,29.3,155.5c-0.1,3.9-0.3,8.2,1.9,11.5c3,4.8,9.5,5.9,15.1,5.5c19.4-1.6,35.4-17.4,42.7-35.5
		c7.3-18.1,7.3-38.2,6.4-57.7c-1.2-25.3-3.8-50.5-7.8-75.5c-0.5-3.3-1-7.1,0.9-9.9c2.2-3.3,6.7-3.8,10.7-4.1
		c23.6-1.7,51.1-1.9,66.2,16.3c5.9,7.1,8.9,16.1,11.9,24.8c7.6,22.7,15.2,45.4,22.8,68c3.8,11.4,7.8,23.1,15.8,32
		c8,8.9,21.2,14.3,32.3,9.7c18.2-7.6,17.8-33.2,14.3-52.6c-6.4-35.6-12.8-71.1-19.2-106.7c-0.5-3-1.1-6.2-0.1-9.1
		c2-5.8,9.1-7.9,15.2-8.4c27.7-2.1,54.4,12.8,73.3,33.2c18.8,20.4,31,45.9,43,70.9c8.2-36.2,8.5-74.1,0.9-110.4
		c4.4-6.7,14.5,1.6,18.4,5.8c13.2,14.2,20.6,35.8,29.2,52.9c10,19.7,19.9,39.4,29.9,59.1c7,13.8,14.7,28.4,28.3,35.9
		c10.8,5.9,23.7,6.4,36,6.7c5.7,0.2,12.6-0.3,15.5-5.2c1.4-2.4,1.5-5.4,1.5-8.3c-0.6-48.9-16.7-115.2-54.1-150
		c-7.9-7.3-21.1-10.7-29-3.6C1717.7,1221.6,1727.9,1218.9,1742.7,1218.8"/>
	<g>
		<path class="st1" d="M1742.7,1231.3c44.8,1,94-1.3,130.4-30.7c38.2-30.8,46.4-85,42.3-131.1c-4.3-47.7-21.7-94.1-50.7-132.2
			c-7.3-9.5-15-18.6-23.6-27.1c-2-2-4.1-3.8-6.1-5.8c-0.5-0.5-2-2-2-2c-0.2,0.2,1.9,4.2,0.1,2.2c-0.9-0.9,9.5-16.2,10.5-17.9
			c14.9-24.6,29.7-49.3,44.6-73.9c13.9-23.1,31.6-46.9,34.7-74.4c2.8-24.5-10.2-46.6-29.9-60.3c-20.1-13.9-46.3-16-69.3-8.9
			c-11.7,3.6-23,9.2-32.9,16.4c-9.9,7.2-18.3,16.4-28.3,23.4c-7.7,5.3-15.9,7.9-24.8,10.5c-9.4,2.7-15.8,4.1-24.8,3.9
			c-0.6,0-3.2-0.4-1,0c-0.8-0.1-1.6-0.3-2.3-0.5c-0.3-0.1-3.7-1.5-1.4-0.3c-0.7-0.3-1.3-0.7-2-1.1c2.1,1.3-0.6-0.6-0.9-1
			c0.3,0.3,1.3,1.8-0.1-0.2c0-0.1-1.4-3-0.8-1.3c0.6,1.5-0.5-2.1-0.5-2.5c0.6,2.8,0.1-2.1,0.2-3.1c0-0.5,0.4-2.3,0-0.1
			c0.2-1.2,0.5-2.3,0.8-3.5c1.2-4.7,2.1-6.7,3.9-10.3c7.7-15.8,19.1-29.4,27.2-44.9c10.1-19.2,17.8-42.9,5.5-63.1
			c-6.7-11-17.4-20.3-30.8-19.7c-12.5,0.5-24.7,4.3-35.8,9.9c-22.2,11.2-39,30.4-52.6,50.9c-13.9,21-24,45.2-40.1,64.7
			c-16,19.4-41.1,23.5-64.8,27.3c-11.8,1.9-23.9,2.3-35.5-1.2c2.9,5.1,5.8,10.3,8.7,15.4c11.9-39.5,19-80.4,21.2-121.6
			c1.1-20.4,0.9-40.8-0.5-61.2c-1.2-17.3-0.2-42.7-21.5-47.8c-17.3-4.1-33.2,8.8-43.3,21.2c-11.4,14.1-19.5,29.8-26.2,46.6
			c-6.4,16.1-11.1,32.7-16.2,49.2c-4.9,15.9-9.6,32.8-19.8,46.2c-8.8,11.7-23.4,20-37.3,16c-12.9-3.7-23.4-16.1-28.8-28.8
			c-7.3-17.2-8.6-36.6-11.3-54.9c-2.9-20.1-8-39.7-13.9-59.1c-4.7-15.8-8.9-34.7-22.2-45.8c-15.6-12.9-35.2-7.3-46.1,8.5
			c-4.9,7.2-7.7,16-10.1,24.3c-2.7,9.3-4.8,18.8-6.4,28.4c-3.4,19.7-5.1,39.7-6.9,59.5c-1.7,18.6-3.6,37.3-7.5,55.6
			c-1.7,7.7-3.2,17.5-7.1,23.8c0.2-0.3-0.8,1-0.8,1.1c-1.3,0.7-3.3,0.6-4.7,0.6c-3.8-0.1-7.4-0.8-11-2
			c-15.9-5.1-28.4-18.3-39.4-30.2c-12.9-14-24.7-29-37.6-42.9c-25.2-27-58.7-51.5-97.4-51c-8.9,0.1-19.6,0.9-26.8,6.7
			c-8.2,6.6-9.4,17.8-6.2,27.3c3.2,9.4,8.5,18.3,13.2,27c4.9,9,9.9,17.8,15.1,26.6c20.1,34.3,43.2,67.8,55.3,106
			c4.1,12.8,8.1,25.8,11.7,38.8c0.9,3.3,1.7,6.6,2.4,9.9c0.6,3.2,0.7,3.5,0.7,7.5c0,0.7-0.6,5,0,2.5c-0.1,0.6-1,3.9-0.6,2.7
			c0.6-1.5-1.7,2.9,0,0.4c-0.4,0.6-2.1,1.6-1,1.2c-2.5,1.1-5.7-0.1-8.4-0.8c-4.9-1.3-9.7-3.1-14.6-4.5c-9.7-2.7-19.6-5.3-29.5-7.7
			c-20.4-4.9-41.2-8.1-61.8-12c-19.4-3.6-39.1-8.8-58.8-9.6c-17.8-0.7-36.4,4.2-48.3,18.3c-10.9,12.9-15.6,29.2-18.2,45.6
			c-2.6,16.8-4.4,33.9-5.4,50.8c-2,33.4,0.1,67.8,13.8,98.7c14.2,32.1,42,54.7,74.9,65.9c36.2,12.3,75.2,9.7,112,1.8
			c19.3-4.1,38.3-9.8,57.2-15.5c-5.3-4-10.5-8-15.8-12.1c5.9,55.3,5.4,111.2-1.6,166.3c-0.8,6.2-1.7,12.3-2.7,18.5
			c-1.1,7-2.9,14.2-3,21.4c-0.2,13.9,7.8,25,17.9,33.7c17.2,14.8,38.4,26,61.1,29.2c22.8,3.2,44.8-1.5,63.3-15.5
			c15.4-11.7,27.9-28.8,45.5-36c-0.8,0.3,3.3-1,4.2-1.2c1.1-0.3,2.3-0.6,3.4-0.7c-1.1,0.2,0,0.4,0.9-0.1c0.6,0,1.2,0,1.8-0.1
			c-1.1-0.4-2-0.9-2.9-1.6c-0.1,0.1,0.8,1.9,1.1,2.4c1.3,3,2.5,6,3.6,9c4.7,12.1,8.7,24.4,12.1,36.9c6.8,25.3,10.8,51.2,11.8,77.3
			c0.2,6,0.3,12,0.2,17.9c-0.1,6.8-1,13.9,1.1,20.5c4,12.8,17.3,18.1,29.8,16.8c24.5-2.6,43.5-21,52.6-43.1
			c10.1-24.6,8.4-52.3,6.6-78.3c-1-13.7-2.3-27.3-4.1-40.9c-0.5-3.9-1-7.8-1.6-11.7c-0.5-3.1-0.3-7.6-1.6-10.4
			c-0.3-0.6,6.5-1.8,0-1.8c-0.5,1-0.9,2-1.4,3c-2.1,1.1-2.4,1.4-1,0.9c0.7,0.3,4.8-0.5,6.6-0.6c17.9-1.1,40.4-2,52.2,12.4
			c7.1,8.7,9.7,21.4,13.2,31.9c4.5,13.3,8.9,26.7,13.4,40c7.7,23.1,14.3,52.2,38.3,63.9c11.2,5.4,24.2,6.4,35.3,0.4
			c9.1-4.9,15-13.6,18-23.3c6.7-21.8-0.4-46.1-4.3-67.7c-2.5-14-5-27.9-7.5-41.9c-2.4-13.2-5.5-26.5-7.2-39.8
			c-0.3-2.1,0.6-3-0.8-0.7c-0.1,0.1-0.8,0.7-0.8,0.6c-0.1-0.6,4-1.5,5.1-1.6c2.3-0.3,9.5-0.1,13.3,0.4c11,1.6,21.2,6.1,30.5,12
			c19.7,12.6,33.4,32.2,44.6,52.4c6,10.8,11.3,21.9,16.6,33.1c4.6,9.7,20.6,7.1,22.8-3c8.6-38.6,8.9-78.3,0.9-117
			c-1.1,4.1-2.1,8.1-3.2,12.2c1.3-1.6,1.9-6.5-4.4,1.1c-0.8,1-1-1.4-0.6,0c0,0,0.8,0.6-0.2-0.1c0.7,0.5,1.5,0.9,2.2,1.3
			c1.7,1.1,0-0.1,1.5,1.2c1.2,1.1,2.3,2.2,3.4,3.4c5,5.7,8.7,12.6,12.1,19.3c7.7,15.2,14.6,30.8,22.3,46.1
			c8.7,17.3,17.1,34.8,26.4,51.8c8.4,15.3,19.4,28.7,36.1,35.1c8.5,3.2,17.9,4.2,26.9,4.6c8.6,0.4,18.1,1.1,25.8-3.4
			c15.2-8.8,11.3-30,9.8-44.7c-3.1-30.9-10.4-61.3-23.6-89.5c-12.4-26.5-45.4-78.3-79.7-50.5c-5.2,4.2-4.5,13.4,0,17.7
			c6.3,6,13.5,10,22.2,11.2C1727.8,1232.1,1735.2,1231.4,1742.7,1231.3c16.1-0.2,16.1-25.2,0-25c-5.8,0.1-11.6,0.6-17.3,0.3
			c-3.3-0.2-6-1.1-9.5-4.5c0,5.9,0,11.8,0,17.7c-1.1,0.9,1.7-0.4,0.5-0.2c1.5-0.2,2.7,0,3.4,0.1c3.5,0.7,6,2.3,8.5,4.7
			c5.3,5,9.9,10.4,13.8,16.1c9.2,13.1,16.1,27.6,21.3,42.6c5.4,15.6,9.2,31.7,11.7,48c1,6.6,1.8,14.7,2.2,22.2
			c0.2,3.5,0.3,7.1,0.4,10.7c0,0.6-0.5,2.5,0.3,2.6c-4-0.6,2.1-1.7,2.1-1.6c0.1,0.2-3,0.7-2.6,0.7c-7.4,0.9-17.9-0.1-25.8-2.1
			c-7.9-2-14.1-6.3-19.2-12.7c-5.2-6.6-9-14.3-12.8-21.8c-5-9.8-10-19.7-15-29.6c-9.1-17.9-17.7-35.9-26.4-54
			c-6.9-14.5-15.9-31.8-30.8-39.7c-5-2.6-10.6-4.1-16.2-2.8c-6.4,1.6-12.6,7.6-12.6,14.5c0,6,2.3,12.5,3.2,18.5
			c0.8,5.7,1.4,11.4,1.8,17.2c1.6,24-0.1,47.9-5.4,71.4c7.6-1,15.2-2,22.8-3c-20.9-44-46.6-91.6-96.6-106.7c-19.9-6-60-8-58.6,22.7
			c0.3,7.2,2.4,14.6,3.6,21.6c1.3,7,2.5,14,3.8,20.9c2.5,14,5,27.9,7.5,41.9c2,11.2,5.1,25.4,6.1,34.9c0.5,4.5,0.7,9,0.5,13.5
			c-0.2,4-0.4,6.6-2,11.3c-1.3,3.8,0.6-0.9-0.5,1.1c-0.5,0.9-1,1.8-1.5,2.7c-0.4,0.7-1.1,1.4-1.7,1.9c-2,1.6-5.5,2.6-8.1,2.3
			c-9.5-1.2-15.6-9.6-19.6-17.8c-5.4-10.8-8.4-23-12.3-34.4c-4.5-13.3-8.9-26.7-13.4-40c-4-12-7.4-25.2-14.8-35.6
			c-6.9-9.7-16.2-16.4-27.3-20.5c-10.2-3.8-21.6-4.9-32.4-5c-10.3-0.1-24.1-1-33.3,4.2c-14.6,8.4-9.3,25.4-7.4,38.8
			c1.9,13.5,3.3,27.1,4.3,40.7c1.8,23.6,4.9,51.1-4.8,73.3c-3.8,8.7-10,16.8-18,21.7c-3.9,2.4-7.5,4-12.1,4.7
			c-1.2,0.2-3.1,0.2-4.9,0.1c1.6,0.1-1.4-0.9-0.7-0.2c0.3,0.3,0.6,0.8,0.6,0.9c-0.6-1.6-0.1-4.3-0.1-6.1c0.1-3,0.1-6,0.2-9
			c0-6.6-0.1-13.3-0.4-19.9c-0.7-13.7-2.2-27.4-4.3-41c-4-25.9-10.8-51.4-20.3-75.9c-5-13-9.4-27.9-25.9-28.2
			c-10.5-0.2-21.4,3.9-30.2,9.4c-16.3,10.1-28.8,26.3-44.1,36.3c-17.1,11.1-36.7,10.9-55.6,4.6c-9.8-3.3-18.9-8.4-27.3-14.4
			c-7.4-5.4-16.6-12.1-15.7-22.2c1.2-13.3,4.2-26.7,5.9-40c1.7-13.5,3-27.1,3.9-40.7c1.8-27.6,2.1-55.2,0.7-82.8
			c-0.7-13.6-1.8-27.2-3.2-40.8c-0.8-7.8-7.3-14.6-15.8-12.1c-36.6,11-74.2,22.5-112.9,21.3c-30.4-0.9-62.1-10.5-83.8-32.7
			c-20.8-21.4-28.3-51.3-29.9-80.2c-0.9-16.2-0.1-32.4,1.3-48.6c1.4-15.4,2.5-30,6.3-44.8c3.2-12.6,8.6-25.3,21.8-29.5
			c15.2-4.9,32.1-0.4,47.2,2.5c39.3,7.4,79.5,13.2,117.7,25.1c9,2.8,18.2,6.3,27.8,5c8.7-1.1,16.2-5.9,20.6-13.5
			c7-12.3,4.2-28,0.6-40.9c-3.4-12.5-7.4-24.9-11.2-37.2c-5.7-18.8-13.7-36.9-23.2-54.1c-18.9-34.2-40.5-66.8-58.2-101.7
			c-1-1.9-2.1-3.9-2.9-5.9c-0.1-0.3-0.5-3-1-3.6c-0.7-1.1,0.5-0.3-0.5,0.6c-2.5,2.3-1,1.2,1.3,0.8c7.2-1.4,15.1-1.1,22.3,0.3
			c16.2,3.2,31.1,11.1,44,21.3c28.4,22.4,47.5,54.2,74.2,78.4c13.6,12.3,29.4,22.5,48,24.8c10,1.3,20.2-0.1,27.9-7
			c6.5-5.9,9.3-14.8,11.6-23c10.2-36.9,10.8-75.6,15.4-113.4c2.2-17.9,5.5-36.1,11.8-53.1c1.8-4.8,4.6-10.4,8.8-12.3
			c-0.1,0.1,1,0,1.8,0.1c-1.9-0.2,1.4,0.8-0.1,0c2.3,1.2,3.8,2.7,5.2,4.8c4,6,5.6,11.5,7.8,18.4c2.9,9.4,5.8,18.9,8.4,28.4
			c5.1,18.8,8.4,37.6,11,56.8c2.5,18.2,5.9,36.7,15.1,52.8c8.3,14.6,21.1,26.7,36.9,32.8c16.4,6.3,35.3,2.9,49.6-7
			c15.5-10.8,25.2-26.4,32.2-43.6c12.5-30.6,17.8-63.9,33.3-93.4c3.5-6.7,7.5-13.3,12.2-19.3c4.6-5.8,8.7-10.8,15.2-13.6
			c1.8-0.8,3.2-0.9,5.3-1c-1.1,0-0.7-0.5-0.4,0.1c0.5,0.8-0.1,0.2-0.6-0.4c-1.3-1.5,0.1,0.4,0.3,1.2c2.3,7.7,2,18.2,2.5,26.6
			c2.4,38.9,0.3,78.2-6.7,116.5c-3.4,18.7-7.9,37.3-13.4,55.5c-2,6.6,2.4,13.5,8.7,15.4c25.2,7.6,53.5,1.6,78.3-5
			c12.7-3.3,24.7-8.4,35-16.6c9.6-7.6,17-17.7,23.5-27.9c23.4-36.5,43-89.1,90.3-100.1c3.1-0.7,9.5-1.7,10.8-1.1
			c3.4,1.6,6.5,6.5,8,9.8c2.9,6.1,1.9,13.2-0.8,21.6c-5.1,15.6-15.8,29.5-24.8,43.7c-9.4,14.9-20.2,34-15.7,52.3
			c5.7,22.5,29.1,26.1,48.8,23c20.4-3.2,39.7-10.5,55.7-23.7c8.5-7,16.3-14.9,25.7-20.8c9.4-5.8,19.6-10.2,30.6-11.9
			c18.8-3,38.1,3.6,49.5,17.9c14.3,18.1,7,39.5-3.9,58.7c-13.6,24-28.5,47.4-42.7,71.1c-7.2,11.9-14.3,23.7-21.5,35.6
			c-7.1,11.7-18.7,25.4-11.3,39.7c2.7,5.2,7.3,8.9,11.4,12.9c4.1,4,8.1,8.2,11.9,12.4c7.3,8.2,13.9,17,19.9,26.2
			c12.2,18.9,21.7,39.4,28,61c6.2,21,9.4,42.7,9.3,64.6c-0.1,21.6-3.1,44.2-13,63.7c-20,39.3-62.9,49.7-103.7,51.4
			c-10.6,0.4-21.3,0.4-31.9,0.2C1726.6,1205.9,1726.6,1230.9,1742.7,1231.3L1742.7,1231.3z"/>
	</g>
</g>
<g>
	<g>
		<path d="M1666.6,1422c50.2,43.4,76.3,110.2,69,175.9c-4.2,37.9-18.5,73.9-21.6,112c-1.6,18.9,0,38.6,6.9,56.3
			c6.1,15.7,15.3,29.6,27.4,41.4c26.5,25.9,61.9,40.3,95.9,53.5c6.3,2.4,13.7-2.7,15.4-8.7c1.9-7.1-2.4-12.9-8.7-15.4
			c-27.5-10.6-57.6-22.9-79.7-42.3c-11.2-9.8-19.6-20.1-25.5-33.5c-7-16.1-8-34-6.6-51.3c3.2-38,17.4-74.1,21.6-112
			c3.7-33.1-0.9-67.5-12.2-98.8c-13.1-36.3-34.9-69.5-64.2-94.8c-5.1-4.4-12.7-5-17.7,0C1662.1,1408.9,1661.5,1417.6,1666.6,1422
			L1666.6,1422z"/>
	</g>
</g>
<g>
	<g>
		<path d="M1414,1418.6c-11.5,37.7-21.9,75.8-31,114.2c-4.6,19.6-8.8,39.5-10,59.7c-1.1,19.2,1.2,38.3,6.6,56.7
			c5.1,17.3,12.2,33.8,17.8,50.9c5,15.2,8.1,29.1,8.7,44.1c1.2,27.6-4.8,55.2-16.8,79.6c-14,28.4-34.8,51.9-61.8,67.7
			c-13.9,8.1-1.3,29.8,12.6,21.6c53-31.1,86.7-89.5,90.7-150.4c1-15-0.1-30.2-2.9-45c-3.4-17.7-10-34.5-16.2-51.3
			c-6.2-17-12.4-34.5-13.7-52.8c-1.4-19.2,1.2-38.3,5.2-57.1c9.3-44.2,21.6-88,34.8-131.2C1442.8,1409.8,1418.7,1403.2,1414,1418.6
			L1414,1418.6z"/>
	</g>
</g>
<g>
	<g>
		<path d="M1871,1396.9c24.5,10,43.3,31.8,57.6,54c17.5,27.3,30.9,57.2,44.1,86.7c25.9,57.7,51.5,116.7,96,163
			c23,23.9,50.6,43.2,81.9,54.5c6.4,2.3,13.7-2.6,15.4-8.7c1.9-6.9-2.4-13.1-8.7-15.4c-52.5-18.9-90.8-64.9-117.9-112.5
			c-32.9-57.8-52.6-122.6-88.4-178.8c-18.2-28.7-41.5-53.7-73.4-66.8c-6.3-2.6-13.7,2.8-15.4,8.7
			C1860.3,1388.7,1864.7,1394.4,1871,1396.9L1871,1396.9z"/>
	</g>
</g>
<g>
	<path class="st1" d="M505.8,1257.7c7,0.4,14.1-0.3,20.8-2.3c47.3-13.9,58.7-79.1,67.8-120.3c10.6-48.1,16.7-101.6,43.1-144.3
		c3.7-5.9,7.6-12.1,13.5-15.7c10.7-6.6,25.4-3,34.5,5.6s13.4,21.2,15.4,33.5c8.2,50.3-16.1,99.4-37.7,145.6
		c-55.6,118.9-97.7,244.1-125,372.5c-3.1,14.4-5.4,31.2,4.3,42.3c14.6,16.9,42.5,6.5,59.9-7.6c82.5-67.1,102.8-182.8,156.3-274.7
		c19.1-32.8,44.6-64.3,79.9-78.3c12.8-5.1,28.9-7,38.9,2.3c10.5,9.7,9.2,26.6,5.9,40.6c-18.9,80.4-75,150.3-82.5,232.6
		c-2.2,23.7,0.1,48.6,11.4,69.5c11.3,21,32.8,37.4,56.6,38.1c42.1,1.2,69.5-41.7,102-68.6c8.2-6.8,17.5-12.9,28.1-14.8
		c34-5.8,58.8,35.4,56.2,69.7c-4.4,58.3-54.1,103.4-106.4,129.6c-69.8,34.9-148.9,47.4-226.9,50.1c-84.1,3-174.9-2.9-244.9,43.7
		c-36.3,24.2-62.8,60.1-92.3,92.2c-16.9,18.4-39.9,37.2-64.1,31c-15.2-3.9-26.2-16.8-35.9-29.2c-43.4-55.8-82.1-117.9-94.5-187.5
		c-12.4-69.6,6.1-148.1,60.7-193c25.8-21.3,57.6-33.7,85.8-51.8c28.1-18.1,54.1-45,56.8-78.3c2.7-33.5-18.6-63.9-41.2-88.8
		c-44.7-49-99.3-89.8-133.8-146.4c-15-24.6-26.1-53-23.6-81.7c2.6-28.7,21.6-57.2,49.6-64c28.2-6.8,56.7,8.8,79.7,26.5
		c36.1,27.8,68.9,61.7,92.1,101.2c19.9,33.9,22.8,83.7,55.6,108.3C481.8,1252.8,493.7,1257,505.8,1257.7z"/>
	<g>
		<path class="st2" d="M505.8,1270.2c72.8,3.4,90.1-81.9,101.7-136.6c8.2-38.3,13.3-78.2,29.2-114.3c3.9-8.9,8.5-17.5,13.8-25.6
			c1.9-3,4-5.9,6.9-7.8c2.5-1.7,5.1-2,8.7-1.6c1.7,0.2,5.5,1.6,8,3.2c2.7,1.7,5.5,4.7,7.5,8c4.4,7.1,6.6,15.6,7.7,24
			c5.5,41.6-12.6,82.3-29.7,119.1c-18.7,40.3-36.8,80.8-52.9,122.2c-32,82.1-57.8,166.7-77,252.7c-4.3,19.4-10.9,41.1-2.3,60.2
			c8.3,18.5,28.1,24.6,46.8,21c17.9-3.4,33-14.5,46.1-26.5c13.3-12,24.9-25.6,35.5-40c42.2-57.3,63-126.4,93-189.7
			c15.1-31.7,32.1-64,57.7-88.5c12.1-11.6,27-22.2,43.4-26.4c6.8-1.7,14-2.5,19.2,1.7c1.4,1.1,2.6,3.3,3.3,5.4
			c1.1,3.6,1.3,6.8,1,11.6c-1,16.4-8.4,35.9-14.6,52.2c-6.7,17.7-14.5,34.8-22.5,52c-16.5,35.8-33.9,71.8-42.6,110.5
			c-8.8,39-10.4,85.5,14.9,119c11.5,15.1,27.5,27.4,46.2,31.8c18,4.2,36.2,0.8,52.4-7.6c14.9-7.7,27.6-19.4,39.5-31.1
			c11.9-11.6,23.2-24.7,36.7-34.4c3.4-2.5,7.1-4.9,11-6.6c2.1-0.9,4.2-1.4,6.4-1.9c3-0.7,1.6-0.3,0.8-0.2c1.2-0.1,2.5-0.2,3.7-0.2
			c0.6,0,5.1,0.4,2.6,0c1.7,0.2,3.5,0.7,5.1,1.2c0.9,0.3,1.9,0.6,2.8,1c-0.6-0.2-1.8-1,0.2,0.2c1.7,1,3.4,1.9,5.1,3
			c0.3,0.2,1.9,1.4,0.4,0.2c0.6,0.5,1.3,1,1.9,1.6c1.2,1.1,2.4,2.2,3.5,3.4c3.1,3.3,3.6,3.9,6.1,8c4.3,7,6.2,11.5,8.1,19.4
			c1.8,7.4,2.3,12.3,1.6,20.7c-0.6,6.9-2.4,15.4-5,23.1c-4.8,14.6-14,29.6-24.1,41.4c-23.6,27.5-54.3,46.6-87.4,61.2
			c-76.3,33.8-160,40.1-242.3,41.7c-76.9,1.5-160.4,3.5-224.2,52.3c-32.6,24.9-57.1,57.6-84.9,87.4c-11.2,12-26.7,26.7-43.2,27.3
			c-17.1,0.6-29-15-39-28c-24.5-31.7-47.1-65.2-64.4-101.5c-8.3-17.4-15.2-35.6-20.2-54.3c-4.9-18.2-7.8-34.9-8.6-53.2
			c-1.4-33.7,4.1-68,18.4-97.9c7.2-15.1,16.2-28.8,27.2-40.6c12.9-13.8,28.2-24.3,44.6-33.7c33.8-19.3,70.4-35.3,95-66.8
			c12-15.4,20-32.9,21.6-52.5c1.6-20.4-5.2-40.8-15.2-58.3c-19.8-34.6-51.4-62.2-79.8-89.6c-28-27-56.4-54.4-77.7-87.2
			c-11.1-17.1-20.4-35.4-24.5-55.5c-1.8-8.9-2.3-19.3-1.3-27.5c0.8-6.6,3.5-15.4,6.4-21.2c3.9-7.8,7.8-13.2,14-18.9
			c4.9-4.5,11.5-8.3,17.9-10.1c18-5.1,36.5,1.9,52.1,11c16.7,9.8,31.8,22.6,46.1,35.7c14.6,13.4,28.4,27.9,40.5,43.6
			c10.7,13.8,21.5,29.8,28.1,45.1c6,14,10.8,30.9,16.6,45.8c6,15.3,13.2,30.1,24.4,42.4C467.4,1260.6,485.9,1268.7,505.8,1270.2
			c6.7,0.5,12.5-6.1,12.5-12.5c0-7.2-5.7-12-12.5-12.5c-36.1-2.6-48.8-37.4-59-67c-5.5-16.1-10.9-32.5-19.5-47.3
			c-10.3-17.8-22.8-34.4-36.3-49.9c-13.4-15.4-28.2-29.6-43.8-42.7c-16-13.4-32.6-26.3-51.9-34.6c-19.4-8.3-41.6-11.8-61.8-3.7
			c-17.5,7-31.5,20.5-40.2,37.2c-20.3,38.9-8.9,83.6,12,119.7c20.4,35.2,49,65,78.1,93.2c14.4,14,28.9,27.7,43,42
			c13.8,14,27.6,28.3,38.4,44.7c10.3,15.7,17.8,33.1,16.7,51.9c-0.9,15.7-9.4,31.4-20.2,43.5c-26.3,29.4-64.6,42.9-97.4,63.9
			c-31.7,20.3-56.2,48.5-71,83.2c-14.4,33.8-20.3,71.1-17.9,107.7c2.6,40.7,15.1,79.9,32.7,116.5c18,37.4,41.7,71.6,67,104.3
			c11.9,15.4,25.9,31.4,46.1,35.1c22.2,4,42.3-6.9,58.7-20.9c15.4-13.2,28.2-29.5,41.5-44.7c13.4-15.3,27.1-30.5,42.4-44
			c28.9-25.4,63.9-40,101.3-47.5c38-7.6,77.3-8.3,116.1-9.1c42.7-0.9,85.1-2.5,127.4-8.6c43.3-6.3,85.7-17.2,125.9-34.4
			c34.6-14.8,67.8-34.8,93.4-62.8c23.7-25.8,43.1-61.5,40.4-97.7c-2.5-32.8-23.9-70.3-60.1-72.4c-20.8-1.2-38.4,12.1-52.9,25.4
			c-12.6,11.5-24.1,24.2-36.8,35.6c-6.4,5.7-11,9.5-18.3,13.9c-3.2,1.9-6.5,3.8-9.9,5.2c1.6-0.7-0.5,0.1-0.6,0.2
			c-1,0.4-2,0.7-3.1,1.1c-2.1,0.7-4.2,1.2-6.3,1.7c-5.8,1.2-13.8,1.1-20.5-0.7c-7.2-2-14.6-5.9-20.3-10.8
			c-29.6-25.5-29.5-69.8-22-105.4c8.1-38.4,25.2-73.9,41.5-109.2c8.5-18.3,16.8-36.8,24-55.6c7-18.4,13.8-37.8,15.6-57.4
			c1.9-20.1-7.2-41.2-28.5-46c-19.7-4.4-40.2,4.2-56.6,14.6c-32.7,20.7-55.2,53.7-73.1,87.2c-16.9,31.7-30.8,66-44.5,98.4
			c-13.8,32.7-28.2,65.4-46.9,95.7c-9.3,14.9-18.6,27.8-30.3,40.5c-11.8,12.9-23.5,24.7-38.9,31.9c-2.3,1.1-6.3,2.4-9.7,3.2
			c-1.1,0.3-2.2,0.5-3.4,0.7c0.6-0.1,1.9-0.1-0.7,0c-0.9,0.1-1.7,0.1-2.6,0.1c-0.1,0-4.1-0.2-1.8,0.1c-1.6-0.2-3.3-0.7-4.8-1.2
			c2,0.7-2.9-1.8-2.3-1.3c-2-1.5-4-4.6-4.7-7c-1.2-3.8-1.2-5.9-1.1-10.4c0.2-4.8,0.7-7.8,1.6-12.4c2.1-10.8,4.6-21.5,7.1-32.2
			c10.1-43.5,21.8-86.7,35.2-129.3c13.4-42.6,28.5-84.7,45.2-126.2c8.2-20.5,16.9-40.7,25.9-60.9c9.1-20.3,19-40.3,27.8-60.7
			c17.2-39.6,32.1-85.1,19.8-128.4c-5.7-20.2-19.8-38.3-41.7-41.2c-10.8-1.5-21.1,1.4-29.5,8.4c-7.8,6.5-13.1,16.3-17.9,25.1
			c-19.6,36.3-27,77.4-34.9,117.4c-6,30-11.3,61.4-23.2,89.8c0.8-1.9-1.1,2.4-1.2,2.7c-0.7,1.5-1.4,3-2.1,4.5
			c-1.6,3.3-3.4,6.5-5.3,9.6c-0.8,1.4-1.7,2.7-2.6,4c-0.4,0.7-0.9,1.3-1.4,1.9c-2.1,3.1,0.8-1-0.5,0.8c-2.1,2.6-4.3,5-6.6,7.3
			c-4.9,4.7-7.5,6.4-14.4,9.9c-3.3,1.7,1.3-0.4-0.8,0.4c-0.7,0.3-1.5,0.6-2.2,0.8c-2.1,0.7-4.2,1.3-6.3,1.8c-4.7,1.1-9.3,1.2-14.1,1
			c-6.8-0.3-12.5,6-12.5,12.5C493.3,1264.7,499,1269.9,505.8,1270.2z"/>
	</g>
</g>
<g>
	<g>
		<path class="st2" d="M516.5,1103.7c-5.2-33.6-10.5-67.2-15.7-100.7c-5.1-32.8-11.5-65.6-15-98.6c-1.6-15.2-2.1-30.7,0.9-45.7
			c2.8-13.9,7.8-27.1,14.4-39.6c13-24.8,30.7-47,49.6-67.6c37.8-41.1,82.9-75,132.8-100c25.6-12.8,52.8-21.4,78.8-33.1
			c25.2-11.3,46.9-28,61.5-51.7c26.5-43.3,26.6-98,23-147c-0.5-6.3-1-12.5-1.6-18.8c-0.6-6.7-5.3-12.5-12.5-12.5
			c-6.3,0-13.1,5.7-12.5,12.5c2.4,25.2,4.1,50.5,2.7,75.8c-0.7,12.9-1.8,23-4.5,35.4c-1.3,5.9-2.9,11.8-4.8,17.6
			c-1.9,5.8-3.4,9.4-5.8,14.2c-11.2,22.8-28.6,38.7-52.1,50.1c-12.4,6-25.4,10.6-38.2,15.5c-13.8,5.3-27.4,11.1-40.8,17.5
			c-51,24.7-97.8,58.8-137,99.6c-40.8,42.5-80.6,95.2-80.2,156.8c0.1,16.8,2.7,33.5,5.2,50.1c2.6,16.9,5.3,33.9,7.9,50.8
			c5.2,33.6,10.5,67.2,15.7,100.7c1.3,8.5,2.6,17,4,25.4c1,6.7,9.4,10.4,15.4,8.7C514.9,1117.2,517.6,1110.4,516.5,1103.7
			L516.5,1103.7z"/>
	</g>
</g>
<g>
	<g>
		<path class="st2" d="M327.4,855.3c-7.1-63.5-3.3-128,11.9-190c7.3-29.9,18-58.9,24.3-89c6.2-29.7,8.4-61.8-3.3-90.5
			c-6.8-16.8-17.3-31-28.7-44.9c-11.9-14.5-23.9-28.8-35.9-43.2c-4.3-5.2-13.2-4.5-17.7,0c-5.1,5.1-4.3,12.5,0,17.7
			c10.4,12.6,20.9,25.1,31.3,37.7c9.2,11,18.3,22.2,24.8,35.1c12.6,24.9,10.9,54,5.5,80.6c-6,29.2-16.2,57.3-23.5,86.2
			c-7.8,31-13,62.7-15.5,94.6c-2.8,35.2-2.2,70.6,1.8,105.7c0.8,6.7,5.2,12.5,12.5,12.5C321,867.8,328.1,862,327.4,855.3
			L327.4,855.3z"/>
	</g>
</g>
<g>
	<g>
		<path class="st0" d="M577.3,1941.9c48.4-14.3,98.6-4.5,146.7,7.5c50.7,12.7,101.9,28.7,154.8,27.8
			c103.2-1.6,185.5-74.4,245.5-151.7c18.4-23.7,34.6-49.6,56.7-70.2c19.3-18.1,46.4-32.3,72.9-27.1c6.6,1.3,13.5-1.9,15.4-8.7
			c1.7-6.1-2.1-14.1-8.7-15.4c-27.8-5.5-56,2.7-79,18.7c-23.2,16.2-40.5,38.6-57.2,61.1c-29.6,40.2-61.5,79-100.7,110.6
			c-36.4,29.3-80.6,52.1-126.9,56.6c-51.6,5.1-102-9.5-151.5-22.2c-56.8-14.6-116.7-28.3-174.6-11.2
			C555.2,1922.3,561.8,1946.5,577.3,1941.9L577.3,1941.9z"/>
	</g>
</g>
<g>
	<g>
		<path class="st0" d="M517.6,579.5c-4.1-71.3,10-143.5,41.3-207.8c15.5-31.8,35.8-60.4,56.1-89.2c19.5-27.7,38.4-56.4,49-88.9
			c12.4-38,11.8-81.4-13.7-113.9c-4.2-5.3-13.3-4.4-17.7,0c-5.2,5.2-4.2,12.4,0,17.7c19.4,24.6,16.6,60,7.8,88
			c-9.7,30.7-28.4,58.1-46.9,84.4c-19.8,28.1-39.6,56-54.9,86.9c-16,32.4-28.3,66.7-36.1,102c-8.7,39.6-12.2,80.3-9.8,120.8
			c0.4,6.7,5.5,12.5,12.5,12.5C511.6,592,518,586.3,517.6,579.5L517.6,579.5z"/>
	</g>
</g>
<g>
	<g>
		<path class="st1" d="M1609.7,539.4c3.9-31-6.5-63.5,3.8-93.8c4.8-13.9,13.4-26.5,21.7-38.5c8.3-12,17.1-23.7,26.4-34.9
			c19.5-23.6,41.1-45.3,64.2-65.3c21.4-18.5,44.1-37.6,54.2-65c10-27.1,4.3-60.3-20.3-77.4c-5.5-3.9-13.9-1-17.1,4.5
			c-3.6,6.2-1.1,13.2,4.5,17.1c1,0.7,2.5,2,4.3,3.9c1.8,2,1.9,2.1,3.6,5.1c0.6,1.1,1.2,2.2,1.7,3.4c0.6,1.3,0.1,0.2,0,0
			c0.2,0.6,0.4,1.2,0.6,1.8c0.8,2.7,1.5,5.4,2,8.2c-0.3-1.8,0.1,1.4,0.2,1.9c0.1,1.3,0.2,2.7,0.2,4c0,2.3-0.2,6.5-0.3,7.7
			c-0.4,3.6-2.5,11.4-4,14.9c-9.9,22.9-33.2,40.1-52.1,56.7c-22.4,19.7-43.2,41.3-62.1,64.4c-18.9,23.2-38.7,48.1-49.9,76.1
			c-13.7,34.2-2.1,70.1-6.6,105.3c-0.8,6.7,6.4,12.5,12.5,12.5C1604.7,551.9,1608.9,546.1,1609.7,539.4L1609.7,539.4z"/>
	</g>
</g>
<g>
	<g>
		<path d="M1738.3,491.4c-6.6-50.4,24.4-97.8,69-120.9c11.6-6,24.3-9.7,37.9-12.3c16.2-3,32.8-4.7,48.2-10.9
			c27.8-11.2,49.9-31.8,66.5-56.5c20.9-31.2,31.5-68,41.8-103.7c4.5-15.5-19.6-22.1-24.1-6.6c-9,31.3-18.1,63.2-35.2,91.3
			c-13.7,22.5-33.8,43.5-58.6,52.6c-15.8,5.8-32.6,7.3-48.9,10.5c-14,2.8-27.6,7.5-40.3,14.1c-24.4,12.6-45.3,32-60.1,55
			c-16.5,25.6-25.2,57-21.3,87.5c0.9,6.7,5.1,12.5,12.5,12.5C1731.8,503.9,1739.1,498.1,1738.3,491.4L1738.3,491.4z"/>
	</g>
</g>
</svg>
