<?xml version="1.0" encoding="utf-8"?>
<!-- Generator: Adobe Illustrator 19.1.0, SVG Export Plug-In . SVG Version: 6.00 Build 0)  -->
<svg version="1.1" id="Layer_1" xmlns="http://www.w3.org/2000/svg" xmlns:xlink="http://www.w3.org/1999/xlink" x="0px" y="0px"
	 viewBox="0 0 612 792" style="enable-background:new 0 0 612 792;" xml:space="preserve">
<style type="text/css">
	.st0{fill:#5497CD;stroke:#D05398;stroke-width:5;stroke-miterlimit:10;}
	.st1{fill:#F5E934;stroke:#CF5398;stroke-width:5;stroke-miterlimit:10;}
	.st2{fill:#272525;}
	.st3{fill:#CD3D92;}
</style>
<g>
	<path class="st0" d="M84.2,544c8.1,28.1,25.1,52.5,48.7,69.8c7.8,5.7,16.3-6.7,8.5-12.4c-20.2-14.8-35.4-36.1-42.5-60.2
		c-1.1-3.9-4.5-6.8-8.7-6C86.6,535.9,83.1,540.1,84.2,544L84.2,544z"/>
</g>
<g>
	<path class="st1" d="M478.7,248.2c-5.6-28.7-20.3-54.5-42.3-73.9c-7.2-6.4-16.8,5.2-9.6,11.5c18.8,16.5,32.1,39.1,36.9,63.7
		c0.8,3.9,3.9,7.2,8.2,6.8C475.6,256.1,479.5,252.2,478.7,248.2L478.7,248.2z"/>
</g>
<g>
	<path class="st2" d="M115.6,622.3c-14.1-13.5-27-28.3-38.4-44.1c-5.7-7.8-17.6,1.3-12,9.1c12.3,16.8,26.1,32.4,41.2,46.8
		c2.9,2.8,8.2,1.6,10.5-1.3C119.7,629.3,118.6,625.1,115.6,622.3L115.6,622.3z"/>
</g>
<g>
	<path class="st3" d="M401.5,219.6c14.2,15.9,26.2,33.8,35.3,53.2c1.8,3.7,5.3,6.1,9.5,4.7c3.5-1.2,6.5-5.8,4.7-9.5
		c-10.2-21.8-23.3-41.7-39.5-59.5c-2.7-3-8.1-2.2-10.6,0.6C397.8,212.4,398.7,216.6,401.5,219.6L401.5,219.6z"/>
</g>
</svg>
