<?xml version="1.0" encoding="utf-8"?>
<!-- Generator: Adobe Illustrator 19.1.0, SVG Export Plug-In . SVG Version: 6.00 Build 0)  -->
<svg version="1.1" xmlns="http://www.w3.org/2000/svg" xmlns:xlink="http://www.w3.org/1999/xlink" x="0px" y="0px"
	 viewBox="0 0 2012.5 1556.5" style="enable-background:new 0 0 2012.5 1556.5;" xml:space="preserve">
<style type="text/css">
	.st0{fill:#DCC6B0;}
	.st1{fill:#DEC8B2;}
	.st2{filter:url(#Adobe_OpacityMaskFilter);}
	.st3{opacity:0.6;mask:url(#SVGID_1_);}
	.st4{fill:#CBCCCE;}
	.st5{fill:#FFFFFF;}
	.st6{fill:#E1E1E1;}
	.st7{fill:url(#SVGID_2_);}
	.st8{opacity:0.1;fill:url(#SVGID_3_);}
	.st9{fill:url(#SVGID_4_);}
	.st10{filter:url(#Adobe_OpacityMaskFilter_1_);}
	.st11{opacity:0.2;mask:url(#SVGID_5_);}
	.st12{opacity:0.48;fill:url(#SVGID_6_);}
	.st13{fill:#050505;}
	.st14{fill:url(#SVGID_7_);}
	.st15{filter:url(#Adobe_OpacityMaskFilter_2_);}
	.st16{opacity:0.7;mask:url(#SVGID_8_);}
	.st17{fill:url(#SVGID_9_);}
	.st18{filter:url(#Adobe_OpacityMaskFilter_3_);}
	.st19{opacity:0.7;mask:url(#SVGID_10_);}
	.st20{opacity:0.6;}
	.st21{fill:#2C2827;}
	.st22{filter:url(#Adobe_OpacityMaskFilter_4_);}
	.st23{opacity:0.9;mask:url(#SVGID_11_);}
	.st24{fill:#666666;}
	.st25{fill:#524A49;}
	.st26{filter:url(#Adobe_OpacityMaskFilter_5_);}
	.st27{opacity:0.9;mask:url(#SVGID_12_);}
	.st28{opacity:0.5;fill:url(#);}
	.st29{filter:url(#Adobe_OpacityMaskFilter_6_);}
	.st30{opacity:0.6;mask:url(#SVGID_13_);}
	.st31{fill:url(#SVGID_14_);}
	.st32{opacity:0.1;fill:url(#SVGID_15_);}
	.st33{fill:url(#SVGID_16_);}
	.st34{filter:url(#Adobe_OpacityMaskFilter_7_);}
	.st35{opacity:0.2;mask:url(#SVGID_17_);}
	.st36{opacity:0.48;fill:url(#SVGID_18_);}
	.st37{fill:url(#SVGID_19_);}
	.st38{filter:url(#Adobe_OpacityMaskFilter_8_);}
	.st39{opacity:0.7;mask:url(#SVGID_20_);}
	.st40{fill:url(#SVGID_21_);}
	.st41{filter:url(#Adobe_OpacityMaskFilter_9_);}
	.st42{opacity:0.7;mask:url(#SVGID_22_);}
	.st43{filter:url(#Adobe_OpacityMaskFilter_10_);}
	.st44{opacity:0.9;mask:url(#SVGID_23_);}
	.st45{filter:url(#Adobe_OpacityMaskFilter_11_);}
	.st46{opacity:0.9;mask:url(#SVGID_24_);}
	.st47{filter:url(#Adobe_OpacityMaskFilter_12_);}
	.st48{opacity:0.6;mask:url(#SVGID_25_);}
	.st49{fill:url(#SVGID_26_);}
	.st50{opacity:0.1;fill:url(#SVGID_27_);}
	.st51{fill:url(#SVGID_28_);}
	.st52{filter:url(#Adobe_OpacityMaskFilter_13_);}
	.st53{opacity:0.2;mask:url(#SVGID_29_);}
	.st54{opacity:0.48;fill:url(#SVGID_30_);}
	.st55{fill:url(#SVGID_31_);}
	.st56{filter:url(#Adobe_OpacityMaskFilter_14_);}
	.st57{opacity:0.7;mask:url(#SVGID_32_);}
	.st58{fill:url(#SVGID_33_);}
	.st59{filter:url(#Adobe_OpacityMaskFilter_15_);}
	.st60{opacity:0.7;mask:url(#SVGID_34_);}
	.st61{filter:url(#Adobe_OpacityMaskFilter_16_);}
	.st62{opacity:0.9;mask:url(#SVGID_35_);}
	.st63{filter:url(#Adobe_OpacityMaskFilter_17_);}
	.st64{opacity:0.9;mask:url(#SVGID_36_);}
	.st65{filter:url(#Adobe_OpacityMaskFilter_18_);}
	.st66{opacity:0.6;mask:url(#SVGID_37_);}
	.st67{fill:url(#SVGID_38_);}
	.st68{opacity:0.1;fill:url(#SVGID_39_);}
	.st69{fill:url(#SVGID_40_);}
	.st70{filter:url(#Adobe_OpacityMaskFilter_19_);}
	.st71{opacity:0.2;mask:url(#SVGID_41_);}
	.st72{opacity:0.48;fill:url(#SVGID_42_);}
	.st73{fill:url(#SVGID_43_);}
	.st74{filter:url(#Adobe_OpacityMaskFilter_20_);}
	.st75{opacity:0.7;mask:url(#SVGID_44_);}
	.st76{fill:url(#SVGID_45_);}
	.st77{filter:url(#Adobe_OpacityMaskFilter_21_);}
	.st78{opacity:0.7;mask:url(#SVGID_46_);}
	.st79{filter:url(#Adobe_OpacityMaskFilter_22_);}
	.st80{opacity:0.9;mask:url(#SVGID_47_);}
	.st81{filter:url(#Adobe_OpacityMaskFilter_23_);}
	.st82{opacity:0.9;mask:url(#SVGID_48_);}
	.st83{filter:url(#Adobe_OpacityMaskFilter_24_);}
	.st84{opacity:0.6;mask:url(#SVGID_49_);}
	.st85{fill:url(#SVGID_50_);}
	.st86{opacity:0.1;fill:url(#SVGID_51_);}
	.st87{fill:url(#SVGID_52_);}
	.st88{filter:url(#Adobe_OpacityMaskFilter_25_);}
	.st89{opacity:0.2;mask:url(#SVGID_53_);}
	.st90{opacity:0.48;fill:url(#SVGID_54_);}
	.st91{fill:url(#SVGID_55_);}
	.st92{filter:url(#Adobe_OpacityMaskFilter_26_);}
	.st93{opacity:0.7;mask:url(#SVGID_56_);}
	.st94{fill:url(#SVGID_57_);}
	.st95{filter:url(#Adobe_OpacityMaskFilter_27_);}
	.st96{opacity:0.7;mask:url(#SVGID_58_);}
	.st97{filter:url(#Adobe_OpacityMaskFilter_28_);}
	.st98{opacity:0.9;mask:url(#SVGID_59_);}
	.st99{filter:url(#Adobe_OpacityMaskFilter_29_);}
	.st100{opacity:0.9;mask:url(#SVGID_60_);}
	.st101{filter:url(#Adobe_OpacityMaskFilter_30_);}
	.st102{opacity:0.6;mask:url(#SVGID_61_);}
	.st103{fill:url(#SVGID_62_);}
	.st104{opacity:0.1;fill:url(#SVGID_63_);}
	.st105{fill:url(#SVGID_64_);}
	.st106{filter:url(#Adobe_OpacityMaskFilter_31_);}
	.st107{opacity:0.2;mask:url(#SVGID_65_);}
	.st108{opacity:0.48;fill:url(#SVGID_66_);}
	.st109{fill:url(#SVGID_67_);}
	.st110{filter:url(#Adobe_OpacityMaskFilter_32_);}
	.st111{opacity:0.7;mask:url(#SVGID_68_);}
	.st112{fill:url(#SVGID_69_);}
	.st113{filter:url(#Adobe_OpacityMaskFilter_33_);}
	.st114{opacity:0.7;mask:url(#SVGID_70_);}
	.st115{filter:url(#Adobe_OpacityMaskFilter_34_);}
	.st116{opacity:0.9;mask:url(#SVGID_71_);}
	.st117{filter:url(#Adobe_OpacityMaskFilter_35_);}
	.st118{opacity:0.9;mask:url(#SVGID_72_);}
	.st119{filter:url(#Adobe_OpacityMaskFilter_36_);}
	.st120{opacity:0.6;mask:url(#SVGID_73_);}
	.st121{fill:url(#SVGID_74_);}
	.st122{opacity:0.1;fill:url(#SVGID_75_);}
	.st123{fill:url(#SVGID_76_);}
	.st124{filter:url(#Adobe_OpacityMaskFilter_37_);}
	.st125{opacity:0.2;mask:url(#SVGID_77_);}
	.st126{opacity:0.48;fill:url(#SVGID_78_);}
	.st127{fill:url(#SVGID_79_);}
	.st128{filter:url(#Adobe_OpacityMaskFilter_38_);}
	.st129{opacity:0.7;mask:url(#SVGID_80_);}
	.st130{fill:url(#SVGID_81_);}
	.st131{filter:url(#Adobe_OpacityMaskFilter_39_);}
	.st132{opacity:0.7;mask:url(#SVGID_82_);}
	.st133{filter:url(#Adobe_OpacityMaskFilter_40_);}
	.st134{opacity:0.9;mask:url(#SVGID_83_);}
	.st135{filter:url(#Adobe_OpacityMaskFilter_41_);}
	.st136{opacity:0.9;mask:url(#SVGID_84_);}
	.st137{filter:url(#Adobe_OpacityMaskFilter_42_);}
	.st138{opacity:0.6;mask:url(#SVGID_85_);}
	.st139{fill:url(#SVGID_86_);}
	.st140{opacity:0.1;fill:url(#SVGID_87_);}
	.st141{fill:url(#SVGID_88_);}
	.st142{filter:url(#Adobe_OpacityMaskFilter_43_);}
	.st143{opacity:0.2;mask:url(#SVGID_89_);}
	.st144{opacity:0.48;fill:url(#SVGID_90_);}
	.st145{fill:#E1F4FD;}
	.st146{fill:url(#SVGID_91_);}
	.st147{filter:url(#Adobe_OpacityMaskFilter_44_);}
	.st148{opacity:0.7;mask:url(#SVGID_92_);}
	.st149{fill:url(#SVGID_93_);}
	.st150{filter:url(#Adobe_OpacityMaskFilter_45_);}
	.st151{opacity:0.7;mask:url(#SVGID_94_);}
	.st152{filter:url(#Adobe_OpacityMaskFilter_46_);}
	.st153{opacity:0.9;mask:url(#SVGID_95_);}
	.st154{filter:url(#Adobe_OpacityMaskFilter_47_);}
	.st155{opacity:0.9;mask:url(#SVGID_96_);}
	.st156{filter:url(#Adobe_OpacityMaskFilter_48_);}
	.st157{opacity:0.6;mask:url(#SVGID_97_);}
	.st158{fill:url(#SVGID_98_);}
	.st159{opacity:0.1;fill:url(#SVGID_99_);}
	.st160{fill:url(#SVGID_100_);}
	.st161{filter:url(#Adobe_OpacityMaskFilter_49_);}
	.st162{opacity:0.2;mask:url(#SVGID_101_);}
	.st163{opacity:0.48;fill:url(#SVGID_102_);}
	.st164{fill:url(#SVGID_103_);}
	.st165{filter:url(#Adobe_OpacityMaskFilter_50_);}
	.st166{opacity:0.7;mask:url(#SVGID_104_);}
	.st167{fill:url(#SVGID_105_);}
	.st168{filter:url(#Adobe_OpacityMaskFilter_51_);}
	.st169{opacity:0.7;mask:url(#SVGID_106_);}
	.st170{filter:url(#Adobe_OpacityMaskFilter_52_);}
	.st171{opacity:0.9;mask:url(#SVGID_107_);}
	.st172{filter:url(#Adobe_OpacityMaskFilter_53_);}
	.st173{opacity:0.9;mask:url(#SVGID_108_);}
	.st174{opacity:0.3;fill:#A6A6A6;}
	.st175{filter:url(#Adobe_OpacityMaskFilter_54_);}
	.st176{opacity:0.6;mask:url(#SVGID_109_);}
	.st177{fill:url(#SVGID_110_);}
	.st178{opacity:0.1;fill:url(#SVGID_111_);}
	.st179{fill:url(#SVGID_112_);}
	.st180{filter:url(#Adobe_OpacityMaskFilter_55_);}
	.st181{opacity:0.2;mask:url(#SVGID_113_);}
	.st182{opacity:0.48;fill:url(#SVGID_114_);}
	.st183{fill:url(#SVGID_115_);}
	.st184{filter:url(#Adobe_OpacityMaskFilter_56_);}
	.st185{opacity:0.7;mask:url(#SVGID_116_);}
	.st186{fill:url(#SVGID_117_);}
	.st187{filter:url(#Adobe_OpacityMaskFilter_57_);}
	.st188{opacity:0.7;mask:url(#SVGID_118_);}
	.st189{filter:url(#Adobe_OpacityMaskFilter_58_);}
	.st190{opacity:0.9;mask:url(#SVGID_119_);}
	.st191{filter:url(#Adobe_OpacityMaskFilter_59_);}
	.st192{opacity:0.9;mask:url(#SVGID_120_);}
	.st193{fill:#FFF100;}
	.st194{fill:#929497;}
	.st195{filter:url(#Adobe_OpacityMaskFilter_60_);}
	.st196{opacity:0.6;mask:url(#SVGID_121_);}
	.st197{fill:url(#SVGID_122_);}
	.st198{opacity:0.1;fill:url(#SVGID_123_);}
	.st199{fill:url(#SVGID_124_);}
	.st200{filter:url(#Adobe_OpacityMaskFilter_61_);}
	.st201{opacity:0.2;mask:url(#SVGID_125_);}
	.st202{opacity:0.48;fill:url(#SVGID_126_);}
	.st203{fill:url(#SVGID_127_);}
	.st204{filter:url(#Adobe_OpacityMaskFilter_62_);}
	.st205{opacity:0.7;mask:url(#SVGID_128_);}
	.st206{fill:url(#SVGID_129_);}
	.st207{filter:url(#Adobe_OpacityMaskFilter_63_);}
	.st208{opacity:0.7;mask:url(#SVGID_130_);}
	.st209{filter:url(#Adobe_OpacityMaskFilter_64_);}
	.st210{opacity:0.9;mask:url(#SVGID_131_);}
	.st211{filter:url(#Adobe_OpacityMaskFilter_65_);}
	.st212{opacity:0.9;mask:url(#SVGID_132_);}
	.st213{fill:#00BEEC;}
	.st214{fill:#F69320;}
	.st215{fill:#FFF200;}
	.st216{fill:none;stroke:#00BEEC;stroke-width:5;stroke-linecap:round;stroke-miterlimit:10;}
	.st217{fill:none;stroke:#00BEEC;stroke-width:11;stroke-linecap:square;stroke-miterlimit:10;}
	.st218{fill:#F69320;stroke:#929497;stroke-width:11;stroke-linecap:round;stroke-miterlimit:10;}
	.st219{fill:#FFF100;stroke:#929497;stroke-width:11;stroke-linecap:round;stroke-miterlimit:10;}
	.st220{fill:#00BEEC;stroke:#929497;stroke-width:11;stroke-linecap:round;stroke-miterlimit:10;}
	.st221{fill:none;stroke:#F6921E;stroke-width:2;stroke-linecap:round;stroke-miterlimit:10;}
	.st222{opacity:0.8;fill:#4D555B;}
	.st223{fill:#939598;}
	.st224{fill:none;stroke:#00BEEC;stroke-linecap:round;stroke-miterlimit:10;}
	.st225{fill:#FFFFFF;stroke:#929497;stroke-miterlimit:10;}
	.st226{fill:#F69320;stroke:#929497;stroke-miterlimit:10;}
	.st227{fill:none;stroke:#929497;stroke-miterlimit:10;}
	.st228{clip-path:url(#SVGID_134_);}
	.st229{clip-path:url(#SVGID_136_);}
	.st230{clip-path:url(#SVGID_138_);}
	.st231{clip-path:url(#SVGID_140_);}
	.st232{fill:#F79422;}
	.st233{clip-path:url(#SVGID_142_);}
	.st234{clip-path:url(#SVGID_144_);}
	.st235{clip-path:url(#SVGID_146_);}
	.st236{clip-path:url(#SVGID_148_);}
	.st237{clip-path:url(#SVGID_150_);}
	.st238{clip-path:url(#SVGID_152_);}
	.st239{clip-path:url(#SVGID_154_);}
	.st240{fill:none;stroke:#F69320;stroke-width:5;stroke-linecap:round;stroke-miterlimit:10;}
	.st241{fill:#C4C4C4;}
	.st242{fill:#F93E2B;}
	.st243{filter:url(#Adobe_OpacityMaskFilter_66_);}
	.st244{opacity:0.6;mask:url(#SVGID_155_);}
	.st245{fill:url(#SVGID_156_);}
	.st246{opacity:0.1;fill:url(#SVGID_157_);}
	.st247{fill:url(#SVGID_158_);}
	.st248{filter:url(#Adobe_OpacityMaskFilter_67_);}
	.st249{opacity:0.2;mask:url(#SVGID_159_);}
	.st250{opacity:0.48;fill:url(#SVGID_160_);}
	.st251{fill:url(#SVGID_161_);}
	.st252{filter:url(#Adobe_OpacityMaskFilter_68_);}
	.st253{opacity:0.7;mask:url(#SVGID_162_);}
	.st254{fill:url(#SVGID_163_);}
	.st255{filter:url(#Adobe_OpacityMaskFilter_69_);}
	.st256{opacity:0.7;mask:url(#SVGID_164_);}
	.st257{filter:url(#Adobe_OpacityMaskFilter_70_);}
	.st258{opacity:0.9;mask:url(#SVGID_165_);}
	.st259{filter:url(#Adobe_OpacityMaskFilter_71_);}
	.st260{opacity:0.9;mask:url(#SVGID_166_);}
	.st261{fill:#58595B;}
	.st262{fill:none;stroke:#58595B;stroke-miterlimit:10;}
	.st263{filter:url(#Adobe_OpacityMaskFilter_72_);}
	.st264{opacity:0.6;mask:url(#SVGID_167_);}
	.st265{fill:url(#SVGID_168_);}
	.st266{opacity:0.1;fill:url(#SVGID_169_);}
	.st267{fill:url(#SVGID_170_);}
	.st268{filter:url(#Adobe_OpacityMaskFilter_73_);}
	.st269{opacity:0.2;mask:url(#SVGID_171_);}
	.st270{opacity:0.48;fill:url(#SVGID_172_);}
	.st271{fill:url(#SVGID_173_);}
	.st272{filter:url(#Adobe_OpacityMaskFilter_74_);}
	.st273{opacity:0.7;mask:url(#SVGID_174_);}
	.st274{fill:url(#SVGID_175_);}
	.st275{filter:url(#Adobe_OpacityMaskFilter_75_);}
	.st276{opacity:0.7;mask:url(#SVGID_176_);}
	.st277{filter:url(#Adobe_OpacityMaskFilter_76_);}
	.st278{opacity:0.9;mask:url(#SVGID_177_);}
	.st279{filter:url(#Adobe_OpacityMaskFilter_77_);}
	.st280{opacity:0.9;mask:url(#SVGID_178_);}
	.st281{filter:url(#Adobe_OpacityMaskFilter_78_);}
	.st282{opacity:0.6;mask:url(#SVGID_179_);}
	.st283{fill:url(#SVGID_180_);}
	.st284{opacity:0.1;fill:url(#SVGID_181_);}
	.st285{fill:url(#SVGID_182_);}
	.st286{filter:url(#Adobe_OpacityMaskFilter_79_);}
	.st287{opacity:0.2;mask:url(#SVGID_183_);}
	.st288{opacity:0.48;fill:url(#SVGID_184_);}
	.st289{fill:url(#SVGID_185_);}
	.st290{filter:url(#Adobe_OpacityMaskFilter_80_);}
	.st291{opacity:0.7;mask:url(#SVGID_186_);}
	.st292{fill:url(#SVGID_187_);}
	.st293{filter:url(#Adobe_OpacityMaskFilter_81_);}
	.st294{opacity:0.7;mask:url(#SVGID_188_);}
	.st295{filter:url(#Adobe_OpacityMaskFilter_82_);}
	.st296{opacity:0.9;mask:url(#SVGID_189_);}
	.st297{filter:url(#Adobe_OpacityMaskFilter_83_);}
	.st298{opacity:0.9;mask:url(#SVGID_190_);}
	.st299{filter:url(#Adobe_OpacityMaskFilter_84_);}
	.st300{opacity:0.6;mask:url(#SVGID_191_);}
	.st301{fill:url(#SVGID_192_);}
	.st302{opacity:0.1;fill:url(#SVGID_193_);}
	.st303{fill:url(#SVGID_194_);}
	.st304{filter:url(#Adobe_OpacityMaskFilter_85_);}
	.st305{opacity:0.2;mask:url(#SVGID_195_);}
	.st306{opacity:0.48;fill:url(#SVGID_196_);}
	.st307{fill:url(#SVGID_197_);}
	.st308{filter:url(#Adobe_OpacityMaskFilter_86_);}
	.st309{opacity:0.7;mask:url(#SVGID_198_);}
	.st310{fill:url(#SVGID_199_);}
	.st311{filter:url(#Adobe_OpacityMaskFilter_87_);}
	.st312{opacity:0.7;mask:url(#SVGID_200_);}
	.st313{filter:url(#Adobe_OpacityMaskFilter_88_);}
	.st314{opacity:0.9;mask:url(#SVGID_201_);}
	.st315{filter:url(#Adobe_OpacityMaskFilter_89_);}
	.st316{opacity:0.9;mask:url(#SVGID_202_);}
	.st317{opacity:0.8;fill:#333132;}
	.st318{opacity:0.5;}
	.st319{fill:#6D6E71;}
	.st320{filter:url(#Adobe_OpacityMaskFilter_90_);}
	.st321{opacity:0.6;mask:url(#SVGID_203_);}
	.st322{fill:url(#SVGID_204_);}
	.st323{opacity:0.1;fill:url(#SVGID_205_);}
	.st324{fill:url(#SVGID_206_);}
	.st325{filter:url(#Adobe_OpacityMaskFilter_91_);}
	.st326{opacity:0.2;mask:url(#SVGID_207_);}
	.st327{opacity:0.48;fill:url(#SVGID_208_);}
	.st328{fill:url(#SVGID_209_);}
	.st329{filter:url(#Adobe_OpacityMaskFilter_92_);}
	.st330{opacity:0.7;mask:url(#SVGID_210_);}
	.st331{fill:url(#SVGID_211_);}
	.st332{filter:url(#Adobe_OpacityMaskFilter_93_);}
	.st333{opacity:0.7;mask:url(#SVGID_212_);}
	.st334{filter:url(#Adobe_OpacityMaskFilter_94_);}
	.st335{opacity:0.9;mask:url(#SVGID_213_);}
	.st336{filter:url(#Adobe_OpacityMaskFilter_95_);}
	.st337{opacity:0.9;mask:url(#SVGID_214_);}
	.st338{filter:url(#Adobe_OpacityMaskFilter_96_);}
	.st339{opacity:0.6;mask:url(#SVGID_215_);}
	.st340{fill:url(#SVGID_216_);}
	.st341{opacity:0.1;fill:url(#SVGID_217_);}
	.st342{fill:url(#SVGID_218_);}
	.st343{filter:url(#Adobe_OpacityMaskFilter_97_);}
	.st344{opacity:0.2;mask:url(#SVGID_219_);}
	.st345{opacity:0.48;fill:url(#SVGID_220_);}
	.st346{fill:url(#SVGID_221_);}
	.st347{filter:url(#Adobe_OpacityMaskFilter_98_);}
	.st348{opacity:0.7;mask:url(#SVGID_222_);}
	.st349{fill:url(#SVGID_223_);}
	.st350{filter:url(#Adobe_OpacityMaskFilter_99_);}
	.st351{opacity:0.7;mask:url(#SVGID_224_);}
	.st352{filter:url(#Adobe_OpacityMaskFilter_100_);}
	.st353{opacity:0.9;mask:url(#SVGID_225_);}
	.st354{filter:url(#Adobe_OpacityMaskFilter_101_);}
	.st355{opacity:0.9;mask:url(#SVGID_226_);}
	.st356{filter:url(#Adobe_OpacityMaskFilter_102_);}
	.st357{opacity:0.6;mask:url(#SVGID_227_);}
	.st358{fill:url(#SVGID_228_);}
	.st359{opacity:0.1;fill:url(#SVGID_229_);}
	.st360{fill:url(#SVGID_230_);}
	.st361{filter:url(#Adobe_OpacityMaskFilter_103_);}
	.st362{opacity:0.2;mask:url(#SVGID_231_);}
	.st363{opacity:0.48;fill:url(#SVGID_232_);}
	.st364{fill:url(#SVGID_233_);}
	.st365{filter:url(#Adobe_OpacityMaskFilter_104_);}
	.st366{opacity:0.7;mask:url(#SVGID_234_);}
	.st367{fill:url(#SVGID_235_);}
	.st368{filter:url(#Adobe_OpacityMaskFilter_105_);}
	.st369{opacity:0.7;mask:url(#SVGID_236_);}
	.st370{filter:url(#Adobe_OpacityMaskFilter_106_);}
	.st371{opacity:0.9;mask:url(#SVGID_237_);}
	.st372{filter:url(#Adobe_OpacityMaskFilter_107_);}
	.st373{opacity:0.9;mask:url(#SVGID_238_);}
	.st374{fill:#00BEEC;stroke:#00BEEC;stroke-miterlimit:10;}
	.st375{filter:url(#Adobe_OpacityMaskFilter_108_);}
	.st376{opacity:0.6;mask:url(#SVGID_239_);}
	.st377{fill:url(#SVGID_240_);}
	.st378{opacity:0.1;fill:url(#SVGID_241_);}
	.st379{fill:url(#SVGID_242_);}
	.st380{filter:url(#Adobe_OpacityMaskFilter_109_);}
	.st381{opacity:0.2;mask:url(#SVGID_243_);}
	.st382{opacity:0.48;fill:url(#SVGID_244_);}
	.st383{fill:url(#SVGID_245_);}
	.st384{filter:url(#Adobe_OpacityMaskFilter_110_);}
	.st385{opacity:0.7;mask:url(#SVGID_246_);}
	.st386{fill:url(#SVGID_247_);}
	.st387{filter:url(#Adobe_OpacityMaskFilter_111_);}
	.st388{opacity:0.7;mask:url(#SVGID_248_);}
	.st389{filter:url(#Adobe_OpacityMaskFilter_112_);}
	.st390{opacity:0.9;mask:url(#SVGID_249_);}
	.st391{filter:url(#Adobe_OpacityMaskFilter_113_);}
	.st392{opacity:0.9;mask:url(#SVGID_250_);}
	.st393{filter:url(#Adobe_OpacityMaskFilter_114_);}
	.st394{opacity:0.6;mask:url(#SVGID_251_);}
	.st395{fill:url(#SVGID_252_);}
	.st396{opacity:0.1;fill:url(#SVGID_253_);}
	.st397{fill:url(#SVGID_254_);}
	.st398{filter:url(#Adobe_OpacityMaskFilter_115_);}
	.st399{opacity:0.2;mask:url(#SVGID_255_);}
	.st400{opacity:0.48;fill:url(#SVGID_256_);}
	.st401{fill:url(#SVGID_257_);}
	.st402{filter:url(#Adobe_OpacityMaskFilter_116_);}
	.st403{opacity:0.7;mask:url(#SVGID_258_);}
	.st404{fill:url(#SVGID_259_);}
	.st405{filter:url(#Adobe_OpacityMaskFilter_117_);}
	.st406{opacity:0.7;mask:url(#SVGID_260_);}
	.st407{filter:url(#Adobe_OpacityMaskFilter_118_);}
	.st408{opacity:0.9;mask:url(#SVGID_261_);}
	.st409{filter:url(#Adobe_OpacityMaskFilter_119_);}
	.st410{opacity:0.9;mask:url(#SVGID_262_);}
	.st411{filter:url(#Adobe_OpacityMaskFilter_120_);}
	.st412{opacity:0.6;mask:url(#SVGID_263_);}
	.st413{fill:url(#SVGID_264_);}
	.st414{opacity:0.1;fill:url(#SVGID_265_);}
	.st415{fill:url(#SVGID_266_);}
	.st416{filter:url(#Adobe_OpacityMaskFilter_121_);}
	.st417{opacity:0.2;mask:url(#SVGID_267_);}
	.st418{opacity:0.48;fill:url(#SVGID_268_);}
	.st419{clip-path:url(#SVGID_270_);}
	.st420{filter:url(#Adobe_OpacityMaskFilter_122_);}
	.st421{opacity:0.6;mask:url(#SVGID_271_);}
	.st422{fill:url(#SVGID_272_);}
	.st423{opacity:0.1;fill:url(#SVGID_273_);}
	.st424{fill:url(#SVGID_274_);}
	.st425{filter:url(#Adobe_OpacityMaskFilter_123_);}
	.st426{opacity:0.2;mask:url(#SVGID_275_);}
	.st427{opacity:0.48;fill:url(#SVGID_276_);}
	.st428{filter:url(#Adobe_OpacityMaskFilter_124_);}
	.st429{opacity:0.6;mask:url(#SVGID_277_);}
	.st430{fill:url(#SVGID_278_);}
	.st431{opacity:0.1;fill:url(#SVGID_279_);}
	.st432{fill:url(#SVGID_280_);}
	.st433{filter:url(#Adobe_OpacityMaskFilter_125_);}
	.st434{opacity:0.2;mask:url(#SVGID_281_);}
	.st435{opacity:0.48;fill:url(#SVGID_282_);}
	.st436{clip-path:url(#SVGID_284_);}
	.st437{clip-path:url(#SVGID_286_);}
	.st438{clip-path:url(#SVGID_288_);}
	.st439{filter:url(#Adobe_OpacityMaskFilter_126_);}
	.st440{opacity:0.6;mask:url(#SVGID_289_);}
	.st441{fill:url(#SVGID_290_);}
	.st442{opacity:0.1;fill:url(#SVGID_291_);}
	.st443{fill:url(#SVGID_292_);}
	.st444{filter:url(#Adobe_OpacityMaskFilter_127_);}
	.st445{opacity:0.2;mask:url(#SVGID_293_);}
	.st446{opacity:0.48;fill:url(#SVGID_294_);}
	.st447{fill:url(#SVGID_295_);}
	.st448{filter:url(#Adobe_OpacityMaskFilter_128_);}
	.st449{opacity:0.7;mask:url(#SVGID_296_);}
	.st450{fill:url(#SVGID_297_);}
	.st451{filter:url(#Adobe_OpacityMaskFilter_129_);}
	.st452{opacity:0.7;mask:url(#SVGID_298_);}
	.st453{filter:url(#Adobe_OpacityMaskFilter_130_);}
	.st454{opacity:0.9;mask:url(#SVGID_299_);}
	.st455{filter:url(#Adobe_OpacityMaskFilter_131_);}
	.st456{opacity:0.9;mask:url(#SVGID_300_);}
	.st457{filter:url(#Adobe_OpacityMaskFilter_132_);}
	.st458{opacity:0.6;mask:url(#SVGID_301_);}
	.st459{fill:url(#SVGID_302_);}
	.st460{opacity:0.1;fill:url(#SVGID_303_);}
	.st461{fill:url(#SVGID_304_);}
	.st462{filter:url(#Adobe_OpacityMaskFilter_133_);}
	.st463{opacity:0.2;mask:url(#SVGID_305_);}
	.st464{opacity:0.48;fill:url(#SVGID_306_);}
	.st465{fill:url(#SVGID_307_);}
	.st466{filter:url(#Adobe_OpacityMaskFilter_134_);}
	.st467{opacity:0.7;mask:url(#SVGID_308_);}
	.st468{fill:url(#SVGID_309_);}
	.st469{filter:url(#Adobe_OpacityMaskFilter_135_);}
	.st470{opacity:0.7;mask:url(#SVGID_310_);}
	.st471{filter:url(#Adobe_OpacityMaskFilter_136_);}
	.st472{opacity:0.9;mask:url(#SVGID_311_);}
	.st473{filter:url(#Adobe_OpacityMaskFilter_137_);}
	.st474{opacity:0.9;mask:url(#SVGID_312_);}
</style>
<g id="Layer_4">
</g>
<g id="iPhone_6">
</g>
<g id="Layer_5">
	<g>
		<g>
			<path class="st213" d="M76.3,843.5l15.1-18.2c13.7,12,27.3,18.8,45.1,18.8c15.5,0,25.3-7.2,25.3-18.2v-0.4
				c0-10.4-5.7-15.9-32.2-22.2C99.1,795.9,82,786.8,82,760.1v-0.4c0-24.9,20.4-42,48.8-42c20.8,0,37.3,6.4,51.8,18.2l-13.5,19.3
				c-12.9-9.7-25.7-14.9-38.8-14.9c-14.7,0-23.3,7.7-23.3,17.2v0.4c0,11.2,6.5,16.2,33.9,22.8c30.2,7.5,45.9,18.4,45.9,42.5v0.4
				c0,27.1-21,43.3-51,43.3C114,866.7,93.4,859.1,76.3,843.5z"/>
			<path class="st213" d="M212.4,824.9v-69.6h24.7v62.1c0,17,8.4,26.7,23.1,26.7c14.3,0,24.3-10.1,24.3-27.1v-61.7h24.7v109.4h-24.7
				v-17c-6.9,10.4-16.9,19.3-33.7,19.3C226.4,866.9,212.4,850.4,212.4,824.9z"/>
			<path class="st213" d="M340.1,755.3h24.7V780c6.7-16.4,19.2-27.5,38.2-26.7v26.5h-1.4c-21.6,0-36.7,14.3-36.7,43.3v41.6h-24.7
				V755.3z"/>
			<path class="st213" d="M414.2,755.3h26.5l29,80.4l29.2-80.4h25.9l-44.1,110.2h-22.2L414.2,755.3z"/>
			<path class="st213" d="M546.2,714.7h26.5v23.8h-26.5V714.7z M547.2,755.3h24.7v109.4h-24.7V755.3z"/>
			<path class="st213" d="M593.9,755.3h26.5l29,80.4l29.2-80.4h25.9l-44.1,110.2h-22.2L593.9,755.3z"/>
			<path class="st213" d="M725.9,714.7h26.5v23.8h-26.5V714.7z M726.9,755.3h24.7v109.4h-24.7V755.3z"/>
			<path class="st213" d="M783.9,755.3h24.7v17c6.9-10.4,16.9-19.3,33.7-19.3c24.3,0,38.4,16.6,38.4,42v69.6h-24.7v-62.1
				c0-17-8.4-26.7-23.1-26.7c-14.3,0-24.3,10.1-24.3,27.1v61.7h-24.7V755.3z"/>
			<path class="st213" d="M910.2,885.2l9.2-18.8c11.4,7.2,23.7,11.6,38.4,11.6c22,0,34.1-11.6,34.1-33.6v-8.5
				c-9,11.8-20.2,20.1-38,20.1c-25.3,0-49-19.1-49-51.2v-0.4c0-32.3,23.9-51.4,49-51.4c18.2,0,29.4,8.5,37.7,18.6v-16.4h24.7v87
				c0,18.4-4.7,32.1-13.7,41.2c-9.8,9.9-24.9,14.7-44.3,14.7C940.6,898.2,924,893.7,910.2,885.2z M992,804.8v-0.4
				c0-18-14.5-30.2-31.6-30.2s-30.6,12-30.6,30v0.4c0,18,13.7,30.2,30.6,30.2C977.5,834.8,992,822.4,992,804.8z"/>
			<path class="st213" d="M1101.6,843.5l15.1-18.2c13.7,12,27.3,18.8,45.1,18.8c15.5,0,25.3-7.2,25.3-18.2v-0.4
				c0-10.4-5.7-15.9-32.2-22.2c-30.4-7.5-47.5-16.6-47.5-43.3v-0.4c0-24.9,20.4-42,48.8-42c20.8,0,37.3,6.4,51.8,18.2l-13.5,19.3
				c-12.9-9.7-25.7-14.9-38.8-14.9c-14.7,0-23.3,7.7-23.3,17.2v0.4c0,11.2,6.5,16.2,33.9,22.8c30.2,7.5,45.9,18.4,45.9,42.5v0.4
				c0,27.1-21,43.3-51,43.3C1139.3,866.7,1118.7,859.1,1101.6,843.5z"/>
			<path class="st213" d="M1237.7,824.9v-69.6h24.7v62.1c0,17,8.4,26.7,23.1,26.7c14.3,0,24.3-10.1,24.3-27.1v-61.7h24.7v109.4
				h-24.7v-17c-6.9,10.4-16.9,19.3-33.7,19.3C1251.7,866.9,1237.7,850.4,1237.7,824.9z"/>
			<path class="st213" d="M1365.4,755.3h24.7v16.6c6.9-9.7,16.3-18.8,32.9-18.8c15.5,0,26.3,7.7,32,19.3
				c8.8-11.6,20.2-19.3,36.5-19.3c23.5,0,37.7,15.1,37.7,41.8v69.8h-24.7v-62.1c0-17.4-8-26.7-21.8-26.7c-13.5,0-23.1,9.5-23.1,27.1
				v61.7H1435v-62.3c0-17-8.2-26.5-21.8-26.5c-13.7,0-23.1,10.4-23.1,27.3v61.5h-24.7V755.3z"/>
			<path class="st213" d="M1559.2,755.3h24.7v16.6c6.9-9.7,16.3-18.8,32.9-18.8c15.5,0,26.3,7.7,32,19.3
				c8.8-11.6,20.2-19.3,36.5-19.3c23.5,0,37.7,15.1,37.7,41.8v69.8h-24.7v-62.1c0-17.4-8-26.7-21.8-26.7c-13.5,0-23.1,9.5-23.1,27.1
				v61.7h-24.7v-62.3c0-17-8.2-26.5-21.8-26.5c-13.7,0-23.1,10.4-23.1,27.3v61.5h-24.7V755.3z"/>
			<path class="st213" d="M1747.1,810.4V810c0-31.3,21.8-57,52.6-57c34.3,0,51.6,27.3,51.6,58.8c0,2.3-0.2,4.6-0.4,7h-79.2
				c2.7,17.8,15.1,27.8,31,27.8c12,0,20.6-4.6,29.2-13l14.5,13c-10.2,12.4-24.3,20.5-44.1,20.5
				C1771.2,867.2,1747.1,844.2,1747.1,810.4z M1826.9,802.3c-1.6-16.2-11-28.8-27.3-28.8c-15.1,0-25.7,11.8-28,28.8H1826.9z"/>
			<path class="st213" d="M1876.3,755.3h24.7V780c6.7-16.4,19.2-27.5,38.2-26.7v26.5h-1.4c-21.6,0-36.7,14.3-36.7,43.3v41.6h-24.7
				V755.3z"/>
			<path class="st213" d="M410.7,963.3h26.5v23.8h-26.5V963.3z M411.7,1003.9h24.7v109.4h-24.7V1003.9z"/>
			<path class="st213" d="M468.6,1003.9h24.7v17c6.9-10.4,16.9-19.3,33.7-19.3c24.3,0,38.4,16.6,38.4,42v69.6h-24.7v-62.1
				c0-17-8.4-26.7-23.1-26.7c-14.3,0-24.3,10.1-24.3,27.1v61.7h-24.7V1003.9z"/>
			<path class="st213" d="M659.2,968.2h23.3l76.5,100.2V968.2h24.7v145h-21l-78.8-103.1v103.1h-24.7V968.2z"/>
			<path class="st213" d="M811.6,1058.9v-0.4c0-31.3,21.8-57,52.6-57c34.3,0,51.6,27.3,51.6,58.8c0,2.3-0.2,4.6-0.4,7h-79.2
				c2.7,17.8,15.1,27.8,31,27.8c12,0,20.6-4.6,29.2-13l14.5,13c-10.2,12.4-24.3,20.5-44.1,20.5
				C835.7,1115.7,811.6,1092.7,811.6,1058.9z M891.4,1050.9c-1.6-16.2-11-28.8-27.3-28.8c-15.1,0-25.7,11.8-28,28.8H891.4z"/>
			<path class="st213" d="M926.7,1003.9H952l21.6,75l23.9-75.4h21l24.1,75.4l22-75h24.7L1054,1114h-22l-24.1-74.8l-24.3,74.8h-22
				L926.7,1003.9z"/>
			<path class="st213" d="M1217.5,1056l-56.7-87.8h29.6l40,64.2l40.4-64.2h28.8l-56.7,87.2v57.8h-25.3V1056z"/>
			<path class="st213" d="M1290.3,1059.2v-0.4c0-31.3,24.5-57.2,57.5-57.2c33.1,0,57.3,25.5,57.3,56.8v0.4c0,31.1-24.5,57-57.7,57
				C1314.6,1115.7,1290.3,1090.2,1290.3,1059.2z M1380.5,1059.2v-0.4c0-19.3-13.7-35.2-33.1-35.2c-19.8,0-32.4,15.7-32.4,34.8v0.4
				c0,19.1,13.7,35.2,32.8,35.2C1367.8,1094,1380.5,1078,1380.5,1059.2z"/>
			<path class="st213" d="M1430.3,1003.9h24.7v24.6c6.7-16.4,19.2-27.5,38.2-26.7v26.5h-1.4c-21.6,0-36.7,14.3-36.7,43.3v41.6h-24.7
				V1003.9z"/>
			<path class="st213" d="M1514.5,962h24.7v90.3l44.7-48.5h30l-42.8,44.5l44.3,64.8h-28.6l-32.4-47.2l-15.1,15.9v31.3h-24.7V962z"/>
		</g>
		<g>
			<path class="st194" d="M703.2,1368.1h-7.9v-7.6h7.9v-5.1c0-6.7,1.8-11.7,5-15c2.9-2.9,7.1-4.5,12.4-4.5c4,0,6.7,0.5,9.5,1.5v7.6
				c-3.1-0.9-5.5-1.5-8.3-1.5c-6.7,0-10,4.1-10,12.4v4.7h18.3v7.5h-18.1v50.7h-8.6V1368.1z"/>
			<path class="st194" d="M736.2,1389.9v-0.2c0-16.5,12.7-30.5,30.1-30.5c17.3,0,29.9,13.8,29.9,30.3v0.2
				c0,16.5-12.8,30.5-30.2,30.5C748.7,1420.2,736.2,1406.4,736.2,1389.9z M787.4,1389.9v-0.2c0-12.5-9.2-22.8-21.4-22.8
				c-12.5,0-21,10.3-21,22.6v0.2c0,12.5,9.1,22.7,21.3,22.7C778.7,1412.4,787.4,1402.2,787.4,1389.9z"/>
			<path class="st194" d="M811.6,1360.4h8.6v15.3c4.2-9.7,12.6-16.7,23.5-16.3v9.4H843c-12.6,0-22.8,9.2-22.8,26.8v23.3h-8.6V1360.4
				z"/>
			<path class="st194" d="M886.5,1389.9v-0.2c0-16.5,12.7-30.5,29.5-30.5c10.9,0,17.7,4.6,23,10.4l-5.7,6.1
				c-4.6-4.9-9.7-8.8-17.5-8.8c-11.7,0-20.6,10.1-20.6,22.6v0.2c0,12.7,9.1,22.7,21.1,22.7c7.3,0,13-3.7,17.6-8.7l5.5,5.2
				c-5.8,6.6-12.7,11.3-23.5,11.3C899.2,1420.2,886.5,1406.3,886.5,1389.9z"/>
			<path class="st194" d="M953.6,1336.4h8.6v34.2c3.8-6.3,9.8-11.4,19.7-11.4c13.9,0,22,9.5,22,23.4v36.3h-8.6v-34.1
				c0-10.8-5.8-17.6-15.9-17.6c-9.9,0-17.3,7.3-17.3,18.3v33.4h-8.6V1336.4z"/>
			<path class="st194" d="M1022.4,1338h9.8v9.6h-9.8V1338z M1023,1360.4h8.6v58.4h-8.6V1360.4z"/>
			<path class="st194" d="M1052.2,1336.4h8.6v82.5h-8.6V1336.4z"/>
			<path class="st194" d="M1077.4,1389.8v-0.2c0-19.1,13.7-30.4,27.5-30.4c10.7,0,17.6,5.9,22,12.4v-35.2h8.6v82.5h-8.6v-11.8
				c-4.7,7-11.5,13-22,13C1091.1,1420.1,1077.4,1409,1077.4,1389.8z M1127.2,1389.7v-0.2c0-13.4-10.1-22.5-20.8-22.5
				c-11.1,0-20.3,8.4-20.3,22.5v0.2c0,13.8,9.3,22.6,20.3,22.6C1117.1,1412.3,1127.2,1403.1,1127.2,1389.7z"/>
			<path class="st194" d="M1154.6,1360.4h8.6v15.3c4.2-9.7,12.6-16.7,23.5-16.3v9.4h-0.7c-12.6,0-22.8,9.2-22.8,26.8v23.3h-8.6
				V1360.4z"/>
			<path class="st194" d="M1222.6,1412.6c7.9,0,13.5-3.3,18.1-8.2l5.3,4.9c-5.8,6.6-12.8,11-23.7,11c-15.8,0-28.7-12.3-28.7-30.5
				c0-16.9,11.7-30.5,27.6-30.5c17,0,26.8,13.8,26.8,31c0,0.8,0,1.7-0.1,3.1h-45.6C1203.6,1405.5,1212.5,1412.6,1222.6,1412.6z
				 M1239.4,1386.2c-1-10.6-7-19.7-18.4-19.7c-9.9,0-17.5,8.4-18.7,19.7H1239.4z"/>
			<path class="st194" d="M1263.1,1360.4h8.6v10.2c3.8-6.3,9.8-11.4,19.7-11.4c13.9,0,22,9.5,22,23.4v36.3h-8.6v-34.1
				c0-10.8-5.8-17.6-15.9-17.6c-9.9,0-17.3,7.3-17.3,18.3v33.4h-8.6V1360.4z"/>
		</g>
		<g>
			<g>
				<g>
					<path class="st214" d="M890,501.9l-19-19L759.6,594.2c-11,11-11.1,29-0.1,40c11,11,29,11,40-0.1l111.3-111.3L894,505.9
						L890,501.9z"/>
				</g>
				<g>
					<path class="st194" d="M749,646.9c-17.4-17.4-17.4-45.7,0.1-63.1l123.9-123.9l63.1,63.1L812.2,646.8
						C794.8,664.2,766.4,664.2,749,646.9z M873.1,506L772.2,606.8c-4.7,4.7-4.7,12.2-0.1,16.9c4.6,4.6,12.2,4.6,16.9-0.1
						l100.8-100.8L873.1,506z"/>
				</g>
			</g>
			<g>
				<g>
					<path class="st193" d="M1085.9,411.4c-1.3-22-22-50-43.6-26.4c-17,18.6,8.6,65.4-18.4,76.6c-35.6,14.8-42.9-68.7-47.3-86.7
						c-1.4-5.8-2.9-11.8-7.2-16c-10.7-10.6-36.8-7.9-51.1-8.2c-17.7-0.4-35.7-0.5-53.4,0c-7.1,0.2-16-1.3-21.8,0.3l-11.7,11.7
						c-20.3,20.3-23.7,56.9-3.4,77.2l44.2,44.2l17.9,17.9l4,4l18.2,18.2l43.9,43.9c20.3,20.3,54.8,14.7,75-5.6l57.6-57.6
						C1071.6,484.1,1086.9,430.3,1085.9,411.4z"/>
				</g>
				<g>
					<path class="st194" d="M945.5,578.5L817.4,450.4c-25.7-25.7-24.1-70.6,3.4-98.2l14.8-14.8l4.2-1.1c6.3-1.7,13.2-1.6,19.2-1.5
						c2,0,4.1,0.1,6,0c17.6-0.4,35.6-0.9,53.7-0.5c2.4,0.1,4.7,0.4,7.6,0.4c17.1-0.2,40.2-0.2,53.9,13.5c0,0,0,0,0,0
						c7.5,7.5,10.3,16.8,11.9,23.3c0.8,3.3,1.8,7.7,2.8,13.4c2.1,12.1,5.1,28.7,9.8,42.6c5.2,15.4,10.2,19.4,11.2,19.6
						c0,0,0.6,0,1.9-0.5c3.8-1.6,3.5-11.4,2.7-24.1c-1-16.3-2.2-34.8,10.1-48.2c11.7-12.7,26.2-17.2,40-12.3c19.4,6.9,31,30.4,32,49
						v0c1,7-0.6,16.3-2,27c-2.1,16.9-5.9,48.3,1.8,57.5l9.5,11.5l-68.2,68.2C1016.2,602.6,971.2,604.2,945.5,578.5z M851.8,367.5
						l-7.9,7.9c-14.7,14.7-16.4,39-3.4,51.9l128.1,128.1c12.9,12.9,37.2,11.3,51.9-3.5l49-49c-7.4-20-4.1-46.6-1.4-68.9
						c1-8.4,2.1-17,1.8-21.1l0,0c-0.6-9.5-6.7-18.7-10.4-20.1c-0.7-0.2-2.7,1-5,3.5c-2.9,3.2-2.1,15.7-1.6,24.1
						c1.2,18.2,2.9,45.8-22.8,56.4c-13.3,5.5-23.9,2.4-30.4-1.2c-22.8-12.5-30.8-49-37-85.4c-0.8-4.9-1.6-9.2-2.1-11.4
						c-0.6-2.4-1.8-7.3-2.8-8.3c0,0,0,0,0,0c-3.9-3.9-23.4-3.6-30.7-3.5c-3.3,0-6.5,0.1-9.2,0c-17.3-0.4-34.1,0.1-52,0.5
						c-2.6,0.1-5.1,0-7.7,0C856.3,367.4,853.9,367.4,851.8,367.5z"/>
				</g>
			</g>
			<g>
				<g>
					<path class="st213" d="M1019.4,174.7l-25.7,25.7L893.4,300.6L843.1,351c5.8-1.6,14.6-0.1,21.8-0.3c17.7-0.4,35.6-0.5,53.3-0.2
						c14.2,0.3,40.5-2.3,51.2,8.4c4.2,4.2,5.8,10.3,7.3,16.1c4.4,17.9,11.9,101.6,47.5,86.8c27-11.2,1.7-57.7,18.7-76.3
						c21.6-23.6,43.1,5.1,44.3,27.1c0.8,14.1-2.4,28.7-3.5,42.7c-1.2,15.2-4.4,37.9,6.8,50.2c6.9,7.6,18.7,10.2,28.1,6
						c11.5-5.1,14.9-18.8,16.1-30.2c1.2-11.2,2.5-22.4,3-33.6c0.5-11.3-0.8-22.6,0.1-33.9c1.2-14.4,5.5-28.8,16-39.3
						c21.1-21,57.2-18,81-14.3c38.8-54.4,31.9-129.3-17-178.2l-4-4C1159.3,123.7,1073.8,120.2,1019.4,174.7z"/>
				</g>
				<g>
					<path class="st194" d="M816.4,356.6l192.5-192.5c60.6-60.6,156.1-60,217.5,1.4c0,0,4,4,4,4c29.5,29.5,46.2,70.6,46.1,112.3
						c-0.1,41.5-16.7,75.7-44.8,105.2l1-11.1c-32.8-5.1-55.5-1.7-67.5,10.3c-6.4,6.3-10.1,16.1-11.2,29c-0.5,5.4-0.3,11.2-0.1,17.3
						c0.1,5.1,0.3,10.5,0.1,16c-0.5,11.4-1.7,22.7-2.9,33.6l-0.1,1.2c-2.5,22.3-11.2,36.9-25.8,43.3c-15.9,7-35.1,2.9-46.8-10
						c-15-16.5-12.8-41.6-11.4-58.2c0.1-1.5,0.2-2.9,0.4-4.2c0.4-5.3,1.1-10.4,1.7-15.5c1.1-8.9,2.2-17.3,1.8-25
						c-0.6-9.7-7-19.1-10.9-20.4c-1-0.4-3.3,1.5-5.1,3.4c-2.9,3.2-2.1,15.7-1.6,24c1.1,18.2,2.8,45.7-22.8,56.3
						c-13.3,5.5-23.9,2.4-30.4-1.2c-22.8-12.5-30.8-49.1-37.1-85.5c-0.8-4.9-2-8.7-2.5-11c-0.6-2.4-2.2-6.9-3.3-7.9
						c-3.9-3.9-22.9-4-30.3-3.9c-3.4,0-6.3-0.1-9-0.2c-17.9-0.4-35.5-0.1-52.1,0.3c-2.4,0.1-4.9,0-7.5-0.1c-3.4-0.1-8-0.2-9.8,0.3
						L816.4,356.6z M1203.2,188.7c-48.4-48.4-123.6-49-171.2-1.4L884.9,334.4c11-0.2,22.4-0.2,33.9,0c2.4,0.1,4.7,0.4,7.6,0.4
						c17.1-0.2,40.2-0.2,53.8,13.4c0,0,0,0,0.1,0.1c7.5,7.5,10.3,16.8,11.9,23.3c0.8,3.3,1.8,7.7,2.8,13.4
						c2.1,12.2,5.1,28.7,9.8,42.7c5.9,17.5,11.2,19.6,11.2,19.6c0,0,0.6,0,1.9-0.5c3.8-1.6,3.5-11.4,2.7-24.1
						c-1-16.3-2.1-34.7,10.2-48.1c11.6-12.7,26.3-17.1,40.2-12.2c19.7,7,31.5,30.7,32.6,49.4c0.6,10.8-0.7,21.1-2,31.1
						c-0.6,4.8-1.2,9.4-1.6,13.8c-0.1,1.4-0.2,3-0.4,4.5c-0.9,11-2.4,27.5,3,33.5c2.1,2.4,6.5,3.3,9.4,2c3.1-1.3,5.4-7.5,6.5-17
						l0.1-1.2c1.2-10.3,2.3-21,2.8-31.2c0.2-4.4,0.1-9-0.1-13.8c-0.2-6.7-0.4-13.6,0.2-20.9c1.7-20.9,8.7-37.5,20.8-49.5
						c18.2-18.1,46.8-25.1,85.1-20.8c28.4-47.4,20.6-108.9-20-149.6L1203.2,188.7z"/>
				</g>
			</g>
			<g>
				<g>
					<path class="st193" d="M1152.7,373.5c-21.5,21.4-15.8,53.7-16.1,83.4l56.9-56.9l25.7-25.7c5.5-5.5,11-10.9,15.4-17
						C1210.7,353.6,1173.8,352.6,1152.7,373.5z"/>
				</g>
				<g>
					<path class="st194" d="M1120.8,497.9l0.4-40c0.1-5.3-0.1-10.7-0.3-16.5c-0.8-26.5-1.7-56.6,20.7-78.9l0,0
						c25.5-25.4,66.4-25.1,96.2-20.5l13.9,4.1l-7.5,10.8c-5.5,7.6-7.5,25.1-12.4,30.1L1120.8,497.9z M1153.2,374.1l11.5,11.6
						c-8.3,8.3-10.8,19.8-11.3,33.4l46.4-46.4c-13,1-26.4,4.4-35.1,13L1153.2,374.1z"/>
				</g>
			</g>
		</g>
	</g>
</g>
<g id="game">
</g>
<g id="Text_Content">
</g>
</svg>
