<?xml version="1.0" encoding="utf-8"?>
<!-- Generator: Adobe Illustrator 18.1.1, SVG Export Plug-In . SVG Version: 6.00 Build 0)  -->
<svg version="1.1" id="Layer_1" xmlns="http://www.w3.org/2000/svg" xmlns:xlink="http://www.w3.org/1999/xlink" x="0px" y="0px"
	 viewBox="0 0 576 288" enable-background="new 0 0 576 288" xml:space="preserve">
<g>
	<rect x="238.1" y="128.1" fill="#AF2071" width="12" height="31.5"/>
	<rect x="30.4" y="91.3" fill="#AF2071" width="21.6" height="21.6"/>
	<rect x="30.4" y="144.5" fill="#AF2071" width="21.6" height="21.6"/>
	<rect x="30.4" y="112.9" fill="#EE3B43" width="21.6" height="31.6"/>
	<rect x="30.4" y="166.1" fill="#EE3B43" width="21.6" height="29.9"/>
	<path fill="#72CDF4" d="M52,91.5v21.6c8.4,0.4,15,7.3,15,15.7c0,8.5-6.7,15.3-15,15.7V166c20.2-0.5,36.3-17,36.3-37.3
		C88.4,108.5,72.2,92,52,91.5z"/>
	<rect x="306.6" y="133.1" fill="#AF2071" width="21.3" height="21.6"/>
	<rect x="328" y="133.1" fill="#EE3B43" width="31.4" height="21.6"/>
	<rect x="328.3" y="91.5" fill="#FEE609" width="31.2" height="21.5"/>
	<rect x="306.6" y="91.4" fill="#72CDF4" width="21.3" height="41.6"/>
	<rect x="306.6" y="154.7" fill="#72CDF4" width="21.3" height="41.3"/>
	<rect x="216.9" y="91.5" fill="#FEE609" width="21.3" height="104.4"/>
	<polygon fill="#EE3B43" points="291.3,195.9 266.2,195.9 238.3,159.6 250.1,143.8 	"/>
	<polygon fill="#72CDF4" points="291.3,91.5 266.2,91.5 238.3,128 250.1,144 	"/>
	<rect x="392.4" y="91.4" fill="#AF2071" width="21.3" height="21.6"/>
	<rect x="392.4" y="113" fill="#EE3B43" width="21.3" height="82.9"/>
	<rect x="372.6" y="91.4" fill="#72CDF4" width="19.8" height="21.6"/>
	<rect x="413.8" y="91.4" fill="#72CDF4" width="19.9" height="21.6"/>
	<rect x="328.3" y="174.5" fill="#FEE609" width="31.2" height="21.5"/>
	<g>
		<path fill="#72CDF4" d="M151.3,91.7C151.3,91.7,151.3,91.7,151.3,91.7l0,19.1c0,0,0,0,0,0c18.4,0,33.3,14.9,33.3,33.3c0,0,0,0,0,0
			h19.1c0,0,0,0,0,0C203.7,115.2,180.3,91.7,151.3,91.7z"/>
		<path fill="#FEE609" d="M203.7,144.2h-19.1c0,18.4-14.9,33.3-33.3,33.3v19.1C180.3,196.6,203.7,173.2,203.7,144.2z"/>
		<path fill="#EE3B43" d="M151.3,177.5C151.3,177.5,151.3,177.5,151.3,177.5c-18.4,0-33.4-14.9-33.4-33.3c0,0,0,0,0,0H98.8
			c0,0,0,0,0,0c0,29,23.5,52.5,52.5,52.5c0,0,0,0,0,0V177.5z"/>
		<path fill="#FEE609" d="M98.8,144.2H118c0-18.4,14.9-33.3,33.3-33.3V91.7C122.3,91.8,98.8,115.2,98.8,144.2z"/>
	</g>
	<g>
		<path fill="#72CDF4" d="M545.7,144.2C545.7,144.2,545.7,144.2,545.7,144.2l-19.1,0c0,0,0,0,0,0c0,18.4-14.9,33.3-33.3,33.3
			c0,0,0,0,0,0v19.1c0,0,0,0,0,0C522.2,196.7,545.7,173.2,545.7,144.2z"/>
		<path fill="#FEE609" d="M493.2,196.7v-19.1c-18.4,0-33.3-14.9-33.3-33.3h-19.1C440.8,173.2,464.3,196.7,493.2,196.7z"/>
		<path fill="#EE3B43" d="M459.9,144.2C459.9,144.2,459.9,144.2,459.9,144.2c0-18.4,14.9-33.4,33.3-33.4c0,0,0,0,0,0V91.7
			c0,0,0,0,0,0c-29,0-52.5,23.5-52.5,52.5c0,0,0,0,0,0H459.9z"/>
		<path fill="#FEE609" d="M493.3,91.7v19.1c18.4,0,33.3,14.9,33.3,33.3h19.1C545.7,115.2,522.2,91.8,493.3,91.7z"/>
	</g>
</g>
</svg>
