<?xml version="1.0" encoding="utf-8"?>
<!-- Generator: Adobe Illustrator 21.0.2, SVG Export Plug-In . SVG Version: 6.00 Build 0)  -->
<svg version="1.1" id="Layer_1" xmlns="http://www.w3.org/2000/svg" xmlns:xlink="http://www.w3.org/1999/xlink" x="0px" y="0px"
	 viewBox="0 0 99 89.1" style="enable-background:new 0 0 99 89.1;" xml:space="preserve">
<g>
	<path d="M83.6,50.8c0,4.1-3.3,7.4-7.4,7.4H50.7c-4.1,0-7.4-3.3-7.4-7.4v-5.1c0-4.1,3.3-7.4,7.4-7.4h25.5c4.1,0,7.4,3.3,7.4,7.4
		V50.8z"/>
	<path d="M97.2,81.6c0,3.3-2.7,6-6,6l0,0c-3.3,0-6-2.7-6-6V44.5c0-3.3,2.7-6,6-6l0,0c3.3,0,6,2.7,6,6V81.6z"/>
	<path d="M13,80c0,4.2-2.7,7.5-6,7.5l0,0c-3.3,0-6-3.4-6-7.5V33.4c0-4.2,2.7-7.5,6-7.5l0,0c3.3,0,6,3.4,6,7.5V80z"/>
	<path d="M14.8,73.6c-6.3,0-11.4-2.7-11.4-6l0,0c0-3.3,5.1-6,11.4-6h70.3c6.3,0,11.4,2.7,11.4,6l0,0c0,3.3-5.1,6-11.4,6H14.8z"/>
	<polygon points="83.5,48.4 83.5,58.3 43,58.3 43,38.3 51.6,38.3 	"/>
	<path d="M41.3,55.1c0,1.6-1.3,2.9-2.8,2.9H17.9c-1.6,0-2.8-1.3-2.8-2.9l0,0c0-1.6,1.3-2.9,2.8-2.9h20.6
		C40.1,52.2,41.3,53.5,41.3,55.1L41.3,55.1z"/>
	<path d="M41.5,54c0,2.1-1.6,3.9-3.6,3.9l0,0c-2,0-3.6-1.7-3.6-3.9V42.2c0-2.1,1.6-3.9,3.6-3.9l0,0c2,0,3.6,1.7,3.6,3.9V54z"/>
	<circle cx="24.3" cy="41.5" r="9.1"/>
	<path d="M56.6,13.6c0,0-1.4-3.4-6.4-3.2c0,0-7.3,0.6-7.3,7.5c0,0,0.1,7.3,7.5,7.3s28,0,28,0s6.9,0.7,6.9-7.3c0,0,0.1-6.9-7-7
		c0,0-2-0.1-3.2,0.6c0,0-1.2-9.2-11.3-9.1c0,0-7.2-0.4-10.9,8.8"/>
	<circle cx="38" cy="29" r="3.7"/>
</g>
</svg>
