<?xml version="1.0" encoding="utf-8"?>
<!-- Generator: Adobe Illustrator 21.0.2, SVG Export Plug-In . SVG Version: 6.00 Build 0)  -->
<svg version="1.1" id="Layer_1" xmlns="http://www.w3.org/2000/svg" xmlns:xlink="http://www.w3.org/1999/xlink" x="0px" y="0px"
	 viewBox="0 0 80 89.1" style="enable-background:new 0 0 80 89.1;" xml:space="preserve">
<path d="M40.7,0.4c-0.3-0.6-1.1-0.6-1.5,0L0.8,71.1c-0.5,1-0.8,2-0.8,3c0,8.3,17.9,15,40,15s40-6.7,40-15c0-1-0.3-2-0.8-3L40.7,0.4z
	 M40.2,15.1l4.9,9c0.1,0.1-0.1,0.2-0.2,0.1l-6.4-6.4c-0.1-0.1-0.1-0.2,0-0.3l1.3-2.4C39.9,15,40.1,15,40.2,15.1z M36.1,22.5
	l17.7,17.7c0,0,0.1,0.1,0.1,0.1l4.6,8.5c0.1,0.1-0.1,0.2-0.2,0.1L34.6,25.2c-0.1-0.1-0.1-0.2-0.1-0.4l1.2-2.3
	C35.8,22.4,36,22.4,36.1,22.5z M32.2,29.8l35.5,36c0.1,0.1,0,0.2-0.1,0.1c-1.1-0.4-4.5-1.5-6.7-2c-0.1,0-0.2-0.1-0.3-0.2
	c-1.9-1.9-27.8-27.8-30.4-30.4c-0.1-0.1-0.2-0.3-0.1-0.5l1.6-3C31.9,29.7,32,29.7,32.2,29.8z M27.7,37.9L51.9,62
	c0.1,0.1,0,0.3-0.1,0.2c-1.7-0.2-3.5-0.4-5.4-0.5c-0.1,0-0.2,0-0.3-0.1L25.8,41.4c-0.1-0.1-0.1-0.3-0.1-0.4l1.7-3.1
	C27.5,37.8,27.6,37.8,27.7,37.9z M23.3,45.9l15.4,15.4c0.1,0.1,0,0.3-0.1,0.3c-1.6,0-3.2,0.1-4.7,0.2c-0.1,0-0.2,0-0.2-0.1
	L21.3,49.4c-0.1-0.1-0.1-0.2,0-0.3L23,46C23.1,45.9,23.2,45.8,23.3,45.9z M18.9,54l8.2,8.2c0.1,0.1,0,0.2-0.1,0.2
	c-1.1,0.1-2.2,0.3-3.2,0.5c-0.1,0-0.2,0-0.2-0.1l-6.1-6.1c-0.1-0.1-0.1-0.2,0-0.3l1.3-2.3C18.7,54,18.8,53.9,18.9,54z M14.9,61.3
	l2.8,2.8c0.1,0.1,0,0.2-0.1,0.2c-1.9,0.5-3.6,1.1-5.2,1.7c-0.1,0-0.2-0.1-0.1-0.1l2.4-4.4C14.7,61.2,14.8,61.2,14.9,61.3z
	 M69.7,75.8c-2,1.1-5,2.4-9.2,3.4c-5.1,1.3-11,2.1-17.2,2.3c-1.1,0-2.2,0.1-3.3,0.1s-2.2,0-3.3-0.1c-6.2-0.2-12.2-1-17.2-2.3
	c-4.1-1.1-7.2-2.3-9.2-3.4c-1.1-0.6-1.8-1.2-2.3-1.6C7.9,74.1,7.9,74,8,74c1.6-1.5,6.2-4,13.9-5.6l0,0l0.1-0.1
	c4.8-1,10.7-1.7,18-1.7c19.3,0,29.5,4.9,32,7.4c0.1,0.1,0.1,0.1,0,0.2C71.6,74.6,70.8,75.2,69.7,75.8z"/>
</svg>
