<?xml version="1.0" encoding="utf-8"?>
<!-- Generator: Adobe Illustrator 18.0.0, SVG Export Plug-In . SVG Version: 6.00 Build 0)  -->
<!DOCTYPE svg PUBLIC "-//W3C//DTD SVG 1.1//EN" "http://www.w3.org/Graphics/SVG/1.1/DTD/svg11.dtd">
<svg version="1.1" id="Layer_1" xmlns="http://www.w3.org/2000/svg" xmlns:xlink="http://www.w3.org/1999/xlink" x="0px" y="0px"
	 viewBox="0 0 1224 792" enable-background="new 0 0 1224 792" xml:space="preserve">
<g id="YyHDzH.tif">
	<g>
		<g>
			<path fill="red" d="M215-1c265.3,0,530.7,0,796,0c0,265.3,0,530.7,0,796c-265.3,0-530.7,0-796,0C215,529.7,215,264.3,215-1z
				 M613,794c219.4,0,397-177.6,397-397C1010,178,832.6,0.2,614,0C393.8-0.1,216,177.2,216,397C216,616.4,393.6,794,613,794z"/>
			<path d="M613,794c-219.4,0-397-177.5-397-397C216,177.2,393.8-0.1,614,0c218.6,0.1,396,178,396,396.9
				C1010,616.4,832.4,793.9,613,794z M802.8,147.2C686.7,56,502.8,56.9,385.2,181C268,304.8,279.5,482.4,363.3,586.7
				C509.7,440.3,656.2,293.8,802.8,147.2z M862.9,207.4c-146.5,146.5-293,293-439.5,439.5c110.1,87.4,290.7,92.8,411.4-27.7
				C955.3,498.9,950.7,318.2,862.9,207.4z"/>
			<path fill="#FFFFFF" d="M802.8,147.2C656.2,293.8,509.7,440.3,363.3,586.7C279.5,482.4,268,304.8,385.2,181
				C502.8,56.9,686.7,56,802.8,147.2z"/>
			<path fill="#FFFFFF" d="M862.9,207.4c87.8,110.8,92.4,291.5-28.1,411.8c-120.7,120.5-301.2,115.1-411.4,27.7
				C569.9,500.4,716.4,353.9,862.9,207.4z"/>
		</g>
	</g>
</g>
</svg>
