<svg id="Layer_1" data-name="Layer 1" xmlns="http://www.w3.org/2000/svg" viewBox="0 0 365 600"><title>Introduction</title><path d="M43.06,107.78H65.18v17H2.26v-17H24.38V18.94H5.89v-17H61.37v17H43.06Z"/><path d="M74.4,36.39v29c0,3.43-.73,6.86-5,6.86s-5-3.43-5-6.86V23.6c0-3.64.42-7.38,5-7.38s5,3.74,5,7.28v1.35l8.11-5.3c2.6-1.66,5.41-3.33,8.63-3.33h7.38c3.85,0,6.24,1,9.25,3.64,4.47,3.85,4.26,8.11,4.47,13.52l1,31.41c.1,3.54-.42,7.49-4.89,7.49-4.06,0-4.89-3.43-5-6.76l-1-30.78c-.21-6.13-.73-8.53-6.76-8.53H92.28a6,6,0,0,0-3.12.94Z"/><path d="M140.7,105.41H114.33L95.53,212.05H56.74L75.56,105.41h-31l5-29.09H150.4Z"/><path d="M116.63,189.39h7.51V111.25h-7.51V109H163c12.55,0,26.28,6.22,26.28,20.42,0,11.73-11.26,18-21.71,19.13v.23c8.8.58,20.89,3.4,20.89,14.9v17.36c0,5.87,1.06,7.63,3.4,7.63,2.58,0,4.11-2.93,5-5.16l1.52,1.18c-2.93,6.92-8.09,8.33-15.6,8.33-9.39,0-16.9-5.52-16.9-16V164.63c0-9.39-2-14.78-9.39-14.78h-8.45v39.54h7.51v2.23h-39Zm31.45-41.77h5.16c9.86,0,12.79-5.28,12.79-16.9,0-14.43-3.4-19.48-11.38-19.48h-6.57Z"/><path d="M136.73,189.47a42.53,42.53,0,0,1,42.84,42.84c0,24.64-19.18,43.83-42.84,43.83S93.9,257,93.9,232.31A42.53,42.53,0,0,1,136.73,189.47Zm0,79.89c19.68,0,35.56-16,35.56-37,0-20.51-15.88-36.06-35.56-36.06s-35.56,15.55-35.56,36.06C101.17,253.32,117,269.36,136.73,269.36Z"/><path d="M230,310.84H198.64V298.66c-8.53,9.22-17.76,13.58-29.25,13.58-18.63,0-40.4-12.71-40.4-42.14,0-24.9,17.59-43.87,40.75-43.87,11.14,0,20.72,4.52,28.9,13.23V206.89H183V192.62h32V296.57h15ZM172.35,298c15.33,0,26.29-12.36,26.29-29.08,0-16.54-10.8-27.86-26.46-27.86-14.63,0-25.77,12.19-25.77,28.56C146.4,286.47,157,298,172.35,298Z"/><path d="M234.43,293.7v-4.39h-.33a9,9,0,0,1-7.64,5c-5.52,0-8.62-2.28-8.62-9.59v-72.7h5.85v70.59c0,5.2,1.47,6.83,4.89,6.83,2.6,0,5.85-2.93,5.85-8.95V212.05h5.85V293.7Z"/><path d="M242.53,344.21a43.55,43.55,0,0,0-5-11.61,41.28,41.28,0,0,0-7.93-9.42,36.24,36.24,0,0,0-10.32-6.32,32.19,32.19,0,0,0-12.2-2.33,31.33,31.33,0,0,0-15.86,4,36.63,36.63,0,0,0-11.68,10.58,50.49,50.49,0,0,0-7.22,14.9,58.83,58.83,0,0,0-2.51,17.09,55.94,55.94,0,0,0,2.65,17.42A43.17,43.17,0,0,0,180,392.65a36,36,0,0,0,11.87,9.49,34.17,34.17,0,0,0,15.49,3.48,32.27,32.27,0,0,0,12.58-2.45,38,38,0,0,0,10.45-6.45,38.8,38.8,0,0,0,7.74-9.22,34.26,34.26,0,0,0,4.32-10.77h1.55l-.39,28.39H242a38.84,38.84,0,0,0-3.23-4q-1.68-1.8-2.32-1.81a11.44,11.44,0,0,0-2.33,1.35,37.74,37.74,0,0,1-5.93,3,56.61,56.61,0,0,1-9.42,2.84A59.86,59.86,0,0,1,206,407.68a64.78,64.78,0,0,1-21.68-3.42,46.86,46.86,0,0,1-16.45-9.68,42,42,0,0,1-10.39-15,49.5,49.5,0,0,1-3.61-19.16,48.22,48.22,0,0,1,.33-5.29,46,46,0,0,1,1.16-6.32,53.58,53.58,0,0,1,2.32-7,48.51,48.51,0,0,1,3.81-7.42,46.27,46.27,0,0,1,6.71-8.38,42.72,42.72,0,0,1,9.42-7,52.5,52.5,0,0,1,12.26-4.84,60,60,0,0,1,15.35-1.81,57.55,57.55,0,0,1,13.55,1.42,61.21,61.21,0,0,1,9.68,3.1,36.61,36.61,0,0,1,5.94,3.1,11.2,11.2,0,0,0,2.32,1.42,2.2,2.2,0,0,0,1-.58,20.5,20.5,0,0,0,1.55-1.42,25.64,25.64,0,0,0,1.74-1.94,27.56,27.56,0,0,0,1.67-2.26h1.42v28.9Z"/><path d="M315.93,375.45H289.56l-18.8,106.64H232l18.81-106.64h-31l5-29.09H325.62Z"/><path d="M328.7,483.44h22.12v17H287.9v-17H310V394.59H291.53v-17H347v17H328.7Z"/><path d="M319.16,451.11A42.53,42.53,0,0,1,362,494c0,24.64-19.18,43.83-42.84,43.83S276.33,518.59,276.33,494A42.53,42.53,0,0,1,319.16,451.11Zm0,79.89c19.68,0,35.56-16,35.56-37,0-20.51-15.88-36.06-35.56-36.06S283.6,473.44,283.6,494C283.6,515,299.48,531,319.16,531Z"/><path d="M321.63,562.07v29c0,3.43-.73,6.86-5,6.86s-5-3.43-5-6.86v-41.8c0-3.64.42-7.38,5-7.38s5,3.74,5,7.28v1.35l8.11-5.3c2.6-1.66,5.41-3.33,8.63-3.33h7.38c3.85,0,6.24,1,9.25,3.64,4.47,3.85,4.26,8.11,4.47,13.52l1,31.41c.1,3.54-.42,7.49-4.89,7.49-4.06,0-4.89-3.43-5-6.76l-1-30.78c-.21-6.13-.73-8.53-6.76-8.53h-3.33a6,6,0,0,0-3.12.94Z"/></svg>