<svg id="Layer_1" data-name="Layer 1" xmlns="http://www.w3.org/2000/svg" viewBox="0 0 228 507"><title>questions</title><path d="M48.77,118C12.61,118,2.48,92.62,2.48,60.77S11.94,1.72,48.77,1.72C85.43,1.72,95,28.92,95,60.77c0,14.59-2,31.85-11.78,43.46L104,103.07V118Zm0-102.51c-22.89,0-24.88,28.37-24.88,45.29s2.32,43.46,24.88,43.46c22.39,0,24.88-26.54,24.88-43.46C73.65,44,71.49,15.49,48.77,15.49Z"/><path d="M122.43,126.7v-4.39h-.33a9,9,0,0,1-7.64,5c-5.52,0-8.62-2.28-8.62-9.59V45.05h5.85v70.59c0,5.2,1.47,6.83,4.89,6.83,2.6,0,5.85-2.93,5.85-8.95V45.05h5.85V126.7Z"/><path d="M78.27,147.38c.61,7.78,6.27,13.64,13.24,13.64A19.88,19.88,0,0,0,105,156.18l4,6.26c-5.05,5.36-11.52,8-19.61,8-13.64,0-22.74-9.9-22.74-24.56,0-13,10.11-23.75,22.54-23.75,7.18,0,12.33,2.32,16,7.18A20.3,20.3,0,0,1,109,141v.61l-4.15,5.76ZM99.2,140a10.1,10.1,0,0,0-10.31-9.7c-5.26,0-9.4,3.74-10.71,9.7Z"/><path d="M134.09,186.59a7.63,7.63,0,0,0-2.24-5.83,18.94,18.94,0,0,0-5.51-3.53c-2.2-.95-4.59-1.86-7.19-2.72a33.8,33.8,0,0,1-7.19-3.35,18.66,18.66,0,0,1-5.52-5.26q-2.22-3.22-2.23-8.67,0-8.92,5.08-13.08T123.43,140a45.77,45.77,0,0,1,11.21,1.17,43.06,43.06,0,0,1,7.87,2.79l-2.35,8.18a39.45,39.45,0,0,0-6.88-2.42,34.27,34.27,0,0,0-8.61-1q-5.46,0-8,1.86T114.13,157a6.1,6.1,0,0,0,2.23,5,24,24,0,0,0,5.52,3.22c2.19.95,4.59,1.89,7.19,2.79a31.13,31.13,0,0,1,7.19,3.59,19.82,19.82,0,0,1,5.51,5.64,16.11,16.11,0,0,1,2.24,9,21,21,0,0,1-1.3,7.43,15.09,15.09,0,0,1-4,5.95,19.49,19.49,0,0,1-6.76,3.9,28.46,28.46,0,0,1-9.48,1.42,45.87,45.87,0,0,1-12-1.36,37.74,37.74,0,0,1-8.31-3.22l3-8.43a36,36,0,0,0,7.43,3,32.53,32.53,0,0,0,9.3,1.36,16.63,16.63,0,0,0,8.79-2.11Q134.09,192,134.09,186.59Z"/><path d="M190.93,238.45H164.56l-18.8,106.64H107l18.81-106.64h-31l5-29.09H200.62Z"/><path d="M204.7,349.44h22.12v17H163.9v-17H186V260.59H167.53v-17H223v17H204.7Z"/><path d="M148.16,314.11A42.53,42.53,0,0,1,191,357c0,24.64-19.18,43.83-42.84,43.83S105.33,381.59,105.33,357A42.53,42.53,0,0,1,148.16,314.11Zm0,79.89c19.68,0,35.56-16,35.56-37,0-20.51-15.88-36.06-35.56-36.06S112.6,336.44,112.6,357C112.6,378,128.48,394,148.16,394Z"/><path d="M144.63,423.07v29c0,3.43-.73,6.86-5,6.86s-5-3.43-5-6.86v-41.8c0-3.64.42-7.38,5-7.38s5,3.74,5,7.28v1.35l8.11-5.3c2.6-1.66,5.41-3.33,8.63-3.33h7.38c3.85,0,6.24,1,9.25,3.64,4.47,3.85,4.26,8.11,4.47,13.52l1,31.41c.1,3.54-.42,7.49-4.89,7.49-4.06,0-4.89-3.43-5-6.76l-1-30.78c-.21-6.13-.73-8.53-6.76-8.53h-3.33a6,6,0,0,0-3.12.94Z"/><path d="M216.09,486.59a7.63,7.63,0,0,0-2.24-5.83,18.94,18.94,0,0,0-5.51-3.53c-2.2-.95-4.59-1.86-7.19-2.72a33.8,33.8,0,0,1-7.19-3.35,18.66,18.66,0,0,1-5.52-5.26q-2.22-3.22-2.23-8.67,0-8.92,5.08-13.08T205.43,440a45.77,45.77,0,0,1,11.21,1.17,43.06,43.06,0,0,1,7.87,2.79l-2.35,8.18a39.45,39.45,0,0,0-6.88-2.42,34.27,34.27,0,0,0-8.61-1q-5.46,0-8,1.86T196.13,457a6.1,6.1,0,0,0,2.23,5,24,24,0,0,0,5.52,3.22c2.19.95,4.59,1.89,7.19,2.79a31.13,31.13,0,0,1,7.19,3.59,19.82,19.82,0,0,1,5.51,5.64,16.11,16.11,0,0,1,2.24,9,21,21,0,0,1-1.3,7.43,15.09,15.09,0,0,1-4,5.95,19.49,19.49,0,0,1-6.76,3.9,28.46,28.46,0,0,1-9.48,1.42,45.87,45.87,0,0,1-12-1.36,37.74,37.74,0,0,1-8.31-3.22l3-8.43a36,36,0,0,0,7.43,3,32.53,32.53,0,0,0,9.3,1.36,16.63,16.63,0,0,0,8.79-2.11Q216.09,492,216.09,486.59Z"/></svg>