<svg id="Layer_1" data-name="Layer 1" xmlns="http://www.w3.org/2000/svg" viewBox="0 0 179 269"><title>roles</title><path d="M1.63,82.39H9.14V4.25H1.63V2H48C60.54,2,74.27,8.24,74.27,22.43c0,11.73-11.26,18-21.71,19.13v.23c8.8.58,20.89,3.4,20.89,14.9V74.06c0,5.87,1.06,7.63,3.4,7.63,2.58,0,4.11-2.93,5-5.16l1.52,1.18C80.48,84.62,75.32,86,67.81,86c-9.39,0-16.9-5.52-16.9-16V57.63c0-9.39-2-14.78-9.39-14.78H33.08V82.39h7.51v2.23h-39ZM33.08,40.62h5.16C48.1,40.62,51,35.34,51,23.72,51,9.29,47.63,4.25,39.65,4.25H33.08Z"/><path d="M94.16,83.11A42.53,42.53,0,0,1,137,126c0,24.64-19.18,43.83-42.84,43.83S51.33,150.59,51.33,126A42.53,42.53,0,0,1,94.16,83.11Zm0,79.89c19.68,0,35.56-16,35.56-37,0-20.51-15.88-36.06-35.56-36.06S58.6,105.44,58.6,126C58.6,147,74.48,163,94.16,163Z"/><path d="M111.7,185.6H56.48l.76-4.68h9.48l11.75-74.05H69l.63-4.68h30.84l-.64,4.68H88.2l-11.5,73h30.2l1.77-11.12h5.69Z"/><path d="M127.27,181.38c.61,7.78,6.27,13.64,13.24,13.64A19.88,19.88,0,0,0,154,190.18l4,6.26c-5.05,5.36-11.52,8-19.61,8-13.64,0-22.74-9.9-22.74-24.56,0-13,10.11-23.75,22.54-23.75,7.18,0,12.33,2.32,16,7.18A20.3,20.3,0,0,1,158,175v.61l-4.15,5.76ZM148.2,174a10.1,10.1,0,0,0-10.31-9.7c-5.26,0-9.4,3.74-10.71,9.7Z"/><path d="M167.09,249.59a7.63,7.63,0,0,0-2.24-5.83,18.94,18.94,0,0,0-5.51-3.53c-2.2-.95-4.59-1.86-7.19-2.72a33.8,33.8,0,0,1-7.19-3.35,18.66,18.66,0,0,1-5.52-5.26q-2.22-3.22-2.23-8.67,0-8.92,5.08-13.08T156.43,203a45.77,45.77,0,0,1,11.21,1.17,43.06,43.06,0,0,1,7.87,2.79l-2.35,8.18a39.45,39.45,0,0,0-6.88-2.42,34.27,34.27,0,0,0-8.61-1q-5.46,0-8,1.86T147.13,220a6.1,6.1,0,0,0,2.23,5,24,24,0,0,0,5.52,3.22c2.19.95,4.59,1.89,7.19,2.79a31.13,31.13,0,0,1,7.19,3.59,19.82,19.82,0,0,1,5.51,5.64,16.11,16.11,0,0,1,2.24,9,21,21,0,0,1-1.3,7.43,15.09,15.09,0,0,1-4,5.95,19.49,19.49,0,0,1-6.76,3.9,28.46,28.46,0,0,1-9.48,1.42,45.87,45.87,0,0,1-12-1.36,37.74,37.74,0,0,1-8.31-3.22l3-8.43a36,36,0,0,0,7.43,3,32.53,32.53,0,0,0,9.3,1.36,16.63,16.63,0,0,0,8.79-2.11Q167.09,255,167.09,249.59Z"/></svg>