<?xml version="1.0" encoding="UTF-8"?>
<svg width="356px" height="954px" viewBox="0 0 356 954" version="1.1" xmlns="http://www.w3.org/2000/svg" xmlns:xlink="http://www.w3.org/1999/xlink">
    <!-- Generator: Sketch 42 (36781) - http://www.bohemiancoding.com/sketch -->
    <title>stars</title>
    <desc>Created with Sketch.</desc>
    <defs></defs>
    <g id="Page-1" stroke="none" stroke-width="1" fill="none" fill-rule="evenodd">
        <g id="iPhone-7" transform="translate(-10.000000, -17.000000)">
            <g id="stars" transform="translate(10.000000, 17.000000)">
                <g id="Group" transform="translate(65.000000, 161.000000)" fill="#EEE487">
                    <g id="Page-1">
                        <polygon id="Fill-1" points="0 7.98435585 16.2773438 7.98435585 16.2773438 7.35401197 0 7.35401197"></polygon>
                        <polygon id="Fill-2" points="7.87410205 15.699765 8.50123053 15.699765 8.50123053 0 7.87410205 0"></polygon>
                        <polygon id="Fill-3" points="4.64187065 11.6053313 4.19952109 11.1626898 11.6774683 3.67700598 12.1198179 4.11964747"></polygon>
                        <polygon id="Fill-4" points="11.83845 11.7608161 4.72446123 4.64493404 5.16961046 4.20229255 12.2807995 11.3181746"></polygon>
                    </g>
                </g>
                <g id="Group" transform="translate(180.000000, 18.000000)" fill="#EEE487">
                    <g id="Page-1">
                        <polygon id="Fill-1" points="0 7.98435585 16.2773438 7.98435585 16.2773438 7.35401197 0 7.35401197"></polygon>
                        <polygon id="Fill-2" points="7.87410205 15.699765 8.50123053 15.699765 8.50123053 0 7.87410205 0"></polygon>
                        <polygon id="Fill-3" points="4.64187065 11.6053313 4.19952109 11.1626898 11.6774683 3.67700598 12.1198179 4.11964747"></polygon>
                        <polygon id="Fill-4" points="11.83845 11.7608161 4.72446123 4.64493404 5.16961046 4.20229255 12.2807995 11.3181746"></polygon>
                    </g>
                </g>
                <g id="Group" transform="translate(30.000000, 224.000000)" fill="#EEE487">
                    <g id="Page-1">
                        <polygon id="Fill-1" points="0 7.98435585 16.2773438 7.98435585 16.2773438 7.35401197 0 7.35401197"></polygon>
                        <polygon id="Fill-2" points="7.87410205 15.699765 8.50123053 15.699765 8.50123053 0 7.87410205 0"></polygon>
                        <polygon id="Fill-3" points="4.64187065 11.6053313 4.19952109 11.1626898 11.6774683 3.67700598 12.1198179 4.11964747"></polygon>
                        <polygon id="Fill-4" points="11.83845 11.7608161 4.72446123 4.64493404 5.16961046 4.20229255 12.2807995 11.3181746"></polygon>
                    </g>
                </g>
                <g id="Group" transform="translate(134.000000, 206.000000)" fill="#EEE487">
                    <g id="Page-1">
                        <polygon id="Fill-1" points="0 7.98435585 16.2773438 7.98435585 16.2773438 7.35401197 0 7.35401197"></polygon>
                        <polygon id="Fill-2" points="7.87410205 15.699765 8.50123053 15.699765 8.50123053 0 7.87410205 0"></polygon>
                        <polygon id="Fill-3" points="4.64187065 11.6053313 4.19952109 11.1626898 11.6774683 3.67700598 12.1198179 4.11964747"></polygon>
                        <polygon id="Fill-4" points="11.83845 11.7608161 4.72446123 4.64493404 5.16961046 4.20229255 12.2807995 11.3181746"></polygon>
                    </g>
                </g>
                <g id="Group" transform="translate(100.000000, 279.000000)" fill="#EEE487">
                    <g id="Page-1">
                        <polygon id="Fill-1" points="0 7.98435585 16.2773438 7.98435585 16.2773438 7.35401197 0 7.35401197"></polygon>
                        <polygon id="Fill-2" points="7.87410205 15.699765 8.50123053 15.699765 8.50123053 0 7.87410205 0"></polygon>
                        <polygon id="Fill-3" points="4.64187065 11.6053313 4.19952109 11.1626898 11.6774683 3.67700598 12.1198179 4.11964747"></polygon>
                        <polygon id="Fill-4" points="11.83845 11.7608161 4.72446123 4.64493404 5.16961046 4.20229255 12.2807995 11.3181746"></polygon>
                    </g>
                </g>
                <g id="Group" transform="translate(48.000000, 455.000000)" fill="#EEE487">
                    <g id="Page-1">
                        <polygon id="Fill-1" points="0 7.98435585 16.2773438 7.98435585 16.2773438 7.35401197 0 7.35401197"></polygon>
                        <polygon id="Fill-2" points="7.87410205 15.699765 8.50123053 15.699765 8.50123053 0 7.87410205 0"></polygon>
                        <polygon id="Fill-3" points="4.64187065 11.6053313 4.19952109 11.1626898 11.6774683 3.67700598 12.1198179 4.11964747"></polygon>
                        <polygon id="Fill-4" points="11.83845 11.7608161 4.72446123 4.64493404 5.16961046 4.20229255 12.2807995 11.3181746"></polygon>
                    </g>
                </g>
                <g id="Group" transform="translate(48.000000, 455.000000)" fill="#EEE487">
                    <g id="Page-1">
                        <polygon id="Fill-1" points="0 7.98435585 16.2773438 7.98435585 16.2773438 7.35401197 0 7.35401197"></polygon>
                        <polygon id="Fill-2" points="7.87410205 15.699765 8.50123053 15.699765 8.50123053 0 7.87410205 0"></polygon>
                        <polygon id="Fill-3" points="4.64187065 11.6053313 4.19952109 11.1626898 11.6774683 3.67700598 12.1198179 4.11964747"></polygon>
                        <polygon id="Fill-4" points="11.83845 11.7608161 4.72446123 4.64493404 5.16961046 4.20229255 12.2807995 11.3181746"></polygon>
                    </g>
                </g>
                <g id="Group" transform="translate(13.000000, 518.000000)" fill="#EEE487">
                    <g id="Page-1">
                        <polygon id="Fill-1" points="0 7.98435585 16.2773438 7.98435585 16.2773438 7.35401197 0 7.35401197"></polygon>
                        <polygon id="Fill-2" points="7.87410205 15.699765 8.50123053 15.699765 8.50123053 0 7.87410205 0"></polygon>
                        <polygon id="Fill-3" points="4.64187065 11.6053313 4.19952109 11.1626898 11.6774683 3.67700598 12.1198179 4.11964747"></polygon>
                        <polygon id="Fill-4" points="11.83845 11.7608161 4.72446123 4.64493404 5.16961046 4.20229255 12.2807995 11.3181746"></polygon>
                    </g>
                </g>
                <g id="Group" transform="translate(83.000000, 573.000000)" fill="#EEE487">
                    <g id="Page-1">
                        <polygon id="Fill-1" points="0 7.98435585 16.2773438 7.98435585 16.2773438 7.35401197 0 7.35401197"></polygon>
                        <polygon id="Fill-2" points="7.87410205 15.699765 8.50123053 15.699765 8.50123053 0 7.87410205 0"></polygon>
                        <polygon id="Fill-3" points="4.64187065 11.6053313 4.19952109 11.1626898 11.6774683 3.67700598 12.1198179 4.11964747"></polygon>
                        <polygon id="Fill-4" points="11.83845 11.7608161 4.72446123 4.64493404 5.16961046 4.20229255 12.2807995 11.3181746"></polygon>
                    </g>
                </g>
                <g id="Group" transform="translate(227.000000, 431.000000)" fill="#EEE487">
                    <g id="Page-1">
                        <polygon id="Fill-1" points="0 7.98435585 16.2773438 7.98435585 16.2773438 7.35401197 0 7.35401197"></polygon>
                        <polygon id="Fill-2" points="7.87410205 15.699765 8.50123053 15.699765 8.50123053 0 7.87410205 0"></polygon>
                        <polygon id="Fill-3" points="4.64187065 11.6053313 4.19952109 11.1626898 11.6774683 3.67700598 12.1198179 4.11964747"></polygon>
                        <polygon id="Fill-4" points="11.83845 11.7608161 4.72446123 4.64493404 5.16961046 4.20229255 12.2807995 11.3181746"></polygon>
                    </g>
                </g>
                <g id="Group" transform="translate(227.000000, 431.000000)" fill="#EEE487">
                    <g id="Page-1">
                        <polygon id="Fill-1" points="0 7.98435585 16.2773438 7.98435585 16.2773438 7.35401197 0 7.35401197"></polygon>
                        <polygon id="Fill-2" points="7.87410205 15.699765 8.50123053 15.699765 8.50123053 0 7.87410205 0"></polygon>
                        <polygon id="Fill-3" points="4.64187065 11.6053313 4.19952109 11.1626898 11.6774683 3.67700598 12.1198179 4.11964747"></polygon>
                        <polygon id="Fill-4" points="11.83845 11.7608161 4.72446123 4.64493404 5.16961046 4.20229255 12.2807995 11.3181746"></polygon>
                    </g>
                </g>
                <g id="Group" transform="translate(192.000000, 494.000000)" fill="#EEE487">
                    <g id="Page-1">
                        <polygon id="Fill-1" points="0 7.98435585 16.2773438 7.98435585 16.2773438 7.35401197 0 7.35401197"></polygon>
                        <polygon id="Fill-2" points="7.87410205 15.699765 8.50123053 15.699765 8.50123053 0 7.87410205 0"></polygon>
                        <polygon id="Fill-3" points="4.64187065 11.6053313 4.19952109 11.1626898 11.6774683 3.67700598 12.1198179 4.11964747"></polygon>
                        <polygon id="Fill-4" points="11.83845 11.7608161 4.72446123 4.64493404 5.16961046 4.20229255 12.2807995 11.3181746"></polygon>
                    </g>
                </g>
                <g id="Group" transform="translate(296.000000, 476.000000)" fill="#EEE487">
                    <g id="Page-1">
                        <polygon id="Fill-1" points="0 7.98435585 16.2773438 7.98435585 16.2773438 7.35401197 0 7.35401197"></polygon>
                        <polygon id="Fill-2" points="7.87410205 15.699765 8.50123053 15.699765 8.50123053 0 7.87410205 0"></polygon>
                        <polygon id="Fill-3" points="4.64187065 11.6053313 4.19952109 11.1626898 11.6774683 3.67700598 12.1198179 4.11964747"></polygon>
                        <polygon id="Fill-4" points="11.83845 11.7608161 4.72446123 4.64493404 5.16961046 4.20229255 12.2807995 11.3181746"></polygon>
                    </g>
                </g>
                <g id="Group" transform="translate(262.000000, 549.000000)" fill="#EEE487">
                    <g id="Page-1">
                        <polygon id="Fill-1" points="0 7.98435585 16.2773438 7.98435585 16.2773438 7.35401197 0 7.35401197"></polygon>
                        <polygon id="Fill-2" points="7.87410205 15.699765 8.50123053 15.699765 8.50123053 0 7.87410205 0"></polygon>
                        <polygon id="Fill-3" points="4.64187065 11.6053313 4.19952109 11.1626898 11.6774683 3.67700598 12.1198179 4.11964747"></polygon>
                        <polygon id="Fill-4" points="11.83845 11.7608161 4.72446123 4.64493404 5.16961046 4.20229255 12.2807995 11.3181746"></polygon>
                    </g>
                </g>
                <g id="Group" transform="translate(339.000000, 395.000000)" fill="#EEE487">
                    <g id="Page-1">
                        <polygon id="Fill-1" points="0 7.98435585 16.2773438 7.98435585 16.2773438 7.35401197 0 7.35401197"></polygon>
                        <polygon id="Fill-2" points="7.87410205 15.699765 8.50123053 15.699765 8.50123053 0 7.87410205 0"></polygon>
                        <polygon id="Fill-3" points="4.64187065 11.6053313 4.19952109 11.1626898 11.6774683 3.67700598 12.1198179 4.11964747"></polygon>
                        <polygon id="Fill-4" points="11.83845 11.7608161 4.72446123 4.64493404 5.16961046 4.20229255 12.2807995 11.3181746"></polygon>
                    </g>
                </g>
                <g id="Group" transform="translate(30.000000, 343.000000)" fill="#EEE487">
                    <g id="Page-1">
                        <polygon id="Fill-1" points="0 7.98435585 16.2773438 7.98435585 16.2773438 7.35401197 0 7.35401197"></polygon>
                        <polygon id="Fill-2" points="7.87410205 15.699765 8.50123053 15.699765 8.50123053 0 7.87410205 0"></polygon>
                        <polygon id="Fill-3" points="4.64187065 11.6053313 4.19952109 11.1626898 11.6774683 3.67700598 12.1198179 4.11964747"></polygon>
                        <polygon id="Fill-4" points="11.83845 11.7608161 4.72446123 4.64493404 5.16961046 4.20229255 12.2807995 11.3181746"></polygon>
                    </g>
                </g>
                <g id="Group" transform="translate(192.000000, 343.000000)" fill="#EEE487">
                    <g id="Page-1">
                        <polygon id="Fill-1" points="0 7.98435585 16.2773438 7.98435585 16.2773438 7.35401197 0 7.35401197"></polygon>
                        <polygon id="Fill-2" points="7.87410205 15.699765 8.50123053 15.699765 8.50123053 0 7.87410205 0"></polygon>
                        <polygon id="Fill-3" points="4.64187065 11.6053313 4.19952109 11.1626898 11.6774683 3.67700598 12.1198179 4.11964747"></polygon>
                        <polygon id="Fill-4" points="11.83845 11.7608161 4.72446123 4.64493404 5.16961046 4.20229255 12.2807995 11.3181746"></polygon>
                    </g>
                </g>
                <g id="Group" transform="translate(30.000000, 224.000000)" fill="#EEE487">
                    <g id="Page-1">
                        <polygon id="Fill-1" points="0 7.98435585 16.2773438 7.98435585 16.2773438 7.35401197 0 7.35401197"></polygon>
                        <polygon id="Fill-2" points="7.87410205 15.699765 8.50123053 15.699765 8.50123053 0 7.87410205 0"></polygon>
                        <polygon id="Fill-3" points="4.64187065 11.6053313 4.19952109 11.1626898 11.6774683 3.67700598 12.1198179 4.11964747"></polygon>
                        <polygon id="Fill-4" points="11.83845 11.7608161 4.72446123 4.64493404 5.16961046 4.20229255 12.2807995 11.3181746"></polygon>
                    </g>
                </g>
                <g id="Group" transform="translate(100.000000, 279.000000)" fill="#EEE487">
                    <g id="Page-1">
                        <polygon id="Fill-1" points="0 7.98435585 16.2773438 7.98435585 16.2773438 7.35401197 0 7.35401197"></polygon>
                        <polygon id="Fill-2" points="7.87410205 15.699765 8.50123053 15.699765 8.50123053 0 7.87410205 0"></polygon>
                        <polygon id="Fill-3" points="4.64187065 11.6053313 4.19952109 11.1626898 11.6774683 3.67700598 12.1198179 4.11964747"></polygon>
                        <polygon id="Fill-4" points="11.83845 11.7608161 4.72446123 4.64493404 5.16961046 4.20229255 12.2807995 11.3181746"></polygon>
                    </g>
                </g>
                <g id="Group" transform="translate(48.000000, 455.000000)" fill="#EEE487">
                    <g id="Page-1">
                        <polygon id="Fill-1" points="0 7.98435585 16.2773438 7.98435585 16.2773438 7.35401197 0 7.35401197"></polygon>
                        <polygon id="Fill-2" points="7.87410205 15.699765 8.50123053 15.699765 8.50123053 0 7.87410205 0"></polygon>
                        <polygon id="Fill-3" points="4.64187065 11.6053313 4.19952109 11.1626898 11.6774683 3.67700598 12.1198179 4.11964747"></polygon>
                        <polygon id="Fill-4" points="11.83845 11.7608161 4.72446123 4.64493404 5.16961046 4.20229255 12.2807995 11.3181746"></polygon>
                    </g>
                </g>
                <g id="Group" transform="translate(13.000000, 518.000000)" fill="#EEE487">
                    <g id="Page-1">
                        <polygon id="Fill-1" points="0 7.98435585 16.2773438 7.98435585 16.2773438 7.35401197 0 7.35401197"></polygon>
                        <polygon id="Fill-2" points="7.87410205 15.699765 8.50123053 15.699765 8.50123053 0 7.87410205 0"></polygon>
                        <polygon id="Fill-3" points="4.64187065 11.6053313 4.19952109 11.1626898 11.6774683 3.67700598 12.1198179 4.11964747"></polygon>
                        <polygon id="Fill-4" points="11.83845 11.7608161 4.72446123 4.64493404 5.16961046 4.20229255 12.2807995 11.3181746"></polygon>
                    </g>
                </g>
                <g id="Group" transform="translate(83.000000, 573.000000)" fill="#EEE487">
                    <g id="Page-1">
                        <polygon id="Fill-1" points="0 7.98435585 16.2773438 7.98435585 16.2773438 7.35401197 0 7.35401197"></polygon>
                        <polygon id="Fill-2" points="7.87410205 15.699765 8.50123053 15.699765 8.50123053 0 7.87410205 0"></polygon>
                        <polygon id="Fill-3" points="4.64187065 11.6053313 4.19952109 11.1626898 11.6774683 3.67700598 12.1198179 4.11964747"></polygon>
                        <polygon id="Fill-4" points="11.83845 11.7608161 4.72446123 4.64493404 5.16961046 4.20229255 12.2807995 11.3181746"></polygon>
                    </g>
                </g>
                <g id="Group" transform="translate(227.000000, 431.000000)" fill="#EEE487">
                    <g id="Page-1">
                        <polygon id="Fill-1" points="0 7.98435585 16.2773438 7.98435585 16.2773438 7.35401197 0 7.35401197"></polygon>
                        <polygon id="Fill-2" points="7.87410205 15.699765 8.50123053 15.699765 8.50123053 0 7.87410205 0"></polygon>
                        <polygon id="Fill-3" points="4.64187065 11.6053313 4.19952109 11.1626898 11.6774683 3.67700598 12.1198179 4.11964747"></polygon>
                        <polygon id="Fill-4" points="11.83845 11.7608161 4.72446123 4.64493404 5.16961046 4.20229255 12.2807995 11.3181746"></polygon>
                    </g>
                </g>
                <g id="Group" transform="translate(192.000000, 494.000000)" fill="#EEE487">
                    <g id="Page-1">
                        <polygon id="Fill-1" points="0 7.98435585 16.2773438 7.98435585 16.2773438 7.35401197 0 7.35401197"></polygon>
                        <polygon id="Fill-2" points="7.87410205 15.699765 8.50123053 15.699765 8.50123053 0 7.87410205 0"></polygon>
                        <polygon id="Fill-3" points="4.64187065 11.6053313 4.19952109 11.1626898 11.6774683 3.67700598 12.1198179 4.11964747"></polygon>
                        <polygon id="Fill-4" points="11.83845 11.7608161 4.72446123 4.64493404 5.16961046 4.20229255 12.2807995 11.3181746"></polygon>
                    </g>
                </g>
                <g id="Group" transform="translate(296.000000, 476.000000)" fill="#EEE487">
                    <g id="Page-1">
                        <polygon id="Fill-1" points="0 7.98435585 16.2773438 7.98435585 16.2773438 7.35401197 0 7.35401197"></polygon>
                        <polygon id="Fill-2" points="7.87410205 15.699765 8.50123053 15.699765 8.50123053 0 7.87410205 0"></polygon>
                        <polygon id="Fill-3" points="4.64187065 11.6053313 4.19952109 11.1626898 11.6774683 3.67700598 12.1198179 4.11964747"></polygon>
                        <polygon id="Fill-4" points="11.83845 11.7608161 4.72446123 4.64493404 5.16961046 4.20229255 12.2807995 11.3181746"></polygon>
                    </g>
                </g>
                <g id="Group" transform="translate(262.000000, 549.000000)" fill="#EEE487">
                    <g id="Page-1">
                        <polygon id="Fill-1" points="0 7.98435585 16.2773438 7.98435585 16.2773438 7.35401197 0 7.35401197"></polygon>
                        <polygon id="Fill-2" points="7.87410205 15.699765 8.50123053 15.699765 8.50123053 0 7.87410205 0"></polygon>
                        <polygon id="Fill-3" points="4.64187065 11.6053313 4.19952109 11.1626898 11.6774683 3.67700598 12.1198179 4.11964747"></polygon>
                        <polygon id="Fill-4" points="11.83845 11.7608161 4.72446123 4.64493404 5.16961046 4.20229255 12.2807995 11.3181746"></polygon>
                    </g>
                </g>
                <g id="Group" transform="translate(30.000000, 343.000000)" fill="#EEE487">
                    <g id="Page-1">
                        <polygon id="Fill-1" points="0 7.98435585 16.2773438 7.98435585 16.2773438 7.35401197 0 7.35401197"></polygon>
                        <polygon id="Fill-2" points="7.87410205 15.699765 8.50123053 15.699765 8.50123053 0 7.87410205 0"></polygon>
                        <polygon id="Fill-3" points="4.64187065 11.6053313 4.19952109 11.1626898 11.6774683 3.67700598 12.1198179 4.11964747"></polygon>
                        <polygon id="Fill-4" points="11.83845 11.7608161 4.72446123 4.64493404 5.16961046 4.20229255 12.2807995 11.3181746"></polygon>
                    </g>
                </g>
                <g id="Group" transform="translate(192.000000, 343.000000)" fill="#EEE487">
                    <g id="Page-1">
                        <polygon id="Fill-1" points="0 7.98435585 16.2773438 7.98435585 16.2773438 7.35401197 0 7.35401197"></polygon>
                        <polygon id="Fill-2" points="7.87410205 15.699765 8.50123053 15.699765 8.50123053 0 7.87410205 0"></polygon>
                        <polygon id="Fill-3" points="4.64187065 11.6053313 4.19952109 11.1626898 11.6774683 3.67700598 12.1198179 4.11964747"></polygon>
                        <polygon id="Fill-4" points="11.83845 11.7608161 4.72446123 4.64493404 5.16961046 4.20229255 12.2807995 11.3181746"></polygon>
                    </g>
                </g>
                <g id="Group" transform="translate(30.000000, 224.000000)" fill="#EEE487">
                    <g id="Page-1">
                        <polygon id="Fill-1" points="0 7.98435585 16.2773438 7.98435585 16.2773438 7.35401197 0 7.35401197"></polygon>
                        <polygon id="Fill-2" points="7.87410205 15.699765 8.50123053 15.699765 8.50123053 0 7.87410205 0"></polygon>
                        <polygon id="Fill-3" points="4.64187065 11.6053313 4.19952109 11.1626898 11.6774683 3.67700598 12.1198179 4.11964747"></polygon>
                        <polygon id="Fill-4" points="11.83845 11.7608161 4.72446123 4.64493404 5.16961046 4.20229255 12.2807995 11.3181746"></polygon>
                    </g>
                </g>
                <g id="Group" transform="translate(100.000000, 279.000000)" fill="#FBE945">
                    <g id="Page-1">
                        <polygon id="Fill-1" points="0 7.98435585 16.2773438 7.98435585 16.2773438 7.35401197 0 7.35401197"></polygon>
                        <polygon id="Fill-2" points="7.87410205 15.699765 8.50123053 15.699765 8.50123053 0 7.87410205 0"></polygon>
                        <polygon id="Fill-3" points="4.64187065 11.6053313 4.19952109 11.1626898 11.6774683 3.67700598 12.1198179 4.11964747"></polygon>
                        <polygon id="Fill-4" points="11.83845 11.7608161 4.72446123 4.64493404 5.16961046 4.20229255 12.2807995 11.3181746"></polygon>
                    </g>
                </g>
                <g id="Group" transform="translate(48.000000, 455.000000)" fill="#EEE487">
                    <g id="Page-1">
                        <polygon id="Fill-1" points="0 7.98435585 16.2773438 7.98435585 16.2773438 7.35401197 0 7.35401197"></polygon>
                        <polygon id="Fill-2" points="7.87410205 15.699765 8.50123053 15.699765 8.50123053 0 7.87410205 0"></polygon>
                        <polygon id="Fill-3" points="4.64187065 11.6053313 4.19952109 11.1626898 11.6774683 3.67700598 12.1198179 4.11964747"></polygon>
                        <polygon id="Fill-4" points="11.83845 11.7608161 4.72446123 4.64493404 5.16961046 4.20229255 12.2807995 11.3181746"></polygon>
                    </g>
                </g>
                <g id="Group" transform="translate(13.000000, 518.000000)" fill="#EEE487">
                    <g id="Page-1">
                        <polygon id="Fill-1" points="0 7.98435585 16.2773438 7.98435585 16.2773438 7.35401197 0 7.35401197"></polygon>
                        <polygon id="Fill-2" points="7.87410205 15.699765 8.50123053 15.699765 8.50123053 0 7.87410205 0"></polygon>
                        <polygon id="Fill-3" points="4.64187065 11.6053313 4.19952109 11.1626898 11.6774683 3.67700598 12.1198179 4.11964747"></polygon>
                        <polygon id="Fill-4" points="11.83845 11.7608161 4.72446123 4.64493404 5.16961046 4.20229255 12.2807995 11.3181746"></polygon>
                    </g>
                </g>
                <g id="Group" transform="translate(83.000000, 573.000000)" fill="#EEE487">
                    <g id="Page-1">
                        <polygon id="Fill-1" points="0 7.98435585 16.2773438 7.98435585 16.2773438 7.35401197 0 7.35401197"></polygon>
                        <polygon id="Fill-2" points="7.87410205 15.699765 8.50123053 15.699765 8.50123053 0 7.87410205 0"></polygon>
                        <polygon id="Fill-3" points="4.64187065 11.6053313 4.19952109 11.1626898 11.6774683 3.67700598 12.1198179 4.11964747"></polygon>
                        <polygon id="Fill-4" points="11.83845 11.7608161 4.72446123 4.64493404 5.16961046 4.20229255 12.2807995 11.3181746"></polygon>
                    </g>
                </g>
                <g id="Group" transform="translate(227.000000, 431.000000)" fill="#EEE487">
                    <g id="Page-1">
                        <polygon id="Fill-1" points="0 7.98435585 16.2773438 7.98435585 16.2773438 7.35401197 0 7.35401197"></polygon>
                        <polygon id="Fill-2" points="7.87410205 15.699765 8.50123053 15.699765 8.50123053 0 7.87410205 0"></polygon>
                        <polygon id="Fill-3" points="4.64187065 11.6053313 4.19952109 11.1626898 11.6774683 3.67700598 12.1198179 4.11964747"></polygon>
                        <polygon id="Fill-4" points="11.83845 11.7608161 4.72446123 4.64493404 5.16961046 4.20229255 12.2807995 11.3181746"></polygon>
                    </g>
                </g>
                <g id="Group" transform="translate(192.000000, 494.000000)" fill="#EEE487">
                    <g id="Page-1">
                        <polygon id="Fill-1" points="0 7.98435585 16.2773438 7.98435585 16.2773438 7.35401197 0 7.35401197"></polygon>
                        <polygon id="Fill-2" points="7.87410205 15.699765 8.50123053 15.699765 8.50123053 0 7.87410205 0"></polygon>
                        <polygon id="Fill-3" points="4.64187065 11.6053313 4.19952109 11.1626898 11.6774683 3.67700598 12.1198179 4.11964747"></polygon>
                        <polygon id="Fill-4" points="11.83845 11.7608161 4.72446123 4.64493404 5.16961046 4.20229255 12.2807995 11.3181746"></polygon>
                    </g>
                </g>
                <g id="Group" transform="translate(296.000000, 476.000000)" fill="#EEE487">
                    <g id="Page-1">
                        <polygon id="Fill-1" points="0 7.98435585 16.2773438 7.98435585 16.2773438 7.35401197 0 7.35401197"></polygon>
                        <polygon id="Fill-2" points="7.87410205 15.699765 8.50123053 15.699765 8.50123053 0 7.87410205 0"></polygon>
                        <polygon id="Fill-3" points="4.64187065 11.6053313 4.19952109 11.1626898 11.6774683 3.67700598 12.1198179 4.11964747"></polygon>
                        <polygon id="Fill-4" points="11.83845 11.7608161 4.72446123 4.64493404 5.16961046 4.20229255 12.2807995 11.3181746"></polygon>
                    </g>
                </g>
                <g id="Group" transform="translate(262.000000, 549.000000)" fill="#EEE487">
                    <g id="Page-1">
                        <polygon id="Fill-1" points="0 7.98435585 16.2773438 7.98435585 16.2773438 7.35401197 0 7.35401197"></polygon>
                        <polygon id="Fill-2" points="7.87410205 15.699765 8.50123053 15.699765 8.50123053 0 7.87410205 0"></polygon>
                        <polygon id="Fill-3" points="4.64187065 11.6053313 4.19952109 11.1626898 11.6774683 3.67700598 12.1198179 4.11964747"></polygon>
                        <polygon id="Fill-4" points="11.83845 11.7608161 4.72446123 4.64493404 5.16961046 4.20229255 12.2807995 11.3181746"></polygon>
                    </g>
                </g>
                <g id="Group" transform="translate(30.000000, 343.000000)" fill="#EEE487">
                    <g id="Page-1">
                        <polygon id="Fill-1" points="0 7.98435585 16.2773438 7.98435585 16.2773438 7.35401197 0 7.35401197"></polygon>
                        <polygon id="Fill-2" points="7.87410205 15.699765 8.50123053 15.699765 8.50123053 0 7.87410205 0"></polygon>
                        <polygon id="Fill-3" points="4.64187065 11.6053313 4.19952109 11.1626898 11.6774683 3.67700598 12.1198179 4.11964747"></polygon>
                        <polygon id="Fill-4" points="11.83845 11.7608161 4.72446123 4.64493404 5.16961046 4.20229255 12.2807995 11.3181746"></polygon>
                    </g>
                </g>
                <g id="Group" transform="translate(192.000000, 343.000000)" fill="#EEE487">
                    <g id="Page-1">
                        <polygon id="Fill-1" points="0 7.98435585 16.2773438 7.98435585 16.2773438 7.35401197 0 7.35401197"></polygon>
                        <polygon id="Fill-2" points="7.87410205 15.699765 8.50123053 15.699765 8.50123053 0 7.87410205 0"></polygon>
                        <polygon id="Fill-3" points="4.64187065 11.6053313 4.19952109 11.1626898 11.6774683 3.67700598 12.1198179 4.11964747"></polygon>
                        <polygon id="Fill-4" points="11.83845 11.7608161 4.72446123 4.64493404 5.16961046 4.20229255 12.2807995 11.3181746"></polygon>
                    </g>
                </g>
                <g id="Group" transform="translate(322.000000, 636.000000)" fill="#EEE487">
                    <g id="Page-1">
                        <polygon id="Fill-1" points="0 7.98435585 16.2773438 7.98435585 16.2773438 7.35401197 0 7.35401197"></polygon>
                        <polygon id="Fill-2" points="7.87410205 15.699765 8.50123053 15.699765 8.50123053 0 7.87410205 0"></polygon>
                        <polygon id="Fill-3" points="4.64187065 11.6053313 4.19952109 11.1626898 11.6774683 3.67700598 12.1198179 4.11964747"></polygon>
                        <polygon id="Fill-4" points="11.83845 11.7608161 4.72446123 4.64493404 5.16961046 4.20229255 12.2807995 11.3181746"></polygon>
                    </g>
                </g>
                <g id="Group" transform="translate(117.000000, 644.000000)" fill="#EEE487">
                    <g id="Page-1">
                        <polygon id="Fill-1" points="0 7.98435585 16.2773438 7.98435585 16.2773438 7.35401197 0 7.35401197"></polygon>
                        <polygon id="Fill-2" points="7.87410205 15.699765 8.50123053 15.699765 8.50123053 0 7.87410205 0"></polygon>
                        <polygon id="Fill-3" points="4.64187065 11.6053313 4.19952109 11.1626898 11.6774683 3.67700598 12.1198179 4.11964747"></polygon>
                        <polygon id="Fill-4" points="11.83845 11.7608161 4.72446123 4.64493404 5.16961046 4.20229255 12.2807995 11.3181746"></polygon>
                    </g>
                </g>
                <g id="Group" transform="translate(65.000000, 820.000000)" fill="#EEE487">
                    <g id="Page-1">
                        <polygon id="Fill-1" points="0 7.98435585 16.2773438 7.98435585 16.2773438 7.35401197 0 7.35401197"></polygon>
                        <polygon id="Fill-2" points="7.87410205 15.699765 8.50123053 15.699765 8.50123053 0 7.87410205 0"></polygon>
                        <polygon id="Fill-3" points="4.64187065 11.6053313 4.19952109 11.1626898 11.6774683 3.67700598 12.1198179 4.11964747"></polygon>
                        <polygon id="Fill-4" points="11.83845 11.7608161 4.72446123 4.64493404 5.16961046 4.20229255 12.2807995 11.3181746"></polygon>
                    </g>
                </g>
                <g id="Group" transform="translate(30.000000, 883.000000)" fill="#EEE487">
                    <g id="Page-1">
                        <polygon id="Fill-1" points="0 7.98435585 16.2773438 7.98435585 16.2773438 7.35401197 0 7.35401197"></polygon>
                        <polygon id="Fill-2" points="7.87410205 15.699765 8.50123053 15.699765 8.50123053 0 7.87410205 0"></polygon>
                        <polygon id="Fill-3" points="4.64187065 11.6053313 4.19952109 11.1626898 11.6774683 3.67700598 12.1198179 4.11964747"></polygon>
                        <polygon id="Fill-4" points="11.83845 11.7608161 4.72446123 4.64493404 5.16961046 4.20229255 12.2807995 11.3181746"></polygon>
                    </g>
                </g>
                <g id="Group" transform="translate(100.000000, 938.000000)" fill="#EEE487">
                    <g id="Page-1">
                        <polygon id="Fill-1" points="0 7.98435585 16.2773438 7.98435585 16.2773438 7.35401197 0 7.35401197"></polygon>
                        <polygon id="Fill-2" points="7.87410205 15.699765 8.50123053 15.699765 8.50123053 0 7.87410205 0"></polygon>
                        <polygon id="Fill-3" points="4.64187065 11.6053313 4.19952109 11.1626898 11.6774683 3.67700598 12.1198179 4.11964747"></polygon>
                        <polygon id="Fill-4" points="11.83845 11.7608161 4.72446123 4.64493404 5.16961046 4.20229255 12.2807995 11.3181746"></polygon>
                    </g>
                </g>
                <g id="Group" transform="translate(244.000000, 796.000000)" fill="#EEE487">
                    <g id="Page-1">
                        <polygon id="Fill-1" points="0 7.98435585 16.2773438 7.98435585 16.2773438 7.35401197 0 7.35401197"></polygon>
                        <polygon id="Fill-2" points="7.87410205 15.699765 8.50123053 15.699765 8.50123053 0 7.87410205 0"></polygon>
                        <polygon id="Fill-3" points="4.64187065 11.6053313 4.19952109 11.1626898 11.6774683 3.67700598 12.1198179 4.11964747"></polygon>
                        <polygon id="Fill-4" points="11.83845 11.7608161 4.72446123 4.64493404 5.16961046 4.20229255 12.2807995 11.3181746"></polygon>
                    </g>
                </g>
                <g id="Group" transform="translate(209.000000, 859.000000)" fill="#EEE487">
                    <g id="Page-1">
                        <polygon id="Fill-1" points="0 7.98435585 16.2773438 7.98435585 16.2773438 7.35401197 0 7.35401197"></polygon>
                        <polygon id="Fill-2" points="7.87410205 15.699765 8.50123053 15.699765 8.50123053 0 7.87410205 0"></polygon>
                        <polygon id="Fill-3" points="4.64187065 11.6053313 4.19952109 11.1626898 11.6774683 3.67700598 12.1198179 4.11964747"></polygon>
                        <polygon id="Fill-4" points="11.83845 11.7608161 4.72446123 4.64493404 5.16961046 4.20229255 12.2807995 11.3181746"></polygon>
                    </g>
                </g>
                <g id="Group" transform="translate(313.000000, 841.000000)" fill="#EEE487">
                    <g id="Page-1">
                        <polygon id="Fill-1" points="0 7.98435585 16.2773438 7.98435585 16.2773438 7.35401197 0 7.35401197"></polygon>
                        <polygon id="Fill-2" points="7.87410205 15.699765 8.50123053 15.699765 8.50123053 0 7.87410205 0"></polygon>
                        <polygon id="Fill-3" points="4.64187065 11.6053313 4.19952109 11.1626898 11.6774683 3.67700598 12.1198179 4.11964747"></polygon>
                        <polygon id="Fill-4" points="11.83845 11.7608161 4.72446123 4.64493404 5.16961046 4.20229255 12.2807995 11.3181746"></polygon>
                    </g>
                </g>
                <g id="Group" transform="translate(279.000000, 914.000000)" fill="#EEE487">
                    <g id="Page-1">
                        <polygon id="Fill-1" points="0 7.98435585 16.2773438 7.98435585 16.2773438 7.35401197 0 7.35401197"></polygon>
                        <polygon id="Fill-2" points="7.87410205 15.699765 8.50123053 15.699765 8.50123053 0 7.87410205 0"></polygon>
                        <polygon id="Fill-3" points="4.64187065 11.6053313 4.19952109 11.1626898 11.6774683 3.67700598 12.1198179 4.11964747"></polygon>
                        <polygon id="Fill-4" points="11.83845 11.7608161 4.72446123 4.64493404 5.16961046 4.20229255 12.2807995 11.3181746"></polygon>
                    </g>
                </g>
                <g id="Group" transform="translate(47.000000, 708.000000)" fill="#EEE487">
                    <g id="Page-1">
                        <polygon id="Fill-1" points="0 7.98435585 16.2773438 7.98435585 16.2773438 7.35401197 0 7.35401197"></polygon>
                        <polygon id="Fill-2" points="7.87410205 15.699765 8.50123053 15.699765 8.50123053 0 7.87410205 0"></polygon>
                        <polygon id="Fill-3" points="4.64187065 11.6053313 4.19952109 11.1626898 11.6774683 3.67700598 12.1198179 4.11964747"></polygon>
                        <polygon id="Fill-4" points="11.83845 11.7608161 4.72446123 4.64493404 5.16961046 4.20229255 12.2807995 11.3181746"></polygon>
                    </g>
                </g>
                <g id="Group" transform="translate(209.000000, 708.000000)" fill="#EEE487">
                    <g id="Page-1">
                        <polygon id="Fill-1" points="0 7.98435585 16.2773438 7.98435585 16.2773438 7.35401197 0 7.35401197"></polygon>
                        <polygon id="Fill-2" points="7.87410205 15.699765 8.50123053 15.699765 8.50123053 0 7.87410205 0"></polygon>
                        <polygon id="Fill-3" points="4.64187065 11.6053313 4.19952109 11.1626898 11.6774683 3.67700598 12.1198179 4.11964747"></polygon>
                        <polygon id="Fill-4" points="11.83845 11.7608161 4.72446123 4.64493404 5.16961046 4.20229255 12.2807995 11.3181746"></polygon>
                    </g>
                </g>
                <g id="Group" transform="translate(275.000000, 62.000000)" fill="#EEE487">
                    <g id="Page-1">
                        <polygon id="Fill-1" points="0 7.98435585 16.2773438 7.98435585 16.2773438 7.35401197 0 7.35401197"></polygon>
                        <polygon id="Fill-2" points="7.87410205 15.699765 8.50123053 15.699765 8.50123053 0 7.87410205 0"></polygon>
                        <polygon id="Fill-3" points="4.64187065 11.6053313 4.19952109 11.1626898 11.6774683 3.67700598 12.1198179 4.11964747"></polygon>
                        <polygon id="Fill-4" points="11.83845 11.7608161 4.72446123 4.64493404 5.16961046 4.20229255 12.2807995 11.3181746"></polygon>
                    </g>
                </g>
                <g id="Group" fill="#EEE487">
                    <g id="Page-1">
                        <polygon id="Fill-1" points="0 7.98435585 16.2773438 7.98435585 16.2773438 7.35401197 0 7.35401197"></polygon>
                        <polygon id="Fill-2" points="7.87410205 15.699765 8.50123053 15.699765 8.50123053 0 7.87410205 0"></polygon>
                        <polygon id="Fill-3" points="4.64187065 11.6053313 4.19952109 11.1626898 11.6774683 3.67700598 12.1198179 4.11964747"></polygon>
                        <polygon id="Fill-4" points="11.83845 11.7608161 4.72446123 4.64493404 5.16961046 4.20229255 12.2807995 11.3181746"></polygon>
                    </g>
                </g>
            </g>
        </g>
    </g>
</svg>