<svg id="Layer_1" data-name="Layer 1" xmlns="http://www.w3.org/2000/svg" xmlns:xlink="http://www.w3.org/1999/xlink" viewBox="0 0 375 667"><defs><style>.cls-1,.cls-7,.cls-8{fill:none;}.cls-2{clip-path:url(#clip-path);}.cls-3{fill:#e50000;}.cls-4{fill:#003aaf;}.cls-5{fill:#fffdf0;}.cls-6{clip-path:url(#clip-path-2);}.cls-7,.cls-8{stroke:#000;stroke-miterlimit:10;}.cls-7{stroke-width:0.77px;}.cls-8{stroke-width:0.68px;}.cls-9{clip-path:url(#clip-path-3);}</style><clipPath id="clip-path"><rect class="cls-1" x="-475" y="152.4" width="375" height="360.56"/></clipPath><clipPath id="clip-path-2"><rect class="cls-1" y="152.4" width="375" height="360.56"/></clipPath><clipPath id="clip-path-3"><rect class="cls-1" x="475" y="152.4" width="375" height="360.56"/></clipPath></defs><title>letter</title><g class="cls-2"><rect class="cls-3" x="-471.09" y="264.89" width="564.05" height="22.64" transform="translate(139.94 214.59) rotate(45)"/><rect class="cls-4" x="-432.16" y="241.53" width="564.05" height="22.64" transform="translate(134.82 180.22) rotate(45)"/><rect class="cls-3" x="-401.02" y="210.39" width="564.05" height="22.64" transform="translate(121.92 149.07) rotate(45)"/><rect class="cls-4" x="-369.87" y="179.24" width="564.05" height="22.64" transform="translate(109.02 117.93) rotate(45)"/><rect class="cls-3" x="-335.88" y="150.94" width="564.05" height="22.64" transform="translate(98.96 85.61) rotate(45)"/><rect class="cls-4" x="-292.72" y="131.81" width="564.05" height="22.64" transform="translate(98.08 49.49) rotate(45)"/></g><rect class="cls-5" y="152.4" width="375" height="360.56"/><g class="cls-6"><rect class="cls-3" x="-402.72" y="605.72" width="564.05" height="22.64" transform="translate(400.96 266.07) rotate(45)"/><rect class="cls-4" x="-362.32" y="583.83" width="564.05" height="22.64" transform="translate(397.32 231.09) rotate(45)"/><rect class="cls-3" x="-331.18" y="552.69" width="564.05" height="22.64" transform="translate(384.42 199.95) rotate(45)"/><rect class="cls-4" x="-300.03" y="521.55" width="564.05" height="22.64" transform="translate(371.52 168.8) rotate(45)"/><rect class="cls-3" x="-261.11" y="498.18" width="564.05" height="22.64" transform="translate(366.4 134.44) rotate(45)"/><rect class="cls-4" x="-229.96" y="467.04" width="564.05" height="22.64" transform="translate(353.5 103.29) rotate(45)"/><rect class="cls-3" x="-198.82" y="435.89" width="564.05" height="22.64" transform="translate(340.6 72.15) rotate(45)"/><rect class="cls-4" x="-164.83" y="407.6" width="564.05" height="22.64" transform="translate(330.55 39.83) rotate(45)"/><rect class="cls-3" x="-121.67" y="388.47" width="564.05" height="22.64" transform="translate(329.66 3.7) rotate(45)"/><rect class="cls-4" x="-98.78" y="349.07" width="564.05" height="22.64" transform="translate(308.5 -24.02) rotate(45)"/><rect class="cls-3" x="-58.38" y="327.18" width="564.05" height="22.64" transform="translate(304.86 -59) rotate(45)"/><rect class="cls-4" x="-27.23" y="296.04" width="564.05" height="22.64" transform="translate(291.96 -90.14) rotate(45)"/><rect class="cls-3" x="3.91" y="264.89" width="564.05" height="22.64" transform="translate(279.06 -121.29) rotate(45)"/><rect class="cls-4" x="42.84" y="241.53" width="564.05" height="22.64" transform="translate(273.94 -155.66) rotate(45)"/><rect class="cls-3" x="73.98" y="210.39" width="564.05" height="22.64" transform="translate(261.04 -186.8) rotate(45)"/><rect class="cls-4" x="105.13" y="179.24" width="564.05" height="22.64" transform="translate(248.14 -217.95) rotate(45)"/><rect class="cls-3" x="139.12" y="150.94" width="564.05" height="22.64" transform="translate(238.09 -250.27) rotate(45)"/><rect class="cls-4" x="182.28" y="131.81" width="564.05" height="22.64" transform="translate(237.2 -286.39) rotate(45)"/></g><rect class="cls-5" x="11.89" y="163.84" width="351.22" height="337.69"/><path class="cls-7" d="M347.24,270.89c0-1.77,1.3-2.94,3.84-3.66,0-.22,0-.45,0-.69,0-1.4,0-2.81,0-4.19-2.82-.89-4-2.11-3.89-4.1.07-1.81,1.4-3.09,3.84-3.68v-4.41a4,4,0,0,1-3.81-3.94c-.06-1.84,1.14-3,3.83-3.83v-4.89c-2.67-.75-3.91-2-3.86-4s1.36-3.14,3.85-3.75v-4.17c-2.68-.82-3.86-2-3.85-3.92s1.25-3.13,3.9-3.87v-4.92a4,4,0,0,1-3.86-4c0-1.81,1.24-3,3.82-3.74,0-.13,0-.28,0-.42,0-1.38,0-2.75,0-4.16-2-.63-3.6-1.67-3.5-4,.09-2.1,1.56-3.08,3.5-3.65,0-1.57,0-3.14,0-4.71,0-.19-.38-.43-.63-.53a3.91,3.91,0,0,1-2.84-3.25,3.69,3.69,0,0,1,2.48-3.84c.32-.13.65-.24,1-.36v-5.33h-4.41c-.1.35-.18.68-.31,1a3.67,3.67,0,0,1-7.12-.25c-.19-.7-.47-.85-1.13-.83-1.35.05-2.69,0-4.09,0-.1.32-.19.62-.29.91a3.84,3.84,0,0,1-3.64,2.8,3.78,3.78,0,0,1-3.54-2.92c-.19-.73-.52-.83-1.15-.81-1.11,0-2.22,0-3.36,0-.62,2-1.67,3.55-4,3.52-1.68,0-2.9-1.22-3.64-3.52h-5c-.86,2.5-2.1,3.58-4,3.53-1.71-.05-3-1.25-3.67-3.52-1.18,0-2.4,0-3.62,0-.17,0-.4.34-.49.57a4,4,0,0,1-3.12,2.9,3.68,3.68,0,0,1-3.9-2.25c-.17-.37-.28-.77-.44-1.2h-5.05c-.6,2-1.61,3.49-3.86,3.46s-3.2-1.55-3.78-3.53H273v6a10,10,0,0,1,1.47.55,3.6,3.6,0,0,1,0,6.51,8.75,8.75,0,0,1-1.48.5V193a4.16,4.16,0,0,1,4.06,3.24,3.9,3.9,0,0,1-4.06,4.33v4.75a4.12,4.12,0,0,1,3.89,3.32,3.9,3.9,0,0,1-3.89,4.24v4a4,4,0,0,1,4.6,4.45c-.35,1.88-2.29,3.19-4.6,3.11v4.93a4,4,0,0,1,3.91,3.63c.06,2.06-1.54,3.67-3.91,3.93v5.28c2.15.41,3.56,1.7,3.71,3.4.19,2.12-1.33,3.83-3.71,4.17V255a4.14,4.14,0,0,1,4.07,3.29,3.89,3.89,0,0,1-4.07,4.28v4.75c2.9.15,4.81,2.64,3.88,5.05a4.13,4.13,0,0,1-3.88,2.51V280h4a14.63,14.63,0,0,1,.53-2.72,3.57,3.57,0,0,1,6.69,0,14.72,14.72,0,0,1,.52,2.72h4.93a14.44,14.44,0,0,1,.5-2.64,3.47,3.47,0,0,1,3.43-2.41,3.51,3.51,0,0,1,3.38,2.48,13.3,13.3,0,0,1,.43,2.56h3.87a14.45,14.45,0,0,1,.65-3,3.44,3.44,0,0,1,3.76-2,4,4,0,0,1,3.16,3.35,10.14,10.14,0,0,1,0,1.64H314a5.25,5.25,0,0,1,.76-3.27,3.57,3.57,0,0,1,6.22.09,4,4,0,0,1,.58,3.18H326a13.31,13.31,0,0,1,.63-2.85,3.48,3.48,0,0,1,3.84-1.94,4.08,4.08,0,0,1,3.11,3.49,9.25,9.25,0,0,1,0,1.29h5.1a13.43,13.43,0,0,1,.64-2.85,3.48,3.48,0,0,1,3.84-1.94,4.06,4.06,0,0,1,3.09,3.41,9.14,9.14,0,0,1,0,1.38h4.93v-5C348.91,274.48,347.19,273.46,347.24,270.89Zm-6-1.59h-58.4V185.42h58.4Z"/><path class="cls-7" d="M190.37,192.71s14.95,20.19,33.47,20.19c25.42,0,36.71-23.42,59.38-24.5s24.93,12.34,24.93,12.34"/><path class="cls-7" d="M190.37,204.72s14.95,20.19,33.47,20.19c25.42,0,36.71-23.42,59.38-24.5s24.93,12.34,24.93,12.34"/><path class="cls-7" d="M190.37,217.73s14.95,20.19,33.47,20.19c25.42,0,36.71-23.42,59.38-24.5s24.93,12.34,24.93,12.34"/><path class="cls-7" d="M190.37,230.74s14.95,20.19,33.47,20.19c25.42,0,36.71-23.42,59.38-24.5s24.93,12.34,24.93,12.34"/><circle class="cls-7" cx="140.28" cy="224.9" r="33.53"/><circle class="cls-8" cx="140.28" cy="224.9" r="29.78"/><line class="cls-7" x1="151.84" y1="203.7" x2="159.58" y2="239.06"/><line class="cls-7" x1="119.53" y1="211.48" x2="127.27" y2="246.84"/><line class="cls-7" x1="135.06" y1="200.67" x2="145.7" y2="248.73"/><line class="cls-7" x1="33.39" y1="345.86" x2="265.52" y2="345.86"/><line class="cls-7" x1="33.39" y1="400.9" x2="265.52" y2="400.9"/><line class="cls-7" x1="33.39" y1="455.95" x2="265.52" y2="455.95"/><path d="M52.84,317.26a10.36,10.36,0,0,0-4.59-1.4c-2.4,0-3.64,1.49-3.64,3.89a5.84,5.84,0,0,0,2,3.84l1.66,1.78a9.94,9.94,0,0,1,3.06,7.28c0,6.07-3.3,8.68-8.63,8.68A17.15,17.15,0,0,1,36,339.86l.79-4.46a20.14,20.14,0,0,0,5.41,1.45c2.31,0,3.59-1.24,3.59-4.13,0-1.57-.91-2.81-2.07-4l-1.53-1.61a9.9,9.9,0,0,1-3-6.9c0-6,3.47-8.6,9-8.6A9.89,9.89,0,0,1,53.58,313Z"/><path d="M74.46,316.51H69.09l-4.3,24.38H59.42l4.3-24.38h-6l.78-4.55H75.87Z"/><path d="M90.1,337.05A8.94,8.94,0,0,1,82,341.31c-3.51,0-7.19-1.49-7.19-8.64,0-5.37,1.65-12.89,4.3-17,2.23-3.43,4.8-4.13,8-4.13,3.63,0,7.15,1.73,7.15,8.68C94.19,325.48,92.86,333,90.1,337.05Zm-3.56-21.57c-1.24,0-2.27.58-3.22,2.36-1.69,3.18-3.26,10.79-3.26,14.84,0,3.55.87,4.71,2.4,4.71,1.07,0,2.15-.54,3.18-2.36,1.82-3.31,3.31-10.62,3.31-14.79C88.94,317,88.2,315.48,86.54,315.48Z"/><path d="M111.77,327.71c1.86,1.49,2.31,4.26,2.4,6.86l.25,6.32h-5.62l.08-6.16c0-3.14-.37-5-1.32-6l-2.19.16-2.11,12H97.88L103,312h7.19c5.12,0,7.73,2.32,7.73,6.94C117.88,322.59,115.9,326.6,111.77,327.71Zm-2.48-11.57h-1.66L106,325.19c1.82,0,3.8-.25,4.75-1.2a7.56,7.56,0,0,0,1.69-5.08C112.47,316.8,111.77,316.14,109.29,316.14Z"/><path d="M131.41,329l-2.11,11.9h-5.37L126,329l-4-17h6.11l1.24,12.4L135,312h6.37Z"/><g class="cls-9"><rect class="cls-3" x="72.28" y="605.72" width="564.05" height="22.64" transform="translate(540.09 -69.8) rotate(45)"/><rect class="cls-4" x="112.68" y="583.83" width="564.05" height="22.64" transform="translate(536.45 -104.78) rotate(45)"/><rect class="cls-3" x="143.82" y="552.69" width="564.05" height="22.64" transform="translate(523.54 -135.93) rotate(45)"/><rect class="cls-4" x="174.97" y="521.55" width="564.05" height="22.64" transform="translate(510.64 -167.07) rotate(45)"/><rect class="cls-3" x="213.89" y="498.18" width="564.05" height="22.64" transform="translate(505.53 -201.44) rotate(45)"/><rect class="cls-4" x="245.04" y="467.04" width="564.05" height="22.64" transform="translate(492.63 -232.58) rotate(45)"/><rect class="cls-3" x="276.18" y="435.89" width="564.05" height="22.64" transform="translate(479.73 -263.73) rotate(45)"/></g></svg>