<svg id="Layer_1" data-name="Layer 1" xmlns="http://www.w3.org/2000/svg" xmlns:xlink="http://www.w3.org/1999/xlink" viewBox="0 0 375 667"><defs><style>.cls-1,.cls-6,.cls-7{fill:none;}.cls-2{fill:#fffdf0;}.cls-3{clip-path:url(#clip-path);}.cls-4{fill:#003aaf;}.cls-5{fill:#e50000;}.cls-6,.cls-7{stroke:#000;stroke-miterlimit:10;}.cls-6{stroke-width:0.77px;}.cls-7{stroke-width:0.68px;}</style><clipPath id="clip-path"><rect class="cls-1" y="152.4" width="375" height="360.56"/></clipPath></defs><title>letter We Are Not Alone FINAL</title><rect class="cls-2" y="152.4" width="375" height="360.56"/><g class="cls-3"><polygon class="cls-4" points="375 162.4 365.01 152.41 332.99 152.41 375 194.42 375 162.4"/><polygon class="cls-4" points="375 286.98 240.43 152.41 208.41 152.41 375 319 375 286.98"/><polygon class="cls-5" points="375 224.69 302.72 152.41 270.7 152.41 375 256.71 375 224.69"/><polygon class="cls-5" points="375 349.26 178.14 152.41 146.12 152.41 375 381.28 375 349.26"/><polygon class="cls-4" points="375 411.55 115.85 152.41 83.83 152.41 375 443.57 375 411.55"/><polygon class="cls-5" points="0.41 223.83 0.41 255.85 257.52 512.96 289.55 512.96 0.41 223.83"/><polygon class="cls-4" points="0.41 161.54 0.41 193.56 319.81 512.96 351.83 512.96 0.41 161.54"/><polygon class="cls-5" points="0.41 348.4 0.41 380.43 132.95 512.96 164.97 512.96 0.41 348.4"/><polygon class="cls-4" points="0.41 286.12 0.41 318.14 195.24 512.96 227.26 512.96 0.41 286.12"/><polygon class="cls-4" points="0.41 410.69 0.41 442.71 70.66 512.96 102.68 512.96 0.41 410.69"/><polygon class="cls-5" points="0.41 472.98 0.41 505 8.37 512.96 40.39 512.96 0.41 472.98"/></g><polygon class="cls-5" points="375 473.84 53.56 152.41 21.54 152.41 375 505.86 375 473.84"/><rect class="cls-2" x="11.89" y="163.84" width="351.22" height="337.69"/><path class="cls-6" d="M347.24,270.89c0-1.77,1.3-2.94,3.84-3.66v-4.88c-2.82-.89-4-2.11-3.89-4.1.07-1.81,1.4-3.09,3.84-3.68v-4.41a4,4,0,0,1-3.81-3.94c-.06-1.84,1.14-3,3.83-3.83V237.5c-2.67-.75-3.91-2-3.86-4s1.36-3.14,3.85-3.75v-4.17c-2.68-.82-3.86-2-3.85-3.92s1.25-3.13,3.9-3.87v-4.92a4,4,0,0,1-3.86-4c0-1.81,1.24-3,3.82-3.74v-4.58c-2-.63-3.6-1.67-3.5-4,.09-2.1,1.56-3.08,3.5-3.65v-4.71c0-.19-.38-.43-.63-.53a3.91,3.91,0,0,1-2.84-3.25,3.69,3.69,0,0,1,2.48-3.84c.32-.13.65-.24,1-.36v-5.33h-4.41a9.74,9.74,0,0,1-.31,1,3.67,3.67,0,0,1-7.12-.25c-.19-.7-.47-.85-1.13-.83-1.35.05-2.69,0-4.09,0-.1.32-.19.62-.29.91a3.84,3.84,0,0,1-3.64,2.8,3.78,3.78,0,0,1-3.54-2.92c-.19-.73-.52-.83-1.15-.81H322c-.62,2-1.67,3.55-4,3.52-1.68,0-2.9-1.22-3.64-3.52h-5c-.86,2.5-2.1,3.58-4,3.53-1.71-.05-3-1.25-3.67-3.52h-3.62c-.17,0-.4.34-.49.57a4,4,0,0,1-3.12,2.9,3.68,3.68,0,0,1-3.9-2.25c-.17-.37-.28-.77-.44-1.2h-5c-.6,2-1.61,3.49-3.86,3.46s-3.2-1.55-3.78-3.53H273v6a10,10,0,0,1,1.47.55,3.6,3.6,0,0,1,0,6.51,8.75,8.75,0,0,1-1.48.5V193a4.16,4.16,0,0,1,4.06,3.24,3.9,3.9,0,0,1-4.06,4.33v4.75a4.12,4.12,0,0,1,3.89,3.32,3.9,3.9,0,0,1-3.55,4.23H273v4a4,4,0,0,1,4.6,4.45c-.35,1.88-2.29,3.19-4.6,3.11v4.93A4,4,0,0,1,276.9,233c.06,2.06-1.54,3.67-3.91,3.93v5.28c2.15.41,3.56,1.7,3.71,3.4.19,2.12-1.33,3.83-3.71,4.17V255a4.14,4.14,0,0,1,4.07,3.29,3.89,3.89,0,0,1-4.07,4.28v4.75c2.9.15,4.81,2.64,3.88,5a4.13,4.13,0,0,1-3.88,2.51V280h4a14.63,14.63,0,0,1,.53-2.72,3.57,3.57,0,0,1,6.69,0,14.72,14.72,0,0,1,.52,2.72h4.93a14.44,14.44,0,0,1,.5-2.64,3.47,3.47,0,0,1,3.43-2.41,3.51,3.51,0,0,1,3.38,2.48,13.3,13.3,0,0,1,.43,2.56h3.87a14.45,14.45,0,0,1,.65-3,3.44,3.44,0,0,1,3.76-2,4,4,0,0,1,3.16,3.35,10.14,10.14,0,0,1,0,1.64H314a5.25,5.25,0,0,1,.76-3.27,3.57,3.57,0,0,1,6.22.09,4,4,0,0,1,.58,3.18H326a13.31,13.31,0,0,1,.63-2.85,3.48,3.48,0,0,1,3.84-1.94,4.08,4.08,0,0,1,3.11,3.49,9.25,9.25,0,0,1,0,1.29h5.1a13.43,13.43,0,0,1,.64-2.85,3.48,3.48,0,0,1,3.84-1.94,4.06,4.06,0,0,1,3.09,3.41,9.14,9.14,0,0,1,0,1.38h4.93v-5C348.91,274.48,347.19,273.46,347.24,270.89Zm-6-1.59h-58.4V185.42h58.4Z"/><path class="cls-6" d="M190.37,192.71s14.95,20.19,33.47,20.19c25.42,0,36.71-23.42,59.38-24.5s24.93,12.34,24.93,12.34"/><path class="cls-6" d="M190.37,204.72s14.95,20.19,33.47,20.19c25.42,0,36.71-23.42,59.38-24.5s24.93,12.34,24.93,12.34"/><path class="cls-6" d="M190.37,217.73s14.95,20.19,33.47,20.19c25.42,0,36.71-23.42,59.38-24.5s24.93,12.34,24.93,12.34"/><path class="cls-6" d="M190.37,230.74s14.95,20.19,33.47,20.19c25.42,0,36.71-23.42,59.38-24.5s24.93,12.34,24.93,12.34"/><circle class="cls-6" cx="140.28" cy="224.9" r="33.53"/><circle class="cls-7" cx="140.28" cy="224.9" r="29.78"/><line class="cls-6" x1="119.07" y1="213.35" x2="154.44" y2="205.61"/><line class="cls-6" x1="126.85" y1="245.65" x2="162.22" y2="237.91"/><line class="cls-6" x1="116.05" y1="230.13" x2="164.11" y2="219.49"/><line class="cls-6" x1="33.39" y1="345.86" x2="265.52" y2="345.86"/><line class="cls-6" x1="33.39" y1="400.9" x2="265.52" y2="400.9"/><line class="cls-6" x1="33.39" y1="455.95" x2="265.52" y2="455.95"/><path d="M59.25,340.9h-7l.33-16c.08-3.14.45-10.41.45-10.41s-2.11,7.27-3.1,10.41l-5,16H37.84L38.3,312h5.9l-1.53,16.24c-.33,3.56-.87,10-.87,10s1.9-7.07,2.81-10L49.78,312H57l-.45,16.24c-.08,3.1-.49,10-.49,10s1.74-7,2.48-10L62.63,312h6.08Z"/><path d="M87,316.47H78.9l-1.24,7.07h7.23l-.7,4H77l-1.57,8.8h8.26l-.78,4.5H69.23L74.31,312H88.15Z"/><path d="M114.74,340.9v-6h-6.61l-2.15,6h-5.83L112.22,312h5.87l2.27,28.93Zm-.08-18.1v-7.56s-1.45,4.71-2.44,7.56l-2.81,8h5.29Z"/><path d="M139.43,327.71c1.86,1.49,2.31,4.25,2.4,6.86l.25,6.32h-5.62l.08-6.16c0-3.14-.37-5-1.32-6l-2.19.16-2.11,12h-5.37L130.63,312h7.19c5.12,0,7.73,2.32,7.73,6.94C145.55,322.59,143.56,326.6,139.43,327.71ZM137,316.14h-1.7l-1.61,9c1.82,0,3.8-.25,4.75-1.2a7.56,7.56,0,0,0,1.69-5.08C140.13,316.8,139.43,316.14,137,316.14Z"/><path d="M166,316.47h-8l-1.24,7.07H164l-.7,4H156l-1.57,8.8h8.26l-.78,4.5H148.28L153.37,312h13.84Z"/><path d="M52.63,396H47.84l-2.19-10.17c-1-4.55-1.82-10.87-1.82-10.87s-.37,7.44-1,10.74L41.06,396H35.69l5.08-28.93h5.29l2.07,10.21c1,4.88,1.57,10.54,1.57,10.54a108.26,108.26,0,0,1,1-11.32l1.65-9.42h5.37Z"/><path d="M76.7,392.18a8.94,8.94,0,0,1-8.14,4.26c-3.51,0-7.19-1.49-7.19-8.64,0-5.37,1.65-12.89,4.3-17,2.23-3.43,4.79-4.13,8-4.13,3.63,0,7.15,1.73,7.15,8.68C80.79,380.61,79.47,388.09,76.7,392.18Zm-3.56-21.57c-1.24,0-2.27.58-3.22,2.36-1.69,3.18-3.26,10.79-3.26,14.84,0,3.55.87,4.71,2.4,4.71,1.08,0,2.15-.54,3.18-2.36,1.82-3.31,3.31-10.62,3.31-14.79C75.54,372.1,74.8,370.61,73.14,370.61Z"/><path d="M101.59,371.65H96.22L91.92,396H86.55l4.3-24.38h-6l.78-4.55H103Z"/><path d="M127.31,396v-6H120.7l-2.15,6h-5.83l12.11-28.93h5.87L132.93,396Zm-.08-18.1v-7.56s-1.45,4.71-2.44,7.56l-2.81,8h5.29Z"/><path d="M149.27,396H138.11l5.08-28.93h5.37l-4.3,24.42h6.41Z"/><path d="M170,392.18a8.94,8.94,0,0,1-8.14,4.26c-3.51,0-7.19-1.49-7.19-8.64,0-5.37,1.65-12.89,4.3-17,2.23-3.43,4.79-4.13,8-4.13,3.63,0,7.15,1.73,7.15,8.68C174.11,380.61,172.79,388.09,170,392.18Zm-3.56-21.57c-1.24,0-2.27.58-3.22,2.36-1.69,3.18-3.26,10.79-3.26,14.84,0,3.55.87,4.71,2.4,4.71,1.08,0,2.15-.54,3.18-2.36,1.82-3.31,3.31-10.62,3.31-14.79,0-3.27-.73-4.76-2.39-4.76Z"/><path d="M194.75,396H190l-2.19-10.17C186.81,381.28,186,375,186,375s-.37,7.44-1,10.74L183.18,396H177.8l5.08-28.93h5.29l2.07,10.21c1,4.88,1.57,10.54,1.57,10.54a108.26,108.26,0,0,1,1-11.32l1.65-9.42h5.37Z"/><path d="M220.76,371.6H212.7l-1.24,7.07h7.23l-.7,4h-7.23l-1.57,8.8h8.26l-.78,4.5H203L208.08,367H222Z"/><path d="M227.67,397.27a3.57,3.57,0,0,1-3.55-3.59v-.05a3.53,3.53,0,1,1,3.55,3.64ZM234,378.79c-1.86,1.78-3.55,3.51-3.26,7.32H226c-.29-5.62,2.4-7.69,4.34-9.63,1.12-1.12,2-2.19,2-3.72,0-1.32-.66-1.73-1.78-1.73a25.27,25.27,0,0,0-4.46.66l.74-4.17a18.22,18.22,0,0,1,5.58-.83c3.51,0,5.33,1.94,5.33,5.21C237.83,375,235.85,377,234,378.79Z"/></svg>