<svg id="Layer_1" data-name="Layer 1" xmlns="http://www.w3.org/2000/svg" xmlns:xlink="http://www.w3.org/1999/xlink" viewBox="0 0 375 667"><defs><style>.cls-1,.cls-7,.cls-8{fill:none;}.cls-2{clip-path:url(#clip-path);}.cls-3{fill:#e50000;}.cls-4{fill:#003aaf;}.cls-5{fill:#fffdf0;}.cls-6{clip-path:url(#clip-path-2);}.cls-7,.cls-8{stroke:#000;stroke-miterlimit:10;}.cls-7{stroke-width:0.77px;}.cls-8{stroke-width:0.68px;}</style><clipPath id="clip-path"><rect class="cls-1" x="-475" y="152.4" width="375" height="360.56"/></clipPath><clipPath id="clip-path-2"><rect class="cls-1" y="152.4" width="375" height="360.56"/></clipPath></defs><title>letter</title><g class="cls-2"><rect class="cls-3" x="-471.09" y="264.89" width="564.05" height="22.64" transform="translate(139.94 214.59) rotate(45)"/><rect class="cls-4" x="-432.16" y="241.53" width="564.05" height="22.64" transform="translate(134.82 180.22) rotate(45)"/><rect class="cls-3" x="-401.02" y="210.39" width="564.05" height="22.64" transform="translate(121.92 149.07) rotate(45)"/><rect class="cls-4" x="-369.87" y="179.24" width="564.05" height="22.64" transform="translate(109.02 117.93) rotate(45)"/><rect class="cls-3" x="-335.88" y="150.94" width="564.05" height="22.64" transform="translate(98.96 85.61) rotate(45)"/><rect class="cls-4" x="-292.72" y="131.81" width="564.05" height="22.64" transform="translate(98.08 49.49) rotate(45)"/></g><rect class="cls-5" y="152.4" width="375" height="360.56"/><g class="cls-6"><rect class="cls-3" x="-402.72" y="605.72" width="564.05" height="22.64" transform="translate(400.96 266.07) rotate(45)"/><rect class="cls-4" x="-362.32" y="583.83" width="564.05" height="22.64" transform="translate(397.32 231.09) rotate(45)"/><rect class="cls-3" x="-331.18" y="552.69" width="564.05" height="22.64" transform="translate(384.42 199.95) rotate(45)"/><rect class="cls-4" x="-300.03" y="521.55" width="564.05" height="22.64" transform="translate(371.52 168.8) rotate(45)"/><rect class="cls-3" x="-261.11" y="498.18" width="564.05" height="22.64" transform="translate(366.4 134.44) rotate(45)"/><rect class="cls-4" x="-229.96" y="467.04" width="564.05" height="22.64" transform="translate(353.5 103.29) rotate(45)"/><rect class="cls-3" x="-198.82" y="435.89" width="564.05" height="22.64" transform="translate(340.6 72.15) rotate(45)"/><rect class="cls-4" x="-164.83" y="407.6" width="564.05" height="22.64" transform="translate(330.55 39.83) rotate(45)"/><rect class="cls-3" x="-121.67" y="388.47" width="564.05" height="22.64" transform="translate(329.66 3.7) rotate(45)"/><rect class="cls-4" x="-98.78" y="349.07" width="564.05" height="22.64" transform="translate(308.5 -24.02) rotate(45)"/><rect class="cls-3" x="-58.38" y="327.18" width="564.05" height="22.64" transform="translate(304.86 -59) rotate(45)"/><rect class="cls-4" x="-27.23" y="296.04" width="564.05" height="22.64" transform="translate(291.96 -90.14) rotate(45)"/><rect class="cls-3" x="3.91" y="264.89" width="564.05" height="22.64" transform="translate(279.06 -121.29) rotate(45)"/><rect class="cls-4" x="42.84" y="241.53" width="564.05" height="22.64" transform="translate(273.94 -155.66) rotate(45)"/><rect class="cls-3" x="73.98" y="210.39" width="564.05" height="22.64" transform="translate(261.04 -186.8) rotate(45)"/><rect class="cls-4" x="105.13" y="179.24" width="564.05" height="22.64" transform="translate(248.14 -217.95) rotate(45)"/><rect class="cls-3" x="139.12" y="150.94" width="564.05" height="22.64" transform="translate(238.09 -250.27) rotate(45)"/><rect class="cls-4" x="182.28" y="131.81" width="564.05" height="22.64" transform="translate(237.2 -286.39) rotate(45)"/></g><rect class="cls-5" x="11.89" y="163.84" width="351.22" height="337.69"/><path class="cls-7" d="M347.24,270.89c0-1.77,1.3-2.94,3.84-3.66,0-.22,0-.45,0-.69,0-1.4,0-2.81,0-4.19-2.82-.89-4-2.11-3.89-4.1.07-1.81,1.4-3.09,3.84-3.68v-4.41a4,4,0,0,1-3.81-3.94c-.06-1.84,1.14-3,3.83-3.83v-4.89c-2.67-.75-3.91-2-3.86-4s1.36-3.14,3.85-3.75v-4.17c-2.68-.82-3.86-2-3.85-3.92s1.25-3.13,3.9-3.87v-4.92a4,4,0,0,1-3.86-4c0-1.81,1.24-3,3.82-3.74,0-.13,0-.28,0-.42,0-1.38,0-2.75,0-4.16-2-.63-3.6-1.67-3.5-4,.09-2.1,1.56-3.08,3.5-3.65,0-1.57,0-3.14,0-4.71,0-.19-.38-.43-.63-.53a3.91,3.91,0,0,1-2.84-3.25,3.69,3.69,0,0,1,2.48-3.84c.32-.13.65-.24,1-.36v-5.33h-4.41c-.1.35-.18.68-.31,1a3.67,3.67,0,0,1-7.12-.25c-.19-.7-.47-.85-1.13-.83-1.35.05-2.69,0-4.09,0-.1.32-.19.62-.29.91a3.84,3.84,0,0,1-3.64,2.8,3.78,3.78,0,0,1-3.54-2.92c-.19-.73-.52-.83-1.15-.81-1.11,0-2.22,0-3.36,0-.62,2-1.67,3.55-4,3.52-1.68,0-2.9-1.22-3.64-3.52h-5c-.86,2.5-2.1,3.58-4,3.53-1.71-.05-3-1.25-3.67-3.52-1.18,0-2.4,0-3.62,0-.17,0-.4.34-.49.57a4,4,0,0,1-3.12,2.9,3.68,3.68,0,0,1-3.9-2.25c-.17-.37-.28-.77-.44-1.2h-5.05c-.6,2-1.61,3.49-3.86,3.46s-3.2-1.55-3.78-3.53H273v6a10,10,0,0,1,1.47.55,3.6,3.6,0,0,1,0,6.51,8.75,8.75,0,0,1-1.48.5V193a4.16,4.16,0,0,1,4.06,3.24,3.9,3.9,0,0,1-4.06,4.33v4.75a4.12,4.12,0,0,1,3.89,3.32,3.9,3.9,0,0,1-3.89,4.24v4a4,4,0,0,1,4.6,4.45c-.35,1.88-2.29,3.19-4.6,3.11v4.93a4,4,0,0,1,3.91,3.63c.06,2.06-1.54,3.67-3.91,3.93v5.28c2.15.41,3.56,1.7,3.71,3.4.19,2.12-1.33,3.83-3.71,4.17V255a4.14,4.14,0,0,1,4.07,3.29,3.89,3.89,0,0,1-4.07,4.28v4.75c2.9.15,4.81,2.64,3.88,5.05a4.13,4.13,0,0,1-3.88,2.51V280h4a14.63,14.63,0,0,1,.53-2.72,3.57,3.57,0,0,1,6.69,0,14.72,14.72,0,0,1,.52,2.72h4.93a14.44,14.44,0,0,1,.5-2.64,3.47,3.47,0,0,1,3.43-2.41,3.51,3.51,0,0,1,3.38,2.48,13.3,13.3,0,0,1,.43,2.56h3.87a14.45,14.45,0,0,1,.65-3,3.44,3.44,0,0,1,3.76-2,4,4,0,0,1,3.16,3.35,10.14,10.14,0,0,1,0,1.64H314a5.25,5.25,0,0,1,.76-3.27,3.57,3.57,0,0,1,6.22.09,4,4,0,0,1,.58,3.18H326a13.31,13.31,0,0,1,.63-2.85,3.48,3.48,0,0,1,3.84-1.94,4.08,4.08,0,0,1,3.11,3.49,9.25,9.25,0,0,1,0,1.29h5.1a13.43,13.43,0,0,1,.64-2.85,3.48,3.48,0,0,1,3.84-1.94,4.06,4.06,0,0,1,3.09,3.41,9.14,9.14,0,0,1,0,1.38h4.93v-5C348.91,274.48,347.19,273.46,347.24,270.89Zm-6-1.59h-58.4V185.42h58.4Z"/><path class="cls-7" d="M190.37,192.71s14.95,20.19,33.47,20.19c25.42,0,36.71-23.42,59.38-24.5s24.93,12.34,24.93,12.34"/><path class="cls-7" d="M190.37,204.72s14.95,20.19,33.47,20.19c25.42,0,36.71-23.42,59.38-24.5s24.93,12.34,24.93,12.34"/><path class="cls-7" d="M190.37,217.73s14.95,20.19,33.47,20.19c25.42,0,36.71-23.42,59.38-24.5s24.93,12.34,24.93,12.34"/><path class="cls-7" d="M190.37,230.74s14.95,20.19,33.47,20.19c25.42,0,36.71-23.42,59.38-24.5s24.93,12.34,24.93,12.34"/><circle class="cls-7" cx="140.28" cy="224.9" r="33.53" transform="translate(-117.94 165.07) rotate(-45)"/><circle class="cls-8" cx="140.28" cy="224.9" r="29.78" transform="translate(-117.94 165.07) rotate(-45)"/><line class="cls-7" x1="163.45" y1="218.08" x2="143.92" y2="248.56"/><line class="cls-7" x1="135.1" y1="200.74" x2="115.57" y2="231.21"/><line class="cls-7" x1="153.72" y1="204.08" x2="127.26" y2="245.58"/><line class="cls-7" x1="33.39" y1="345.86" x2="265.52" y2="345.86"/><line class="cls-7" x1="33.39" y1="400.9" x2="265.52" y2="400.9"/><line class="cls-7" x1="33.39" y1="455.95" x2="265.52" y2="455.95"/><path d="M51.89,329c-2.07,2-5.13,2.89-8.93,2.89l-1.57,9H36L41.1,312h6.49c5.79,0,7.85,2.73,7.85,7.27C55.44,322.8,54.49,326.51,51.89,329ZM47,316H45.77l-2.15,12.23A6.58,6.58,0,0,0,48,326.47C49.28,325,50,321.8,50,319.24S49.11,316,47,316Z"/><path d="M72,327.71c1.86,1.49,2.31,4.26,2.4,6.86l.25,6.32H69l.09-6.16c0-3.14-.38-5-1.33-6l-2.19.16-2.11,12H58.13L63.22,312h7.19c5.13,0,7.73,2.32,7.73,6.94C78.14,322.59,76.16,326.6,72,327.71Zm-2.48-11.57H67.88l-1.61,9.05c1.82,0,3.8-.25,4.75-1.2a7.55,7.55,0,0,0,1.7-5.08C72.72,316.8,72,316.14,69.54,316.14Z"/><path d="M96.67,337.05a8.94,8.94,0,0,1-8.14,4.26c-3.51,0-7.19-1.49-7.19-8.64,0-5.37,1.66-12.89,4.3-17,2.23-3.43,4.79-4.13,8-4.13,3.63,0,7.15,1.73,7.15,8.68C100.76,325.48,99.44,333,96.67,337.05Zm-3.56-21.57c-1.24,0-2.27.58-3.22,2.36-1.69,3.18-3.26,10.79-3.26,14.84,0,3.55.87,4.71,2.4,4.71,1.07,0,2.15-.54,3.18-2.36,1.82-3.31,3.31-10.62,3.31-14.79C95.51,317,94.77,315.48,93.11,315.48Z"/><path d="M121.44,317.22a8.43,8.43,0,0,0-4.18-1.36c-4.83,0-6.74,12.61-6.74,15.83,0,4.21.87,5.25,2.48,5.25s5.21-1.45,5.21-1.45l-.83,4.71a15.1,15.1,0,0,1-5.46,1.12c-3.47,0-6.82-1.45-6.82-9,0-5.41,1.74-12.44,4.21-16.28a9.06,9.06,0,0,1,8.27-4.5,7.48,7.48,0,0,1,4.58,1.49Z"/><path d="M141,316.47h-8.06l-1.25,7.07h7.24l-.7,4H131l-1.57,8.8h8.26l-.79,4.5H123.27L128.35,312h13.84Z"/><path d="M159.07,317.26a10.35,10.35,0,0,0-4.58-1.4c-2.4,0-3.64,1.49-3.64,3.89a5.83,5.83,0,0,0,2,3.84l1.66,1.78a10,10,0,0,1,3.06,7.28c0,6.07-3.3,8.68-8.63,8.68a17.12,17.12,0,0,1-6.66-1.45l.79-4.46a20.15,20.15,0,0,0,5.41,1.45c2.32,0,3.59-1.24,3.59-4.13,0-1.57-.91-2.81-2.07-4l-1.53-1.61a9.89,9.89,0,0,1-3-6.9c0-6,3.47-8.6,9-8.6a9.89,9.89,0,0,1,5.42,1.49Z"/><path d="M177.68,317.26a10.36,10.36,0,0,0-4.59-1.4c-2.4,0-3.63,1.49-3.63,3.89a5.85,5.85,0,0,0,2,3.84l1.66,1.78a9.93,9.93,0,0,1,3.06,7.28c0,6.07-3.3,8.68-8.63,8.68a17.17,17.17,0,0,1-6.66-1.45l.79-4.46a20.14,20.14,0,0,0,5.42,1.45c2.31,0,3.59-1.24,3.59-4.13,0-1.57-.91-2.81-2.07-4l-1.53-1.61a9.9,9.9,0,0,1-3-6.9c0-6,3.47-8.6,9-8.6a9.88,9.88,0,0,1,5.41,1.49Z"/></svg>