<?xml version="1.0" encoding="UTF-8" standalone="no"?>
<svg width="375px" height="361px" viewBox="0 0 375 361" version="1.1" xmlns="http://www.w3.org/2000/svg" xmlns:xlink="http://www.w3.org/1999/xlink">
    <!-- Generator: Sketch 41.2 (35397) - http://www.bohemiancoding.com/sketch -->
    <title>Page 1</title>
    <desc>Created with Sketch.</desc>
    <defs></defs>
    <g id="Page-1" stroke="none" stroke-width="1" fill="none" fill-rule="evenodd">
        <g id="Artboard" transform="translate(0.000000, -152.000000)">
            <g id="Page-1">
                <polygon id="Fill-1" fill="#FFFDF0" points="0 512.96 375 512.96 375 152.4 0 152.4"></polygon>
                <polygon id="Fill-2" fill="#003AAF" points="332.9901 152.4106 375.0001 194.4196 375.0001 162.3996 365.0091 152.4106"></polygon>
                <polygon id="Fill-3" fill="#003AAF" points="208.4103 152.4106 375.0003 318.9996 375.0003 286.9806 240.4293 152.4106"></polygon>
                <polygon id="Fill-4" fill="#E50000" points="270.7002 152.4106 375.0002 256.7096 375.0002 224.6896 302.7192 152.4106"></polygon>
                <polygon id="Fill-5" fill="#E50000" points="146.1204 152.4106 375.0004 381.2806 375.0004 349.2596 178.1394 152.4106"></polygon>
                <polygon id="Fill-6" fill="#003AAF" points="83.8305 152.4106 375.0005 443.5706 375.0005 411.5496 115.8495 152.4106"></polygon>
                <polygon id="Fill-7" fill="#E50000" points="0.4104 255.8503 257.5194 512.9593 289.5494 512.9593 0.4104 223.8303"></polygon>
                <polygon id="Fill-8" fill="#003AAF" points="0.4104 193.5604 319.8094 512.9594 351.8294 512.9594 0.4104 161.5404"></polygon>
                <polygon id="Fill-9" fill="#E50000" points="0.4104 380.4301 132.9494 512.9591 164.9704 512.9591 0.4104 348.4001"></polygon>
                <polygon id="Fill-10" fill="#003AAF" points="0.4104 318.1402 195.2404 512.9592 227.2604 512.9592 0.4104 286.1202"></polygon>
                <polygon id="Fill-11" fill="#003AAF" points="0.4104 442.7101 70.6594 512.9601 102.6804 512.9601 0.4104 410.6911"></polygon>
                <polygon id="Fill-12" fill="#E50000" points="0.4104 505 8.3704 512.96 40.3904 512.96 0.4104 472.981"></polygon>
                <polygon id="Fill-13" fill="#E50000" points="21.5397 152.4106 375.0007 505.8606 375.0007 473.8406 53.5597 152.4106"></polygon>
                <polygon id="Fill-14" fill="#FFFDF0" points="11.89 501.53 363.11 501.53 363.11 163.84 11.89 163.84"></polygon>
                <g id="Group-45" transform="translate(33.000000, 174.000000)">
                    <path d="M249.84,95.3 L308.24,95.3 L308.24,11.42 L249.84,11.42 L249.84,95.3 Z M314.24,96.89 C314.24,95.12 315.54,93.95 318.08,93.23 L318.08,92.54 L318.08,88.35 C315.26,87.46 314.08,86.24 314.19,84.25 C314.26,82.44 315.59,81.16 318.03,80.57 L318.03,76.16 C315.918,76.06 314.249,74.334 314.22,72.22 C314.16,70.38 315.36,69.22 318.05,68.39 L318.05,63.5 C315.38,62.75 314.14,61.5 314.19,59.5 C314.24,57.5 315.55,56.36 318.04,55.75 L318.04,51.58 C315.36,50.76 314.18,49.58 314.19,47.66 C314.2,45.74 315.44,44.53 318.09,43.79 L318.09,38.87 C315.936,38.794 314.229,37.025 314.23,34.87 C314.23,33.06 315.47,31.87 318.05,31.13 L318.05,30.71 L318.05,26.55 C316.05,25.92 314.45,24.88 314.55,22.55 C314.64,20.45 316.11,19.47 318.05,18.9 L318.05,14.19 C318.05,14 317.67,13.76 317.42,13.66 C315.907,13.245 314.789,11.965 314.58,10.41 C314.419,8.71 315.444,7.122 317.06,6.57 C317.38,6.44 317.71,6.33 318.06,6.21 L318.06,0.88 L313.65,0.88 C313.55,1.23 313.47,1.56 313.34,1.88 C312.783,3.829 310.753,4.958 308.804,4.401 C307.495,4.028 306.501,2.961 306.22,1.63 C306.03,0.93 305.75,0.78 305.09,0.8 C303.74,0.85 302.4,0.8 301,0.8 C300.9,1.12 300.81,1.42 300.71,1.71 C300.25,3.346 298.77,4.485 297.07,4.51 C295.366,4.446 293.917,3.25 293.53,1.59 C293.34,0.86 293.01,0.76 292.38,0.78 L289.02,0.78 C288.4,2.78 287.35,4.33 285.02,4.3 C283.34,4.3 282.12,3.08 281.38,0.78 L276.38,0.78 C275.52,3.28 274.28,4.36 272.38,4.31 C270.67,4.26 269.38,3.06 268.71,0.79 L265.09,0.79 C264.92,0.79 264.69,1.13 264.6,1.36 C264.204,2.846 262.991,3.974 261.48,4.26 C259.819,4.485 258.216,3.561 257.58,2.01 C257.41,1.64 257.3,1.24 257.14,0.81 L252.09,0.81 C251.49,2.81 250.48,4.3 248.23,4.27 C245.98,4.24 245.03,2.72 244.45,0.74 L240,0.74 L240,6.74 C240.504,6.885 240.995,7.068 241.47,7.29 C243.268,8.139 244.036,10.285 243.187,12.083 C242.831,12.837 242.224,13.444 241.47,13.8 C240.992,14.01 240.497,14.178 239.99,14.3 L239.99,19 C241.935,18.999 243.62,20.344 244.05,22.24 C244.29,24.38 242.749,26.31 240.608,26.55 C240.403,26.573 240.196,26.58 239.99,26.57 L239.99,31.32 C241.899,31.391 243.51,32.765 243.88,34.64 C244.067,36.786 242.48,38.677 240.335,38.865 C240.22,38.875 240.105,38.88 239.99,38.88 L239.99,42.88 C242.172,42.531 244.223,44.017 244.571,46.198 C244.631,46.573 244.638,46.954 244.59,47.33 C244.24,49.21 242.3,50.52 239.99,50.44 L239.99,55.37 C242.027,55.407 243.712,56.971 243.9,59 C243.96,61.06 242.36,62.67 239.99,62.93 L239.99,68.21 C242.14,68.62 243.55,69.91 243.7,71.61 C243.89,73.73 242.37,75.44 239.99,75.78 L239.99,81 C241.956,80.991 243.656,82.366 244.06,84.29 C244.278,86.427 242.723,88.337 240.585,88.555 C240.388,88.575 240.188,88.58 239.99,88.57 L239.99,93.32 C242.89,93.47 244.8,95.96 243.87,98.37 C243.21,99.919 241.674,100.913 239.99,100.88 L239.99,106 L243.99,106 C244.08,105.079 244.258,104.168 244.52,103.28 C245.209,101.433 247.265,100.494 249.112,101.182 C250.083,101.544 250.848,102.31 251.21,103.28 C251.469,104.168 251.643,105.079 251.73,106 L256.66,106 C256.744,105.106 256.912,104.223 257.16,103.36 C257.634,101.879 259.036,100.894 260.59,100.95 C262.141,100.939 263.515,101.947 263.97,103.43 C264.196,104.267 264.341,105.125 264.4,105.99 L268.27,105.99 C268.38,104.97 268.598,103.964 268.92,102.99 C269.561,101.534 271.115,100.708 272.68,100.99 C274.335,101.328 275.6,102.668 275.84,104.34 C275.884,104.886 275.884,105.434 275.84,105.98 L281,105.98 C280.889,104.836 281.155,103.688 281.76,102.71 C282.753,101.006 284.938,100.43 286.642,101.422 C287.205,101.751 287.668,102.227 287.98,102.8 C288.612,103.731 288.822,104.886 288.56,105.98 L293,105.98 C293.104,105.01 293.316,104.054 293.63,103.13 C294.309,101.675 295.896,100.873 297.47,101.19 C299.137,101.585 300.379,102.979 300.58,104.68 C300.61,105.109 300.61,105.541 300.58,105.97 L305.68,105.97 C305.789,105 306.004,104.044 306.32,103.12 C306.999,101.665 308.586,100.863 310.16,101.18 C311.797,101.567 313.025,102.923 313.25,104.59 C313.285,105.049 313.285,105.511 313.25,105.97 L318.18,105.97 L318.18,100.97 C315.91,100.48 314.19,99.46 314.24,96.89 Z" id="Stroke-15" stroke="#000000" stroke-width="0.77"></path>
                    <path d="M157.3701,18.71 C157.3701,18.71 172.3201,38.9 190.8401,38.9 C216.2601,38.9 227.5501,15.48 250.2201,14.4 C272.8901,13.32 275.1501,26.74 275.1501,26.74" id="Stroke-17" stroke="#000000" stroke-width="0.77"></path>
                    <path d="M157.3701,30.7202 C157.3701,30.7202 172.3201,50.9102 190.8401,50.9102 C216.2601,50.9102 227.5501,27.4902 250.2201,26.4102 C272.8901,25.3302 275.1501,38.7502 275.1501,38.7502" id="Stroke-18" stroke="#000000" stroke-width="0.77"></path>
                    <path d="M157.3701,43.73 C157.3701,43.73 172.3201,63.92 190.8401,63.92 C216.2601,63.92 227.5501,40.5 250.2201,39.42 C272.8901,38.34 275.1501,51.76 275.1501,51.76" id="Stroke-19" stroke="#000000" stroke-width="0.77"></path>
                    <path d="M157.3701,56.7402 C157.3701,56.7402 172.3201,76.9302 190.8401,76.9302 C216.2601,76.9302 227.5501,53.5102 250.2201,52.4302 C272.8901,51.3502 275.1501,64.7702 275.1501,64.7702" id="Stroke-20" stroke="#000000" stroke-width="0.77"></path>
                    <path d="M107.2798,17.3701 C125.7988,17.3701 140.8098,32.3821 140.8098,50.9001 C140.8098,69.4181 125.7988,84.4301 107.2798,84.4301 C88.7618,84.4301 73.7498,69.4181 73.7498,50.9001 C73.7498,32.3821 88.7618,17.3701 107.2798,17.3701 Z" id="Stroke-21" stroke="#000000" stroke-width="0.77"></path>
                    <path d="M107.2798,21.1201 C123.7268,21.1201 137.0598,34.4531 137.0598,50.9001 C137.0598,67.3471 123.7268,80.6801 107.2798,80.6801 C90.8328,80.6801 77.4998,67.3471 77.4998,50.9001 C77.4998,34.4531 90.8328,21.1201 107.2798,21.1201 Z" id="Stroke-22" stroke="#000000" stroke-width="0.68"></path>
                    <path d="M86.0698,39.3501 L121.4398,31.6101" id="Stroke-23" stroke="#000000" stroke-width="0.77"></path>
                    <path d="M93.8501,71.6499 L129.2201,63.9099" id="Stroke-24" stroke="#000000" stroke-width="0.77"></path>
                    <path d="M83.0498,56.1299 L131.1098,45.4899" id="Stroke-25" stroke="#000000" stroke-width="0.77"></path>
                    <path d="M0.3901,171.8604 L232.5191,171.8604" id="Stroke-26" stroke="#000000" stroke-width="0.77"></path>
                    <path d="M0.3901,226.9004 L232.5191,226.9004" id="Stroke-27" stroke="#000000" stroke-width="0.77"></path>
                    <path d="M0.3901,281.9502 L232.5191,281.9502" id="Stroke-28" stroke="#000000" stroke-width="0.77"></path>
                    <path d="M26.25,166.9004 L19.25,166.9004 L19.58,150.9004 C19.66,147.7594 20.03,140.4904 20.03,140.4904 C20.03,140.4904 17.92,147.7594 16.93,150.9004 L11.93,166.9004 L4.84,166.9004 L5.3,138.0004 L11.2,138.0004 L9.67,154.2404 C9.34,157.7994 8.8,164.2404 8.8,164.2404 C8.8,164.2404 10.7,157.1704 11.61,154.2404 L16.78,138.0004 L24,138.0004 L23.55,154.2404 C23.47,157.3394 23.06,164.2404 23.06,164.2404 C23.06,164.2404 24.8,157.2404 25.54,154.2404 L29.63,138.0004 L35.71,138.0004 L26.25,166.9004 Z" id="Fill-29" fill="#000000"></path>
                    <polygon id="Fill-30" fill="#000000" points="54 142.4702 45.9 142.4702 44.66 149.5402 51.89 149.5402 51.19 153.5402 44 153.5402 42.43 162.3402 50.69 162.3402 49.91 166.8402 36.23 166.8402 41.31 138.0002 55.15 138.0002"></polygon>
                    <path d="M81.6602,148.7998 L81.6602,141.2398 C81.6602,141.2398 80.2102,145.9498 79.2202,148.7998 L76.4102,156.7998 L81.7002,156.7998 L81.6602,148.7998 Z M81.7402,166.9008 L81.7402,160.9008 L75.1302,160.9008 L72.9802,166.9008 L67.1502,166.9008 L79.2202,137.9998 L85.0902,137.9998 L87.3602,166.9298 L81.7402,166.9008 Z" id="Fill-31" fill="#000000"></path>
                    <path d="M104,142.1401 L102.3,142.1401 L100.69,151.1401 C102.51,151.1401 104.49,150.8901 105.44,149.9401 C106.604,148.5091 107.205,146.7021 107.13,144.8601 C107.13,142.8001 106.43,142.1401 104,142.1401 M106.43,153.7101 C108.29,155.2001 108.74,157.9601 108.83,160.5701 L109.08,166.8901 L103.46,166.8901 L103.54,160.7301 C103.54,157.5901 103.17,155.7301 102.22,154.7301 L100.03,154.8901 L97.92,166.8901 L92.55,166.8901 L97.63,138.0001 L104.82,138.0001 C109.94,138.0001 112.55,140.3201 112.55,144.9401 C112.55,148.5901 110.56,152.6001 106.43,153.7101" id="Fill-32" fill="#000000"></path>
                    <polygon id="Fill-33" fill="#000000" points="133 142.4702 125 142.4702 123.76 149.5402 130.99 149.5402 130.29 153.5402 123 153.5402 121.43 162.3402 129.69 162.3402 128.91 166.8402 115.28 166.8402 120.37 138.0002 134.21 138.0002"></polygon>
                    <path d="M19.6299,222 L14.8399,222 L12.6499,211.83 C11.6499,207.28 10.8299,200.96 10.8299,200.96 C10.8299,200.96 10.4599,208.4 9.8299,211.7 L8.0599,222 L2.6899,222 L7.7699,193.07 L13.0599,193.07 L15.1299,203.28 C16.1299,208.16 16.6999,213.82 16.6999,213.82 C16.8349,210.032 17.1689,206.253 17.6999,202.5 L19.3499,193.08 L24.7199,193.08 L19.6299,222 Z" id="Fill-34" fill="#000000"></path>
                    <path d="M40.1401,196.6104 C38.9001,196.6104 37.8701,197.1904 36.9201,198.9694 C35.2301,202.1504 33.6601,209.7594 33.6601,213.8094 C33.6601,217.3604 34.5301,218.5194 36.0601,218.5194 C37.1401,218.5194 38.2101,217.9794 39.2401,216.1604 C41.0601,212.8494 42.5501,205.5404 42.5501,201.3704 C42.5401,198.0994 41.8001,196.6104 40.1401,196.6104 M43.7001,218.1794 C41.9791,220.9924 38.8511,222.6304 35.5601,222.4404 C32.0501,222.4404 28.3701,220.9504 28.3701,213.7994 C28.3701,208.4294 30.0201,200.9104 32.6701,196.7994 C34.9001,193.3704 37.4601,192.6704 40.6701,192.6704 C44.3001,192.6704 47.8201,194.4004 47.8201,201.3494 C47.7901,206.6104 46.4701,214.0894 43.7001,218.1794" id="Fill-35" fill="#000000"></path>
                    <polygon id="Fill-36" fill="#000000" points="68.5898 197.6504 63.2198 197.6504 58.9198 222.0004 53.5498 222.0004 57.8498 197.6204 51.8498 197.6204 52.6298 193.0704 69.9998 193.0704"></polygon>
                    <path d="M94.23,203.9004 L94.23,196.3394 C94.23,196.3394 92.78,201.0494 91.79,203.9004 L88.98,211.9004 L94.27,211.9004 L94.23,203.9004 Z M94.31,222.0004 L94.31,216.0004 L87.7,216.0004 L85.55,222.0004 L79.72,222.0004 L91.83,193.0704 L97.7,193.0704 L99.93,222.0004 L94.31,222.0004 Z" id="Fill-37" fill="#000000"></path>
                    <polygon id="Fill-38" fill="#000000" points="116.27 222 105.11 222 110.19 193.07 115.56 193.07 111.26 217.49 117.67 217.49"></polygon>
                    <path d="M133.4399,196.6104 C132.1999,196.6104 131.1699,197.1904 130.2199,198.9694 C128.5299,202.1504 126.9599,209.7594 126.9599,213.8094 C126.9599,217.3604 127.8299,218.5194 129.3599,218.5194 C130.4399,218.5194 131.5099,217.9794 132.5399,216.1604 C134.3599,212.8494 135.8499,205.5404 135.8499,201.3704 C135.8599,198.0994 135.1199,196.6104 133.4599,196.6104 L133.4399,196.6104 Z M136.9999,218.1794 C135.2799,220.9924 132.1509,222.6304 128.8599,222.4404 C125.3499,222.4404 121.6699,220.9504 121.6699,213.7994 C121.6699,208.4294 123.3199,200.9104 125.9699,196.7994 C128.1999,193.3704 130.7599,192.6704 133.9699,192.6704 C137.5999,192.6704 141.1199,194.4004 141.1199,201.3494 C141.1099,206.6104 139.7899,214.0894 136.9999,218.1794 L136.9999,218.1794 Z" id="Fill-39" fill="#000000"></path>
                    <path d="M161.75,222 L157,222 L154.81,211.83 C153.81,207.28 152.99,200.96 152.99,200.96 C152.99,200.96 152.62,208.4 151.99,211.7 L150.18,222 L144.8,222 L149.88,193.07 L155.17,193.07 L157.24,203.28 C158.24,208.16 158.81,213.82 158.81,213.82 C158.945,210.032 159.278,206.253 159.81,202.5 L161.46,193.08 L166.83,193.08 L161.75,222 Z" id="Fill-40" fill="#000000"></path>
                    <polygon id="Fill-41" fill="#000000" points="187.7598 197.5996 179.6998 197.5996 178.4598 204.6696 185.6908 204.6696 184.9898 208.6696 177.7598 208.6696 176.1908 217.4696 184.4498 217.4696 183.6698 221.9696 169.9998 221.9696 175.0798 193.0396 188.9998 193.0396"></polygon>
                    <path d="M201,204.79 C199.14,206.57 197.45,208.3 197.74,212.11 L193.03,212.11 C192.74,206.49 195.43,204.42 197.37,202.48 C198.49,201.36 199.37,200.29 199.37,198.76 C199.37,197.44 198.71,197.03 197.59,197.03 C196.087,197.116 194.594,197.338 193.13,197.69 L193.87,193.519 C195.676,192.955 197.559,192.676 199.45,192.69 C202.96,192.69 204.78,194.63 204.78,197.9 C204.83,201 202.85,203 201,204.79 M194.67,223.269 C192.698,223.26 191.108,221.652 191.119,219.681 C191.119,219.664 191.12,219.646 191.12,219.63 C191.181,217.682 192.81,216.151 194.759,216.212 C196.707,216.272 198.237,217.901 198.177,219.851 C198.117,221.747 196.568,223.258 194.67,223.269" id="Fill-42" fill="#000000"></path>
                </g>
                <rect id="Rectangle-7" x="0" y="0" width="376" height="667"></rect>
            </g>
        </g>
    </g>
</svg>