<svg id="Layer_1" data-name="Layer 1" xmlns="http://www.w3.org/2000/svg" xmlns:xlink="http://www.w3.org/1999/xlink" viewBox="0 0 375 667"><defs><style>.cls-1{fill:none;}.cls-2{fill:#dae8ef;}.cls-3{clip-path:url(#clip-path);}.cls-4{fill:#e50000;}.cls-5{fill:#003aaf;}</style><clipPath id="clip-path"><rect class="cls-1" x="475" y="152.4" width="375" height="360.56"/></clipPath></defs><title>mailboxlid-02</title><path class="cls-2" d="M188.21,566.3h0C84.65,566.3.71,617.4.71,655.15V667h375V655.15C375.71,617.4,291.76,566.3,188.21,566.3Z"/><ellipse cx="188.21" cy="623.95" rx="24.47" ry="8.92"/><g class="cls-3"><rect class="cls-4" x="72.28" y="605.72" width="564.05" height="22.64" transform="translate(540.09 -69.8) rotate(45)"/><rect class="cls-5" x="112.68" y="583.83" width="564.05" height="22.64" transform="translate(536.45 -104.78) rotate(45)"/><rect class="cls-4" x="143.82" y="552.69" width="564.05" height="22.64" transform="translate(523.54 -135.93) rotate(45)"/><rect class="cls-5" x="174.97" y="521.55" width="564.05" height="22.64" transform="translate(510.64 -167.07) rotate(45)"/><rect class="cls-4" x="213.89" y="498.18" width="564.05" height="22.64" transform="translate(505.53 -201.44) rotate(45)"/><rect class="cls-5" x="245.04" y="467.04" width="564.05" height="22.64" transform="translate(492.63 -232.58) rotate(45)"/><rect class="cls-4" x="276.18" y="435.89" width="564.05" height="22.64" transform="translate(479.73 -263.73) rotate(45)"/></g></svg>