<svg id="Layer_1" data-name="Layer 1" xmlns="http://www.w3.org/2000/svg" viewBox="0 0 375 667"><defs><style>.cls-bg{fill:#6ec4ff;}.cls-2{fill:#fff;}.cls-3{fill:#f40000;}.cls-4{fill:#bac9d3;}.cls-5{fill:#45454c;}</style></defs><title>mailboxbg</title><rect class="cls-bg" width="375" height="667"/><rect class="cls-2" x="243.39" y="143.39" width="214.62" height="68.84" rx="34.42" ry="34.42"/><rect class="cls-2" x="182.32" y="117.67" width="214.62" height="48.93" rx="24.46" ry="24.46"/><rect class="cls-2" x="-66.97" y="283.76" width="133.95" height="48.93" rx="24.46" ry="24.46"/><rect class="cls-2" x="-65.26" y="308.22" width="200.27" height="68.84" rx="34.42" ry="34.42"/><rect class="cls-2" x="68.04" y="356.39" width="133.95" height="41.35" rx="20.67" ry="20.67"/><rect class="cls-2" x="-33.49" y="-9.37" width="133.95" height="43.21" rx="21.61" ry="21.61"/><rect class="cls-2" x="33.49" y="12.24" width="133.95" height="32.23" rx="16.12" ry="16.12"/><rect class="cls-3" y="207.81" width="22.42" height="459.19"/><path class="cls-4" d="M187.5,333.5h0A187.5,187.5,0,0,1,375,521V667a0,0,0,0,1,0,0H0a0,0,0,0,1,0,0V521A187.5,187.5,0,0,1,187.5,333.5Z"/><path class="cls-5" d="M187.5,351.36h0A174.63,174.63,0,0,1,362.13,526V667a0,0,0,0,1,0,0H12.87a0,0,0,0,1,0,0V526A174.63,174.63,0,0,1,187.5,351.36Z"/><rect class="cls-3" x="8.41" y="207.81" width="42.47" height="60.07"/></svg>