<svg id="Layer_1" data-name="Layer 1" xmlns="http://www.w3.org/2000/svg" xmlns:xlink="http://www.w3.org/1999/xlink" viewBox="0 0 375 118.77"><defs><style>.cls-1{fill:none;}.cls-2{clip-path:url(#clip-path);}.cls-3{fill:#e50000;}.cls-4{fill:#003aaf;}.cls-5{fill:#fffab6;}.cls-6{fill:#f7ebba;opacity:0.7;}</style><clipPath id="clip-path"><rect class="cls-1" x="-475" y="152.4" width="375" height="360.56"/></clipPath></defs><title>moon</title><g class="cls-2"><rect class="cls-3" x="-471.09" y="264.89" width="564.05" height="22.64" transform="translate(139.94 214.59) rotate(45)"/><rect class="cls-4" x="-432.16" y="241.53" width="564.05" height="22.64" transform="translate(134.82 180.22) rotate(45)"/><rect class="cls-3" x="-401.02" y="210.39" width="564.05" height="22.64" transform="translate(121.92 149.07) rotate(45)"/><rect class="cls-4" x="-369.87" y="179.24" width="564.05" height="22.64" transform="translate(109.02 117.93) rotate(45)"/><rect class="cls-3" x="-335.88" y="150.94" width="564.05" height="22.64" transform="translate(98.96 85.61) rotate(45)"/><rect class="cls-4" x="-292.72" y="131.81" width="564.05" height="22.64" transform="translate(98.08 49.49) rotate(45)"/></g><circle class="cls-5" cx="315.24" cy="59.13" r="46.89"/><circle class="cls-6" cx="292.12" cy="84.22" r="10.28"/><circle class="cls-6" cx="333.83" cy="45.87" r="13.26"/><circle class="cls-6" cx="355.87" cy="59.13" r="3.94"/><circle class="cls-6" cx="300.9" cy="31.55" r="3.94"/><circle class="cls-6" cx="350.5" cy="68.14" r="7.73"/><circle class="cls-6" cx="324.55" cy="92.14" r="11.32"/><circle class="cls-6" cx="311.95" cy="68.14" r="3.94"/><circle class="cls-6" cx="320.57" cy="22.31" r="7.73"/><circle class="cls-6" cx="338.95" cy="24.8" r="2.49"/><circle class="cls-6" cx="341.43" cy="26.73" r="1.89"/><circle class="cls-6" cx="274.65" cy="64.96" r="1.89"/><circle class="cls-6" cx="285.02" cy="47.54" r="8.59"/><circle class="cls-6" cx="296.96" cy="24.2" r="1.89"/></svg>