<svg id="Layer_1" data-name="Layer 1" xmlns="http://www.w3.org/2000/svg" xmlns:xlink="http://www.w3.org/1999/xlink" viewBox="0 0 375 667"><defs><style>.cls-1{fill:#ffaf10;}.cls-2{fill:#ffec03;opacity:0.71;}.cls-3{fill:#757575;}.cls-4{fill:#e9f4ff;}.cls-5{fill:#f40000;}.cls-6{fill:url(#linear-gradient);}.cls-7,.cls-8{fill:none;stroke:#000;}.cls-7{stroke-width:0.25px;}.cls-8{stroke-width:0.4px;}</style><linearGradient id="linear-gradient" x1="207.04" y1="228.61" x2="169.38" y2="190.95" gradientUnits="userSpaceOnUse"><stop offset="0" stop-color="#39b8ff"/><stop offset="0.47" stop-color="#6ecbff"/><stop offset="0.49" stop-color="#fff"/><stop offset="0.67" stop-color="#ebf8ff"/><stop offset="0.69" stop-color="#64c7ff"/></linearGradient></defs><title>spaceship</title><path class="cls-1" d="M188.21,465.55H127.87s60.33,62.68,60.33,190.81c0-128.13,60.33-190.81,60.33-190.81Z"/><path class="cls-2" d="M188.21,465.55H154.58s33.63,34.93,33.63,106.34c0-71.41,33.63-106.34,33.63-106.34Z"/><polygon class="cls-3" points="240.61 427.11 135.75 427.11 114.15 468.82 262.26 468.82 240.61 427.11"/><rect class="cls-4" x="124.72" y="172.98" width="125.56" height="265.79"/><path class="cls-4" d="M187.5,10.64S124.72,61.3,124.72,173H250.28C250.28,61.3,187.5,10.64,187.5,10.64Z"/><polygon class="cls-5" points="124.72 328.07 57.36 438.77 124.72 438.77 124.72 328.07"/><polygon class="cls-5" points="250.28 328.07 317.64 438.77 250.28 438.77 250.28 328.07"/><polygon class="cls-5" points="188.21 328.07 174.38 451.85 188.21 451.85 202.04 451.85 188.21 328.07"/><path class="cls-5" d="M187.5,10.64h0S144.44,42,129.56,121.18H245.44C230.56,42,187.5,10.64,187.5,10.64Z"/><circle class="cls-3" cx="188.21" cy="209.78" r="34.23"/><circle class="cls-6" cx="188.21" cy="209.78" r="26.63"/><path class="cls-7" d="M139.37,423h-5a.4.4,0,0,0-.37.19,2,2,0,0,0-.17.65c0,.09-.08.13-.21.13l-.19,0q0-.3,0-.62t0-.59c0-.18,0-.36,0-.55s0-.38,0-.57l.19,0c.13,0,.2,0,.21.12a1.38,1.38,0,0,0,.17.56.4.4,0,0,0,.35.15h7.1a.28.28,0,0,1,0,.08s0,.07,0,.1a.3.3,0,0,1,0,.16.61.61,0,0,1-.17.17l-6.45,4.9h5.68a.36.36,0,0,0,.34-.17A2.25,2.25,0,0,0,141,427c0-.08.08-.12.19-.12l.19,0q0,.3,0,.61t0,.57c0,.16,0,.35,0,.57s0,.41,0,.59l-.19,0c-.11,0-.18,0-.19-.13a1.86,1.86,0,0,0-.18-.58.37.37,0,0,0-.34-.15h-6.2a.34.34,0,0,0-.3.14,1.4,1.4,0,0,0-.16.57c0,.09-.08.13-.21.13h-.19c0-.16,0-.31,0-.46s0-.27,0-.41,0-.27,0-.39a2.86,2.86,0,0,1,0-.46.31.31,0,0,1,.12-.19Z"/><path class="cls-7" d="M133.94,417.81H137v-1.88a.35.35,0,0,0-.23-.34,2.63,2.63,0,0,0-.57-.16.2.2,0,0,1-.16-.22.55.55,0,0,1,0-.1l0-.1.6,0,.59,0h.5l.67,0a.76.76,0,0,1,0,.18.2.2,0,0,1-.16.23,2.62,2.62,0,0,0-.57.16.35.35,0,0,0-.24.34v1.88h2.85q.25,0,.34-.32a4.74,4.74,0,0,0,.08-1.07v-.66a1.66,1.66,0,0,0-.1-.61,1.54,1.54,0,0,0-.28-.46,2,2,0,0,0-.42-.36,5.54,5.54,0,0,0-.53-.3c-.06,0-.09-.08-.09-.18a.27.27,0,0,1,0-.13l.07-.13a3,3,0,0,0,.55.19l.61.15a4.49,4.49,0,0,1,.49.15c.14.05.2.12.2.2s0,.16,0,.28,0,.25,0,.39,0,.28,0,.43,0,.27,0,.37v2.64q0,.35,0,.75t0,.76l-.19,0c-.11,0-.18,0-.19-.12a2.77,2.77,0,0,0-.18-.66.34.34,0,0,0-.34-.2H134.3a.34.34,0,0,0-.33.18,2.94,2.94,0,0,0-.19.68c0,.08-.08.12-.21.12h-.1l-.09,0c0-.35,0-.63,0-.87s0-.44,0-.63V416c0-.36,0-.68,0-.94s0-.44,0-.53.07-.18.2-.21a3.65,3.65,0,0,1,.48-.09l.59-.08a1.41,1.41,0,0,0,.53-.18.35.35,0,0,1,.07.22.2.2,0,0,1-.11.21,5.9,5.9,0,0,0-.54.28,1.39,1.39,0,0,0-.37.31,1.16,1.16,0,0,0-.22.42,2.21,2.21,0,0,0-.07.61Z"/><path class="cls-7" d="M133.33,406.39a.41.41,0,0,1,0-.12c0-.08.05-.14.16-.17l5.85-2-4.9-1.71-.13,0h-.11a.27.27,0,0,0-.25.17,2,2,0,0,0-.13.56c0,.09-.08.13-.21.13l-.19,0q0-.31,0-.66t0-.61q0-.29,0-.62c0-.22,0-.4,0-.53h.19c.13,0,.2,0,.22.14a1.9,1.9,0,0,0,.14.55.55.55,0,0,0,.32.27l7.15,2.54a.44.44,0,0,1,0,.13c0,.1-.07.17-.22.22l-5.68,2,5.87,2.05a.28.28,0,0,1,0,.12c0,.1-.07.17-.22.22l-7,2.59a.45.45,0,0,0-.25.22,2.05,2.05,0,0,0-.15.6c0,.09-.1.13-.23.13l-.18,0c0-.11,0-.24,0-.37s0-.26,0-.4,0-.26,0-.39,0-.23,0-.33,0-.44,0-.73,0-.55,0-.8l.19,0c.12,0,.19,0,.21.13a1.71,1.71,0,0,0,.13.54.29.29,0,0,0,.27.19.32.32,0,0,0,.15,0l5-1.82Z"/><path class="cls-7" d="M137.88,394.26h2.47a.4.4,0,0,0,.39-.26,3.24,3.24,0,0,0,.19-.8c0-.1.08-.14.21-.14l.2,0q0,.35,0,.8t0,1q0,.31,0,.71t0,.75l-.19,0c-.11,0-.18,0-.19-.12a2.59,2.59,0,0,0-.19-.65.35.35,0,0,0-.33-.16H134.3a.37.37,0,0,0-.35.19,1.93,1.93,0,0,0-.17.67c0,.08-.09.12-.22.12l-.18,0q0-.34,0-.72t0-.72v-1.7a2.75,2.75,0,0,1,.61-2,2.09,2.09,0,0,1,1.59-.65,2,2,0,0,1,.78.17,2.25,2.25,0,0,1,.72.51,2.63,2.63,0,0,1,.53.82,2.83,2.83,0,0,1,.21,1.1Zm-.49-.64a2,2,0,0,0-.37-1.3,1.55,1.55,0,0,0-1.27-.46,2.8,2.8,0,0,0-.7.08,1.46,1.46,0,0,0-.57.29,1.42,1.42,0,0,0-.39.54,2.15,2.15,0,0,0-.14.84v.64h3.45Z"/><path class="cls-7" d="M140.42,386.92a.29.29,0,0,0,.29-.18,1.18,1.18,0,0,0,.08-.49v-1.31a1.81,1.81,0,0,0-.09-.6,1.23,1.23,0,0,0-.26-.43,1.72,1.72,0,0,0-.42-.32,3.41,3.41,0,0,0-.56-.25.14.14,0,0,1-.1-.15.31.31,0,0,1,0-.13l.07-.14.77.16q.4.08.91.14a.21.21,0,0,1,.17.07.28.28,0,0,1,0,.14c0,.14,0,.31,0,.51s0,.38,0,.54v3c0,.19,0,.42,0,.7s0,.55,0,.81l-.19,0c-.11,0-.18,0-.19-.12a2.34,2.34,0,0,0-.19-.68.34.34,0,0,0-.32-.18H134.3a.37.37,0,0,0-.34.17,2,2,0,0,0-.17.65.13.13,0,0,1-.07.09.25.25,0,0,1-.13,0l-.21,0c0-.27,0-.54,0-.81s0-.49,0-.68,0-.56,0-.87,0-.58,0-.82l.19,0c.14,0,.21,0,.22.13a2.69,2.69,0,0,0,.17.77.42.42,0,0,0,.42.25Z"/><path class="cls-7" d="M138.41,377.08v2.69l1.94.77a.66.66,0,0,0,.24.06c.17,0,.29-.25.36-.74a.15.15,0,0,1,.07-.11.26.26,0,0,1,.13,0l.19,0q0,.33,0,.69t0,.71c0,.16,0,.32,0,.49s0,.35,0,.53l-.19,0a.33.33,0,0,1-.15,0,.15.15,0,0,1-.07-.13,2.17,2.17,0,0,0-.15-.56.55.55,0,0,0-.28-.27l-7-2.91c-.14-.06-.21-.13-.21-.23a.68.68,0,0,1,0-.14l7.21-2.92a.53.53,0,0,0,.26-.33,2.38,2.38,0,0,0,.13-.49.28.28,0,0,1,.07-.11.21.21,0,0,1,.15,0l.19,0q0,.39,0,.76t0,.7c0,.22,0,.48,0,.77s0,.55,0,.78l-.19,0a.21.21,0,0,1-.15,0,.12.12,0,0,1,0-.08,2.79,2.79,0,0,0-.14-.51c-.05-.13-.13-.19-.24-.19a.48.48,0,0,0-.18,0Zm-.49.19-3,1.12,3,1.17Z"/><path class="cls-7" d="M139.37,366.58h-5a.4.4,0,0,0-.37.19,2,2,0,0,0-.17.65c0,.09-.08.13-.21.13l-.19,0q0-.3,0-.62t0-.59c0-.18,0-.36,0-.55s0-.38,0-.57l.19,0c.13,0,.2,0,.21.12a1.38,1.38,0,0,0,.17.56.4.4,0,0,0,.35.15h7.1a.28.28,0,0,1,0,.08s0,.07,0,.1a.3.3,0,0,1,0,.16.61.61,0,0,1-.17.17l-6.45,4.9h5.68a.36.36,0,0,0,.34-.17,2.25,2.25,0,0,0,.18-.65c0-.08.08-.12.19-.12l.19,0q0,.3,0,.61t0,.57c0,.16,0,.35,0,.57s0,.41,0,.59l-.19,0c-.11,0-.18,0-.19-.13a1.86,1.86,0,0,0-.18-.58.37.37,0,0,0-.34-.15h-6.2a.34.34,0,0,0-.3.14,1.4,1.4,0,0,0-.16.57c0,.09-.08.13-.21.13h-.19c0-.16,0-.31,0-.46s0-.27,0-.41,0-.27,0-.39a2.86,2.86,0,0,1,0-.46.31.31,0,0,1,.12-.19Z"/><path class="cls-7" d="M133.94,361.41H137v-1.88a.35.35,0,0,0-.23-.34,2.63,2.63,0,0,0-.57-.16.2.2,0,0,1-.16-.22.55.55,0,0,1,0-.1l0-.1.6,0,.59,0h.5l.67,0a.76.76,0,0,1,0,.18.2.2,0,0,1-.16.23,2.62,2.62,0,0,0-.57.16.35.35,0,0,0-.24.34v1.88h2.85q.25,0,.34-.32a4.74,4.74,0,0,0,.08-1.07v-.66a1.66,1.66,0,0,0-.1-.61,1.54,1.54,0,0,0-.28-.46,2,2,0,0,0-.42-.36,5.54,5.54,0,0,0-.53-.3c-.06,0-.09-.08-.09-.18a.27.27,0,0,1,0-.13l.07-.13a3,3,0,0,0,.55.19l.61.15a4.49,4.49,0,0,1,.49.15c.14.05.2.12.2.2s0,.16,0,.28,0,.25,0,.39,0,.28,0,.43,0,.27,0,.37V362q0,.35,0,.75t0,.76l-.19,0c-.11,0-.18,0-.19-.12a2.77,2.77,0,0,0-.18-.66.34.34,0,0,0-.34-.2H134.3a.34.34,0,0,0-.33.18,2.94,2.94,0,0,0-.19.68c0,.08-.08.12-.21.12h-.1l-.09,0c0-.35,0-.63,0-.87s0-.44,0-.63v-2.37c0-.36,0-.68,0-.94s0-.44,0-.53.07-.18.2-.21a3.65,3.65,0,0,1,.48-.09l.59-.08a1.41,1.41,0,0,0,.53-.18.35.35,0,0,1,.07.22.2.2,0,0,1-.11.21,5.9,5.9,0,0,0-.54.28,1.39,1.39,0,0,0-.37.31,1.16,1.16,0,0,0-.22.42,2.21,2.21,0,0,0-.07.61Z"/><path class="cls-7" d="M133.94,351.7h6.44a.4.4,0,0,0,.39-.23,2.49,2.49,0,0,0,.17-.77c0-.09.06-.13.19-.13l.2,0q0,.39,0,.81t0,.86c0,.28,0,.57,0,.86s0,.57,0,.83l-.2,0c-.11,0-.18,0-.19-.12a3.08,3.08,0,0,0-.18-.78.39.39,0,0,0-.39-.24h-6.44v1.24a2.2,2.2,0,0,0,.07.61,1.22,1.22,0,0,0,.22.43,1.31,1.31,0,0,0,.37.31l.53.28a.15.15,0,0,1,.08.08.24.24,0,0,1,0,.1.37.37,0,0,1-.07.23q-.43-.12-.77-.18l-.56-.11a1.82,1.82,0,0,1-.34-.1.18.18,0,0,1-.12-.17q0-.08,0-.24c0-.1,0-.21,0-.33l0-.36c0-.12,0-.23,0-.34v-4c0-.1,0-.21,0-.33l0-.36c0-.12,0-.23,0-.33s0-.18,0-.25a.18.18,0,0,1,.13-.17,2,2,0,0,1,.36-.1l.57-.1a5.06,5.06,0,0,0,.75-.19l0,.11a.29.29,0,0,1,0,.13.29.29,0,0,1,0,.11.14.14,0,0,1-.08.08,5.23,5.23,0,0,0-.53.27,1.36,1.36,0,0,0-.37.31,1.16,1.16,0,0,0-.22.42,2.21,2.21,0,0,0-.07.61Z"/><path class="cls-7" d="M137.37,336a4.2,4.2,0,0,1,1.41.25A3.76,3.76,0,0,1,140,337a3.71,3.71,0,0,1,.9,1.27,4.35,4.35,0,0,1,.34,1.79v2.47c0,.21,0,.45,0,.71s0,.52,0,.77l-.19,0c-.11,0-.18,0-.19-.13a3.31,3.31,0,0,0-.21-.64.33.33,0,0,0-.31-.19H134.3a.35.35,0,0,0-.34.18,2.48,2.48,0,0,0-.18.65.13.13,0,0,1-.07.1.29.29,0,0,1-.13,0l-.19,0c0-.17,0-.32,0-.44s0-.24,0-.36,0-.22,0-.33v-2.82a4.67,4.67,0,0,1,.31-1.78,3.63,3.63,0,0,1,.84-1.27,3.46,3.46,0,0,1,1.24-.76A4.5,4.5,0,0,1,137.37,336Zm.23,1.27a3.22,3.22,0,0,0-3.65,3.62v1h6.42a.34.34,0,0,0,.21-.06.4.4,0,0,0,.13-.21,1.88,1.88,0,0,0,.07-.4q0-.25,0-.64a4.78,4.78,0,0,0-.22-1.57,2.6,2.6,0,0,0-.64-1,2.48,2.48,0,0,0-1-.58A4.52,4.52,0,0,0,137.6,337.31Z"/><path class="cls-7" d="M140.44,332.3a.34.34,0,0,0,.33-.17,2.68,2.68,0,0,0,.19-.63c0-.08.08-.12.19-.12l.19,0c0,.25,0,.5,0,.75s0,.49,0,.71,0,.46,0,.72,0,.51,0,.74l-.19,0c-.11,0-.18,0-.19-.12a2.21,2.21,0,0,0-.18-.63.36.36,0,0,0-.34-.17H134.3a.37.37,0,0,0-.34.17,1.93,1.93,0,0,0-.17.63.12.12,0,0,1-.07.1l-.13,0-.19,0q0-.36,0-.75t0-.71c0-.2,0-.43,0-.69s0-.52,0-.77l.19,0c.12,0,.19,0,.21.12a1.93,1.93,0,0,0,.17.63.37.37,0,0,0,.34.17Z"/><path class="cls-7" d="M135.34,324.51a1,1,0,0,1,0,.18.36.36,0,0,1-.06.23.41.41,0,0,1-.13.11,2.46,2.46,0,0,0-1,.75,2,2,0,0,0-.31,1.18,1.89,1.89,0,0,0,.08.55,1.38,1.38,0,0,0,.23.45,1.11,1.11,0,0,0,.37.31,1,1,0,0,0,.48.11,1.11,1.11,0,0,0,.93-.48,6.24,6.24,0,0,0,.74-1.41,4.9,4.9,0,0,1,1-1.71,1.9,1.9,0,0,1,1.38-.55,2.76,2.76,0,0,1,.92.15,2,2,0,0,1,.75.47,2.19,2.19,0,0,1,.5.83,3.63,3.63,0,0,1,.18,1.22,5.46,5.46,0,0,1-.16,1.36,3.9,3.9,0,0,1-.41,1q-.51,0-1,.11l-.94.17a.53.53,0,0,1,0-.21.34.34,0,0,1,.07-.22.54.54,0,0,1,.21-.14,2.9,2.9,0,0,0,1.28-.78,2,2,0,0,0,.41-1.33,1.93,1.93,0,0,0-.11-.68,1.32,1.32,0,0,0-.3-.48,1.29,1.29,0,0,0-.43-.29,1.39,1.39,0,0,0-.52-.1,1.23,1.23,0,0,0-1,.43,4.06,4.06,0,0,0-.65,1.22,9.38,9.38,0,0,1-.4.94,3.09,3.09,0,0,1-.49.72,1.91,1.91,0,0,1-.64.46,2.33,2.33,0,0,1-1.71,0,1.94,1.94,0,0,1-.68-.47,2.25,2.25,0,0,1-.46-.74,2.67,2.67,0,0,1-.17-1,5.27,5.27,0,0,1,.11-1.09,7.58,7.58,0,0,1,.36-1.17l.78-.07Q135,324.58,135.34,324.51Z"/><path class="cls-7" d="M141.43,318.38a4.62,4.62,0,0,1-.31,1.77,3.46,3.46,0,0,1-.86,1.26,3.56,3.56,0,0,1-1.29.75,5,5,0,0,1-1.6.25,4.42,4.42,0,0,1-1.43-.25,4,4,0,0,1-1.31-.75,3.83,3.83,0,0,1-1-1.26,4,4,0,0,1-.37-1.77q0-.4,0-.73c0-.22,0-.43.06-.63s.06-.4.11-.59.09-.39.15-.6a7.07,7.07,0,0,0,.8-.08q.47-.07,1-.19a.43.43,0,0,1,0,.19.61.61,0,0,1,0,.17.16.16,0,0,1-.13.1,2,2,0,0,0-1.13.69,2.31,2.31,0,0,0-.34,1.36,3.38,3.38,0,0,0,.24,1.32,2.68,2.68,0,0,0,.68,1,2.87,2.87,0,0,0,1,.59,4.36,4.36,0,0,0,1.36.2,4.47,4.47,0,0,0,1.53-.25,3.91,3.91,0,0,0,1.21-.68,3,3,0,0,0,.78-1,2.78,2.78,0,0,0,.28-1.22,3.19,3.19,0,0,0-.1-.87,1.64,1.64,0,0,0-.3-.59,1.71,1.71,0,0,0-.48-.4,5,5,0,0,0-.64-.31.3.3,0,0,1-.18-.29.49.49,0,0,1,0-.13.37.37,0,0,1,0-.1l.93.29q.51.14,1,.24.1.59.15,1.21T141.43,318.38Z"/><path class="cls-7" d="M137.37,313.92a4.09,4.09,0,0,1-1.57-.3,4.2,4.2,0,0,1-1.29-.82,3.94,3.94,0,0,1-.88-1.21,3.34,3.34,0,0,1-.33-1.45,4.68,4.68,0,0,1,.33-1.83,3.57,3.57,0,0,1,2.19-2.06,4.7,4.7,0,0,1,1.54-.25,4.41,4.41,0,0,1,1.71.31,3.66,3.66,0,0,1,2.08,2.15,4.5,4.5,0,0,1,.28,1.59,4.13,4.13,0,0,1-.29,1.57,3.5,3.5,0,0,1-.83,1.22,3.75,3.75,0,0,1-1.28.8A4.65,4.65,0,0,1,137.37,313.92Zm3.49-4.15a2.44,2.44,0,0,0-.22-1,2.39,2.39,0,0,0-.6-.81,2.78,2.78,0,0,0-.92-.53,3.46,3.46,0,0,0-1.16-.19,6.78,6.78,0,0,0-1.61.18,4,4,0,0,0-1.29.55,2.69,2.69,0,0,0-.86.93,2.63,2.63,0,0,0-.31,1.31,2.45,2.45,0,0,0,.19.95,2.32,2.32,0,0,0,.54.8,2.61,2.61,0,0,0,.87.55,3.22,3.22,0,0,0,1.19.21,6.79,6.79,0,0,0,1.66-.19,4.32,4.32,0,0,0,1.33-.56,2.69,2.69,0,0,0,.87-.91A2.44,2.44,0,0,0,140.85,309.77Z"/><path class="cls-7" d="M134.41,298.87a.71.71,0,0,0-.24,0,.27.27,0,0,0-.25.17,1.83,1.83,0,0,0-.13.54c0,.1-.08.14-.21.14h-.19s0-.07,0-.16,0-.2,0-.32,0-.26,0-.4,0-.28,0-.41,0-.51,0-.73,0-.35,0-.39h.21c.13,0,.2,0,.22.13a1.48,1.48,0,0,0,.12.57.63.63,0,0,0,.33.28l7.16,3a.28.28,0,0,0,0,.05.29.29,0,0,1,0,.05c0,.09-.07.16-.2.22l-7,2.83a.49.49,0,0,0-.25.24,2.14,2.14,0,0,0-.15.6c0,.09-.08.13-.22.13l-.19,0q0-.36,0-.78t0-.74q0-.3,0-.74t0-.81l.19,0c.12,0,.19,0,.21.15q.07.71.39.71l.16,0,5.25-2.05Z"/><path class="cls-7" d="M133.94,293.89H137V292a.35.35,0,0,0-.23-.34,2.63,2.63,0,0,0-.57-.16.2.2,0,0,1-.16-.22.55.55,0,0,1,0-.1l0-.1.6,0,.59,0h.5l.67,0a.76.76,0,0,1,0,.18.2.2,0,0,1-.16.23,2.62,2.62,0,0,0-.57.16.35.35,0,0,0-.24.34v1.88h2.85q.25,0,.34-.32a4.74,4.74,0,0,0,.08-1.07v-.66a1.66,1.66,0,0,0-.1-.61,1.54,1.54,0,0,0-.28-.46,2,2,0,0,0-.42-.36,5.54,5.54,0,0,0-.53-.3c-.06,0-.09-.08-.09-.18a.27.27,0,0,1,0-.13l.07-.13a3,3,0,0,0,.55.19l.61.15a4.49,4.49,0,0,1,.49.15c.14.05.2.12.2.2s0,.16,0,.28,0,.25,0,.39,0,.28,0,.43,0,.27,0,.37v2.64q0,.35,0,.75t0,.76l-.19,0c-.11,0-.18,0-.19-.12a2.77,2.77,0,0,0-.18-.66.34.34,0,0,0-.34-.2H134.3a.34.34,0,0,0-.33.18,2.94,2.94,0,0,0-.19.68c0,.08-.08.12-.21.12h-.1l-.09,0c0-.35,0-.63,0-.87s0-.44,0-.63V292.1c0-.36,0-.68,0-.94s0-.44,0-.53.07-.18.2-.21a3.65,3.65,0,0,1,.48-.09l.59-.08a1.41,1.41,0,0,0,.53-.18.35.35,0,0,1,.07.22.2.2,0,0,1-.11.21,5.9,5.9,0,0,0-.54.28,1.39,1.39,0,0,0-.37.31,1.16,1.16,0,0,0-.22.42,2.21,2.21,0,0,0-.07.61Z"/><path class="cls-7" d="M137.76,285.1V286h2.65a.36.36,0,0,0,.36-.25,3.24,3.24,0,0,0,.16-.75c0-.1.08-.14.21-.14l.2,0q0,.33,0,.79t0,.91q0,.31,0,.72t0,.77l-.19,0c-.11,0-.18,0-.19-.13a2.15,2.15,0,0,0-.17-.64.36.36,0,0,0-.34-.19H134.3a.38.38,0,0,0-.34.18,1.76,1.76,0,0,0-.17.68c0,.08-.08.12-.21.12l-.19,0c0-.24,0-.49,0-.75s0-.5,0-.74V285a2.94,2.94,0,0,1,.57-2,1.94,1.94,0,0,1,1.55-.66,1.87,1.87,0,0,1,.56.09,2.19,2.19,0,0,1,.57.28,2.32,2.32,0,0,1,.51.48,2.49,2.49,0,0,1,.38.69l2.8-2a1.27,1.27,0,0,0,.43-.51,3.36,3.36,0,0,0,.18-.52c0-.07.07-.11.17-.11l.22,0q0,.28,0,.68t0,.74a.81.81,0,0,1-.22.51,2.67,2.67,0,0,1-.56.49Zm-.49.25a2.09,2.09,0,0,0-.36-1.3,1.49,1.49,0,0,0-1.25-.46,2.35,2.35,0,0,0-.69.1,1.4,1.4,0,0,0-.54.31,1.44,1.44,0,0,0-.36.55,2.34,2.34,0,0,0-.13.84v.6h3.33Z"/><path class="cls-7" d="M133.94,277.56H137v-1.88a.35.35,0,0,0-.23-.34,2.63,2.63,0,0,0-.57-.16.2.2,0,0,1-.16-.22.55.55,0,0,1,0-.1l0-.1.6,0,.59,0h.5l.67,0a.76.76,0,0,1,0,.18.2.2,0,0,1-.16.23,2.62,2.62,0,0,0-.57.16.35.35,0,0,0-.24.34v1.88h2.85q.25,0,.34-.32a4.74,4.74,0,0,0,.08-1.07v-.66a1.66,1.66,0,0,0-.1-.61,1.54,1.54,0,0,0-.28-.46,2,2,0,0,0-.42-.36,5.54,5.54,0,0,0-.53-.3c-.06,0-.09-.08-.09-.18a.27.27,0,0,1,0-.13l.07-.13a3,3,0,0,0,.55.19l.61.15a4.49,4.49,0,0,1,.49.15c.14.05.2.12.2.2s0,.16,0,.28,0,.25,0,.39,0,.28,0,.43,0,.27,0,.37v2.64q0,.35,0,.75t0,.76l-.19,0c-.11,0-.18,0-.19-.12a2.77,2.77,0,0,0-.18-.66.34.34,0,0,0-.34-.2H134.3a.34.34,0,0,0-.33.18,2.94,2.94,0,0,0-.19.68c0,.08-.08.12-.21.12h-.1l-.09,0c0-.35,0-.63,0-.87s0-.44,0-.63v-2.37c0-.36,0-.68,0-.94s0-.44,0-.53.07-.18.2-.21A3.65,3.65,0,0,1,134,274l.59-.08a1.41,1.41,0,0,0,.53-.18.35.35,0,0,1,.07.22.2.2,0,0,1-.11.21,5.9,5.9,0,0,0-.54.28,1.39,1.39,0,0,0-.37.31,1.16,1.16,0,0,0-.22.42,2.21,2.21,0,0,0-.07.61Z"/><path class="cls-7" d="M137.37,263.74a4.2,4.2,0,0,1,1.41.25,3.76,3.76,0,0,1,1.26.75,3.71,3.71,0,0,1,.9,1.27,4.35,4.35,0,0,1,.34,1.79v2.47c0,.21,0,.45,0,.71s0,.52,0,.77l-.19,0c-.11,0-.18,0-.19-.13a3.31,3.31,0,0,0-.21-.64.33.33,0,0,0-.31-.19H134.3a.35.35,0,0,0-.34.18,2.48,2.48,0,0,0-.18.65.13.13,0,0,1-.07.1.29.29,0,0,1-.13,0l-.19,0c0-.17,0-.32,0-.44s0-.24,0-.36,0-.22,0-.33v-2.82a4.67,4.67,0,0,1,.31-1.78,3.63,3.63,0,0,1,.84-1.27,3.46,3.46,0,0,1,1.24-.76A4.5,4.5,0,0,1,137.37,263.74Zm.23,1.27a3.22,3.22,0,0,0-3.65,3.62v1h6.42a.34.34,0,0,0,.21-.06.4.4,0,0,0,.13-.21,1.88,1.88,0,0,0,.07-.4q0-.25,0-.64a4.78,4.78,0,0,0-.22-1.57,2.6,2.6,0,0,0-.64-1,2.48,2.48,0,0,0-1-.58A4.52,4.52,0,0,0,137.6,265Z"/><path class="cls-7" d="M140.65,261.91a.76.76,0,0,1-.55-.23.74.74,0,0,1-.24-.55.7.7,0,0,1,.24-.53.78.78,0,0,1,.55-.22.77.77,0,0,1,.56.22.71.71,0,0,1,.22.53.76.76,0,0,1-.22.55A.75.75,0,0,1,140.65,261.91Zm-7.18-.11a2,2,0,0,1-.16-.75.72.72,0,0,1,.13-.5.4.4,0,0,1,.3-.13h.14l.13,0q1.1.17,2.47.28l2.77.19a.64.64,0,0,1,0,.15.28.28,0,0,1-.07.22.29.29,0,0,1-.14.07Z"/><path class="cls-8" d="M239.33,416.56q.18,1,.28,2.06t.1,2.46a8.81,8.81,0,0,1-.58,3.35,6.61,6.61,0,0,1-1.59,2.36,6.43,6.43,0,0,1-2.39,1.4,9.41,9.41,0,0,1-3,.46,8.26,8.26,0,0,1-2.69-.46,7.11,7.11,0,0,1-4.18-3.73,7.47,7.47,0,0,1-.68-3.29c0-.45,0-.88,0-1.29s.06-.82.12-1.22.13-.81.21-1.22.18-.85.3-1.33c.52,0,1.06-.09,1.62-.17a16.74,16.74,0,0,0,1.65-.33.34.34,0,0,1,.07.18,1.44,1.44,0,0,1,0,.22.41.41,0,0,1-.29.45,3.59,3.59,0,0,0-2.15,1.37,4.9,4.9,0,0,0-.65,2.75,6.22,6.22,0,0,0,.47,2.51,5,5,0,0,0,1.29,1.78,5.48,5.48,0,0,0,1.95,1.06,8.09,8.09,0,0,0,2.45.36,8.47,8.47,0,0,0,2.84-.46,7.09,7.09,0,0,0,2.24-1.25,5.59,5.59,0,0,0,1.46-1.88,5.46,5.46,0,0,0,.51-2.36,9.7,9.7,0,0,0-.09-1.31,7.28,7.28,0,0,0-.22-1.11H235a.93.93,0,0,0-.84.36,3.05,3.05,0,0,0-.35,1.21.29.29,0,0,1-.16.25.58.58,0,0,1-.27.07,1.51,1.51,0,0,1-.36,0c0-.43.06-.91.08-1.43s0-1,0-1.37,0-.83,0-1.33,0-.94-.08-1.31a1.84,1.84,0,0,1,.36,0,.43.43,0,0,1,.3.08.36.36,0,0,1,.1.19,2.17,2.17,0,0,0,.3,1,.77.77,0,0,0,.66.28h4a.52.52,0,0,1,.34.11A1.2,1.2,0,0,1,239.33,416.56Z"/><path class="cls-8" d="M226.47,409.64a.68.68,0,0,0-.64.32,3.85,3.85,0,0,0-.32,1.22c0,.15-.16.22-.38.22a1.86,1.86,0,0,1-.36,0q0-.72.08-1.49c0-.52,0-.94,0-1.29s0-.79,0-1.29,0-1-.08-1.4a2,2,0,0,1,.36,0c.24,0,.37.08.38.25a3.38,3.38,0,0,0,.32,1.13.69.69,0,0,0,.64.3h9.7a22.68,22.68,0,0,1,2.69.13,6.21,6.21,0,0,1,2,.58,6.48,6.48,0,0,1,1.72,1.28,16.33,16.33,0,0,1,1.76,2.19.62.62,0,0,1-.47.29.37.37,0,0,1-.27-.11,7.38,7.38,0,0,0-2.42-1.75,7.19,7.19,0,0,0-2.8-.52Z"/><path class="cls-8" d="M229,402.53s0-.15,0-.3,0-.35,0-.58,0-.48,0-.75,0-.54,0-.81,0-.54,0-.81,0-.52,0-.75,0-.43,0-.59,0-.27,0-.31l.16,0h.18a.28.28,0,0,1,.31.22,3,3,0,0,0,.28.92.65.65,0,0,0,.62.36H238a.68.68,0,0,0,.64-.43,3.39,3.39,0,0,0,.3-1,.28.28,0,0,1,.31-.22l.19,0,.14,0s0,.16,0,.34,0,.39,0,.64,0,.51,0,.81,0,.57,0,.84,0,.54,0,.82,0,.53,0,.77,0,.45,0,.63,0,.29,0,.34l-.14,0-.19,0a.28.28,0,0,1-.31-.22,4.14,4.14,0,0,0-.3-1,.64.64,0,0,0-.62-.4h-7.46a.65.65,0,0,0-.62.37,3.15,3.15,0,0,0-.28.91.28.28,0,0,1-.31.22h-.18Z"/><path class="cls-8" d="M229,394.18s0-.15,0-.3,0-.35,0-.58,0-.48,0-.75,0-.54,0-.81,0-.54,0-.81,0-.52,0-.75,0-.43,0-.59,0-.27,0-.31l.16,0h.18a.28.28,0,0,1,.31.22,3,3,0,0,0,.28.92.65.65,0,0,0,.62.36H238a.68.68,0,0,0,.64-.43,3.39,3.39,0,0,0,.3-1,.28.28,0,0,1,.31-.22l.19,0,.14,0s0,.16,0,.34,0,.39,0,.64,0,.51,0,.81,0,.57,0,.84,0,.54,0,.82,0,.53,0,.77,0,.45,0,.63,0,.29,0,.34l-.14,0-.19,0a.28.28,0,0,1-.31-.22,4.14,4.14,0,0,0-.3-1,.64.64,0,0,0-.62-.4h-7.46a.65.65,0,0,0-.62.37,3.15,3.15,0,0,0-.28.91.28.28,0,0,1-.31.22h-.18Z"/><path class="cls-8" d="M235.46,385.24q-.6-1.21-1.05-2a6.69,6.69,0,0,0-.86-1.2,2.43,2.43,0,0,0-.83-.61,2.46,2.46,0,0,0-.93-.17,1.84,1.84,0,0,0-1.15.37,1.59,1.59,0,0,0-.48,1.33,3.07,3.07,0,0,0,.26,1.25,6.77,6.77,0,0,0,.77,1.28l.1.12a.28.28,0,0,1,.06.17.59.59,0,0,1-.29.49,8.71,8.71,0,0,1-1.7-2,4.27,4.27,0,0,1-.56-2.15,3.45,3.45,0,0,1,.58-2.11,2.09,2.09,0,0,1,1.79-.78,2.74,2.74,0,0,1,1,.18,2.7,2.7,0,0,1,.82.52,5,5,0,0,1,.69.78q.33.45.66,1h0a4.14,4.14,0,0,1,1.19-2.24,2.93,2.93,0,0,1,2-.76,3.86,3.86,0,0,1,1.85.5,5.92,5.92,0,0,1,1.74,1.49,10.33,10.33,0,0,1,1.43,2.43,14.27,14.27,0,0,1,.94,3.32.72.72,0,0,1-.45.18.26.26,0,0,1-.27-.2,16.13,16.13,0,0,0-1.11-2.64,7.3,7.3,0,0,0-1.16-1.62,3.34,3.34,0,0,0-1.23-.82,3.93,3.93,0,0,0-1.31-.22,2.39,2.39,0,0,0-1.69.57,2.08,2.08,0,0,0-.62,1.6,4.74,4.74,0,0,0,.1.92,4.84,4.84,0,0,0,.35,1Z"/><path class="cls-8" d="M231.4,375l.1.12a.29.29,0,0,1,.06.17.58.58,0,0,1-.29.47,7.85,7.85,0,0,1-1.8-1.94,4.21,4.21,0,0,1-.68-2.32,3.1,3.1,0,0,1,.79-2.32,2.85,2.85,0,0,1,2.07-.77,3.74,3.74,0,0,1,1.34.26,5.22,5.22,0,0,1,1.41.86,13.63,13.63,0,0,1,1.61,1.61q.87,1,2,2.51v-3.79a1.38,1.38,0,0,0-.19-.75,1.67,1.67,0,0,0-.77-.55.37.37,0,0,1-.25-.36,1.24,1.24,0,0,1,0-.25.4.4,0,0,0,0-.13c.39.13.79.26,1.21.37l1.21.3a.39.39,0,0,1,.22.11.43.43,0,0,1,0,.22c0,.27,0,.61,0,1s0,.84,0,1.32v4.59h-.54q-1.16-1.39-2.09-2.36a15,15,0,0,0-1.72-1.58,6.57,6.57,0,0,0-1.49-.88,3.62,3.62,0,0,0-1.37-.28,2.49,2.49,0,0,0-1.4.39,1.5,1.5,0,0,0-.59,1.36,3.07,3.07,0,0,0,.27,1.25A5.75,5.75,0,0,0,231.4,375Z"/><path class="cls-8" d="M231.67,357.16a7.65,7.65,0,0,1,.32-1.43,4.6,4.6,0,0,1,.66-1.3,3.3,3.3,0,0,1,1.06-.94,3,3,0,0,1,1.51-.36,4.11,4.11,0,0,1,1.77.37,3.66,3.66,0,0,1,1.32,1.05,5,5,0,0,1,.83,1.65,7.29,7.29,0,0,1,.29,2.13v3.54c0,.26,0,.54,0,.86s0,.62,0,.91l0,1-.13,0-.11,0h-.11c-.21,0-.33-.08-.36-.25a5.53,5.53,0,0,0-.35-1.21.63.63,0,0,0-.62-.34h-11.4a.77.77,0,0,0-.37.08.65.65,0,0,0-.25.26,2.12,2.12,0,0,0-.18.47c-.05.2-.11.44-.17.74s-.17.25-.43.25a.54.54,0,0,1-.18,0l-.13,0q0-.67.08-1.44t0-1.31v-2.76a7.18,7.18,0,0,1,.28-2.14,4,4,0,0,1,.77-1.45,3,3,0,0,1,1.13-.82,3.53,3.53,0,0,1,1.33-.26,2.63,2.63,0,0,1,1,.2,3.64,3.64,0,0,1,.92.55,4,4,0,0,1,.76.84,3.91,3.91,0,0,1,.51,1.1Zm-.29,3.29a4.55,4.55,0,0,0-.69-2.83,2.65,2.65,0,0,0-2.19-.86,2.4,2.4,0,0,0-2,.86,4.73,4.73,0,0,0-.66,2.83v.34h5.58Zm6.34.34a.55.55,0,0,0,.4-.16,1.1,1.1,0,0,0,.25-.39,2.23,2.23,0,0,0,.12-.5,4.24,4.24,0,0,0,0-.52,8,8,0,0,0-.13-1.54,3.15,3.15,0,0,0-.47-1.19,2.19,2.19,0,0,0-.91-.76,3.38,3.38,0,0,0-1.45-.27,2.86,2.86,0,0,0-2.44,1.11,5,5,0,0,0-.83,3v1.19Z"/></svg>