<?xml version="1.0" encoding="UTF-8" standalone="no"?>
<svg width="1780px" height="399px" viewBox="0 0 1780 399" version="1.1" xmlns="http://www.w3.org/2000/svg" xmlns:xlink="http://www.w3.org/1999/xlink">
    <!-- Generator: Sketch 41.2 (35397) - http://www.bohemiancoding.com/sketch -->
    <title>Desktop HD</title>
    <desc>Created with Sketch.</desc>
    <defs></defs>
    <g id="process-timeline" stroke="none" stroke-width="1" fill="none" fill-rule="evenodd">
        <g id="Desktop-HD" stroke="#979797">
            <path d="M155.730174,148.666667 L303.664958,148.666667" id="Path-Copy"></path>
            <path id="Path-Copy-decoration-1" d="M155.730174,145.666667 L155.730174,151.666667"></path>
            <path id="Path-Copy-decoration-2" d="M303.664958,145.666667 L303.664958,151.666667"></path>
            <path d="M242,164.5 L335.034103,164.5" id="Path-Copy-3"></path>
            <path id="Path-Copy-3-decoration-1" d="M242,161.5 L242,167.5"></path>
            <path id="Path-Copy-3-decoration-2" d="M335.034103,161.5 L335.034103,167.5"></path>
            <path d="M271,178.5 L364.034103,178.5" id="Path-Copy-4"></path>
            <path id="Path-Copy-4-decoration-1" d="M271,175.5 L271,181.5"></path>
            <path id="Path-Copy-4-decoration-2" d="M364.034103,175.5 L364.034103,181.5"></path>
            <path d="M408,221.5 L428.099618,221.5" id="Path-Copy-7"></path>
            <path id="Path-Copy-7-decoration-1" d="M408,218.5 L408,224.5"></path>
            <path id="Path-Copy-7-decoration-2" d="M428.099618,218.5 L428.099618,224.5"></path>
            <path d="M226,194.5 L319.034103,194.5" id="Path-Copy-5"></path>
            <path id="Path-Copy-5-decoration-1" d="M226,191.5 L226,197.5"></path>
            <path id="Path-Copy-5-decoration-2" d="M319.034103,191.5 L319.034103,197.5"></path>
            <path d="M289,208.5 L417.099453,208.5" id="Path-Copy-6"></path>
            <path id="Path-Copy-6-decoration-1" d="M289,205.5 L289,211.5"></path>
            <path id="Path-Copy-6-decoration-2" d="M417.099453,205.5 L417.099453,211.5"></path>
            <path d="M418,235.5 L546.099453,235.5" id="Path-Copy-8"></path>
            <path id="Path-Copy-8-decoration-1" d="M418,232.5 L418,238.5"></path>
            <path id="Path-Copy-8-decoration-2" d="M546.099453,232.5 L546.099453,238.5"></path>
            <path d="M1173,173.070702 C1173,173.070702 1217.83285,165.187761 1226.7174,179.140265 C1235.60195,193.092769 1268.93152,277.761046 1303.08104,277.539008 C1352.79999,277.215738 1198.74196,128.170305 1263.88504,124.06527 C1329.02812,119.960234 1226.81236,311.093992 1339.84985,244.41859 C1452.88733,177.743188 1219.08256,215.510951 1352.01242,211.115008 C1484.94229,206.719064 1181.57686,239.106825 1263.88504,301.55149 C1304.57141,332.418979 1377.8112,325.30723 1403.6027,283.752229 C1433.58371,235.44713 1355.92101,183.5398 1413.85846,158.909587 C1471.79592,134.279374 1385.82579,179.323901 1435.19045,184.663926 C1451.49852,186.428052 1402.2683,137.163826 1418.20767,135.460963 C1425.69992,134.660537 1450.33712,172.563422 1477.39481,172.91627 C1529.17121,173.591464 1559.73718,139.138615 1511.39076,142.9707 C1463.04434,146.802785 1585.88177,177.987407 1585.88177,177.987407" id="Path-Copy-2"></path>
            <path id="Path-Copy-2-decoration-1" d="M1173,170.070702 L1173,176.070702"></path>
            <path id="Path-Copy-2-decoration-2" d="M1585.88177,174.987407 L1585.88177,180.987407"></path>
            <g id="Group" transform="translate(721.000000, 79.000000)">
                <ellipse id="Oval" cx="114.921633" cy="108.659654" rx="114.921633" ry="108.659654"></ellipse>
                <polyline id="Path-2" points="117.229636 207.629913 111.261709 217.34695 117.229636 227.41829"></polyline>
            </g>
        </g>
    </g>
</svg>