<?xml version="1.0" encoding="utf-8"?>
<!-- Generator: Adobe Illustrator 19.1.0, SVG Export Plug-In . SVG Version: 6.00 Build 0)  -->
<svg version="1.1" id="Layer_1" xmlns="http://www.w3.org/2000/svg" xmlns:xlink="http://www.w3.org/1999/xlink" x="0px" y="0px"
	 viewBox="0 0 1280 758" style="enable-background:new 0 0 1280 758;" xml:space="preserve">
<style type="text/css">
	.st0{fill:none;stroke:#F7ED41;stroke-width:20;stroke-miterlimit:10;}
</style>
<g>
	<g>
		<path class="st0" d="M1216.9,0c0,23.7-20,23.7-20,47.4c0,23.7,20,23.7,20,47.4c0,23.7-20,23.7-20,47.4c0,23.7,20,23.7,20,47.4
			c0,23.7-20,23.7-20,47.4c0,23.7,20,23.7,20,47.4c0,23.7-20,23.7-20,47.4c0,23.7,20,23.7,20,47.4c0,23.7-20,23.7-20,47.4
			c0,23.7,20,23.7,20,47.4c0,23.7-20,23.7-20,47.4c0,23.7,20,23.7,20,47.4c0,23.7-20,23.7-20,47.4c0,23.7,20,23.7,20,47.4
			c0,23.7-20,23.7-20,47.4c0,23.7,20,23.7,20,47.4"/>
	</g>
	<g>
		<path class="st0" d="M83.1,0c0,23.7-20,23.7-20,47.4c0,23.7,20,23.7,20,47.4c0,23.7-20,23.7-20,47.4c0,23.7,20,23.7,20,47.4
			c0,23.7-20,23.7-20,47.4c0,23.7,20,23.7,20,47.4c0,23.7-20,23.7-20,47.4c0,23.7,20,23.7,20,47.4c0,23.7-20,23.7-20,47.4
			c0,23.7,20,23.7,20,47.4c0,23.7-20,23.7-20,47.4c0,23.7,20,23.7,20,47.4c0,23.7-20,23.7-20,47.4c0,23.7,20,23.7,20,47.4
			c0,23.7-20,23.7-20,47.4c0,23.7,20,23.7,20,47.4"/>
	</g>
</g>
</svg>
