<?xml version="1.0" encoding="utf-8"?>
<!-- Generator: Adobe Illustrator 19.1.0, SVG Export Plug-In . SVG Version: 6.00 Build 0)  -->
<svg version="1.1" id="Layer_1" xmlns="http://www.w3.org/2000/svg" xmlns:xlink="http://www.w3.org/1999/xlink" x="0px" y="0px"
	 viewBox="0 0 438.2 338.6" style="enable-background:new 0 0 438.2 338.6;" xml:space="preserve">
<style type="text/css">
	.st0{fill:#919395;}
	.st1{fill:#F8ED41;}
	.st2{fill:#6BBCE9;}
	.st3{fill:#DF9232;}
</style>
<g>
	<g>
		<g>
			<path class="st3" d="M158.5,227.8l-9.9-9.9l-58,58c-5.7,5.7-5.8,15.1,0,20.8c5.7,5.7,15.1,5.7,20.8,0l58-58l-8.8-8.8L158.5,227.8
				z"/>
		</g>
		<g>
			<path class="st0" d="M85.2,303.3c-9.1-9.1-9-23.8,0-32.9l64.5-64.5l32.8,32.8L118,303.3C109,312.3,94.2,312.3,85.2,303.3z
				 M149.7,230l-52.5,52.5c-2.4,2.4-2.4,6.4,0,8.8c2.4,2.4,6.4,2.4,8.8,0l52.5-52.5L149.7,230z"/>
		</g>
	</g>
	<g>
		<g>
			<path class="st1" d="M260.5,180.7c-0.7-11.5-11.5-26-22.7-13.7c-8.9,9.7,4.5,34-9.6,39.9c-18.5,7.7-22.4-35.8-24.6-45.1
				c-0.7-3-1.5-6.2-3.7-8.3c-5.6-5.5-19.2-4.1-26.6-4.3c-9.2-0.2-18.6-0.2-27.8,0c-3.7,0.1-8.3-0.7-11.3,0.2l-6.1,6.1
				c-10.6,10.6-12.3,29.6-1.8,40.2l23,23l9.3,9.3l2.1,2.1l9.5,9.5l22.9,22.9c10.6,10.6,28.5,7.7,39.1-2.9l30-30
				C253.1,218.5,261.1,190.5,260.5,180.7z"/>
		</g>
		<g>
			<path class="st0" d="M187.5,267.7L120.7,201c-13.4-13.4-12.5-36.8,1.8-51.1l7.7-7.7l2.2-0.6c3.3-0.9,6.8-0.8,10-0.8
				c1.1,0,2.1,0,3.1,0c9.2-0.2,18.6-0.5,27.9-0.3c1.2,0,2.4,0.2,3.9,0.2c8.9-0.1,20.9-0.1,28,7c0,0,0,0,0,0
				c3.9,3.9,5.4,8.8,6.2,12.1c0.4,1.7,0.9,4,1.5,7c1.1,6.3,2.6,14.9,5.1,22.2c2.7,8,5.3,10.1,5.8,10.2c0,0,0.3,0,1-0.3
				c2-0.8,1.8-6,1.4-12.6c-0.5-8.5-1.2-18.1,5.3-25.1c6.1-6.6,13.6-9,20.8-6.4c10.1,3.6,15.6,15.8,16.6,25.5v0c0,3.7-0.3,8.5-1,14
				c-1.1,8.8-3,25.1,0.9,29.9l5,6l-35.5,35.5C224.2,280.2,200.8,281.1,187.5,267.7z M138.7,157.8l-4.1,4.1c-7.7,7.7-8.5,20.3-1.8,27
				l66.7,66.7c6.7,6.7,19.3,5.9,27-1.8l25.5-25.5c-3.9-10.4-2.2-24.3-0.7-35.9c0.5-4.4,1.1-8.9,1-11l0,0c-0.3-5-3.5-9.8-5.4-10.5
				c-0.3-0.1-1.4,0.5-2.6,1.8c-1.5,1.7-1.1,8.2-0.8,12.5c0.6,9.5,1.5,23.8-11.9,29.4c-6.9,2.9-12.4,1.3-15.8-0.6
				c-11.8-6.5-16-25.5-19.3-44.5c-0.4-2.6-0.8-4.8-1.1-5.9c-0.3-1.2-0.9-3.8-1.5-4.3c0,0,0,0,0,0c-2-2-12.2-1.9-16-1.8
				c-1.7,0-3.4,0-4.8,0c-9-0.2-17.8,0-27.1,0.3c-1.3,0-2.7,0-4,0C141,157.8,139.7,157.8,138.7,157.8z"/>
		</g>
	</g>
	<g>
		<g>
			<path class="st2" d="M225.9,57.4l-13.4,13.4L160.3,123l-26.2,26.2c3-0.8,7.6-0.1,11.3-0.2c9.2-0.2,18.5-0.3,27.7-0.1
				c7.4,0.2,21.1-1.2,26.7,4.4c2.2,2.2,3,5.4,3.8,8.4c2.3,9.3,6.2,52.9,24.7,45.2c14-5.8,0.9-30,9.7-39.7
				c11.2-12.3,22.4,2.7,23.1,14.1c0.4,7.4-1.3,14.9-1.8,22.2c-0.6,7.9-2.3,19.7,3.6,26.1c3.6,3.9,9.7,5.3,14.6,3.1
				c6-2.6,7.7-9.8,8.4-15.7c0.6-5.8,1.3-11.7,1.6-17.5c0.2-5.9-0.4-11.8,0.1-17.7c0.6-7.5,2.9-15,8.3-20.5
				c11-10.9,29.8-9.4,42.2-7.4c20.2-28.3,16.6-67.3-8.8-92.8l-2.1-2.1C298.8,30.9,254.2,29.1,225.9,57.4z"/>
		</g>
		<g>
			<path class="st0" d="M120.2,152.2L220.4,52c31.5-31.5,81.3-31.2,113.2,0.7l2.1,2.1c15.3,15.3,24.1,36.8,24,58.4
				c0,21.6-8.7,39.4-23.3,54.8l0.5-5.8c-17.1-2.7-28.9-0.9-35.1,5.3c-3.3,3.3-5.3,8.4-5.8,15.1c-0.2,2.8-0.2,5.8-0.1,9
				c0.1,2.7,0.1,5.4,0,8.3c-0.2,5.9-0.9,11.8-1.5,17.5l-0.1,0.6c-1.3,11.6-5.8,19.2-13.4,22.5c-8.3,3.6-18.3,1.5-24.4-5.2
				c-7.8-8.6-6.7-21.7-5.9-30.3c0.1-0.8,0.1-1.5,0.2-2.2c0.2-2.7,0.6-5.4,0.9-8.1c0.6-4.6,1.2-9,0.9-13c-0.3-5-3.6-9.9-5.7-10.6
				c-0.5-0.2-1.7,0.8-2.6,1.8c-1.5,1.7-1.1,8.2-0.8,12.5c0.6,9.5,1.5,23.8-11.9,29.3c-6.9,2.9-12.4,1.3-15.8-0.6
				c-11.8-6.5-16-25.6-19.3-44.5c-0.4-2.6-1-4.5-1.3-5.7c-0.3-1.2-1.1-3.6-1.7-4.1c-2-2-11.9-2.1-15.8-2c-1.7,0-3.3-0.1-4.7-0.1
				c-9.3-0.2-18.5-0.1-27.1,0.2c-1.3,0-2.6,0-3.9,0c-1.8,0-4.2-0.1-5.1,0.1L120.2,152.2z M321.6,64.7c-25.2-25.2-64.4-25.5-89.1-0.7
				l-76.6,76.6c5.7-0.1,11.6-0.1,17.6,0c1.2,0,2.4,0.2,4,0.2c8.9-0.1,20.9-0.1,28,7c0,0,0,0,0,0c3.9,3.9,5.4,8.8,6.2,12.1
				c0.4,1.7,0.9,4,1.5,7c1.1,6.3,2.6,15,5.1,22.2c3.1,9.1,5.8,10.2,5.8,10.2c0,0,0.3,0,1-0.3c2-0.8,1.8-6,1.4-12.6
				c-0.5-8.5-1.1-18.1,5.3-25.1c6-6.6,13.7-8.9,20.9-6.3c10.3,3.7,16.4,16,17,25.7c0.3,5.6-0.4,11-1,16.2c-0.3,2.5-0.6,4.9-0.8,7.2
				c-0.1,0.8-0.1,1.5-0.2,2.3c-0.5,5.7-1.2,14.3,1.6,17.4c1.1,1.3,3.4,1.7,4.9,1.1c1.6-0.7,2.8-3.9,3.4-8.9l0.1-0.6
				c0.6-5.4,1.2-10.9,1.4-16.3c0.1-2.3,0-4.7,0-7.2c-0.1-3.5-0.2-7.1,0.1-10.9c0.9-10.9,4.5-19.5,10.8-25.8
				c9.5-9.4,24.3-13,44.3-10.8c14.8-24.7,10.7-56.7-10.4-77.9L321.6,64.7z"/>
		</g>
	</g>
	<g>
		<g>
			<path class="st1" d="M295.3,161c-11.2,11.1-8.3,28-8.4,43.4l29.6-29.6l13.4-13.4c2.9-2.9,5.7-5.7,8-8.9
				C325.5,150.6,306.3,150.1,295.3,161z"/>
		</g>
		<g>
			<path class="st0" d="M278.7,225.7l0.2-20.8c0-2.8-0.1-5.6-0.1-8.6c-0.4-13.8-0.9-29.5,10.8-41.1l0,0
				c13.3-13.2,34.6-13.1,50.1-10.7l7.2,2.1l-3.9,5.6c-2.8,4-3.9,13.1-6.5,15.6L278.7,225.7z M295.6,161.3l6,6
				c-4.3,4.3-5.6,10.3-5.9,17.4l24.1-24.1c-6.8,0.5-13.8,2.3-18.3,6.8L295.6,161.3z"/>
		</g>
	</g>
</g>
</svg>
