<svg id="Layer_1" data-name="Layer 1" xmlns="http://www.w3.org/2000/svg" viewBox="0 0 304 608"><title>expectations</title><path d="M13.27,26.38C13.88,34.16,19.54,40,26.51,40A19.88,19.88,0,0,0,40,35.18l4,6.26c-5.05,5.36-11.52,8-19.61,8-13.64,0-22.74-9.9-22.74-24.56,0-13,10.11-23.75,22.54-23.75,7.18,0,12.33,2.32,16,7.18A20.3,20.3,0,0,1,44,20v.61l-4.15,5.76ZM34.2,19A10.1,10.1,0,0,0,23.89,9.3c-5.26,0-9.4,3.74-10.71,9.7Z"/><path d="M29.44,89.26H40.71l27.1-28.08L53,35.68H41.69l4.75-20H75.91L87.77,40.23l20.56-24.52H136l-4.56,20h-9.89L98.06,60.4l17,28.87h11.27l-4.56,20H91.52L78.27,81.55,54.35,109.24H24.69Z"/><path d="M57.09,107.28H79.9c11.68,0,18.34,8.21,18.34,17.79s-6.75,17.79-18.34,17.79H62.29v25.28h-5.2ZM79.35,112H62.29v26.1H79.35c8,0,13.41-5.38,13.41-13.05S87.38,112,79.35,112Z"/><path d="M89.27,166.38c.61,7.78,6.27,13.64,13.24,13.64A19.88,19.88,0,0,0,116,175.18l4,6.26c-5.05,5.36-11.52,8-19.61,8-13.64,0-22.74-9.9-22.74-24.56,0-13,10.11-23.75,22.54-23.75,7.18,0,12.33,2.32,16,7.18A20.3,20.3,0,0,1,120,160v.61l-4.15,5.76ZM110.2,159a10.1,10.1,0,0,0-10.31-9.7c-5.26,0-9.4,3.74-10.71,9.7Z"/><path d="M180.53,200.21a43.55,43.55,0,0,0-5-11.61,41.28,41.28,0,0,0-7.93-9.42,36.24,36.24,0,0,0-10.32-6.32,32.19,32.19,0,0,0-12.2-2.33,31.33,31.33,0,0,0-15.86,4,36.63,36.63,0,0,0-11.68,10.58,50.49,50.49,0,0,0-7.22,14.9,58.83,58.83,0,0,0-2.51,17.09,55.94,55.94,0,0,0,2.65,17.42A43.17,43.17,0,0,0,118,248.65a36,36,0,0,0,11.87,9.49,34.17,34.17,0,0,0,15.49,3.48,32.27,32.27,0,0,0,12.58-2.45,38,38,0,0,0,10.45-6.45,38.8,38.8,0,0,0,7.74-9.22,34.26,34.26,0,0,0,4.32-10.77h1.55l-.39,28.39H180a38.84,38.84,0,0,0-3.23-4q-1.68-1.8-2.32-1.81a11.44,11.44,0,0,0-2.33,1.35,37.74,37.74,0,0,1-5.93,3,56.61,56.61,0,0,1-9.42,2.84A59.86,59.86,0,0,1,144,263.68a64.78,64.78,0,0,1-21.68-3.42,46.86,46.86,0,0,1-16.45-9.68,42,42,0,0,1-10.39-15,49.5,49.5,0,0,1-3.61-19.16,48.22,48.22,0,0,1,.33-5.29,46,46,0,0,1,1.16-6.32,53.58,53.58,0,0,1,2.32-7,48.51,48.51,0,0,1,3.81-7.42,46.27,46.27,0,0,1,6.71-8.38,42.72,42.72,0,0,1,9.42-7,52.5,52.5,0,0,1,12.26-4.84,60,60,0,0,1,15.35-1.81,57.55,57.55,0,0,1,13.55,1.42,61.21,61.21,0,0,1,9.68,3.1,36.61,36.61,0,0,1,5.94,3.1,11.2,11.2,0,0,0,2.32,1.42,2.2,2.2,0,0,0,1-.58,20.5,20.5,0,0,0,1.55-1.42,25.64,25.64,0,0,0,1.74-1.94,27.56,27.56,0,0,0,1.67-2.26h1.42v28.9Z"/><path d="M141.93,250.45H115.56L96.75,357.09H58L76.78,250.45h-31l5-29.09H151.62Z"/><path d="M135,341.89l45-109.66h4.08l47.57,109.66h13V344H193.88v-2.11h14.05l-17.52-40.48H154.16l-16.77,40.48h13.44V344H122.29v-2.11Zm19.94-42.59h34.74L171.83,258Z"/><path d="M242.93,362.45H216.56l-18.8,106.64H159l18.81-106.64h-31l5-29.09H252.62Z"/><path d="M146.7,475.44h22.12v17H105.9v-17H128V386.59H109.53v-17H165v17H146.7Z"/><path d="M208.16,470.11A42.53,42.53,0,0,1,251,513c0,24.64-19.18,43.83-42.84,43.83S165.33,537.59,165.33,513A42.53,42.53,0,0,1,208.16,470.11Zm0,79.89c19.68,0,35.56-16,35.56-37,0-20.51-15.88-36.06-35.56-36.06S172.6,492.44,172.6,513C172.6,534,188.48,550,208.16,550Z"/><path d="M242.63,539.07v29c0,3.43-.73,6.86-5,6.86s-5-3.43-5-6.86v-41.8c0-3.64.42-7.38,5-7.38s5,3.74,5,7.28v1.35l8.11-5.3c2.6-1.66,5.41-3.33,8.63-3.33h7.38c3.85,0,6.24,1,9.25,3.64,4.47,3.85,4.26,8.11,4.47,13.52l1,31.41c.1,3.54-.42,7.49-4.89,7.49-4.06,0-4.89-3.43-5-6.76l-1-30.78c-.21-6.13-.73-8.53-6.76-8.53h-3.33a6,6,0,0,0-3.12.94Z"/><path d="M292.09,588.59a7.63,7.63,0,0,0-2.24-5.83,18.94,18.94,0,0,0-5.51-3.53c-2.2-.95-4.59-1.86-7.19-2.72a33.8,33.8,0,0,1-7.19-3.35,18.66,18.66,0,0,1-5.52-5.26q-2.22-3.22-2.23-8.67,0-8.92,5.08-13.08T281.43,542a45.77,45.77,0,0,1,11.21,1.17,43.06,43.06,0,0,1,7.87,2.79l-2.35,8.18a39.45,39.45,0,0,0-6.88-2.42,34.27,34.27,0,0,0-8.61-1q-5.46,0-8,1.86T272.13,559a6.1,6.1,0,0,0,2.23,5,24,24,0,0,0,5.52,3.22c2.19.95,4.59,1.89,7.19,2.79a31.13,31.13,0,0,1,7.19,3.59,19.82,19.82,0,0,1,5.51,5.64,16.11,16.11,0,0,1,2.24,9,21,21,0,0,1-1.3,7.43,15.09,15.09,0,0,1-4,5.95,19.49,19.49,0,0,1-6.76,3.9,28.46,28.46,0,0,1-9.48,1.42,45.87,45.87,0,0,1-12-1.36,37.74,37.74,0,0,1-8.31-3.22l3-8.43a36,36,0,0,0,7.43,3,32.53,32.53,0,0,0,9.3,1.36,16.63,16.63,0,0,0,8.79-2.11Q292.09,594,292.09,588.59Z"/></svg>