<svg id="Layer_1" data-name="Layer 1" xmlns="http://www.w3.org/2000/svg" viewBox="0 0 197 287"><title>forms</title><path d="M35.2,34.09v2.37a105.39,105.39,0,0,0-13.42.39c-.52,5.4-.65,10.92-.65,16.31v12.5c0,3,.13,8.42,2,10.91,3.42,1.06,9.07,1.06,10.39,1.06V80c-13-.26-23.16-.13-31.7-.13V77.5c7.37,0,9.21-1.18,10.93-2.37a19.89,19.89,0,0,0,.52-4.73c0-5.13-.14-31-1.06-34.07a49.45,49.45,0,0,0-7.75-.66H.86v-2.5H4.94a36.87,36.87,0,0,0,7.89-1.06C13.36,21.59,14.15,14,15.2,10.81c1.57-4.61,3.55-10,16.17-10C38,.81,44,3.31,44,8.84c0,2.37-.92,3.95-3.55,3.95-2.89,0-3.42-1.06-3.81-3.82-.52-3.55-1.71-5.39-6.05-5.39-7.24,0-9.34,5.26-9.34,16.71A69.12,69.12,0,0,0,22.17,33,56.63,56.63,0,0,0,32,34.09Z"/><path d="M65.16,60.11A42.53,42.53,0,0,1,108,103c0,24.64-19.18,43.83-42.84,43.83S22.33,127.59,22.33,103A42.53,42.53,0,0,1,65.16,60.11Zm0,79.89c19.68,0,35.56-16,35.56-37,0-20.51-15.88-36.06-35.56-36.06S29.6,82.44,29.6,103C29.6,124,45.48,140,65.16,140Z"/><path d="M76.63,183.39h7.51V105.25H76.63V103H123c12.55,0,26.28,6.22,26.28,20.42,0,11.73-11.26,18-21.71,19.13v.23c8.8.58,20.89,3.4,20.89,14.9v17.36c0,5.87,1.06,7.63,3.4,7.63,2.58,0,4.11-2.93,5-5.16l1.52,1.18c-2.93,6.92-8.09,8.33-15.6,8.33-9.39,0-16.9-5.52-16.9-16V158.63c0-9.39-2-14.78-9.39-14.78h-8.45v39.54h7.51v2.23h-39Zm31.45-41.77h5.16c9.86,0,12.79-5.28,12.79-16.9,0-14.43-3.4-19.48-11.38-19.48h-6.57Z"/><path d="M121.56,193.57h.19A14.76,14.76,0,0,1,133,187.75c5,0,9.09,2.64,10.64,7.09a17.11,17.11,0,0,1,14-7.09c10.91,0,12.19,8.91,10.73,17.91l-4.09,26H157l3.91-24.82c.91-5.55,1.64-12.36-5.82-12.36-8.37,0-10.54,8.09-11.64,14.55l-3.55,22.64h-7.27l3.82-24.28c.81-5.28,1.45-12.91-5.55-12.91-8.54,0-10.82,8.64-11.9,15.09l-3.46,22.1h-7.28L115,188.94h7.28Z"/><path d="M186.09,267.59a7.63,7.63,0,0,0-2.24-5.83,18.94,18.94,0,0,0-5.51-3.53c-2.2-.95-4.59-1.86-7.19-2.72a33.8,33.8,0,0,1-7.19-3.35,18.66,18.66,0,0,1-5.52-5.26q-2.22-3.22-2.23-8.67,0-8.92,5.08-13.08T175.43,221a45.77,45.77,0,0,1,11.21,1.17,43.06,43.06,0,0,1,7.87,2.79l-2.35,8.18a39.45,39.45,0,0,0-6.88-2.42,34.27,34.27,0,0,0-8.61-1q-5.46,0-8,1.86T166.13,238a6.1,6.1,0,0,0,2.23,5,24,24,0,0,0,5.52,3.22c2.19.95,4.59,1.89,7.19,2.79a31.13,31.13,0,0,1,7.19,3.59,19.82,19.82,0,0,1,5.51,5.64,16.11,16.11,0,0,1,2.24,9,21,21,0,0,1-1.3,7.43,15.09,15.09,0,0,1-4,5.95,19.49,19.49,0,0,1-6.76,3.9,28.46,28.46,0,0,1-9.48,1.42,45.87,45.87,0,0,1-12-1.36,37.74,37.74,0,0,1-8.31-3.22l3-8.43a36,36,0,0,0,7.43,3,32.53,32.53,0,0,0,9.3,1.36,16.63,16.63,0,0,0,8.79-2.11Q186.09,273,186.09,267.59Z"/></svg>