<svg id="Layer_1" data-name="Layer 1" xmlns="http://www.w3.org/2000/svg" viewBox="0 0 249 539"><title>readings</title><path d="M1.63,82.39H9.14V4.25H1.63V2H48C60.54,2,74.27,8.24,74.27,22.43c0,11.73-11.26,18-21.71,19.13v.23c8.8.58,20.89,3.4,20.89,14.9V74.06c0,5.87,1.06,7.63,3.4,7.63,2.58,0,4.11-2.93,5-5.16l1.52,1.18C80.48,84.62,75.32,86,67.81,86c-9.39,0-16.9-5.52-16.9-16V57.63c0-9.39-2-14.78-9.39-14.78H33.08V82.39h7.51v2.23h-39ZM33.08,40.62h5.16C48.1,40.62,51,35.34,51,23.72,51,9.29,47.63,4.25,39.65,4.25H33.08Z"/><path d="M54.27,113.38c.61,7.78,6.27,13.64,13.24,13.64A19.88,19.88,0,0,0,81,122.18l4,6.26c-5.05,5.36-11.52,8-19.61,8-13.64,0-22.74-9.9-22.74-24.56,0-13,10.11-23.75,22.54-23.75,7.18,0,12.33,2.32,16,7.18A20.3,20.3,0,0,1,85,107v.61l-4.15,5.76ZM75.2,106a10.1,10.1,0,0,0-10.31-9.7c-5.26,0-9.4,3.74-10.71,9.7Z"/><path d="M51,216.89,96,107.22h4.08l47.57,109.66h13V219H109.88v-2.11h14.05l-17.52-40.48H70.16L53.39,216.89H66.83V219H38.29v-2.11Zm19.94-42.59h34.74L87.83,133Z"/><path d="M197,317.84H165.64V305.66c-8.53,9.22-17.76,13.58-29.25,13.58-18.63,0-40.4-12.71-40.4-42.14,0-24.9,17.59-43.87,40.75-43.87,11.14,0,20.72,4.52,28.9,13.23V213.89H150V199.62h32V303.57h15ZM139.35,305c15.33,0,26.29-12.36,26.29-29.08,0-16.54-10.8-27.86-26.46-27.86-14.63,0-25.77,12.19-25.77,28.56C113.4,293.47,124,305,139.35,305Z"/><path d="M113.7,385.44h22.12v17H72.9v-17H95V296.59H76.53v-17H132v17H113.7Z"/><path d="M128.63,345.07v29c0,3.43-.73,6.86-5,6.86s-5-3.43-5-6.86v-41.8c0-3.64.42-7.38,5-7.38s5,3.74,5,7.28v1.35l8.11-5.3c2.6-1.66,5.41-3.33,8.63-3.33h7.38c3.85,0,6.24,1,9.25,3.64,4.47,3.85,4.26,8.11,4.47,13.52l1,31.41c.1,3.54-.42,7.49-4.89,7.49-4.06,0-4.89-3.43-5-6.76l-1-30.78c-.21-6.13-.73-8.53-6.76-8.53h-3.33a6,6,0,0,0-3.12.94Z"/><path d="M173.57,450.33q-1.32-.66-8.45-3.62-8.34-5.37-10.53-8a8.87,8.87,0,0,1-2.19-5.81,6.46,6.46,0,0,1,1.65-4.61q2.41-2.52,9.54-4.83a97.9,97.9,0,0,0,11.74-4.5q-1.43-1-4.5-2.85-16.34-10.09-16.34-28a33.42,33.42,0,0,1,10.36-24.84q10.36-10.15,26.6-10.15a41.76,41.76,0,0,1,13.49,2.08q3.51,1.1,10.42,5.48,4.39,2.74,5.16,3.07a13.21,13.21,0,0,0,3.95.55q1.86,0,9-.93t8.5-.93a8,8,0,0,1,4.17,1q1.32,2.19,1.32,7.35a3.45,3.45,0,0,1-.93,2.63,3.78,3.78,0,0,1-2.69.88q-3.07,0-10.15-1.92t-8.61-1.92a18,18,0,0,0-2.08.22q4.72,9.43,4.72,17.22T222.82,404a32.61,32.61,0,0,1-13.6,12.72,38.48,38.48,0,0,1-17.55,4.39q-.66,0-3.73-.11a35.47,35.47,0,0,0-18.54,5q-4.06,2.52-4.06,4.72t3.95,4.5q10.42,5.59,39.49,6.47,12.61.44,19.63,3.62A22.54,22.54,0,0,1,239,454.77a25.31,25.31,0,0,1,3.56,12.78,25.85,25.85,0,0,1-6,16.45q-6,7.57-18.32,12.28T190,501q-17.55,0-27.09-4.28t-13.55-9.32q-4-5-4-10,0-4.28,4.39-10.69T168,453.29Q172,451.2,173.57,450.33Zm-8,38.94q10,7.68,25.23,7.68a70.76,70.76,0,0,0,21.66-3.45q10.8-3.45,15.79-9.87t5-12.12a15.24,15.24,0,0,0-1.75-7,16.09,16.09,0,0,0-4.77-5.7,23.27,23.27,0,0,0-8-3.56,51.92,51.92,0,0,0-10-1.43q-18.43-1.43-22.59-1.43a31.3,31.3,0,0,0-20.95,7.9q-7.13,6.14-7.13,14.7Q158.11,482.9,165.56,489.26Zm3.62-101.57q0,9.87,3,16.51a21.62,21.62,0,0,0,8.12,9.87,19.42,19.42,0,0,0,10.42,3.24A20.07,20.07,0,0,0,206.53,410q6.31-7.29,6.31-22.21t-6.58-22.87q-6.58-7.84-15.9-7.84-10.42,0-15.79,7.46T169.18,387.7Z"/><path d="M228.09,518.59a7.63,7.63,0,0,0-2.24-5.83,18.94,18.94,0,0,0-5.51-3.53c-2.2-.95-4.59-1.86-7.19-2.72a33.8,33.8,0,0,1-7.19-3.35,18.66,18.66,0,0,1-5.52-5.26q-2.22-3.22-2.23-8.67,0-8.92,5.08-13.08T217.43,472a45.77,45.77,0,0,1,11.21,1.17,43.06,43.06,0,0,1,7.87,2.79l-2.35,8.18a39.45,39.45,0,0,0-6.88-2.42,34.27,34.27,0,0,0-8.61-1q-5.46,0-8,1.86T208.13,489a6.1,6.1,0,0,0,2.23,5,24,24,0,0,0,5.52,3.22c2.19.95,4.59,1.89,7.19,2.79a31.13,31.13,0,0,1,7.19,3.59,19.82,19.82,0,0,1,5.51,5.64,16.11,16.11,0,0,1,2.24,9,21,21,0,0,1-1.3,7.43,15.09,15.09,0,0,1-4,5.95,19.49,19.49,0,0,1-6.76,3.9,28.46,28.46,0,0,1-9.48,1.42,45.87,45.87,0,0,1-12-1.36,37.74,37.74,0,0,1-8.31-3.22l3-8.43a36,36,0,0,0,7.43,3,32.53,32.53,0,0,0,9.3,1.36,16.63,16.63,0,0,0,8.79-2.11Q228.09,524,228.09,518.59Z"/></svg>