<?xml version="1.0" encoding="utf-8"?>
<!-- Generator: Adobe Illustrator 21.1.0, SVG Export Plug-In . SVG Version: 6.00 Build 0)  -->
<svg version="1.1" id="Layer_1" xmlns="http://www.w3.org/2000/svg" xmlns:xlink="http://www.w3.org/1999/xlink" x="0px" y="0px"
	 viewBox="0 0 500 224" style="enable-background:new 0 0 500 224;" xml:space="preserve">
<style type="text/css">
	.st0{fill:#FF3D0C;}
</style>
<title>action-mailer</title>
<path class="st0" d="M52.7,90l10.6,10.6H30.9l10.9-10.9l25.8-72.4h16.1L110,89.7l10.9,10.9H74.4L85,90l-3.8-11.1H56.5L52.7,90z
	 M69.1,43.3l-8.7,25.1h17.3L69.1,43.3z"/>
<path class="st0" d="M181.6,21.7V46l-15-15c-3.4-3.4-6.1-5.1-10.9-5.1c-15.1,0-15.4,18.5-15.4,33s0.1,33,15.4,33
	c4.8,0,7.3-1.8,10.9-5.2l15-14.8v24.3c-9,5.4-15.7,6.2-25.8,6.2c-21.4,0-40.3-20.4-40.3-43.4s17.8-43.4,40.3-43.4
	C166,15.5,172.6,16.4,181.6,21.7z"/>
<path class="st0" d="M246.7,100.6h-43.4L214,89.9V27.7h-10.4l-13.1,13.1V17.4h69.1v23.4l-13-13.1h-10.5v62.2L246.7,100.6z"/>
<path class="st0" d="M308.3,17.4l-10.7,10.7v61.8l10.7,10.7h-43.4l10.6-10.7V28.1l-10.6-10.7C264.9,17.4,308.3,17.4,308.3,17.4z"/>
<path class="st0" d="M352.7,15c23.4,0,40.5,20.7,40.5,44s-17.1,44-40.5,44s-40.3-20.7-40.3-44S329.5,15,352.7,15z M368.2,59
	c0-14.5-1.4-33.6-15.5-33.6s-15.4,19-15.4,33.6s1.4,33.6,15.4,33.6S368.2,73.5,368.2,59z"/>
<path class="st0" d="M429.2,100.6h-33l10.7-10.7V28.1l-10.7-10.7h27.9l31,43.3V28.1l-10.7-10.7h32.9l-10.7,10.7v84.1l-48.1-67.7
	v45.4L429.2,100.6z"/>
<path class="st0" d="M28.2,202.1l10.7-10.7v-61.8l-10.7-10.7h33.7l18,32l17.9-32h32.6l-10.7,10.7v61.8l10.7,10.7H87l10.7-10.7v-49.1
	L74,184.7l-23.5-42.6v49.2L61.2,202L28.2,202.1z"/>
<path class="st0" d="M149.2,191.5l10.6,10.6h-32.4l10.9-10.9l25.8-72.4h16.1l26.4,72.3l10.9,10.9h-46.4l10.6-10.6l-3.8-11.1H153
	L149.2,191.5z M165.5,144.8l-8.7,25.1h17.4L165.5,144.8z"/>
<path class="st0" d="M259,118.9l-10.7,10.7v61.8l10.7,10.7h-43.4l10.6-10.7v-61.8l-10.6-10.7L259,118.9z"/>
<path class="st0" d="M327,178.7v23.4h-65.7l10.7-10.7v-61.8l-10.7-10.7h43.6l-10.7,10.7v62.2H314L327,178.7z"/>
<path class="st0" d="M329.4,202.1l10.7-10.7v-61.8l-10.7-10.7h65.2v23.4l-13.1-13.1h-19.2v23.1h12.8l10.6-10.6v31.7l-10.6-10.7
	h-12.8v29h19.2l13.1-13.1V202L329.4,202.1z"/>
<path class="st0" d="M482.2,202.1h-30.3l-17.3-36.4h-4.1v25.7l10.7,10.7h-43.6l10.7-10.7v-61.8l-10.7-10.7h36.5
	c16.2,0,35.7,6.2,35.7,23.4c0,9.3-6.2,15.9-14.7,19.3l16.4,29.8L482.2,202.1z M430.4,155.2h3.7c6.6,0,11.9-6.2,11.9-13
	s-5.2-13.1-11.9-13.1h-3.7V155.2z"/>
</svg>
