<?xml version="1.0" encoding="utf-8"?>
<!-- Generator: Adobe Illustrator 18.1.1, SVG Export Plug-In . SVG Version: 6.00 Build 0)  -->
<svg version="1.1" id="Layer_1" xmlns="http://www.w3.org/2000/svg" xmlns:xlink="http://www.w3.org/1999/xlink" x="0px" y="0px"
	 viewBox="0 0 792 612" enable-background="new 0 0 792 612" xml:space="preserve">
<rect x="382.8" y="305.1" fill="#AF2071" width="7.2" height="18.9"/>
<rect x="257.8" y="283" fill="#AF2071" width="13" height="13"/>
<rect x="257.8" y="315" fill="#AF2071" width="13" height="13"/>
<rect x="257.8" y="296" fill="#EE3B43" width="13" height="19"/>
<rect x="257.8" y="328" fill="#EE3B43" width="13" height="18"/>
<path fill="#72CDF4" d="M270.8,283.1v13c5,0.2,9.1,4.4,9.1,9.5s-4,9.2-9.1,9.5v13c12.1-0.3,21.9-10.2,21.9-22.4
	S282.9,283.4,270.8,283.1z"/>
<rect x="424.1" y="308.2" fill="#AF2071" width="12.9" height="13"/>
<rect x="437" y="308.2" fill="#EE3B43" width="18.9" height="13"/>
<rect x="437.2" y="283.1" fill="#FEE609" width="18.8" height="13"/>
<rect x="424.1" y="283" fill="#72CDF4" width="12.9" height="25.1"/>
<rect x="424.1" y="321.2" fill="#72CDF4" width="12.9" height="24.9"/>
<rect x="370.1" y="283.1" fill="#FEE609" width="12.9" height="62.9"/>
<polygon fill="#EE3B43" points="414.9,346 399.8,346 383,324.1 390.1,314.6 "/>
<polygon fill="#72CDF4" points="414.9,283.1 399.8,283.1 383,305.1 390.1,314.7 "/>
<rect x="475.8" y="283.1" fill="#AF2071" width="12.9" height="13"/>
<rect x="475.8" y="296.1" fill="#EE3B43" width="12.9" height="49.9"/>
<rect x="463.9" y="283.1" fill="#72CDF4" width="11.9" height="13"/>
<rect x="488.7" y="283.1" fill="#72CDF4" width="12" height="13"/>
<rect x="437.2" y="333.1" fill="#FEE609" width="18.8" height="13"/>
<g>
	<path fill="#72CDF4" d="M330.6,283.2C330.6,283.2,330.5,283.2,330.6,283.2l0,11.5c0,0,0,0,0,0c11.1,0,20.1,9,20.1,20.1c0,0,0,0,0,0
		h11.5c0,0,0,0,0,0C362.2,297.4,348,283.2,330.6,283.2z"/>
	<path fill="#FEE609" d="M362.2,314.9h-11.5c0,11.1-9,20-20,20.1v11.5C348,346.4,362.2,332.3,362.2,314.9z"/>
	<path fill="#EE3B43" d="M330.6,334.9C330.6,334.9,330.6,334.9,330.6,334.9c-11.1,0-20.1-9-20.1-20.1c0,0,0,0,0,0H299c0,0,0,0,0,0
		c0,17.5,14.1,31.6,31.6,31.6c0,0,0,0,0,0V334.9z"/>
	<path fill="#FEE609" d="M299,314.8h11.5c0-11.1,9-20,20-20.1v-11.5C313.1,283.3,299,297.4,299,314.8z"/>
</g>
<g>
	<path fill="#72CDF4" d="M568.1,314.8C568.1,314.8,568.1,314.8,568.1,314.8l-11.5,0c0,0,0,0,0,0c0,11.1-9,20.1-20.1,20.1
		c0,0,0,0,0,0v11.5c0,0,0,0,0,0C554,346.4,568.1,332.3,568.1,314.8z"/>
	<path fill="#FEE609" d="M536.5,346.4v-11.5c-11.1,0-20-9-20.1-20h-11.5C505,332.3,519.1,346.4,536.5,346.4z"/>
	<path fill="#EE3B43" d="M516.5,314.9C516.5,314.9,516.5,314.9,516.5,314.9c0-11.1,9-20.1,20.1-20.1c0,0,0,0,0,0v-11.5c0,0,0,0,0,0
		c-17.5,0-31.6,14.1-31.6,31.6c0,0,0,0,0,0H516.5z"/>
	<path fill="#FEE609" d="M536.5,283.2v11.5c11.1,0,20,9,20.1,20h11.5C568.1,297.4,554,283.3,536.5,283.2z"/>
</g>
</svg>
