<svg xmlns="http://www.w3.org/2000/svg" viewBox="0 0 841.75 364"><defs><style>.cls-1,.cls-2{fill:none;}.cls-1,.cls-5{stroke:#407bff;}.cls-1,.cls-2,.cls-3,.cls-5{stroke-linecap:round;stroke-miterlimit:10;stroke-width:2px;}.cls-2,.cls-3{stroke:#e29334;}.cls-3,.cls-4{fill:#e29334;}.cls-5,.cls-6{fill:#407bff;}</style></defs><title>diagrams</title><g id="Layer_1" data-name="Layer 1"><line class="cls-1" x1="1.25" y1="363" x2="61.25" y2="303"/><line class="cls-2" x1="61.25" y1="303" x2="120.75" y2="362.5"/><line class="cls-1" x1="121.25" y1="363" x2="181.25" y2="303"/><line class="cls-2" x1="181.25" y1="303" x2="240.75" y2="362.5"/><line class="cls-1" x1="241.25" y1="363" x2="301.25" y2="303"/><line class="cls-2" x1="301.25" y1="303" x2="360.75" y2="362.5"/><line class="cls-1" x1="361.25" y1="363" x2="421.25" y2="303"/><line class="cls-2" x1="421.25" y1="303" x2="480.75" y2="362.5"/><line class="cls-1" x1="481.25" y1="363" x2="541.25" y2="303"/><line class="cls-2" x1="541.25" y1="303" x2="600.75" y2="362.5"/><line class="cls-1" x1="601.25" y1="363" x2="661.25" y2="303"/><line class="cls-2" x1="661.25" y1="303" x2="720.75" y2="362.5"/><line class="cls-1" x1="721.25" y1="363" x2="781.25" y2="303"/><line class="cls-2" x1="781.25" y1="303" x2="840.75" y2="362.5"/><path class="cls-2" d="M783.83,72.24a34.35,34.35,0,1,0-68,7.08c-7.29-8-11.55-17.67-11.55-28.07C704.32,23.5,734.65,1,772.07,1s67.74,22.5,67.74,50.25-30.33,50.25-67.74,50.25c-1.49,0-3,0-4.42-.11A34.32,34.32,0,0,0,783.83,72.24Z"/><path class="cls-3" d="M715.87,79.32a34.35,34.35,0,1,1,51.78,22.07C746.09,100.36,727.27,91.85,715.87,79.32Z"/><line class="cls-2" x1="721" y1="119" x2="608.62" y2="290.41"/><path class="cls-4" d="M602,300.5c1.35-5.91,2.21-13.77,1.42-19.51l6.07,8.09,9.84,2.34C613.75,293,606.88,296.9,602,300.5Z"/><path class="cls-2" d="M588.78,72.24a34.35,34.35,0,1,0-68,7.08c-7.29-8-11.55-17.67-11.55-28.07C509.27,23.5,539.59,1,577,1s67.74,22.5,67.74,50.25S614.42,101.5,577,101.5c-1.49,0-3,0-4.42-.11A34.32,34.32,0,0,0,588.78,72.24Z"/><path class="cls-3" d="M520.81,79.32a34.35,34.35,0,1,1,51.78,22.07C551,100.36,532.21,91.85,520.81,79.32Z"/><line class="cls-2" x1="535.75" y1="119" x2="371.32" y2="291.76"/><path class="cls-4" d="M363,300.5c2.39-5.57,4.64-13.15,4.9-18.94l4.52,9,9.26,4.06C375.9,295.21,368.44,297.84,363,300.5Z"/><path class="cls-1" d="M57,72.24a34.35,34.35,0,1,1,68,7.08c7.29-8,11.55-17.67,11.55-28.07C136.48,23.5,106.16,1,68.74,1S1,23.5,1,51.25,31.33,101.5,68.74,101.5c1.49,0,3,0,4.42-.11A34.32,34.32,0,0,1,57,72.24Z"/><path class="cls-5" d="M124.94,79.32a34.35,34.35,0,1,0-51.78,22.07C94.72,100.36,113.54,91.85,124.94,79.32Z"/><line class="cls-1" x1="119.81" y1="119" x2="232.19" y2="290.41"/><path class="cls-6" d="M238.81,300.5c-4.88-3.59-11.75-7.52-17.33-9.08l9.84-2.34,6.07-8.09C236.6,286.73,237.45,294.6,238.81,300.5Z"/><path class="cls-1" d="M252,72.24a34.35,34.35,0,1,1,68,7.08c7.29-8,11.55-17.67,11.55-28.07C331.54,23.5,301.21,1,263.8,1s-67.74,22.5-67.74,50.25,30.33,50.25,67.74,50.25c1.49,0,3,0,4.42-.11A34.32,34.32,0,0,1,252,72.24Z"/><path class="cls-5" d="M320,79.32a34.35,34.35,0,1,0-51.78,22.07C289.78,100.36,308.6,91.85,320,79.32Z"/><line class="cls-1" x1="305.06" y1="119" x2="469.49" y2="291.76"/><path class="cls-6" d="M477.81,300.5c-5.44-2.66-12.9-5.29-18.68-5.82l9.26-4.07,4.52-9C473.16,287.35,475.42,294.93,477.81,300.5Z"/></g></svg>