<svg xmlns="http://www.w3.org/2000/svg" viewBox="0 0 642.88 1259.65"><defs><style>.cls-1,.cls-4{fill:none;stroke:#fff;stroke-miterlimit:10;}.cls-1{opacity:0.3;}.cls-2{fill:#e29334;}.cls-3{fill:#407bff;}.cls-5{fill:#fff;}</style></defs><title>diagrams</title><g id="Layer_3" data-name="Layer 3"><line class="cls-1" x1="333.94" y1="1257.5" x2="1.94" y2="1257.5"/></g><g id="Layer_2" data-name="Layer 2"><polygon class="cls-2" points="437.75 415.5 500.75 465.5 475.96 465.5 412.95 415.5 437.75 415.5"/><polygon class="cls-2" points="512.14 415.5 536.94 415.5 599.94 465.5 575.14 465.5 512.14 415.5"/><polygon class="cls-2" points="525.55 465.5 462.55 415.5 487.35 415.5 550.35 465.5 525.55 465.5"/><polygon class="cls-2" points="388.17 415.5 451.16 465.5 443.52 465.5 380.52 415.5 388.17 415.5"/><polygon class="cls-3" points="500.75 465.5 437.75 415.5 462.55 415.5 525.55 465.5 500.75 465.5"/><polygon class="cls-3" points="388.17 415.5 412.95 415.5 475.96 465.5 451.16 465.5 388.17 415.5"/><polygon class="cls-3" points="512.14 415.5 575.14 465.5 550.35 465.5 487.35 415.5 512.14 415.5"/><polygon class="cls-2" points="452.65 892.5 431.6 892.5 381.82 672.5 402.88 672.5 452.65 892.5"/><polygon class="cls-2" points="608.95 892.5 582.9 892.5 533.11 672.5 559.16 672.5 608.95 892.5"/><polygon class="cls-3" points="530.8 892.5 504.75 892.5 454.97 672.5 481.02 672.5 530.8 892.5"/><polygon class="cls-2" points="428.93 672.5 454.97 672.5 504.75 892.5 478.7 892.5 428.93 672.5"/><polygon class="cls-2" points="481.02 672.5 507.06 672.5 556.85 892.5 530.8 892.5 481.02 672.5"/><polygon class="cls-3" points="478.7 892.5 452.65 892.5 402.88 672.5 428.93 672.5 478.7 892.5"/><polygon class="cls-3" points="507.06 672.5 533.11 672.5 582.9 892.5 556.85 892.5 507.06 672.5"/></g><g id="Layer_1" data-name="Layer 1"><line class="cls-4" x1="537.44" y1="415.5" x2="600.86" y2="465.5"/><polyline class="cls-4" points="303.94 114.5 105.94 114.5 1.94 33"/><line class="cls-4" x1="303.44" y1="82.5" x2="303.44" y2="114.5"/><line class="cls-4" x1="105.44" y1="82.5" x2="105.44" y2="114.5"/><line class="cls-4" x1="1.44" y1="0.5" x2="1.44" y2="32.5"/><polygon class="cls-4" points="1.44 0.5 199.44 0.5 303.44 82.5 105.44 82.5 1.44 0.5"/><line class="cls-4" x1="443.44" y1="465.5" x2="443.44" y2="497.5"/><line class="cls-4" x1="339.44" y1="383.5" x2="339.44" y2="415.5"/><polyline class="cls-4" points="537.44 384 537.44 416 380.48 416"/><polygon class="cls-4" points="339.44 383.5 537.44 383.5 641.44 465.5 443.44 465.5 339.44 383.5"/><polygon class="cls-4" points="339.44 383.5 537.44 383.5 504.44 213.5 306.44 213.5 339.44 383.5"/><polyline class="cls-4" points="641.44 465.5 641.94 497.5 443.94 497.5 339.44 415.5"/><line class="cls-4" x1="339.44" y1="416" x2="339.44" y2="383.5"/><path class="cls-4" d="M592.44,400.5s13-67-41.67-96.85"/><polygon class="cls-5" points="544.44 300.5 555.15 301.39 551.2 303.94 551.46 308.64 544.44 300.5"/><polygon class="cls-4" points="639.44 892.5 431.44 892.5 373.44 639.5 581.44 639.5 639.44 892.5"/><line class="cls-4" x1="373.44" y1="639.5" x2="351.44" y2="672.5"/><line class="cls-4" x1="581.44" y1="639.5" x2="559.44" y2="672.5"/><line class="cls-4" x1="559.44" y1="672.5" x2="609.44" y2="892.5"/><line class="cls-4" x1="559.44" y1="672.5" x2="381.44" y2="672.5"/><line class="cls-4" x1="351.44" y1="672.5" x2="408.44" y2="925.5"/><line class="cls-4" x1="351.44" y1="672.5" x2="323.44" y2="911.5"/><line class="cls-4" x1="322.94" y1="911.5" x2="401.44" y2="911.5"/><rect class="cls-4" x="306.44" y="190.5" width="198" height="23"/><polyline class="cls-4" points="404.94 911.5 322.44 911.5 313.44 888.5 325.94 888.5"/><rect class="cls-4" x="184.69" y="966.98" width="39" height="291.98" transform="translate(-281.1 90.77) rotate(-15)"/><line class="cls-4" x1="147.81" y1="977.5" x2="93.81" y2="1257.5"/><line class="cls-4" x1="75.07" y1="1252.34" x2="93.81" y2="1257.5"/><path class="cls-4" d="M318,708.33a83,83,0,1,1,138.81-85.87"/><path class="cls-5" d="M322.24,712.65a30.22,30.22,0,0,1-2.51-9.45l-2.23,4.54-4.62,2.06A30.2,30.2,0,0,1,322.24,712.65Z"/><polygon class="cls-4" points="346.54 313.77 442.94 313.77 426.88 231 330.47 231 346.54 313.77"/><line class="cls-4" x1="487.81" y1="231.5" x2="442.47" y2="231.5"/><line class="cls-4" x1="491.05" y1="246.06" x2="445.71" y2="246.06"/><line class="cls-4" x1="494.29" y1="260.61" x2="448.95" y2="260.61"/><line class="cls-4" x1="497.52" y1="275.17" x2="452.18" y2="275.17"/><line class="cls-4" x1="500.76" y1="289.72" x2="455.42" y2="289.72"/><line class="cls-4" x1="504" y1="304.28" x2="458.66" y2="304.28"/><line class="cls-4" x1="507.23" y1="318.83" x2="461.89" y2="318.83"/><line class="cls-4" x1="510.47" y1="333.39" x2="465.13" y2="333.39"/><line class="cls-4" x1="513.71" y1="347.94" x2="468.37" y2="347.94"/><line class="cls-4" x1="516.94" y1="362.5" x2="471.6" y2="362.5"/><line class="cls-4" x1="617.94" y1="925.5" x2="407.94" y2="925.5"/><line class="cls-4" x1="639.44" y1="892.5" x2="617.44" y2="925.5"/><line class="cls-4" x1="431.44" y1="892.5" x2="408.44" y2="925.5"/></g></svg>